  0
SECTION
  2
HEADER
  9
$ACADVER
  1
AC1009
  9
$INSBASE
 10
0.0
 20
0.0
 30
0.0
  9
$EXTMIN
 10
0.0
 20
0.0
 30
0.0
  9
$EXTMAX
 10
0.0
 20
0.0
 30
0.0
  0
ENDSEC
  0
SECTION
  2
TABLES
  0
TABLE
  2
VPORT
 70
1
  0
VPORT
  2
*ACTIVE
 70
0
 10
0.0
 20
0.0
 11
1.0
 21
1.0
 12
-5.0
 22
1.0
 13
0.0
 23
0.0
 14
0.1
 24
0.1
 15
0.1
 25
0.1
 16
0.0
 26
0.0
 36
1.0
 17
0.0
 27
0.0
 37
0.0
 40
10.0
 41
1.0
 42
50.0
 43
0.0
 44
0.0
 50
0.0
 51
0.0
 71
0
 72
100
 73
1
 74
1
 75
0
 76
0
 77
0
 78
0
  0
ENDTAB
  0
TABLE
  2
LTYPE
 70
8
  0
LTYPE
  2
CONTINUOUS
 70
0
  3
Solid line
 72
65
 73
0
 40
0.0
  0
LTYPE
  2
DOT
 70
0
  3
. . . . . . .
 72
65
 73
2
 40
0.25
 49
0.0
 49
-0.25
  0
LTYPE
  2
DASHED
 70
0
  3
__ __ __ __ __
 72
65
 73
2
 40
0.8
 49
0.5
 49
-0.3
  0
LTYPE
  2
DASHDOT
 70
0
  3
__ . __ . __ .
 72
65
 73
4
 40
1.0
 49
0.5
 49
-0.25
 49
0.0
 49
-0.25
  0
LTYPE
  2
DIVIDE
 70
0
  3
____ . . ____ . . 
 72
65
 73
6
 40
1.25
 49
0.5
 49
-0.25
 49
0.0
 49
-0.25
 49
0.0
 49
-0.25
  0
LTYPE
  2
BORDER
 70
0
  3
__ __ . __ __ . 
 72
65
 73
6
 40
1.75
 49
0.5
 49
-0.25
 49
0.5
 49
-0.25
 49
0.0
 49
-0.25
  0
LTYPE
  2
HIDDEN
 70
0
  3
__ __ __ __ __
 72
65
 73
2
 40
0.4
 49
0.25
 49
-0.25
  0
LTYPE
  2
CENTER
 70
0
  3
____ _ ____ _ __
 72
65
 73
4
 40
2.0
 49
1.25
 49
-0.25
 49
0.25
 49
-0.25
  0
ENDTAB
  0
TABLE
  2
LAYER
 70
1
  0
LAYER
  2
PYDXF
 70
64
 62
7
  6
continuous
  0
ENDTAB
  0
TABLE
  2
STYLE
 70
1
  0
STYLE
  2
STANDARD
 70
0
 40
0
 41
1.0
 50
0.0
 71
0
 42
1
 3
ARIAL.TTF
 4

  0
ENDTAB
  0
TABLE
  2
VIEW
 70
1
  0
VIEW
  2
BF_TOPVIEW
 70
0
 40
120.0
 10
0.0
 20
0.0
 41
200.0
 11
0.0
 21
0.0
 31
1.0
 12
0.0
 22
0.0
 32
0.0
 42
50.0
 43
0.0
 44
0.0
 50
0.0
 71
0
  0
ENDTAB
  0
ENDSEC
  0
SECTION
  2
BLOCKS
  0
ENDSEC
  0
SECTION
  2
ENTITIES
  0
3DFACE
  8
0
 10
0.0
 20
0.006199988536536694
 30
0.017232052981853485
 11
0.0
 21
0.006199988536536694
 31
0.018062308430671692
 12
0.0
 22
0.006199988536536694
 32
0.018854431807994843
 13
0.0
 23
0.006199988536536694
 33
0.018854431807994843
  0
3DFACE
  8
0
 10
0.0
 20
0.006199988536536694
 30
0.018854431807994843
 11
0.0
 21
0.006199989002197981
 31
0.01961008831858635
 12
0.0
 22
0.006199989002197981
 32
0.02033095434308052
 13
0.0
 23
0.006199989002197981
 33
0.02033095434308052
  0
3DFACE
  8
0
 10
0.0
 20
0.006199989002197981
 30
0.02033095434308052
 11
0.0
 21
0.006199989002197981
 31
0.02101869322359562
 12
0.0
 22
0.006199989467859268
 32
0.021674979478120804
 13
0.0
 23
0.006199989467859268
 33
0.021674979478120804
  0
3DFACE
  8
0
 10
0.0
 20
0.006199989467859268
 30
0.021674979478120804
 11
0.0
 21
0.006199989467859268
 31
0.022301482036709785
 12
0.0
 22
0.006199989467859268
 32
0.022899866104125977
 13
0.0
 23
0.006199989467859268
 33
0.022899866104125977
  0
3DFACE
  8
0
 10
0.0
 20
0.006199989467859268
 30
0.022899866104125977
 11
0.0
 21
0.0061999899335205555
 31
0.023471808061003685
 12
0.0
 22
0.0061999899335205555
 32
0.024018973112106323
 13
0.0
 23
0.0061999899335205555
 33
0.024018973112106323
  0
3DFACE
  8
0
 10
0.0
 20
0.0061999899335205555
 30
0.024018973112106323
 11
0.0
 21
0.006199990399181843
 31
0.02454303205013275
 12
0.0
 22
0.006199990399181843
 32
0.02504565380513668
 13
0.0
 23
0.006199990399181843
 33
0.02504565380513668
  0
3DFACE
  8
0
 10
0.0
 20
0.006199990399181843
 30
0.02504565380513668
 11
0.0
 21
0.00619999086484313
 31
0.026073655113577843
 12
0.0
 22
0.006199991330504417
 32
0.0270083025097847
 13
0.0
 23
0.006199991330504417
 33
0.0270083025097847
  0
3DFACE
  8
0
 10
0.0
 20
0.006199991330504417
 30
0.0270083025097847
 11
0.0
 21
0.006199992261826992
 31
0.02785106562077999
 12
0.0
 22
0.006199992727488279
 32
0.028603393584489822
 13
0.0
 23
0.006199992727488279
 33
0.028603393584489822
  0
3DFACE
  8
0
 10
0.0
 20
0.006199992727488279
 30
0.028603393584489822
 11
0.0
 21
0.006199993193149567
 31
0.029266737401485443
 12
0.0
 22
0.006199993658810854
 32
0.029842551797628403
 13
0.0
 23
0.006199993658810854
 33
0.029842551797628403
  0
3DFACE
  8
0
 10
0.0
 20
0.006199993658810854
 30
0.029842551797628403
 11
0.0
 21
0.006199994124472141
 31
0.030332285910844803
 12
0.0
 22
0.006199995055794716
 32
0.030737390741705894
 13
0.0
 23
0.006199995055794716
 33
0.030737390741705894
  0
3DFACE
  8
0
 10
0.0
 20
0.006199995055794716
 30
0.030737390741705894
 11
0.0
 21
0.006199995521456003
 31
0.031059322878718376
 12
0.0
 22
0.0061999959871172905
 32
0.03129952773451805
 13
0.0
 23
0.0061999959871172905
 33
0.03129952773451805
  0
3DFACE
  8
0
 10
0.0
 20
0.0061999959871172905
 30
0.03129952773451805
 11
0.0
 21
0.006199996918439865
 31
0.03145946189761162
 12
0.0
 22
0.006199997384101152
 32
0.03154057636857033
 13
0.0
 23
0.006199997384101152
 33
0.03154057636857033
  0
3DFACE
  8
0
 10
0.0
 20
0.006199995055794716
 30
0.030737390741705894
 11
0.0
 21
0.0061999959871172905
 31
0.03129952773451805
 12
0.0
 22
0.006199997384101152
 32
0.03154057636857033
 13
0.0
 23
0.006199997384101152
 33
0.03154057636857033
  0
3DFACE
  8
0
 10
0.0
 20
0.006199992727488279
 30
0.028603393584489822
 11
0.0
 21
0.006199993658810854
 31
0.029842551797628403
 12
0.0
 22
0.006199995055794716
 32
0.030737390741705894
 13
0.0
 23
0.006199995055794716
 33
0.030737390741705894
  0
3DFACE
  8
0
 10
0.0
 20
0.006199990399181843
 30
0.02504565380513668
 11
0.0
 21
0.006199991330504417
 31
0.0270083025097847
 12
0.0
 22
0.006199992727488279
 32
0.028603393584489822
 13
0.0
 23
0.006199992727488279
 33
0.028603393584489822
  0
3DFACE
  8
0
 10
0.0
 20
0.006199989467859268
 30
0.022899866104125977
 11
0.0
 21
0.0061999899335205555
 31
0.024018973112106323
 12
0.0
 22
0.006199990399181843
 32
0.02504565380513668
 13
0.0
 23
0.006199990399181843
 33
0.02504565380513668
  0
3DFACE
  8
0
 10
0.0
 20
0.006199989002197981
 30
0.02033095434308052
 11
0.0
 21
0.006199989467859268
 31
0.021674979478120804
 12
0.0
 22
0.006199989467859268
 32
0.022899866104125977
 13
0.0
 23
0.006199989467859268
 33
0.022899866104125977
  0
3DFACE
  8
0
 10
0.0
 20
0.006199988536536694
 30
0.017232052981853485
 11
0.0
 21
0.006199988536536694
 31
0.018854431807994843
 12
0.0
 22
0.006199989002197981
 32
0.02033095434308052
 13
0.0
 23
0.006199989002197981
 33
0.02033095434308052
  0
3DFACE
  8
0
 10
0.0
 20
0.0061999899335205555
 30
0.016302214935421944
 11
0.0
 21
0.006199988536536694
 31
0.017232052981853485
 12
0.0
 22
0.006199989002197981
 32
0.02033095434308052
 13
0.0
 23
0.006199989002197981
 33
0.02033095434308052
  0
3DFACE
  8
0
 10
0.0
 20
0.006199989002197981
 30
0.02033095434308052
 11
0.0
 21
0.006199989467859268
 31
0.022899866104125977
 12
0.0
 22
0.006199990399181843
 32
0.02504565380513668
 13
0.0
 23
0.006199990399181843
 33
0.02504565380513668
  0
3DFACE
  8
0
 10
0.0
 20
0.006199990399181843
 30
0.02504565380513668
 11
0.0
 21
0.006199992727488279
 31
0.028603393584489822
 12
0.0
 22
0.006199995055794716
 32
0.030737390741705894
 13
0.0
 23
0.006199995055794716
 33
0.030737390741705894
  0
3DFACE
  8
0
 10
0.0
 20
0.006199990399181843
 30
0.02504565380513668
 11
0.0
 21
0.006199995055794716
 31
0.030737390741705894
 12
0.0
 22
0.006199997384101152
 32
0.03154057636857033
 13
0.0
 23
0.006199997384101152
 33
0.03154057636857033
  0
3DFACE
  8
0
 10
0.0
 20
0.0061999899335205555
 30
0.016302214935421944
 11
0.0
 21
0.006199989002197981
 31
0.02033095434308052
 12
0.0
 22
0.006199990399181843
 32
0.02504565380513668
 13
0.0
 23
0.006199990399181843
 33
0.02504565380513668
  0
3DFACE
  8
0
 10
0.0
 20
0.0061999899335205555
 30
0.016255181282758713
 11
0.0
 21
0.0061999899335205555
 31
0.016302214935421944
 12
0.0
 22
0.006199990399181843
 32
0.02504565380513668
 13
0.0
 23
0.006199990399181843
 33
0.02504565380513668
  0
3DFACE
  8
0
 10
0.0
 20
0.006199990399181843
 30
0.02504565380513668
 11
0.0
 21
0.006199997384101152
 31
0.03154057636857033
 12
0.0
 22
0.006199997384101152
 32
0.031542159616947174
 13
0.0
 23
0.006199997384101152
 33
0.031542159616947174
  0
3DFACE
  8
0
 10
0.0
 20
0.006199990399181843
 30
0.02504565380513668
 11
0.0
 21
0.006199997384101152
 31
0.031542159616947174
 12
0.0
 22
0.006199997384101152
 32
0.031543806195259094
 13
0.0
 23
0.006199997384101152
 33
0.031543806195259094
  0
3DFACE
  8
0
 10
0.0
 20
0.0061999899335205555
 30
0.016191627830266953
 11
0.0
 21
0.0061999899335205555
 31
0.016255181282758713
 12
0.0
 22
0.006199990399181843
 32
0.02504565380513668
 13
0.0
 23
0.006199990399181843
 33
0.02504565380513668
  0
3DFACE
  8
0
 10
0.0
 20
0.0061999899335205555
 30
0.016113119199872017
 11
0.0
 21
0.0061999899335205555
 31
0.016191627830266953
 12
0.0
 22
0.006199990399181843
 32
0.02504565380513668
 13
0.0
 23
0.006199990399181843
 33
0.02504565380513668
  0
3DFACE
  8
0
 10
0.0
 20
0.006199990399181843
 30
0.02504565380513668
 11
0.0
 21
0.006199997384101152
 31
0.031543806195259094
 12
0.0
 22
0.006199997384101152
 32
0.03154551237821579
 13
0.0
 23
0.006199997384101152
 33
0.03154551237821579
  0
3DFACE
  8
0
 10
0.0
 20
0.006199990399181843
 30
0.02504565380513668
 11
0.0
 21
0.006199997384101152
 31
0.03154551237821579
 12
0.0
 22
0.006199997384101152
 32
0.031547289341688156
 13
0.0
 23
0.006199997384101152
 33
0.031547289341688156
  0
3DFACE
  8
0
 10
0.0
 20
0.0061999899335205555
 30
0.016021214425563812
 11
0.0
 21
0.0061999899335205555
 31
0.016113119199872017
 12
0.0
 22
0.006199990399181843
 32
0.02504565380513668
 13
0.0
 23
0.006199990399181843
 33
0.02504565380513668
  0
3DFACE
  8
0
 10
0.0
 20
0.0061999899335205555
 30
0.015917476266622543
 11
0.0
 21
0.0061999899335205555
 31
0.016021214425563812
 12
0.0
 22
0.006199990399181843
 32
0.02504565380513668
 13
0.0
 23
0.006199990399181843
 33
0.02504565380513668
  0
3DFACE
  8
0
 10
0.0
 20
0.006199990399181843
 30
0.02504565380513668
 11
0.0
 21
0.006199997384101152
 31
0.031547289341688156
 12
0.0
 22
0.006199997384101152
 32
0.03154914826154709
 13
0.0
 23
0.006199997384101152
 33
0.03154914826154709
  0
3DFACE
  8
0
 10
0.0
 20
0.006199990399181843
 30
0.02504565380513668
 11
0.0
 21
0.006199997384101152
 31
0.03154914826154709
 12
0.0
 22
0.006199997384101152
 32
0.03155108913779259
 13
0.0
 23
0.006199997384101152
 33
0.03155108913779259
  0
3DFACE
  8
0
 10
0.0
 20
0.0061999899335205555
 30
0.015803467482328415
 11
0.0
 21
0.0061999899335205555
 31
0.015917476266622543
 12
0.0
 22
0.006199990399181843
 32
0.02504565380513668
 13
0.0
 23
0.006199990399181843
 33
0.02504565380513668
  0
3DFACE
  8
0
 10
0.0
 20
0.0061999899335205555
 30
0.015680750831961632
 11
0.0
 21
0.0061999899335205555
 31
0.015803467482328415
 12
0.0
 22
0.006199990399181843
 32
0.02504565380513668
 13
0.0
 23
0.006199990399181843
 33
0.02504565380513668
  0
3DFACE
  8
0
 10
0.0
 20
0.006199990399181843
 30
0.02504565380513668
 11
0.0
 21
0.006199997384101152
 31
0.03155108913779259
 12
0.0
 22
0.006199997384101152
 32
0.031553130596876144
 13
0.0
 23
0.006199997384101152
 33
0.031553130596876144
  0
3DFACE
  8
0
 10
0.0
 20
0.006199990399181843
 30
0.02504565380513668
 11
0.0
 21
0.006199997384101152
 31
0.031553130596876144
 12
0.0
 22
0.006199997384101152
 32
0.03155528008937836
 13
0.0
 23
0.006199997384101152
 33
0.03155528008937836
  0
3DFACE
  8
0
 10
0.0
 20
0.0061999899335205555
 30
0.0155508853495121
 11
0.0
 21
0.0061999899335205555
 31
0.015680750831961632
 12
0.0
 22
0.006199990399181843
 32
0.02504565380513668
 13
0.0
 23
0.006199990399181843
 33
0.02504565380513668
  0
3DFACE
  8
0
 10
0.0
 20
0.0061999899335205555
 30
0.015415436588227749
 11
0.0
 21
0.0061999899335205555
 31
0.0155508853495121
 12
0.0
 22
0.006199990399181843
 32
0.02504565380513668
 13
0.0
 23
0.006199990399181843
 33
0.02504565380513668
  0
3DFACE
  8
0
 10
0.0
 20
0.006199990399181843
 30
0.02504565380513668
 11
0.0
 21
0.006199997384101152
 31
0.03155528008937836
 12
0.0
 22
0.006199997384101152
 32
0.03155754134058952
 13
0.0
 23
0.006199997384101152
 33
0.03155754134058952
  0
3DFACE
  8
0
 10
0.0
 20
0.006199990399181843
 30
0.02504565380513668
 11
0.0
 21
0.006199997384101152
 31
0.03155754134058952
 12
0.0
 22
0.006199997384101152
 32
0.03155992925167084
 13
0.0
 23
0.006199997384101152
 33
0.03155992925167084
  0
3DFACE
  8
0
 10
0.0
 20
0.0061999899335205555
 30
0.015275964513421059
 11
0.0
 21
0.0061999899335205555
 31
0.015415436588227749
 12
0.0
 22
0.006199990399181843
 32
0.02504565380513668
 13
0.0
 23
0.006199990399181843
 33
0.02504565380513668
  0
3DFACE
  8
0
 10
0.0
 20
0.0061999899335205555
 30
0.015134031884372234
 11
0.0
 21
0.0061999899335205555
 31
0.015275964513421059
 12
0.0
 22
0.006199990399181843
 32
0.02504565380513668
 13
0.0
 23
0.006199990399181843
 33
0.02504565380513668
  0
3DFACE
  8
0
 10
0.0
 20
0.006199990399181843
 30
0.02504565380513668
 11
0.0
 21
0.006199997384101152
 31
0.03155992925167084
 12
0.0
 22
0.006199997384101152
 32
0.0315624475479126
 13
0.0
 23
0.006199997384101152
 33
0.0315624475479126
  0
3DFACE
  8
0
 10
0.0
 20
0.006199990399181843
 30
0.02504565380513668
 11
0.0
 21
0.006199997384101152
 31
0.0315624475479126
 12
0.0
 22
0.006199997384101152
 32
0.031565111130476
 13
0.0
 23
0.006199997384101152
 33
0.031565111130476
  0
3DFACE
  8
0
 10
0.0
 20
0.0061999899335205555
 30
0.014991198666393757
 11
0.0
 21
0.0061999899335205555
 31
0.015134031884372234
 12
0.0
 22
0.006199990399181843
 32
0.02504565380513668
 13
0.0
 23
0.006199990399181843
 33
0.02504565380513668
  0
3DFACE
  8
0
 10
0.0
 20
0.0061999899335205555
 30
0.014981121756136417
 11
0.0
 21
0.0061999899335205555
 31
0.014991198666393757
 12
0.0
 22
0.006199990399181843
 32
0.02504565380513668
 13
0.0
 23
0.006199990399181843
 33
0.02504565380513668
  0
3DFACE
  8
0
 10
0.0
 20
0.0061999899335205555
 30
0.014981121756136417
 11
0.0
 21
0.006199990399181843
 31
0.02504565380513668
 12
0.0
 22
0.006199997384101152
 32
0.031565111130476
 13
0.0
 23
0.006199997384101152
 33
0.031565111130476
  0
3DFACE
  8
0
 10
0.0
 20
0.0061999899335205555
 30
0.014971288852393627
 11
0.0
 21
0.0061999899335205555
 31
0.014981121756136417
 12
0.0
 22
0.006199997384101152
 32
0.031565111130476
 13
0.0
 23
0.006199997384101152
 33
0.031565111130476
  0
3DFACE
  8
0
 10
0.0
 20
0.0061999899335205555
 30
0.014971288852393627
 11
0.0
 21
0.006199997384101152
 31
0.031565111130476
 12
0.0
 22
0.00619999784976244
 32
0.03161214664578438
 13
0.0
 23
0.00619999784976244
 33
0.03161214664578438
  0
3DFACE
  8
0
 10
0.0
 20
0.0061999899335205555
 30
0.014961658045649529
 11
0.0
 21
0.0061999899335205555
 31
0.014971288852393627
 12
0.0
 22
0.00619999784976244
 32
0.03161214664578438
 13
0.0
 23
0.00619999784976244
 33
0.03161214664578438
  0
3DFACE
  8
0
 10
0.0
 20
0.0061999899335205555
 30
0.014961658045649529
 11
0.0
 21
0.00619999784976244
 31
0.03161214664578438
 12
0.0
 22
0.00619999784976244
 32
0.03167569637298584
 13
0.0
 23
0.00619999784976244
 33
0.03167569637298584
  0
3DFACE
  8
0
 10
0.0
 20
0.0061999899335205555
 30
0.014952185563743114
 11
0.0
 21
0.0061999899335205555
 31
0.014961658045649529
 12
0.0
 22
0.00619999784976244
 32
0.03167569637298584
 13
0.0
 23
0.00619999784976244
 33
0.03167569637298584
  0
3DFACE
  8
0
 10
0.0
 20
0.0061999899335205555
 30
0.014942829497158527
 11
0.0
 21
0.0061999899335205555
 31
0.014952185563743114
 12
0.0
 22
0.00619999784976244
 32
0.03167569637298584
 13
0.0
 23
0.00619999784976244
 33
0.03167569637298584
  0
3DFACE
  8
0
 10
0.0
 20
0.0061999899335205555
 30
0.014933547005057335
 11
0.0
 21
0.0061999899335205555
 31
0.014942829497158527
 12
0.0
 22
0.00619999784976244
 32
0.03167569637298584
 13
0.0
 23
0.00619999784976244
 33
0.03167569637298584
  0
3DFACE
  8
0
 10
0.0
 20
0.0061999899335205555
 30
0.014924295246601105
 11
0.0
 21
0.0061999899335205555
 31
0.014933547005057335
 12
0.0
 22
0.00619999784976244
 32
0.03167569637298584
 13
0.0
 23
0.00619999784976244
 33
0.03167569637298584
  0
3DFACE
  8
0
 10
0.0
 20
0.0061999899335205555
 30
0.01491503231227398
 11
0.0
 21
0.0061999899335205555
 31
0.014924295246601105
 12
0.0
 22
0.00619999784976244
 32
0.03167569637298584
 13
0.0
 23
0.00619999784976244
 33
0.03167569637298584
  0
3DFACE
  8
0
 10
0.0
 20
0.0061999899335205555
 30
0.014905715361237526
 11
0.0
 21
0.0061999899335205555
 31
0.01491503231227398
 12
0.0
 22
0.00619999784976244
 32
0.03167569637298584
 13
0.0
 23
0.00619999784976244
 33
0.03167569637298584
  0
3DFACE
  8
0
 10
0.0
 20
0.0061999899335205555
 30
0.014896300621330738
 11
0.0
 21
0.0061999899335205555
 31
0.014905715361237526
 12
0.0
 22
0.00619999784976244
 32
0.03167569637298584
 13
0.0
 23
0.00619999784976244
 33
0.03167569637298584
  0
3DFACE
  8
0
 10
0.0
 20
0.0061999899335205555
 30
0.014886746183037758
 11
0.0
 21
0.0061999899335205555
 31
0.014896300621330738
 12
0.0
 22
0.00619999784976244
 32
0.03167569637298584
 13
0.0
 23
0.00619999784976244
 33
0.03167569637298584
  0
3DFACE
  8
0
 10
0.0
 20
0.0061999899335205555
 30
0.01113598421216011
 11
0.0
 21
0.0061999899335205555
 31
0.013004550710320473
 12
0.0
 22
0.0061999899335205555
 32
0.01487702690064907
 13
0.0
 23
0.0061999899335205555
 33
0.01487702690064907
  0
3DFACE
  8
0
 10
0.0
 20
0.0061999899335205555
 30
0.01487702690064907
 11
0.0
 21
0.0061999899335205555
 31
0.014886746183037758
 12
0.0
 22
0.00619999784976244
 32
0.03167569637298584
 13
0.0
 23
0.00619999784976244
 33
0.03167569637298584
  0
3DFACE
  8
0
 10
0.0
 20
0.0061999899335205555
 30
0.01113598421216011
 11
0.0
 21
0.0061999899335205555
 31
0.01487702690064907
 12
0.0
 22
0.00619999784976244
 32
0.03167569637298584
 13
0.0
 23
0.00619999784976244
 33
0.03167569637298584
  0
3DFACE
  8
0
 10
0.0
 20
0.006199989467859268
 30
0.007389705628156662
 11
0.0
 21
0.006199989467859268
 31
0.009266109205782413
 12
0.0
 22
0.0061999899335205555
 32
0.01113598421216011
 13
0.0
 23
0.0061999899335205555
 33
0.01113598421216011
  0
3DFACE
  8
0
 10
0.0
 20
0.006199989467859268
 30
0.0035964276175945997
 11
0.0
 21
0.006199989467859268
 31
0.005501552019268274
 12
0.0
 22
0.006199989467859268
 32
0.007389705628156662
 13
0.0
 23
0.006199989467859268
 33
0.007389705628156662
  0
3DFACE
  8
0
 10
0.0
 20
0.006199989467859268
 30
-0.00028561672661453485
 11
0.0
 21
0.006199989467859268
 31
0.0016691116616129875
 12
0.0
 22
0.006199989467859268
 32
0.0035964276175945997
 13
0.0
 23
0.006199989467859268
 33
0.0035964276175945997
  0
3DFACE
  8
0
 10
0.0
 20
0.006199989467859268
 30
-0.004298193380236626
 11
0.0
 21
0.006199989467859268
 31
-0.0022729781921952963
 12
0.0
 22
0.006199989467859268
 32
-0.00028561672661453485
 13
0.0
 23
0.006199989467859268
 33
-0.00028561672661453485
  0
3DFACE
  8
0
 10
0.0
 20
0.0061999899335205555
 30
-0.008483069017529488
 11
0.0
 21
0.0061999899335205555
 31
-0.006366483401507139
 12
0.0
 22
0.006199989467859268
 32
-0.004298193380236626
 13
0.0
 23
0.006199989467859268
 33
-0.004298193380236626
  0
3DFACE
  8
0
 10
0.0
 20
0.0061999899335205555
 30
-0.010399560444056988
 11
0.0
 21
0.0061999899335205555
 31
-0.009452487342059612
 12
0.0
 22
0.0061999899335205555
 32
-0.008483069017529488
 13
0.0
 23
0.0061999899335205555
 33
-0.008483069017529488
  0
3DFACE
  8
0
 10
0.0
 20
0.006199990399181843
 30
-0.01223578117787838
 11
0.0
 21
0.0061999899335205555
 31
-0.011326565407216549
 12
0.0
 22
0.0061999899335205555
 32
-0.010399560444056988
 13
0.0
 23
0.0061999899335205555
 33
-0.010399560444056988
  0
3DFACE
  8
0
 10
0.0
 20
0.006199990399181843
 30
-0.01400995533913374
 11
0.0
 21
0.006199990399181843
 31
-0.01312948577105999
 12
0.0
 22
0.006199990399181843
 32
-0.01223578117787838
 13
0.0
 23
0.006199990399181843
 33
-0.01223578117787838
  0
3DFACE
  8
0
 10
0.0
 20
0.00619999086484313
 30
-0.015740305185317993
 11
0.0
 21
0.00619999086484313
 31
-0.014879468828439713
 12
0.0
 22
0.006199990399181843
 32
-0.01400995533913374
 13
0.0
 23
0.006199990399181843
 33
-0.01400995533913374
  0
3DFACE
  8
0
 10
0.0
 20
0.006199991330504417
 30
-0.017445052042603493
 11
0.0
 21
0.00619999086484313
 31
-0.016594739630818367
 12
0.0
 22
0.00619999086484313
 32
-0.015740305185317993
 13
0.0
 23
0.00619999086484313
 33
-0.015740305185317993
  0
3DFACE
  8
0
 10
0.0
 20
0.006199991796165705
 30
-0.019142422825098038
 11
0.0
 21
0.006199991330504417
 31
-0.01829352043569088
 12
0.0
 22
0.006199991330504417
 32
-0.017445052042603493
 13
0.0
 23
0.006199991330504417
 33
-0.017445052042603493
  0
3DFACE
  8
0
 10
0.0
 20
0.006199992261826992
 30
-0.01660207472741604
 11
0.0
 21
0.006199991796165705
 31
-0.019142422825098038
 12
0.0
 22
0.006199991330504417
 32
-0.017445052042603493
 13
0.0
 23
0.006199991330504417
 33
-0.017445052042603493
  0
3DFACE
  8
0
 10
0.0
 20
0.006199991330504417
 30
-0.017445052042603493
 11
0.0
 21
0.00619999086484313
 31
-0.015740305185317993
 12
0.0
 22
0.006199990399181843
 32
-0.01400995533913374
 13
0.0
 23
0.006199990399181843
 33
-0.01400995533913374
  0
3DFACE
  8
0
 10
0.0
 20
0.006199990399181843
 30
-0.01400995533913374
 11
0.0
 21
0.006199990399181843
 31
-0.01223578117787838
 12
0.0
 22
0.0061999899335205555
 32
-0.010399560444056988
 13
0.0
 23
0.0061999899335205555
 33
-0.010399560444056988
  0
3DFACE
  8
0
 10
0.0
 20
0.0061999899335205555
 30
-0.010399560444056988
 11
0.0
 21
0.0061999899335205555
 31
-0.008483069017529488
 12
0.0
 22
0.006199989467859268
 32
-0.004298193380236626
 13
0.0
 23
0.006199989467859268
 33
-0.004298193380236626
  0
3DFACE
  8
0
 10
0.0
 20
0.006199989467859268
 30
-0.004298193380236626
 11
0.0
 21
0.006199989467859268
 31
-0.00028561672661453485
 12
0.0
 22
0.006199989467859268
 32
0.0035964276175945997
 13
0.0
 23
0.006199989467859268
 33
0.0035964276175945997
  0
3DFACE
  8
0
 10
0.0
 20
0.006199989467859268
 30
0.0035964276175945997
 11
0.0
 21
0.006199989467859268
 31
0.007389705628156662
 12
0.0
 22
0.0061999899335205555
 32
0.01113598421216011
 13
0.0
 23
0.0061999899335205555
 33
0.01113598421216011
  0
3DFACE
  8
0
 10
0.0
 20
0.0061999899335205555
 30
0.01113598421216011
 11
0.0
 21
0.00619999784976244
 31
0.03167569637298584
 12
0.0
 22
0.00619999784976244
 32
0.031754206866025925
 13
0.0
 23
0.00619999784976244
 33
0.031754206866025925
  0
3DFACE
  8
0
 10
0.0
 20
0.006199989467859268
 30
0.0035964276175945997
 11
0.0
 21
0.0061999899335205555
 31
0.01113598421216011
 12
0.0
 22
0.00619999784976244
 32
0.031754206866025925
 13
0.0
 23
0.00619999784976244
 33
0.031754206866025925
  0
3DFACE
  8
0
 10
0.0
 20
0.0061999899335205555
 30
-0.010399560444056988
 11
0.0
 21
0.006199989467859268
 31
-0.004298193380236626
 12
0.0
 22
0.006199989467859268
 32
0.0035964276175945997
 13
0.0
 23
0.006199989467859268
 33
0.0035964276175945997
  0
3DFACE
  8
0
 10
0.0
 20
0.006199991330504417
 30
-0.017445052042603493
 11
0.0
 21
0.006199990399181843
 31
-0.01400995533913374
 12
0.0
 22
0.0061999899335205555
 32
-0.010399560444056988
 13
0.0
 23
0.0061999899335205555
 33
-0.010399560444056988
  0
3DFACE
  8
0
 10
0.0
 20
0.006199992261826992
 30
-0.01650627702474594
 11
0.0
 21
0.006199992261826992
 31
-0.01660207472741604
 12
0.0
 22
0.006199991330504417
 32
-0.017445052042603493
 13
0.0
 23
0.006199991330504417
 33
-0.017445052042603493
  0
3DFACE
  8
0
 10
0.0
 20
0.006199992261826992
 30
-0.016427896916866302
 11
0.0
 21
0.006199992261826992
 31
-0.01650627702474594
 12
0.0
 22
0.006199991330504417
 32
-0.017445052042603493
 13
0.0
 23
0.006199991330504417
 33
-0.017445052042603493
  0
3DFACE
  8
0
 10
0.0
 20
0.006199991330504417
 30
-0.017445052042603493
 11
0.0
 21
0.0061999899335205555
 31
-0.010399560444056988
 12
0.0
 22
0.006199989467859268
 32
0.0035964276175945997
 13
0.0
 23
0.006199989467859268
 33
0.0035964276175945997
  0
3DFACE
  8
0
 10
0.0
 20
0.006199991330504417
 30
-0.017445052042603493
 11
0.0
 21
0.006199989467859268
 31
0.0035964276175945997
 12
0.0
 22
0.00619999784976244
 32
0.031754206866025925
 13
0.0
 23
0.00619999784976244
 33
0.031754206866025925
  0
3DFACE
  8
0
 10
0.0
 20
0.006199992261826992
 30
-0.01636693626642227
 11
0.0
 21
0.006199992261826992
 31
-0.016427896916866302
 12
0.0
 22
0.006199991330504417
 32
-0.017445052042603493
 13
0.0
 23
0.006199991330504417
 33
-0.017445052042603493
  0
3DFACE
  8
0
 10
0.0
 20
0.006199992261826992
 30
-0.01632339134812355
 11
0.0
 21
0.006199992261826992
 31
-0.01636693626642227
 12
0.0
 22
0.006199991330504417
 32
-0.017445052042603493
 13
0.0
 23
0.006199991330504417
 33
-0.017445052042603493
  0
3DFACE
  8
0
 10
0.0
 20
0.006199991330504417
 30
-0.017445052042603493
 11
0.0
 21
0.00619999784976244
 31
0.031754206866025925
 12
0.0
 22
0.00619999784976244
 32
0.03184611350297928
 13
0.0
 23
0.00619999784976244
 33
0.03184611350297928
  0
3DFACE
  8
0
 10
0.0
 20
0.006199991330504417
 30
-0.017445052042603493
 11
0.0
 21
0.00619999784976244
 31
0.03184611350297928
 12
0.0
 22
0.00619999784976244
 32
0.03194985166192055
 13
0.0
 23
0.00619999784976244
 33
0.03194985166192055
  0
3DFACE
  8
0
 10
0.0
 20
0.006199992261826992
 30
-0.01632339134812355
 11
0.0
 21
0.006199991330504417
 31
-0.017445052042603493
 12
0.0
 22
0.00619999784976244
 32
0.03194985166192055
 13
0.0
 23
0.00619999784976244
 33
0.03194985166192055
  0
3DFACE
  8
0
 10
0.0
 20
0.006199992261826992
 30
-0.01632339134812355
 11
0.0
 21
0.00619999784976244
 31
0.03194985166192055
 12
0.0
 22
0.00619999784976244
 32
0.032063860446214676
 13
0.0
 23
0.00619999784976244
 33
0.032063860446214676
  0
3DFACE
  8
0
 10
0.0
 20
0.006199992261826992
 30
-0.016297264024615288
 11
0.0
 21
0.006199992261826992
 31
-0.01632339134812355
 12
0.0
 22
0.00619999784976244
 32
0.032063860446214676
 13
0.0
 23
0.00619999784976244
 33
0.032063860446214676
  0
3DFACE
  8
0
 10
0.0
 20
0.006199992261826992
 30
-0.016288556158542633
 11
0.0
 21
0.006199992261826992
 31
-0.016297264024615288
 12
0.0
 22
0.00619999784976244
 32
0.032063860446214676
 13
0.0
 23
0.00619999784976244
 33
0.032063860446214676
  0
3DFACE
  8
0
 10
0.0
 20
0.006199992727488279
 30
-0.016297264024615288
 11
0.0
 21
0.006199992261826992
 31
-0.016288556158542633
 12
0.0
 22
0.00619999784976244
 32
0.032063860446214676
 13
0.0
 23
0.00619999784976244
 33
0.032063860446214676
  0
3DFACE
  8
0
 10
0.0
 20
0.006199992727488279
 30
-0.01632339134812355
 11
0.0
 21
0.006199992727488279
 31
-0.016297264024615288
 12
0.0
 22
0.00619999784976244
 32
0.032063860446214676
 13
0.0
 23
0.00619999784976244
 33
0.032063860446214676
  0
3DFACE
  8
0
 10
0.0
 20
0.006199992727488279
 30
-0.01636693626642227
 11
0.0
 21
0.006199992727488279
 31
-0.01632339134812355
 12
0.0
 22
0.00619999784976244
 32
0.032063860446214676
 13
0.0
 23
0.00619999784976244
 33
0.032063860446214676
  0
3DFACE
  8
0
 10
0.0
 20
0.006199992727488279
 30
-0.016427896916866302
 11
0.0
 21
0.006199992727488279
 31
-0.01636693626642227
 12
0.0
 22
0.00619999784976244
 32
0.032063860446214676
 13
0.0
 23
0.00619999784976244
 33
0.032063860446214676
  0
3DFACE
  8
0
 10
0.0
 20
0.006199992727488279
 30
-0.01650627702474594
 11
0.0
 21
0.006199992727488279
 31
-0.016427896916866302
 12
0.0
 22
0.00619999784976244
 32
0.032063860446214676
 13
0.0
 23
0.00619999784976244
 33
0.032063860446214676
  0
3DFACE
  8
0
 10
0.0
 20
0.006199992727488279
 30
-0.01660207472741604
 11
0.0
 21
0.006199992727488279
 31
-0.01650627702474594
 12
0.0
 22
0.00619999784976244
 32
0.032063860446214676
 13
0.0
 23
0.00619999784976244
 33
0.032063860446214676
  0
3DFACE
  8
0
 10
0.0
 20
0.006199992727488279
 30
-0.016609489917755127
 11
0.0
 21
0.006199992727488279
 31
-0.01660207472741604
 12
0.0
 22
0.00619999784976244
 32
0.032063860446214676
 13
0.0
 23
0.00619999784976244
 33
0.032063860446214676
  0
3DFACE
  8
0
 10
0.0
 20
0.006199992727488279
 30
-0.016616802662611008
 11
0.0
 21
0.006199992727488279
 31
-0.016609489917755127
 12
0.0
 22
0.00619999784976244
 32
0.032063860446214676
 13
0.0
 23
0.00619999784976244
 33
0.032063860446214676
  0
3DFACE
  8
0
 10
0.0
 20
0.006199992727488279
 30
-0.016624048352241516
 11
0.0
 21
0.006199992727488279
 31
-0.016616802662611008
 12
0.0
 22
0.00619999784976244
 32
0.032063860446214676
 13
0.0
 23
0.00619999784976244
 33
0.032063860446214676
  0
3DFACE
  8
0
 10
0.0
 20
0.006199992727488279
 30
-0.01663126051425934
 11
0.0
 21
0.006199992727488279
 31
-0.016624048352241516
 12
0.0
 22
0.00619999784976244
 32
0.032063860446214676
 13
0.0
 23
0.00619999784976244
 33
0.032063860446214676
  0
3DFACE
  8
0
 10
0.0
 20
0.006199992727488279
 30
-0.01663847081363201
 11
0.0
 21
0.006199992727488279
 31
-0.01663126051425934
 12
0.0
 22
0.00619999784976244
 32
0.032063860446214676
 13
0.0
 23
0.00619999784976244
 33
0.032063860446214676
  0
3DFACE
  8
0
 10
0.0
 20
0.006199992727488279
 30
-0.01664571277797222
 11
0.0
 21
0.006199992727488279
 31
-0.01663847081363201
 12
0.0
 22
0.00619999784976244
 32
0.032063860446214676
 13
0.0
 23
0.00619999784976244
 33
0.032063860446214676
  0
3DFACE
  8
0
 10
0.0
 20
0.006199992727488279
 30
-0.016653019934892654
 11
0.0
 21
0.006199992727488279
 31
-0.01664571277797222
 12
0.0
 22
0.00619999784976244
 32
0.032063860446214676
 13
0.0
 23
0.00619999784976244
 33
0.032063860446214676
  0
3DFACE
  8
0
 10
0.0
 20
0.006199992727488279
 30
-0.016660427674651146
 11
0.0
 21
0.006199992727488279
 31
-0.016653019934892654
 12
0.0
 22
0.00619999784976244
 32
0.032063860446214676
 13
0.0
 23
0.00619999784976244
 33
0.032063860446214676
  0
3DFACE
  8
0
 10
0.0
 20
0.006199992727488279
 30
-0.016667967662215233
 11
0.0
 21
0.006199992727488279
 31
-0.016660427674651146
 12
0.0
 22
0.00619999784976244
 32
0.032063860446214676
 13
0.0
 23
0.00619999784976244
 33
0.032063860446214676
  0
3DFACE
  8
0
 10
0.0
 20
0.006199992727488279
 30
-0.016675671562552452
 11
0.0
 21
0.006199992727488279
 31
-0.016667967662215233
 12
0.0
 22
0.00619999784976244
 32
0.032063860446214676
 13
0.0
 23
0.00619999784976244
 33
0.032063860446214676
  0
3DFACE
  8
0
 10
0.0
 20
0.006199992727488279
 30
-0.01668357662856579
 11
0.0
 21
0.006199992727488279
 31
-0.016675671562552452
 12
0.0
 22
0.00619999784976244
 32
0.032063860446214676
 13
0.0
 23
0.00619999784976244
 33
0.032063860446214676
  0
3DFACE
  8
0
 10
0.0
 20
0.006199992727488279
 30
-0.01669171452522278
 11
0.0
 21
0.006199992727488279
 31
-0.01668357662856579
 12
0.0
 22
0.00619999784976244
 32
0.032063860446214676
 13
0.0
 23
0.00619999784976244
 33
0.032063860446214676
  0
3DFACE
  8
0
 10
0.0
 20
0.006199993658810854
 30
-0.020191702991724014
 11
0.0
 21
0.006199993193149567
 31
-0.018483076244592667
 12
0.0
 22
0.006199992727488279
 32
-0.01669171452522278
 13
0.0
 23
0.006199992727488279
 33
-0.01669171452522278
  0
3DFACE
  8
0
 10
0.0
 20
0.006199995055794716
 30
-0.02337583340704441
 11
0.0
 21
0.006199994124472141
 31
-0.021821364760398865
 12
0.0
 22
0.006199993658810854
 32
-0.020191702991724014
 13
0.0
 23
0.006199993658810854
 33
-0.020191702991724014
  0
3DFACE
  8
0
 10
0.0
 20
0.0061999959871172905
 30
-0.02627425827085972
 11
0.0
 21
0.006199995521456003
 31
-0.024858875200152397
 12
0.0
 22
0.006199995055794716
 32
-0.02337583340704441
 13
0.0
 23
0.006199995055794716
 33
-0.02337583340704441
  0
3DFACE
  8
0
 10
0.0
 20
0.006199996918439865
 30
-0.028917135670781136
 11
0.0
 21
0.006199996452778578
 31
-0.027625756338238716
 12
0.0
 22
0.0061999959871172905
 32
-0.02627425827085972
 13
0.0
 23
0.0061999959871172905
 33
-0.02627425827085972
  0
3DFACE
  8
0
 10
0.0
 20
0.006199998315423727
 30
-0.031334616243839264
 11
0.0
 21
0.00619999784976244
 31
-0.03015216439962387
 12
0.0
 22
0.006199996918439865
 32
-0.028917135670781136
 13
0.0
 23
0.006199996918439865
 33
-0.028917135670781136
  0
3DFACE
  8
0
 10
0.0
 20
0.006199999712407589
 30
-0.033556852489709854
 11
0.0
 21
0.006199998781085014
 31
-0.03246825560927391
 12
0.0
 22
0.006199998315423727
 32
-0.031334616243839264
 13
0.0
 23
0.006199998315423727
 33
-0.031334616243839264
  0
3DFACE
  8
0
 10
0.0
 20
0.006200000178068876
 30
-0.03444666415452957
 11
0.0
 21
0.006200000178068876
 31
-0.034023646265268326
 12
0.0
 22
0.006199999712407589
 32
-0.033556852489709854
 13
0.0
 23
0.006199999712407589
 33
-0.033556852489709854
  0
3DFACE
  8
0
 10
0.0
 20
0.006200001109391451
 30
-0.03516378253698349
 11
0.0
 21
0.006200000643730164
 31
-0.034826505929231644
 12
0.0
 22
0.006200000178068876
 32
-0.03444666415452957
 13
0.0
 23
0.006200000178068876
 33
-0.03444666415452957
  0
3DFACE
  8
0
 10
0.0
 20
0.006200001575052738
 30
-0.0357130728662014
 11
0.0
 21
0.006200001109391451
 31
-0.03545910120010376
 12
0.0
 22
0.006200001109391451
 32
-0.03516378253698349
 13
0.0
 23
0.006200001109391451
 33
-0.03516378253698349
  0
3DFACE
  8
0
 10
0.0
 20
0.0062000020407140255
 30
-0.036099400371313095
 11
0.0
 21
0.0062000020407140255
 31
-0.03592630475759506
 12
0.0
 22
0.006200001575052738
 32
-0.0357130728662014
 13
0.0
 23
0.006200001575052738
 33
-0.0357130728662014
  0
3DFACE
  8
0
 10
0.0
 20
0.006200002506375313
 30
-0.036327626556158066
 11
0.0
 21
0.006200002506375313
 31
-0.03623297065496445
 12
0.0
 22
0.0062000020407140255
 32
-0.036099400371313095
 13
0.0
 23
0.0062000020407140255
 33
-0.036099400371313095
  0
3DFACE
  8
0
 10
0.0
 20
0.006200003437697887
 30
-0.0364026241004467
 11
0.0
 21
0.0062000029720366
 31
-0.0363839752972126
 12
0.0
 22
0.006200002506375313
 32
-0.036327626556158066
 13
0.0
 23
0.006200002506375313
 33
-0.036327626556158066
  0
3DFACE
  8
0
 10
0.0
 20
0.0062000029720366
 30
-0.032932452857494354
 11
0.0
 21
0.006200003437697887
 31
-0.0364026241004467
 12
0.0
 22
0.006200002506375313
 32
-0.036327626556158066
 13
0.0
 23
0.006200002506375313
 33
-0.036327626556158066
  0
3DFACE
  8
0
 10
0.0
 20
0.006200002506375313
 30
-0.036327626556158066
 11
0.0
 21
0.0062000020407140255
 31
-0.036099400371313095
 12
0.0
 22
0.006200001575052738
 32
-0.0357130728662014
 13
0.0
 23
0.006200001575052738
 33
-0.0357130728662014
  0
3DFACE
  8
0
 10
0.0
 20
0.006200001575052738
 30
-0.0357130728662014
 11
0.0
 21
0.006200001109391451
 31
-0.03516378253698349
 12
0.0
 22
0.006200000178068876
 32
-0.03444666415452957
 13
0.0
 23
0.006200000178068876
 33
-0.03444666415452957
  0
3DFACE
  8
0
 10
0.0
 20
0.006200000178068876
 30
-0.03444666415452957
 11
0.0
 21
0.006199999712407589
 31
-0.033556852489709854
 12
0.0
 22
0.006199998315423727
 32
-0.031334616243839264
 13
0.0
 23
0.006199998315423727
 33
-0.031334616243839264
  0
3DFACE
  8
0
 10
0.0
 20
0.006199998315423727
 30
-0.031334616243839264
 11
0.0
 21
0.006199996918439865
 31
-0.028917135670781136
 12
0.0
 22
0.0061999959871172905
 32
-0.02627425827085972
 13
0.0
 23
0.0061999959871172905
 33
-0.02627425827085972
  0
3DFACE
  8
0
 10
0.0
 20
0.0061999959871172905
 30
-0.02627425827085972
 11
0.0
 21
0.006199995055794716
 31
-0.02337583340704441
 12
0.0
 22
0.006199993658810854
 32
-0.020191702991724014
 13
0.0
 23
0.006199993658810854
 33
-0.020191702991724014
  0
3DFACE
  8
0
 10
0.0
 20
0.006199993658810854
 30
-0.020191702991724014
 11
0.0
 21
0.006199992727488279
 31
-0.01669171452522278
 12
0.0
 22
0.00619999784976244
 32
0.032063860446214676
 13
0.0
 23
0.00619999784976244
 33
0.032063860446214676
  0
3DFACE
  8
0
 10
0.0
 20
0.006199993658810854
 30
-0.020191702991724014
 11
0.0
 21
0.00619999784976244
 31
0.032063860446214676
 12
0.0
 22
0.00619999784976244
 32
0.03218657895922661
 13
0.0
 23
0.00619999784976244
 33
0.03218657895922661
  0
3DFACE
  8
0
 10
0.0
 20
0.006199998315423727
 30
-0.031334616243839264
 11
0.0
 21
0.0061999959871172905
 31
-0.02627425827085972
 12
0.0
 22
0.006199993658810854
 32
-0.020191702991724014
 13
0.0
 23
0.006199993658810854
 33
-0.020191702991724014
  0
3DFACE
  8
0
 10
0.0
 20
0.006200001575052738
 30
-0.0357130728662014
 11
0.0
 21
0.006200000178068876
 31
-0.03444666415452957
 12
0.0
 22
0.006199998315423727
 32
-0.031334616243839264
 13
0.0
 23
0.006199998315423727
 33
-0.031334616243839264
  0
3DFACE
  8
0
 10
0.0
 20
0.0062000029720366
 30
-0.032932452857494354
 11
0.0
 21
0.006200002506375313
 31
-0.036327626556158066
 12
0.0
 22
0.006200001575052738
 32
-0.0357130728662014
 13
0.0
 23
0.006200001575052738
 33
-0.0357130728662014
  0
3DFACE
  8
0
 10
0.0
 20
0.0062000029720366
 30
-0.032789621502161026
 11
0.0
 21
0.0062000029720366
 31
-0.032932452857494354
 12
0.0
 22
0.006200001575052738
 32
-0.0357130728662014
 13
0.0
 23
0.006200001575052738
 33
-0.0357130728662014
  0
3DFACE
  8
0
 10
0.0
 20
0.006200001575052738
 30
-0.0357130728662014
 11
0.0
 21
0.006199998315423727
 31
-0.031334616243839264
 12
0.0
 22
0.006199993658810854
 32
-0.020191702991724014
 13
0.0
 23
0.006199993658810854
 33
-0.020191702991724014
  0
3DFACE
  8
0
 10
0.0
 20
0.006200001575052738
 30
-0.0357130728662014
 11
0.0
 21
0.006199993658810854
 31
-0.020191702991724014
 12
0.0
 22
0.00619999784976244
 32
0.03218657895922661
 13
0.0
 23
0.00619999784976244
 33
0.03218657895922661
  0
3DFACE
  8
0
 10
0.0
 20
0.0062000029720366
 30
-0.03264768794178963
 11
0.0
 21
0.0062000029720366
 31
-0.032789621502161026
 12
0.0
 22
0.006200001575052738
 32
-0.0357130728662014
 13
0.0
 23
0.006200001575052738
 33
-0.0357130728662014
  0
3DFACE
  8
0
 10
0.0
 20
0.0062000029720366
 30
-0.03250821679830551
 11
0.0
 21
0.0062000029720366
 31
-0.03264768794178963
 12
0.0
 22
0.006200001575052738
 32
-0.0357130728662014
 13
0.0
 23
0.006200001575052738
 33
-0.0357130728662014
  0
3DFACE
  8
0
 10
0.0
 20
0.006200001575052738
 30
-0.0357130728662014
 11
0.0
 21
0.00619999784976244
 31
0.03218657895922661
 12
0.0
 22
0.00619999784976244
 32
0.03231644257903099
 13
0.0
 23
0.00619999784976244
 33
0.03231644257903099
  0
3DFACE
  8
0
 10
0.0
 20
0.006200001575052738
 30
-0.0357130728662014
 11
0.0
 21
0.00619999784976244
 31
0.03231644257903099
 12
0.0
 22
0.00619999784976244
 32
0.03245189040899277
 13
0.0
 23
0.00619999784976244
 33
0.03245189040899277
  0
3DFACE
  8
0
 10
0.0
 20
0.0062000029720366
 30
-0.032372768968343735
 11
0.0
 21
0.0062000029720366
 31
-0.03250821679830551
 12
0.0
 22
0.006200001575052738
 32
-0.0357130728662014
 13
0.0
 23
0.006200001575052738
 33
-0.0357130728662014
  0
3DFACE
  8
0
 10
0.0
 20
0.0062000029720366
 30
-0.03224290534853935
 11
0.0
 21
0.0062000029720366
 31
-0.032372768968343735
 12
0.0
 22
0.006200001575052738
 32
-0.0357130728662014
 13
0.0
 23
0.006200001575052738
 33
-0.0357130728662014
  0
3DFACE
  8
0
 10
0.0
 20
0.006200001575052738
 30
-0.0357130728662014
 11
0.0
 21
0.00619999784976244
 31
0.03245189040899277
 12
0.0
 22
0.00619999784976244
 32
0.03259136155247688
 13
0.0
 23
0.00619999784976244
 33
0.03259136155247688
  0
3DFACE
  8
0
 10
0.0
 20
0.0062000029720366
 30
-0.03224290534853935
 11
0.0
 21
0.006200001575052738
 31
-0.0357130728662014
 12
0.0
 22
0.00619999784976244
 32
0.03259136155247688
 13
0.0
 23
0.00619999784976244
 33
0.03259136155247688
  0
3DFACE
  8
0
 10
0.0
 20
0.0062000029720366
 30
-0.03212018683552742
 11
0.0
 21
0.0062000029720366
 31
-0.03224290534853935
 12
0.0
 22
0.00619999784976244
 32
0.03259136155247688
 13
0.0
 23
0.00619999784976244
 33
0.03259136155247688
  0
3DFACE
  8
0
 10
0.0
 20
0.0062000029720366
 30
-0.03200617805123329
 11
0.0
 21
0.0062000029720366
 31
-0.03212018683552742
 12
0.0
 22
0.00619999784976244
 32
0.03259136155247688
 13
0.0
 23
0.00619999784976244
 33
0.03259136155247688
  0
3DFACE
  8
0
 10
0.0
 20
0.0062000029720366
 30
-0.03190243989229202
 11
0.0
 21
0.0062000029720366
 31
-0.03200617805123329
 12
0.0
 22
0.00619999784976244
 32
0.03259136155247688
 13
0.0
 23
0.00619999784976244
 33
0.03259136155247688
  0
3DFACE
  8
0
 10
0.0
 20
0.0062000029720366
 30
-0.03181053325533867
 11
0.0
 21
0.0062000029720366
 31
-0.03190243989229202
 12
0.0
 22
0.00619999784976244
 32
0.03259136155247688
 13
0.0
 23
0.00619999784976244
 33
0.03259136155247688
  0
3DFACE
  8
0
 10
0.0
 20
0.0062000029720366
 30
-0.031732022762298584
 11
0.0
 21
0.0062000029720366
 31
-0.03181053325533867
 12
0.0
 22
0.00619999784976244
 32
0.03259136155247688
 13
0.0
 23
0.00619999784976244
 33
0.03259136155247688
  0
3DFACE
  8
0
 10
0.0
 20
0.0062000029720366
 30
-0.03166847303509712
 11
0.0
 21
0.0062000029720366
 31
-0.031732022762298584
 12
0.0
 22
0.00619999784976244
 32
0.03259136155247688
 13
0.0
 23
0.00619999784976244
 33
0.03259136155247688
  0
3DFACE
  8
0
 10
0.0
 20
0.0062000029720366
 30
-0.03162143751978874
 11
0.0
 21
0.0062000029720366
 31
-0.03166847303509712
 12
0.0
 22
0.00619999784976244
 32
0.03259136155247688
 13
0.0
 23
0.00619999784976244
 33
0.03259136155247688
  0
3DFACE
  8
0
 10
0.0
 20
0.0062000029720366
 30
-0.03161877393722534
 11
0.0
 21
0.0062000029720366
 31
-0.03162143751978874
 12
0.0
 22
0.00619999784976244
 32
0.03259136155247688
 13
0.0
 23
0.00619999784976244
 33
0.03259136155247688
  0
3DFACE
  8
0
 10
0.0
 20
0.0062000029720366
 30
-0.03161625564098358
 11
0.0
 21
0.0062000029720366
 31
-0.03161877393722534
 12
0.0
 22
0.00619999784976244
 32
0.03259136155247688
 13
0.0
 23
0.00619999784976244
 33
0.03259136155247688
  0
3DFACE
  8
0
 10
0.0
 20
0.0062000029720366
 30
-0.03161386772990227
 11
0.0
 21
0.0062000029720366
 31
-0.03161625564098358
 12
0.0
 22
0.00619999784976244
 32
0.03259136155247688
 13
0.0
 23
0.00619999784976244
 33
0.03259136155247688
  0
3DFACE
  8
0
 10
0.0
 20
0.0062000029720366
 30
-0.0316116064786911
 11
0.0
 21
0.0062000029720366
 31
-0.03161386772990227
 12
0.0
 22
0.00619999784976244
 32
0.03259136155247688
 13
0.0
 23
0.00619999784976244
 33
0.03259136155247688
  0
3DFACE
  8
0
 10
0.0
 20
0.0062000029720366
 30
-0.03160945698618889
 11
0.0
 21
0.0062000029720366
 31
-0.0316116064786911
 12
0.0
 22
0.00619999784976244
 32
0.03259136155247688
 13
0.0
 23
0.00619999784976244
 33
0.03259136155247688
  0
3DFACE
  8
0
 10
0.0
 20
0.0062000029720366
 30
-0.03160741552710533
 11
0.0
 21
0.0062000029720366
 31
-0.03160945698618889
 12
0.0
 22
0.00619999784976244
 32
0.03259136155247688
 13
0.0
 23
0.00619999784976244
 33
0.03259136155247688
  0
3DFACE
  8
0
 10
0.0
 20
0.0062000029720366
 30
-0.03160547465085983
 11
0.0
 21
0.0062000029720366
 31
-0.03160741552710533
 12
0.0
 22
0.00619999784976244
 32
0.03259136155247688
 13
0.0
 23
0.00619999784976244
 33
0.03259136155247688
  0
3DFACE
  8
0
 10
0.0
 20
0.0062000029720366
 30
-0.0316036157310009
 11
0.0
 21
0.0062000029720366
 31
-0.03160547465085983
 12
0.0
 22
0.00619999784976244
 32
0.03259136155247688
 13
0.0
 23
0.00619999784976244
 33
0.03259136155247688
  0
3DFACE
  8
0
 10
0.0
 20
0.0062000029720366
 30
-0.031601838767528534
 11
0.0
 21
0.0062000029720366
 31
-0.0316036157310009
 12
0.0
 22
0.00619999784976244
 32
0.03259136155247688
 13
0.0
 23
0.00619999784976244
 33
0.03259136155247688
  0
3DFACE
  8
0
 10
0.0
 20
0.0062000029720366
 30
-0.03160013258457184
 11
0.0
 21
0.0062000029720366
 31
-0.031601838767528534
 12
0.0
 22
0.00619999784976244
 32
0.03259136155247688
 13
0.0
 23
0.00619999784976244
 33
0.03259136155247688
  0
3DFACE
  8
0
 10
0.0
 20
0.0062000029720366
 30
-0.03159848600625992
 11
0.0
 21
0.0062000029720366
 31
-0.03160013258457184
 12
0.0
 22
0.00619999784976244
 32
0.03259136155247688
 13
0.0
 23
0.00619999784976244
 33
0.03259136155247688
  0
3DFACE
  8
0
 10
0.0
 20
0.006200004369020462
 30
-0.0313558392226696
 11
0.0
 21
0.006200003437697887
 31
-0.03151576966047287
 12
0.0
 22
0.0062000029720366
 32
-0.03159688785672188
 13
0.0
 23
0.0062000029720366
 33
-0.03159688785672188
  0
3DFACE
  8
0
 10
0.0
 20
0.0062000029720366
 30
-0.03159688785672188
 11
0.0
 21
0.0062000029720366
 31
-0.03159848600625992
 12
0.0
 22
0.00619999784976244
 32
0.03259136155247688
 13
0.0
 23
0.00619999784976244
 33
0.03259136155247688
  0
3DFACE
  8
0
 10
0.0
 20
0.006200004369020462
 30
-0.0313558392226696
 11
0.0
 21
0.0062000029720366
 31
-0.03159688785672188
 12
0.0
 22
0.00619999784976244
 32
0.03259136155247688
 13
0.0
 23
0.00619999784976244
 33
0.03259136155247688
  0
3DFACE
  8
0
 10
0.0
 20
0.006200005766004324
 30
-0.030793702229857445
 11
0.0
 21
0.006200004834681749
 31
-0.031115632504224777
 12
0.0
 22
0.006200004369020462
 32
-0.0313558392226696
 13
0.0
 23
0.006200004369020462
 33
-0.0313558392226696
  0
3DFACE
  8
0
 10
0.0
 20
0.006200006697326899
 30
-0.029898861423134804
 11
0.0
 21
0.006200006231665611
 31
-0.030388595536351204
 12
0.0
 22
0.006200005766004324
 32
-0.030793702229857445
 13
0.0
 23
0.006200005766004324
 33
-0.030793702229857445
  0
3DFACE
  8
0
 10
0.0
 20
0.0062000080943107605
 30
-0.028659703209996223
 11
0.0
 21
0.006200007162988186
 31
-0.029323047026991844
 12
0.0
 22
0.006200006697326899
 32
-0.029898861423134804
 13
0.0
 23
0.006200006697326899
 33
-0.029898861423134804
  0
3DFACE
  8
0
 10
0.0
 20
0.006200009025633335
 30
-0.02706461399793625
 11
0.0
 21
0.006200008559972048
 31
-0.027907375246286392
 12
0.0
 22
0.0062000080943107605
 32
-0.028659703209996223
 13
0.0
 23
0.0062000080943107605
 33
-0.028659703209996223
  0
3DFACE
  8
0
 10
0.0
 20
0.00620000995695591
 30
-0.025101980194449425
 11
0.0
 21
0.006200009491294622
 31
-0.026129966601729393
 12
0.0
 22
0.006200009025633335
 32
-0.02706461399793625
 13
0.0
 23
0.006200009025633335
 33
-0.02706461399793625
  0
3DFACE
  8
0
 10
0.0
 20
0.006200010422617197
 30
-0.024075282737612724
 11
0.0
 21
0.006200010422617197
 31
-0.024599343538284302
 12
0.0
 22
0.00620000995695591
 32
-0.025101980194449425
 13
0.0
 23
0.00620000995695591
 33
-0.025101980194449425
  0
3DFACE
  8
0
 10
0.0
 20
0.006200010888278484
 30
-0.022956177592277527
 11
0.0
 21
0.006200010888278484
 31
-0.023528117686510086
 12
0.0
 22
0.006200010422617197
 32
-0.024075282737612724
 13
0.0
 23
0.006200010422617197
 33
-0.024075282737612724
  0
3DFACE
  8
0
 10
0.0
 20
0.006200011353939772
 30
-0.021731289103627205
 11
0.0
 21
0.006200010888278484
 31
-0.022357791662216187
 12
0.0
 22
0.006200010888278484
 32
-0.022956177592277527
 13
0.0
 23
0.006200010888278484
 33
-0.022956177592277527
  0
3DFACE
  8
0
 10
0.0
 20
0.006200011353939772
 30
-0.02038726396858692
 11
0.0
 21
0.006200011353939772
 31
-0.02107500471174717
 12
0.0
 22
0.006200011353939772
 32
-0.021731289103627205
 13
0.0
 23
0.006200011353939772
 33
-0.021731289103627205
  0
3DFACE
  8
0
 10
0.0
 20
0.006200011819601059
 30
-0.018910741433501244
 11
0.0
 21
0.006200011819601059
 31
-0.01966639794409275
 12
0.0
 22
0.006200011353939772
 32
-0.02038726396858692
 13
0.0
 23
0.006200011353939772
 33
-0.02038726396858692
  0
3DFACE
  8
0
 10
0.0
 20
0.006200011819601059
 30
-0.017288364470005035
 11
0.0
 21
0.006200011819601059
 31
-0.018118618056178093
 12
0.0
 22
0.006200011819601059
 32
-0.018910741433501244
 13
0.0
 23
0.006200011819601059
 33
-0.018910741433501244
  0
3DFACE
  8
0
 10
0.0
 20
0.006200010888278484
 30
-0.016358541324734688
 11
0.0
 21
0.006200011819601059
 31
-0.017288364470005035
 12
0.0
 22
0.006200011819601059
 32
-0.018910741433501244
 13
0.0
 23
0.006200011819601059
 33
-0.018910741433501244
  0
3DFACE
  8
0
 10
0.0
 20
0.006200011819601059
 30
-0.018910741433501244
 11
0.0
 21
0.006200011353939772
 31
-0.02038726396858692
 12
0.0
 22
0.006200011353939772
 32
-0.021731289103627205
 13
0.0
 23
0.006200011353939772
 33
-0.021731289103627205
  0
3DFACE
  8
0
 10
0.0
 20
0.006200011353939772
 30
-0.021731289103627205
 11
0.0
 21
0.006200010888278484
 31
-0.022956177592277527
 12
0.0
 22
0.006200010422617197
 32
-0.024075282737612724
 13
0.0
 23
0.006200010422617197
 33
-0.024075282737612724
  0
3DFACE
  8
0
 10
0.0
 20
0.006200010422617197
 30
-0.024075282737612724
 11
0.0
 21
0.00620000995695591
 31
-0.025101980194449425
 12
0.0
 22
0.006200009025633335
 32
-0.02706461399793625
 13
0.0
 23
0.006200009025633335
 33
-0.02706461399793625
  0
3DFACE
  8
0
 10
0.0
 20
0.006200009025633335
 30
-0.02706461399793625
 11
0.0
 21
0.0062000080943107605
 31
-0.028659703209996223
 12
0.0
 22
0.006200006697326899
 32
-0.029898861423134804
 13
0.0
 23
0.006200006697326899
 33
-0.029898861423134804
  0
3DFACE
  8
0
 10
0.0
 20
0.006200006697326899
 30
-0.029898861423134804
 11
0.0
 21
0.006200005766004324
 31
-0.030793702229857445
 12
0.0
 22
0.006200004369020462
 32
-0.0313558392226696
 13
0.0
 23
0.006200004369020462
 33
-0.0313558392226696
  0
3DFACE
  8
0
 10
0.0
 20
0.006200004369020462
 30
-0.0313558392226696
 11
0.0
 21
0.00619999784976244
 31
0.03259136155247688
 12
0.0
 22
0.00619999784976244
 32
0.03273329511284828
 13
0.0
 23
0.00619999784976244
 33
0.03273329511284828
  0
3DFACE
  8
0
 10
0.0
 20
0.00619999784976244
 30
0.03287612646818161
 11
0.0
 21
0.006199997384101152
 31
0.03634631261229515
 12
0.0
 22
0.006199997384101152
 32
0.03632766380906105
 13
0.0
 23
0.006199997384101152
 33
0.03632766380906105
  0
3DFACE
  8
0
 10
0.0
 20
0.006200006697326899
 30
-0.029898861423134804
 11
0.0
 21
0.006200004369020462
 31
-0.0313558392226696
 12
0.0
 22
0.00619999784976244
 32
0.03273329511284828
 13
0.0
 23
0.00619999784976244
 33
0.03273329511284828
  0
3DFACE
  8
0
 10
0.0
 20
0.00619999784976244
 30
0.03273329511284828
 11
0.0
 21
0.00619999784976244
 31
0.03287612646818161
 12
0.0
 22
0.006199997384101152
 32
0.03632766380906105
 13
0.0
 23
0.006199997384101152
 33
0.03632766380906105
  0
3DFACE
  8
0
 10
0.0
 20
0.006199997384101152
 30
0.03632766380906105
 11
0.0
 21
0.00619999784976244
 31
0.036271318793296814
 12
0.0
 22
0.006199998315423727
 32
0.036176666617393494
 13
0.0
 23
0.006199998315423727
 33
0.036176666617393494
  0
3DFACE
  8
0
 10
0.0
 20
0.006199998315423727
 30
0.036176666617393494
 11
0.0
 21
0.006199998315423727
 31
0.03604309260845184
 12
0.0
 22
0.006199998781085014
 32
0.03586999699473381
 13
0.0
 23
0.006199998781085014
 33
0.03586999699473381
  0
3DFACE
  8
0
 10
0.0
 20
0.006199998781085014
 30
0.03586999699473381
 11
0.0
 21
0.006199999246746302
 31
0.03565676882863045
 12
0.0
 22
0.006199999246746302
 32
0.0354028046131134
 13
0.0
 23
0.006199999246746302
 33
0.0354028046131134
  0
3DFACE
  8
0
 10
0.0
 20
0.006199999246746302
 30
0.0354028046131134
 11
0.0
 21
0.006199999712407589
 31
0.035107482224702835
 12
0.0
 22
0.006199999712407589
 32
0.03477020561695099
 13
0.0
 23
0.006199999712407589
 33
0.03477020561695099
  0
3DFACE
  8
0
 10
0.0
 20
0.006199999712407589
 30
0.03477020561695099
 11
0.0
 21
0.006200000178068876
 31
0.03439036384224892
 12
0.0
 22
0.006200000643730164
 32
0.03396735340356827
 13
0.0
 23
0.006200000643730164
 33
0.03396735340356827
  0
3DFACE
  8
0
 10
0.0
 20
0.006200000643730164
 30
0.03396735340356827
 11
0.0
 21
0.006200000643730164
 31
0.0335005447268486
 12
0.0
 22
0.006200001575052738
 32
0.03241194412112236
 13
0.0
 23
0.006200001575052738
 33
0.03241194412112236
  0
3DFACE
  8
0
 10
0.0
 20
0.006200001575052738
 30
0.03241194412112236
 11
0.0
 21
0.0062000020407140255
 31
0.031278304755687714
 12
0.0
 22
0.0062000029720366
 32
0.03009585477411747
 13
0.0
 23
0.0062000029720366
 33
0.03009585477411747
  0
3DFACE
  8
0
 10
0.0
 20
0.0062000029720366
 30
0.03009585477411747
 11
0.0
 21
0.006200003437697887
 31
0.028860824182629585
 12
0.0
 22
0.006200003903359175
 32
0.027569444850087166
 13
0.0
 23
0.006200003903359175
 33
0.027569444850087166
  0
3DFACE
  8
0
 10
0.0
 20
0.006200003903359175
 30
0.027569444850087166
 11
0.0
 21
0.006200004369020462
 31
0.026217948645353317
 12
0.0
 22
0.006200005300343037
 32
0.024802565574645996
 13
0.0
 23
0.006200005300343037
 33
0.024802565574645996
  0
3DFACE
  8
0
 10
0.0
 20
0.006200005300343037
 30
0.024802565574645996
 11
0.0
 21
0.006200005766004324
 31
0.02331952378153801
 12
0.0
 22
0.006200006231665611
 32
0.021765055134892464
 13
0.0
 23
0.006200006231665611
 33
0.021765055134892464
  0
3DFACE
  8
0
 10
0.0
 20
0.006200006231665611
 30
0.021765055134892464
 11
0.0
 21
0.006200006697326899
 31
0.020135393366217613
 12
0.0
 22
0.006200007162988186
 32
0.018426766619086266
 13
0.0
 23
0.006200007162988186
 33
0.018426766619086266
  0
3DFACE
  8
0
 10
0.0
 20
0.006200006231665611
 30
0.021765055134892464
 11
0.0
 21
0.006200007162988186
 31
0.018426766619086266
 12
0.0
 22
0.006200007628649473
 32
0.016635403037071228
 13
0.0
 23
0.006200007628649473
 33
0.016635403037071228
  0
3DFACE
  8
0
 10
0.0
 20
0.006200003903359175
 30
0.027569444850087166
 11
0.0
 21
0.006200005300343037
 31
0.024802565574645996
 12
0.0
 22
0.006200006231665611
 32
0.021765055134892464
 13
0.0
 23
0.006200006231665611
 33
0.021765055134892464
  0
3DFACE
  8
0
 10
0.0
 20
0.006200001575052738
 30
0.03241194412112236
 11
0.0
 21
0.0062000029720366
 31
0.03009585477411747
 12
0.0
 22
0.006200003903359175
 32
0.027569444850087166
 13
0.0
 23
0.006200003903359175
 33
0.027569444850087166
  0
3DFACE
  8
0
 10
0.0
 20
0.006199999712407589
 30
0.03477020561695099
 11
0.0
 21
0.006200000643730164
 31
0.03396735340356827
 12
0.0
 22
0.006200001575052738
 32
0.03241194412112236
 13
0.0
 23
0.006200001575052738
 33
0.03241194412112236
  0
3DFACE
  8
0
 10
0.0
 20
0.006199998781085014
 30
0.03586999699473381
 11
0.0
 21
0.006199999246746302
 31
0.0354028046131134
 12
0.0
 22
0.006199999712407589
 32
0.03477020561695099
 13
0.0
 23
0.006199999712407589
 33
0.03477020561695099
  0
3DFACE
  8
0
 10
0.0
 20
0.006199997384101152
 30
0.03632766380906105
 11
0.0
 21
0.006199998315423727
 31
0.036176666617393494
 12
0.0
 22
0.006199998781085014
 32
0.03586999699473381
 13
0.0
 23
0.006199998781085014
 33
0.03586999699473381
  0
3DFACE
  8
0
 10
0.0
 20
0.006200006697326899
 30
-0.029898861423134804
 11
0.0
 21
0.00619999784976244
 31
0.03273329511284828
 12
0.0
 22
0.006199997384101152
 32
0.03632766380906105
 13
0.0
 23
0.006199997384101152
 33
0.03632766380906105
  0
3DFACE
  8
0
 10
0.0
 20
0.006200010422617197
 30
-0.024075282737612724
 11
0.0
 21
0.006200009025633335
 31
-0.02706461399793625
 12
0.0
 22
0.006200006697326899
 32
-0.029898861423134804
 13
0.0
 23
0.006200006697326899
 33
-0.029898861423134804
  0
3DFACE
  8
0
 10
0.0
 20
0.006200011819601059
 30
-0.018910741433501244
 11
0.0
 21
0.006200011353939772
 31
-0.021731289103627205
 12
0.0
 22
0.006200010422617197
 32
-0.024075282737612724
 13
0.0
 23
0.006200010422617197
 33
-0.024075282737612724
  0
3DFACE
  8
0
 10
0.0
 20
0.006200010888278484
 30
-0.016311507672071457
 11
0.0
 21
0.006200010888278484
 31
-0.016358541324734688
 12
0.0
 22
0.006200011819601059
 32
-0.018910741433501244
 13
0.0
 23
0.006200011819601059
 33
-0.018910741433501244
  0
3DFACE
  8
0
 10
0.0
 20
0.006200010888278484
 30
-0.016247954219579697
 11
0.0
 21
0.006200010888278484
 31
-0.016311507672071457
 12
0.0
 22
0.006200011819601059
 32
-0.018910741433501244
 13
0.0
 23
0.006200011819601059
 33
-0.018910741433501244
  0
3DFACE
  8
0
 10
0.0
 20
0.006200011819601059
 30
-0.018910741433501244
 11
0.0
 21
0.006200010422617197
 31
-0.024075282737612724
 12
0.0
 22
0.006200006697326899
 32
-0.029898861423134804
 13
0.0
 23
0.006200006697326899
 33
-0.029898861423134804
  0
3DFACE
  8
0
 10
0.0
 20
0.006200006697326899
 30
-0.029898861423134804
 11
0.0
 21
0.006199997384101152
 31
0.03632766380906105
 12
0.0
 22
0.006199998781085014
 32
0.03586999699473381
 13
0.0
 23
0.006199998781085014
 33
0.03586999699473381
  0
3DFACE
  8
0
 10
0.0
 20
0.006199998781085014
 30
0.03586999699473381
 11
0.0
 21
0.006199999712407589
 31
0.03477020561695099
 12
0.0
 22
0.006200001575052738
 32
0.03241194412112236
 13
0.0
 23
0.006200001575052738
 33
0.03241194412112236
  0
3DFACE
  8
0
 10
0.0
 20
0.006200001575052738
 30
0.03241194412112236
 11
0.0
 21
0.006200003903359175
 31
0.027569444850087166
 12
0.0
 22
0.006200006231665611
 32
0.021765055134892464
 13
0.0
 23
0.006200006231665611
 33
0.021765055134892464
  0
3DFACE
  8
0
 10
0.0
 20
0.006200001575052738
 30
0.03241194412112236
 11
0.0
 21
0.006200006231665611
 31
0.021765055134892464
 12
0.0
 22
0.006200007628649473
 32
0.016635403037071228
 13
0.0
 23
0.006200007628649473
 33
0.016635403037071228
  0
3DFACE
  8
0
 10
0.0
 20
0.006200006697326899
 30
-0.029898861423134804
 11
0.0
 21
0.006199998781085014
 31
0.03586999699473381
 12
0.0
 22
0.006200001575052738
 32
0.03241194412112236
 13
0.0
 23
0.006200001575052738
 33
0.03241194412112236
  0
3DFACE
  8
0
 10
0.0
 20
0.006200010888278484
 30
-0.016247954219579697
 11
0.0
 21
0.006200011819601059
 31
-0.018910741433501244
 12
0.0
 22
0.006200006697326899
 32
-0.029898861423134804
 13
0.0
 23
0.006200006697326899
 33
-0.029898861423134804
  0
3DFACE
  8
0
 10
0.0
 20
0.006200010888278484
 30
-0.01616944558918476
 11
0.0
 21
0.006200010888278484
 31
-0.016247954219579697
 12
0.0
 22
0.006200006697326899
 32
-0.029898861423134804
 13
0.0
 23
0.006200006697326899
 33
-0.029898861423134804
  0
3DFACE
  8
0
 10
0.0
 20
0.006200006697326899
 30
-0.029898861423134804
 11
0.0
 21
0.006200001575052738
 31
0.03241194412112236
 12
0.0
 22
0.006200007628649473
 32
0.016635403037071228
 13
0.0
 23
0.006200007628649473
 33
0.016635403037071228
  0
3DFACE
  8
0
 10
0.0
 20
0.006200006697326899
 30
-0.029898861423134804
 11
0.0
 21
0.006200007628649473
 31
0.016635403037071228
 12
0.0
 22
0.006200007628649473
 32
0.016627250239253044
 13
0.0
 23
0.006200007628649473
 33
0.016627250239253044
  0
3DFACE
  8
0
 10
0.0
 20
0.006200010422617197
 30
-0.016077540814876556
 11
0.0
 21
0.006200010888278484
 31
-0.01616944558918476
 12
0.0
 22
0.006200006697326899
 32
-0.029898861423134804
 13
0.0
 23
0.006200006697326899
 33
-0.029898861423134804
  0
3DFACE
  8
0
 10
0.0
 20
0.006200010422617197
 30
-0.015973802655935287
 11
0.0
 21
0.006200010422617197
 31
-0.016077540814876556
 12
0.0
 22
0.006200006697326899
 32
-0.029898861423134804
 13
0.0
 23
0.006200006697326899
 33
-0.029898861423134804
  0
3DFACE
  8
0
 10
0.0
 20
0.006200006697326899
 30
-0.029898861423134804
 11
0.0
 21
0.006200007628649473
 31
0.016627250239253044
 12
0.0
 22
0.006200007628649473
 32
0.016619345173239708
 13
0.0
 23
0.006200007628649473
 33
0.016619345173239708
  0
3DFACE
  8
0
 10
0.0
 20
0.006200006697326899
 30
-0.029898861423134804
 11
0.0
 21
0.006200007628649473
 31
0.016619345173239708
 12
0.0
 22
0.006200007628649473
 32
0.01661164127290249
 13
0.0
 23
0.006200007628649473
 33
0.01661164127290249
  0
3DFACE
  8
0
 10
0.0
 20
0.006200010422617197
 30
-0.01585979387164116
 11
0.0
 21
0.006200010422617197
 31
-0.015973802655935287
 12
0.0
 22
0.006200006697326899
 32
-0.029898861423134804
 13
0.0
 23
0.006200006697326899
 33
-0.029898861423134804
  0
3DFACE
  8
0
 10
0.0
 20
0.006200010422617197
 30
-0.015737077221274376
 11
0.0
 21
0.006200010422617197
 31
-0.01585979387164116
 12
0.0
 22
0.006200006697326899
 32
-0.029898861423134804
 13
0.0
 23
0.006200006697326899
 33
-0.029898861423134804
  0
3DFACE
  8
0
 10
0.0
 20
0.006200006697326899
 30
-0.029898861423134804
 11
0.0
 21
0.006200007628649473
 31
0.01661164127290249
 12
0.0
 22
0.006200007628649473
 32
0.016604101285338402
 13
0.0
 23
0.006200007628649473
 33
0.016604101285338402
  0
3DFACE
  8
0
 10
0.0
 20
0.006200006697326899
 30
-0.029898861423134804
 11
0.0
 21
0.006200007628649473
 31
0.016604101285338402
 12
0.0
 22
0.006200007628649473
 32
0.01659669354557991
 13
0.0
 23
0.006200007628649473
 33
0.01659669354557991
  0
3DFACE
  8
0
 10
0.0
 20
0.006200010422617197
 30
-0.015607212670147419
 11
0.0
 21
0.006200010422617197
 31
-0.015737077221274376
 12
0.0
 22
0.006200006697326899
 32
-0.029898861423134804
 13
0.0
 23
0.006200006697326899
 33
-0.029898861423134804
  0
3DFACE
  8
0
 10
0.0
 20
0.006200010422617197
 30
-0.015471762977540493
 11
0.0
 21
0.006200010422617197
 31
-0.015607212670147419
 12
0.0
 22
0.006200006697326899
 32
-0.029898861423134804
 13
0.0
 23
0.006200006697326899
 33
-0.029898861423134804
  0
3DFACE
  8
0
 10
0.0
 20
0.006200006697326899
 30
-0.029898861423134804
 11
0.0
 21
0.006200007628649473
 31
0.01659669354557991
 12
0.0
 22
0.006200007628649473
 32
0.016589386388659477
 13
0.0
 23
0.006200007628649473
 33
0.016589386388659477
  0
3DFACE
  8
0
 10
0.0
 20
0.006200006697326899
 30
-0.029898861423134804
 11
0.0
 21
0.006200007628649473
 31
0.016589386388659477
 12
0.0
 22
0.006200007628649473
 32
0.016582144424319267
 13
0.0
 23
0.006200007628649473
 33
0.016582144424319267
  0
3DFACE
  8
0
 10
0.0
 20
0.006200010422617197
 30
-0.015332290902733803
 11
0.0
 21
0.006200010422617197
 31
-0.015471762977540493
 12
0.0
 22
0.006200006697326899
 32
-0.029898861423134804
 13
0.0
 23
0.006200006697326899
 33
-0.029898861423134804
  0
3DFACE
  8
0
 10
0.0
 20
0.006200010422617197
 30
-0.015190358273684978
 11
0.0
 21
0.006200010422617197
 31
-0.015332290902733803
 12
0.0
 22
0.006200006697326899
 32
-0.029898861423134804
 13
0.0
 23
0.006200006697326899
 33
-0.029898861423134804
  0
3DFACE
  8
0
 10
0.0
 20
0.006200006697326899
 30
-0.029898861423134804
 11
0.0
 21
0.006200007628649473
 31
0.016582144424319267
 12
0.0
 22
0.006200007628649473
 32
0.016574934124946594
 13
0.0
 23
0.006200007628649473
 33
0.016574934124946594
  0
3DFACE
  8
0
 10
0.0
 20
0.006200006697326899
 30
-0.029898861423134804
 11
0.0
 21
0.006200007628649473
 31
0.016574934124946594
 12
0.0
 22
0.006200007628649473
 32
0.016567721962928772
 13
0.0
 23
0.006200007628649473
 33
0.016567721962928772
  0
3DFACE
  8
0
 10
0.0
 20
0.006200010422617197
 30
-0.015047525055706501
 11
0.0
 21
0.006200010422617197
 31
-0.015190358273684978
 12
0.0
 22
0.006200006697326899
 32
-0.029898861423134804
 13
0.0
 23
0.006200006697326899
 33
-0.029898861423134804
  0
3DFACE
  8
0
 10
0.0
 20
0.006200010422617197
 30
-0.015037448145449162
 11
0.0
 21
0.006200010422617197
 31
-0.015047525055706501
 12
0.0
 22
0.006200006697326899
 32
-0.029898861423134804
 13
0.0
 23
0.006200006697326899
 33
-0.029898861423134804
  0
3DFACE
  8
0
 10
0.0
 20
0.006200006697326899
 30
-0.029898861423134804
 11
0.0
 21
0.006200007628649473
 31
0.016567721962928772
 12
0.0
 22
0.006200007628649473
 32
0.016560476273298264
 13
0.0
 23
0.006200007628649473
 33
0.016560476273298264
  0
3DFACE
  8
0
 10
0.0
 20
0.006200006697326899
 30
-0.029898861423134804
 11
0.0
 21
0.006200007628649473
 31
0.016560476273298264
 12
0.0
 22
0.006200007628649473
 32
0.016553163528442383
 13
0.0
 23
0.006200007628649473
 33
0.016553163528442383
  0
3DFACE
  8
0
 10
0.0
 20
0.006200010422617197
 30
-0.015027615241706371
 11
0.0
 21
0.006200010422617197
 31
-0.015037448145449162
 12
0.0
 22
0.006200006697326899
 32
-0.029898861423134804
 13
0.0
 23
0.006200006697326899
 33
-0.029898861423134804
  0
3DFACE
  8
0
 10
0.0
 20
0.006200010422617197
 30
-0.015017984434962273
 11
0.0
 21
0.006200010422617197
 31
-0.015027615241706371
 12
0.0
 22
0.006200006697326899
 32
-0.029898861423134804
 13
0.0
 23
0.006200006697326899
 33
-0.029898861423134804
  0
3DFACE
  8
0
 10
0.0
 20
0.006200006697326899
 30
-0.029898861423134804
 11
0.0
 21
0.006200007628649473
 31
0.016553163528442383
 12
0.0
 22
0.006200007628649473
 32
0.016545748338103294
 13
0.0
 23
0.006200007628649473
 33
0.016545748338103294
  0
3DFACE
  8
0
 10
0.0
 20
0.006200006697326899
 30
-0.029898861423134804
 11
0.0
 21
0.006200007628649473
 31
0.016545748338103294
 12
0.0
 22
0.006200007628649473
 32
0.016449950635433197
 13
0.0
 23
0.006200007628649473
 33
0.016449950635433197
  0
3DFACE
  8
0
 10
0.0
 20
0.006200010422617197
 30
-0.015008512884378433
 11
0.0
 21
0.006200010422617197
 31
-0.015017984434962273
 12
0.0
 22
0.006200006697326899
 32
-0.029898861423134804
 13
0.0
 23
0.006200006697326899
 33
-0.029898861423134804
  0
3DFACE
  8
0
 10
0.0
 20
0.006200010422617197
 30
-0.014999155886471272
 11
0.0
 21
0.006200010422617197
 31
-0.015008512884378433
 12
0.0
 22
0.006200006697326899
 32
-0.029898861423134804
 13
0.0
 23
0.006200006697326899
 33
-0.029898861423134804
  0
3DFACE
  8
0
 10
0.0
 20
0.006200006697326899
 30
-0.029898861423134804
 11
0.0
 21
0.006200007628649473
 31
0.016449950635433197
 12
0.0
 22
0.0062000080943107605
 32
0.01637157052755356
 13
0.0
 23
0.0062000080943107605
 33
0.01637157052755356
  0
3DFACE
  8
0
 10
0.0
 20
0.006200006697326899
 30
-0.029898861423134804
 11
0.0
 21
0.0062000080943107605
 31
0.01637157052755356
 12
0.0
 22
0.0062000080943107605
 32
0.016310609877109528
 13
0.0
 23
0.0062000080943107605
 33
0.016310609877109528
  0
3DFACE
  8
0
 10
0.0
 20
0.006200010422617197
 30
-0.014989873394370079
 11
0.0
 21
0.006200010422617197
 31
-0.014999155886471272
 12
0.0
 22
0.006200006697326899
 32
-0.029898861423134804
 13
0.0
 23
0.006200006697326899
 33
-0.029898861423134804
  0
3DFACE
  8
0
 10
0.0
 20
0.006200010422617197
 30
-0.014980621635913849
 11
0.0
 21
0.006200010422617197
 31
-0.014989873394370079
 12
0.0
 22
0.006200006697326899
 32
-0.029898861423134804
 13
0.0
 23
0.006200006697326899
 33
-0.029898861423134804
  0
3DFACE
  8
0
 10
0.0
 20
0.006200006697326899
 30
-0.029898861423134804
 11
0.0
 21
0.0062000080943107605
 31
0.016310609877109528
 12
0.0
 22
0.0062000080943107605
 32
0.016267064958810806
 13
0.0
 23
0.0062000080943107605
 33
0.016267064958810806
  0
3DFACE
  8
0
 10
0.0
 20
0.006200006697326899
 30
-0.029898861423134804
 11
0.0
 21
0.0062000080943107605
 31
0.016267064958810806
 12
0.0
 22
0.0062000080943107605
 32
0.016240937635302544
 13
0.0
 23
0.0062000080943107605
 33
0.016240937635302544
  0
3DFACE
  8
0
 10
0.0
 20
0.006200010422617197
 30
-0.014971358701586723
 11
0.0
 21
0.006200010422617197
 31
-0.014980621635913849
 12
0.0
 22
0.006200006697326899
 32
-0.029898861423134804
 13
0.0
 23
0.006200006697326899
 33
-0.029898861423134804
  0
3DFACE
  8
0
 10
0.0
 20
0.006200010422617197
 30
-0.01496204175055027
 11
0.0
 21
0.006200010422617197
 31
-0.014971358701586723
 12
0.0
 22
0.006200006697326899
 32
-0.029898861423134804
 13
0.0
 23
0.006200006697326899
 33
-0.029898861423134804
  0
3DFACE
  8
0
 10
0.0
 20
0.006200006697326899
 30
-0.029898861423134804
 11
0.0
 21
0.0062000080943107605
 31
0.016240937635302544
 12
0.0
 22
0.0062000080943107605
 32
0.01623222976922989
 13
0.0
 23
0.0062000080943107605
 33
0.01623222976922989
  0
3DFACE
  8
0
 10
0.0
 20
0.006200006697326899
 30
-0.029898861423134804
 11
0.0
 21
0.0062000080943107605
 31
0.01623222976922989
 12
0.0
 22
0.0062000080943107605
 32
0.016240937635302544
 13
0.0
 23
0.0062000080943107605
 33
0.016240937635302544
  0
3DFACE
  8
0
 10
0.0
 20
0.006200010422617197
 30
-0.014952627010643482
 11
0.0
 21
0.006200010422617197
 31
-0.01496204175055027
 12
0.0
 22
0.006200006697326899
 32
-0.029898861423134804
 13
0.0
 23
0.006200006697326899
 33
-0.029898861423134804
  0
3DFACE
  8
0
 10
0.0
 20
0.006200010422617197
 30
-0.014943072572350502
 11
0.0
 21
0.006200010422617197
 31
-0.014952627010643482
 12
0.0
 22
0.006200006697326899
 32
-0.029898861423134804
 13
0.0
 23
0.006200006697326899
 33
-0.029898861423134804
  0
3DFACE
  8
0
 10
0.0
 20
0.006200006697326899
 30
-0.029898861423134804
 11
0.0
 21
0.0062000080943107605
 31
0.016240937635302544
 12
0.0
 22
0.0062000080943107605
 32
0.016267064958810806
 13
0.0
 23
0.0062000080943107605
 33
0.016267064958810806
  0
3DFACE
  8
0
 10
0.0
 20
0.006200006697326899
 30
-0.029898861423134804
 11
0.0
 21
0.0062000080943107605
 31
0.016267064958810806
 12
0.0
 22
0.0062000080943107605
 32
0.016310609877109528
 13
0.0
 23
0.0062000080943107605
 33
0.016310609877109528
  0
3DFACE
  8
0
 10
0.0
 20
0.006200010422617197
 30
-0.014933337457478046
 11
0.0
 21
0.006200010422617197
 31
-0.014943072572350502
 12
0.0
 22
0.006200006697326899
 32
-0.029898861423134804
 13
0.0
 23
0.006200006697326899
 33
-0.029898861423134804
  0
3DFACE
  8
0
 10
0.0
 20
0.006200010888278484
 30
-0.011192277073860168
 11
0.0
 21
0.006200010422617197
 31
-0.013060841709375381
 12
0.0
 22
0.006200010422617197
 32
-0.014933337457478046
 13
0.0
 23
0.006200010422617197
 33
-0.014933337457478046
  0
3DFACE
  8
0
 10
0.0
 20
0.006200010888278484
 30
-0.00744600547477603
 11
0.0
 21
0.006200010888278484
 31
-0.00932240579277277
 12
0.0
 22
0.006200010888278484
 32
-0.011192277073860168
 13
0.0
 23
0.006200010888278484
 33
-0.011192277073860168
  0
3DFACE
  8
0
 10
0.0
 20
0.006200010888278484
 30
-0.0036527360789477825
 11
0.0
 21
0.006200010888278484
 31
-0.005557856056839228
 12
0.0
 22
0.006200010888278484
 32
-0.00744600547477603
 13
0.0
 23
0.006200010888278484
 33
-0.00744600547477603
  0
3DFACE
  8
0
 10
0.0
 20
0.006200010888278484
 30
0.0002292997669428587
 11
0.0
 21
0.006200010888278484
 31
-0.0017254245467483997
 12
0.0
 22
0.006200010888278484
 32
-0.0036527360789477825
 13
0.0
 23
0.006200010888278484
 33
-0.0036527360789477825
  0
3DFACE
  8
0
 10
0.0
 20
0.006200010888278484
 30
0.004241870250552893
 11
0.0
 21
0.006200010888278484
 31
0.002216657856479287
 12
0.0
 22
0.006200010888278484
 32
0.0002292997669428587
 13
0.0
 23
0.006200010888278484
 33
0.0002292997669428587
  0
3DFACE
  8
0
 10
0.0
 20
0.006200010422617197
 30
0.008426726795732975
 11
0.0
 21
0.006200010888278484
 31
0.006310158409178257
 12
0.0
 22
0.006200010888278484
 32
0.004241870250552893
 13
0.0
 23
0.006200010888278484
 33
0.004241870250552893
  0
3DFACE
  8
0
 10
0.0
 20
0.006200010422617197
 30
0.01034321915358305
 11
0.0
 21
0.006200010422617197
 31
0.0093961451202631
 12
0.0
 22
0.006200010422617197
 32
0.008426726795732975
 13
0.0
 23
0.006200010422617197
 33
0.008426726795732975
  0
3DFACE
  8
0
 10
0.0
 20
0.006200010422617197
 30
0.01217944361269474
 11
0.0
 21
0.006200010422617197
 31
0.01127022597938776
 12
0.0
 22
0.006200010422617197
 32
0.01034321915358305
 13
0.0
 23
0.006200010422617197
 33
0.01034321915358305
  0
3DFACE
  8
0
 10
0.0
 20
0.00620000995695591
 30
0.013953621499240398
 11
0.0
 21
0.00620000995695591
 31
0.0130731500685215
 12
0.0
 22
0.006200010422617197
 32
0.01217944361269474
 13
0.0
 23
0.006200010422617197
 33
0.01217944361269474
  0
3DFACE
  8
0
 10
0.0
 20
0.006200009491294622
 30
0.01568397507071495
 11
0.0
 21
0.00620000995695591
 31
0.014823137782514095
 12
0.0
 22
0.00620000995695591
 32
0.013953621499240398
 13
0.0
 23
0.00620000995695591
 33
0.013953621499240398
  0
3DFACE
  8
0
 10
0.0
 20
0.006200009491294622
 30
0.01738872565329075
 11
0.0
 21
0.006200009491294622
 31
0.016538411378860474
 12
0.0
 22
0.006200009491294622
 32
0.01568397507071495
 13
0.0
 23
0.006200009491294622
 33
0.01568397507071495
  0
3DFACE
  8
0
 10
0.0
 20
0.006200009025633335
 30
0.019086096435785294
 11
0.0
 21
0.006200009025633335
 31
0.018237194046378136
 12
0.0
 22
0.006200009491294622
 32
0.01738872565329075
 13
0.0
 23
0.006200009491294622
 33
0.01738872565329075
  0
3DFACE
  8
0
 10
0.0
 20
0.0062000080943107605
 30
0.016545748338103294
 11
0.0
 21
0.006200009025633335
 31
0.019086096435785294
 12
0.0
 22
0.006200009491294622
 32
0.01738872565329075
 13
0.0
 23
0.006200009491294622
 33
0.01738872565329075
  0
3DFACE
  8
0
 10
0.0
 20
0.006200009491294622
 30
0.01738872565329075
 11
0.0
 21
0.006200009491294622
 31
0.01568397507071495
 12
0.0
 22
0.00620000995695591
 32
0.013953621499240398
 13
0.0
 23
0.00620000995695591
 33
0.013953621499240398
  0
3DFACE
  8
0
 10
0.0
 20
0.00620000995695591
 30
0.013953621499240398
 11
0.0
 21
0.006200010422617197
 31
0.01217944361269474
 12
0.0
 22
0.006200010422617197
 32
0.01034321915358305
 13
0.0
 23
0.006200010422617197
 33
0.01034321915358305
  0
3DFACE
  8
0
 10
0.0
 20
0.006200010422617197
 30
0.01034321915358305
 11
0.0
 21
0.006200010422617197
 31
0.008426726795732975
 12
0.0
 22
0.006200010888278484
 32
0.004241870250552893
 13
0.0
 23
0.006200010888278484
 33
0.004241870250552893
  0
3DFACE
  8
0
 10
0.0
 20
0.006200010888278484
 30
0.004241870250552893
 11
0.0
 21
0.006200010888278484
 31
0.0002292997669428587
 12
0.0
 22
0.006200010888278484
 32
-0.0036527360789477825
 13
0.0
 23
0.006200010888278484
 33
-0.0036527360789477825
  0
3DFACE
  8
0
 10
0.0
 20
0.006200010888278484
 30
-0.0036527360789477825
 11
0.0
 21
0.006200010888278484
 31
-0.00744600547477603
 12
0.0
 22
0.006200010888278484
 32
-0.011192277073860168
 13
0.0
 23
0.006200010888278484
 33
-0.011192277073860168
  0
3DFACE
  8
0
 10
0.0
 20
0.006200010888278484
 30
-0.011192277073860168
 11
0.0
 21
0.006200010422617197
 31
-0.014933337457478046
 12
0.0
 22
0.006200006697326899
 32
-0.029898861423134804
 13
0.0
 23
0.006200006697326899
 33
-0.029898861423134804
  0
3DFACE
  8
0
 10
0.0
 20
0.006200006697326899
 30
-0.029898861423134804
 11
0.0
 21
0.0062000080943107605
 31
0.016310609877109528
 12
0.0
 22
0.0062000080943107605
 32
0.01637157052755356
 13
0.0
 23
0.0062000080943107605
 33
0.01637157052755356
  0
3DFACE
  8
0
 10
0.0
 20
0.0062000080943107605
 30
0.016449950635433197
 11
0.0
 21
0.0062000080943107605
 31
0.016545748338103294
 12
0.0
 22
0.006200009491294622
 32
0.01738872565329075
 13
0.0
 23
0.006200009491294622
 33
0.01738872565329075
  0
3DFACE
  8
0
 10
0.0
 20
0.006200006697326899
 30
-0.029898861423134804
 11
0.0
 21
0.0062000080943107605
 31
0.01637157052755356
 12
0.0
 22
0.0062000080943107605
 32
0.016449950635433197
 13
0.0
 23
0.0062000080943107605
 33
0.016449950635433197
  0
3DFACE
  8
0
 10
0.0
 20
0.006200010888278484
 30
-0.0036527360789477825
 11
0.0
 21
0.006200010888278484
 31
-0.011192277073860168
 12
0.0
 22
0.006200006697326899
 32
-0.029898861423134804
 13
0.0
 23
0.006200006697326899
 33
-0.029898861423134804
  0
3DFACE
  8
0
 10
0.0
 20
0.006200010422617197
 30
0.01034321915358305
 11
0.0
 21
0.006200010888278484
 31
0.004241870250552893
 12
0.0
 22
0.006200010888278484
 32
-0.0036527360789477825
 13
0.0
 23
0.006200010888278484
 33
-0.0036527360789477825
  0
3DFACE
  8
0
 10
0.0
 20
0.006200009491294622
 30
0.01738872565329075
 11
0.0
 21
0.00620000995695591
 31
0.013953621499240398
 12
0.0
 22
0.006200010422617197
 32
0.01034321915358305
 13
0.0
 23
0.006200010422617197
 33
0.01034321915358305
  0
3DFACE
  8
0
 10
0.0
 20
0.006200006697326899
 30
-0.029898861423134804
 11
0.0
 21
0.0062000080943107605
 31
0.016449950635433197
 12
0.0
 22
0.006200009491294622
 32
0.01738872565329075
 13
0.0
 23
0.006200009491294622
 33
0.01738872565329075
  0
3DFACE
  8
0
 10
0.0
 20
0.006200010422617197
 30
0.01034321915358305
 11
0.0
 21
0.006200010888278484
 31
-0.0036527360789477825
 12
0.0
 22
0.006200006697326899
 32
-0.029898861423134804
 13
0.0
 23
0.006200006697326899
 33
-0.029898861423134804
  0
3DFACE
  8
0
 10
0.0
 20
0.006200009491294622
 30
0.01738872565329075
 11
0.0
 21
0.006200010422617197
 31
0.01034321915358305
 12
0.0
 22
0.006200006697326899
 32
-0.029898861423134804
 13
0.0
 23
0.006200006697326899
 33
-0.029898861423134804
  0
ENDSEC
  0
EOF
