  0
SECTION
  2
BLOCKS
  0
ENDSEC
  0
SECTION
  2
ENTITIES
  0
LINE
  8
0
 10
33.1924
 20
-24.7945
 11
36.3425
 21
-24.1845
  0
LINE
  8
0
 10
36.3425
 20
-24.1845
 11
39.4083
 21
-23.1678
  0
LINE
  8
0
 10
39.4083
 20
-23.1678
 11
42.3476
 21
-21.7444
  0
LINE
  8
0
 10
42.3476
 20
-21.7444
 11
45.1181
 21
-19.9144
  0
LINE
  8
0
 10
45.1181
 20
-19.9144
 11
47.6777
 21
-17.6777
  0
LINE
  8
0
 10
47.6777
 20
-17.6777
 11
49.9144
 21
-15.1181
  0
LINE
  8
0
 10
49.9144
 20
-15.1181
 11
51.7445
 21
-12.3475
  0
LINE
  8
0
 10
51.7445
 20
-12.3475
 11
53.1678
 21
-9.40831
  0
LINE
  8
0
 10
53.1678
 20
-9.40831
 11
54.1845
 21
-6.3425
  0
LINE
  8
0
 10
54.1845
 20
-6.3425
 11
54.7945
 21
-3.19234
  0
LINE
  8
0
 10
54.7945
 20
-3.19234
 11
54.9979
 21
0
  0
LINE
  8
0
 10
54.9979
 20
0
 11
54.7945
 21
3.19235
  0
LINE
  8
0
 10
54.7945
 20
3.19235
 11
54.1845
 21
6.34251
  0
LINE
  8
0
 10
54.1845
 20
6.34251
 11
53.1678
 21
9.40831
  0
LINE
  8
0
 10
53.1678
 20
9.40831
 11
51.7444
 21
12.3476
  0
LINE
  8
0
 10
51.7444
 20
12.3476
 11
49.9144
 21
15.1181
  0
LINE
  8
0
 10
49.9144
 20
15.1181
 11
47.6777
 21
17.6777
  0
LINE
  8
0
 10
47.6777
 20
17.6777
 11
45.1181
 21
19.9144
  0
LINE
  8
0
 10
45.1181
 20
19.9144
 11
42.3475
 21
21.7444
  0
LINE
  8
0
 10
42.3475
 20
21.7444
 11
39.4083
 21
23.1678
  0
LINE
  8
0
 10
39.4083
 20
23.1678
 11
36.3425
 21
24.1845
  0
LINE
  8
0
 10
36.3425
 20
24.1845
 11
33.1923
 21
24.7945
  0
LINE
  8
0
 10
33.1923
 20
24.7945
 11
30
 21
24.9979
  0
LINE
  8
0
 10
30
 20
24.9979
 11
26.8076
 21
24.7945
  0
LINE
  8
0
 10
26.8076
 20
24.7945
 11
23.6575
 21
24.1845
  0
LINE
  8
0
 10
23.6575
 20
24.1845
 11
20.5917
 21
23.1678
  0
LINE
  8
0
 10
20.5917
 20
23.1678
 11
17.6524
 21
21.7444
  0
LINE
  8
0
 10
17.6524
 20
21.7444
 11
14.8819
 21
19.9144
  0
LINE
  8
0
 10
14.8819
 20
19.9144
 11
12.3223
 21
17.6777
  0
LINE
  8
0
 10
12.3223
 20
17.6777
 11
10.0856
 21
15.1181
  0
LINE
  8
0
 10
10.0856
 20
15.1181
 11
8.25554
 21
12.3475
  0
LINE
  8
0
 10
8.25554
 20
12.3475
 11
6.83217
 21
9.40831
  0
LINE
  8
0
 10
6.83217
 20
9.40831
 11
5.81548
 21
6.34251
  0
LINE
  8
0
 10
5.81548
 20
6.34251
 11
5.20544
 21
3.19234
  0
LINE
  8
0
 10
5.20544
 20
3.19234
 11
5.00211
 21
0
  0
LINE
  8
0
 10
5.00211
 20
0
 11
5.20546
 21
-3.19234
  0
LINE
  8
0
 10
5.20546
 20
-3.19234
 11
5.81548
 21
-6.34251
  0
LINE
  8
0
 10
5.81548
 20
-6.34251
 11
6.83217
 21
-9.40831
  0
LINE
  8
0
 10
6.83217
 20
-9.40831
 11
8.25554
 21
-12.3475
  0
LINE
  8
0
 10
8.25554
 20
-12.3475
 11
10.0856
 21
-15.1181
  0
LINE
  8
0
 10
10.0856
 20
-15.1181
 11
12.3223
 21
-17.6777
  0
LINE
  8
0
 10
12.3223
 20
-17.6777
 11
14.8819
 21
-19.9144
  0
LINE
  8
0
 10
14.8819
 20
-19.9144
 11
17.6524
 21
-21.7444
  0
LINE
  8
0
 10
17.6524
 20
-21.7444
 11
20.5917
 21
-23.1678
  0
LINE
  8
0
 10
20.5917
 20
-23.1678
 11
23.6575
 21
-24.1845
  0
LINE
  8
0
 10
23.6575
 20
-24.1845
 11
26.8076
 21
-24.7945
  0
LINE
  8
0
 10
26.8076
 20
-24.7945
 11
30
 21
-24.9979
  0
LINE
  8
0
 10
30
 20
-24.9979
 11
33.1924
 21
-24.7945
  0
LINE
  8
0
 10
22.17
 20
-13.562
 11
14.34
 21
0
  0
LINE
  8
0
 10
14.34
 20
0
 11
22.17
 21
13.562
  0
LINE
  8
0
 10
22.17
 20
13.562
 11
37.83
 21
13.562
  0
LINE
  8
0
 10
37.83
 20
13.562
 11
45.66
 21
0
  0
LINE
  8
0
 10
45.66
 20
0
 11
37.83
 21
-13.562
  0
LINE
  8
0
 10
37.83
 20
-13.562
 11
22.17
 21
-13.562
  0
ENDSEC
  0
SECTION
  2
OBJECTS
  0
DICTIONARY
  0
ENDSEC
  0
EOF
