  0
SECTION
  2
BLOCKS
  0
ENDSEC
  0
SECTION
  2
ENTITIES
  0
LINE
  8
0
 10
79
 20
41.5
 11
60
 21
41.5
  0
LINE
  8
0
 10
60
 20
41.5
 11
60
 21
0
  0
LINE
  8
0
 10
60
 20
0
 11
59.9189
 21
-2.20599
  0
LINE
  8
0
 10
59.9189
 20
-2.20599
 11
59.678
 21
-4.38522
  0
LINE
  8
0
 10
59.678
 20
-4.38522
 11
59.281
 21
-6.52985
  0
LINE
  8
0
 10
59.281
 20
-6.52985
 11
58.7315
 21
-8.632
  0
LINE
  8
0
 10
58.7315
 20
-8.632
 11
58.0331
 21
-10.6839
  0
LINE
  8
0
 10
58.0331
 20
-10.6839
 11
57.1897
 21
-12.6776
  0
LINE
  8
0
 10
57.1897
 20
-12.6776
 11
56.2047
 21
-14.6054
  0
LINE
  8
0
 10
56.2047
 20
-14.6054
 11
55.0818
 21
-16.4593
  0
LINE
  8
0
 10
55.0818
 20
-16.4593
 11
53.8248
 21
-18.2316
  0
LINE
  8
0
 10
53.8248
 20
-18.2316
 11
52.4373
 21
-19.9144
  0
LINE
  8
0
 10
52.4373
 20
-19.9144
 11
50.9228
 21
-21.4998
  0
LINE
  8
0
 10
50.9228
 20
-21.4998
 11
49.2852
 21
-22.98
  0
LINE
  8
0
 10
49.2852
 20
-22.98
 11
47.5432
 21
-24.336
  0
LINE
  8
0
 10
47.5432
 20
-24.336
 11
45.7191
 21
-25.5524
  0
LINE
  8
0
 10
45.7191
 20
-25.5524
 11
43.8211
 21
-26.6269
  0
LINE
  8
0
 10
43.8211
 20
-26.6269
 11
41.8576
 21
-27.5573
  0
LINE
  8
0
 10
41.8576
 20
-27.5573
 11
39.8369
 21
-28.3414
  0
LINE
  8
0
 10
39.8369
 20
-28.3414
 11
37.7675
 21
-28.977
  0
LINE
  8
0
 10
37.7675
 20
-28.977
 11
35.6577
 21
-29.4617
  0
LINE
  8
0
 10
35.6577
 20
-29.4617
 11
33.5157
 21
-29.7934
  0
LINE
  8
0
 10
33.5157
 20
-29.7934
 11
31.3501
 21
-29.9698
  0
LINE
  8
0
 10
31.3501
 20
-29.9698
 11
29.1691
 21
-29.9887
  0
LINE
  8
0
 10
29.1691
 20
-29.9887
 11
26.9812
 21
-29.8478
  0
LINE
  8
0
 10
26.9812
 20
-29.8478
 11
24.7946
 21
-29.5449
  0
LINE
  8
0
 10
24.7946
 20
-29.5449
 11
79
 21
-67.5
  0
LINE
  8
0
 10
79
 20
-67.5
 11
79
 21
41.5
  0
LINE
  8
0
 10
69.1451
 20
23.7575
 11
68.3252
 21
23.925
  0
LINE
  8
0
 10
68.3252
 20
23.925
 11
67.5478
 21
24.1951
  0
LINE
  8
0
 10
67.5478
 20
24.1951
 11
66.8203
 21
24.5601
  0
LINE
  8
0
 10
66.8203
 20
24.5601
 11
66.1503
 21
25.0127
  0
LINE
  8
0
 10
66.1503
 20
25.0127
 11
65.5452
 21
25.5452
  0
LINE
  8
0
 10
65.5452
 20
25.5452
 11
65.0127
 21
26.1503
  0
LINE
  8
0
 10
65.0127
 20
26.1503
 11
64.5601
 21
26.8203
  0
LINE
  8
0
 10
64.5601
 20
26.8203
 11
64.1951
 21
27.5477
  0
LINE
  8
0
 10
64.1951
 20
27.5477
 11
63.925
 21
28.3252
  0
LINE
  8
0
 10
63.925
 20
28.3252
 11
63.7575
 21
29.1451
  0
LINE
  8
0
 10
63.7575
 20
29.1451
 11
63.7
 21
30
  0
LINE
  8
0
 10
63.7
 20
30
 11
63.7575
 21
30.8549
  0
LINE
  8
0
 10
63.7575
 20
30.8549
 11
63.925
 21
31.6748
  0
LINE
  8
0
 10
63.925
 20
31.6748
 11
64.1951
 21
32.4522
  0
LINE
  8
0
 10
64.1951
 20
32.4522
 11
64.5601
 21
33.1797
  0
LINE
  8
0
 10
64.5601
 20
33.1797
 11
65.0127
 21
33.8497
  0
LINE
  8
0
 10
65.0127
 20
33.8497
 11
65.5452
 21
34.4548
  0
LINE
  8
0
 10
65.5452
 20
34.4548
 11
66.1503
 21
34.9873
  0
LINE
  8
0
 10
66.1503
 20
34.9873
 11
66.8203
 21
35.4399
  0
LINE
  8
0
 10
66.8203
 20
35.4399
 11
67.5478
 21
35.8049
  0
LINE
  8
0
 10
67.5478
 20
35.8049
 11
68.3252
 21
36.075
  0
LINE
  8
0
 10
68.3252
 20
36.075
 11
69.1451
 21
36.2425
  0
LINE
  8
0
 10
69.1451
 20
36.2425
 11
70
 21
36.3
  0
LINE
  8
0
 10
70
 20
36.3
 11
70.8549
 21
36.2425
  0
LINE
  8
0
 10
70.8549
 20
36.2425
 11
71.6748
 21
36.075
  0
LINE
  8
0
 10
71.6748
 20
36.075
 11
72.4522
 21
35.8049
  0
LINE
  8
0
 10
72.4522
 20
35.8049
 11
73.1797
 21
35.4399
  0
LINE
  8
0
 10
73.1797
 20
35.4399
 11
73.8497
 21
34.9873
  0
LINE
  8
0
 10
73.8497
 20
34.9873
 11
74.4548
 21
34.4548
  0
LINE
  8
0
 10
74.4548
 20
34.4548
 11
74.9873
 21
33.8497
  0
LINE
  8
0
 10
74.9873
 20
33.8497
 11
75.4398
 21
33.1797
  0
LINE
  8
0
 10
75.4398
 20
33.1797
 11
75.8049
 21
32.4522
  0
LINE
  8
0
 10
75.8049
 20
32.4522
 11
76.075
 21
31.6748
  0
LINE
  8
0
 10
76.075
 20
31.6748
 11
76.2425
 21
30.8549
  0
LINE
  8
0
 10
76.2425
 20
30.8549
 11
76.3
 21
30
  0
LINE
  8
0
 10
76.3
 20
30
 11
76.2425
 21
29.1451
  0
LINE
  8
0
 10
76.2425
 20
29.1451
 11
76.075
 21
28.3252
  0
LINE
  8
0
 10
76.075
 20
28.3252
 11
75.8049
 21
27.5477
  0
LINE
  8
0
 10
75.8049
 20
27.5477
 11
75.4398
 21
26.8203
  0
LINE
  8
0
 10
75.4398
 20
26.8203
 11
74.9873
 21
26.1503
  0
LINE
  8
0
 10
74.9873
 20
26.1503
 11
74.4548
 21
25.5452
  0
LINE
  8
0
 10
74.4548
 20
25.5452
 11
73.8497
 21
25.0127
  0
LINE
  8
0
 10
73.8497
 20
25.0127
 11
73.1797
 21
24.5601
  0
LINE
  8
0
 10
73.1797
 20
24.5601
 11
72.4522
 21
24.1951
  0
LINE
  8
0
 10
72.4522
 20
24.1951
 11
71.6748
 21
23.925
  0
LINE
  8
0
 10
71.6748
 20
23.925
 11
70.8549
 21
23.7575
  0
LINE
  8
0
 10
70.8549
 20
23.7575
 11
70
 21
23.7
  0
LINE
  8
0
 10
70
 20
23.7
 11
69.1451
 21
23.7575
  0
LINE
  8
0
 10
69.1451
 20
-51.2425
 11
68.3252
 21
-51.075
  0
LINE
  8
0
 10
68.3252
 20
-51.075
 11
67.5478
 21
-50.8049
  0
LINE
  8
0
 10
67.5478
 20
-50.8049
 11
66.8203
 21
-50.4399
  0
LINE
  8
0
 10
66.8203
 20
-50.4399
 11
66.1503
 21
-49.9873
  0
LINE
  8
0
 10
66.1503
 20
-49.9873
 11
65.5452
 21
-49.4548
  0
LINE
  8
0
 10
65.5452
 20
-49.4548
 11
65.0127
 21
-48.8497
  0
LINE
  8
0
 10
65.0127
 20
-48.8497
 11
64.5601
 21
-48.1797
  0
LINE
  8
0
 10
64.5601
 20
-48.1797
 11
64.1951
 21
-47.4522
  0
LINE
  8
0
 10
64.1951
 20
-47.4522
 11
63.925
 21
-46.6748
  0
LINE
  8
0
 10
63.925
 20
-46.6748
 11
63.7575
 21
-45.8549
  0
LINE
  8
0
 10
63.7575
 20
-45.8549
 11
63.7
 21
-45
  0
LINE
  8
0
 10
63.7
 20
-45
 11
63.7575
 21
-44.1451
  0
LINE
  8
0
 10
63.7575
 20
-44.1451
 11
63.925
 21
-43.3252
  0
LINE
  8
0
 10
63.925
 20
-43.3252
 11
64.1951
 21
-42.5477
  0
LINE
  8
0
 10
64.1951
 20
-42.5477
 11
64.5601
 21
-41.8203
  0
LINE
  8
0
 10
64.5601
 20
-41.8203
 11
65.0127
 21
-41.1502
  0
LINE
  8
0
 10
65.0127
 20
-41.1502
 11
65.5452
 21
-40.5452
  0
LINE
  8
0
 10
65.5452
 20
-40.5452
 11
66.1503
 21
-40.0127
  0
LINE
  8
0
 10
66.1503
 20
-40.0127
 11
66.8203
 21
-39.5601
  0
LINE
  8
0
 10
66.8203
 20
-39.5601
 11
67.5478
 21
-39.1951
  0
LINE
  8
0
 10
67.5478
 20
-39.1951
 11
68.3252
 21
-38.925
  0
LINE
  8
0
 10
68.3252
 20
-38.925
 11
69.1451
 21
-38.7575
  0
LINE
  8
0
 10
69.1451
 20
-38.7575
 11
70
 21
-38.7
  0
LINE
  8
0
 10
70
 20
-38.7
 11
70.8549
 21
-38.7575
  0
LINE
  8
0
 10
70.8549
 20
-38.7575
 11
71.6748
 21
-38.925
  0
LINE
  8
0
 10
71.6748
 20
-38.925
 11
72.4522
 21
-39.1951
  0
LINE
  8
0
 10
72.4522
 20
-39.1951
 11
73.1797
 21
-39.5601
  0
LINE
  8
0
 10
73.1797
 20
-39.5601
 11
73.8497
 21
-40.0127
  0
LINE
  8
0
 10
73.8497
 20
-40.0127
 11
74.4548
 21
-40.5452
  0
LINE
  8
0
 10
74.4548
 20
-40.5452
 11
74.9873
 21
-41.1502
  0
LINE
  8
0
 10
74.9873
 20
-41.1502
 11
75.4398
 21
-41.8203
  0
LINE
  8
0
 10
75.4398
 20
-41.8203
 11
75.8049
 21
-42.5477
  0
LINE
  8
0
 10
75.8049
 20
-42.5477
 11
76.075
 21
-43.3252
  0
LINE
  8
0
 10
76.075
 20
-43.3252
 11
76.2425
 21
-44.1451
  0
LINE
  8
0
 10
76.2425
 20
-44.1451
 11
76.3
 21
-45
  0
LINE
  8
0
 10
76.3
 20
-45
 11
76.2425
 21
-45.8549
  0
LINE
  8
0
 10
76.2425
 20
-45.8549
 11
76.075
 21
-46.6748
  0
LINE
  8
0
 10
76.075
 20
-46.6748
 11
75.8049
 21
-47.4522
  0
LINE
  8
0
 10
75.8049
 20
-47.4522
 11
75.4398
 21
-48.1797
  0
LINE
  8
0
 10
75.4398
 20
-48.1797
 11
74.9873
 21
-48.8497
  0
LINE
  8
0
 10
74.9873
 20
-48.8497
 11
74.4548
 21
-49.4548
  0
LINE
  8
0
 10
74.4548
 20
-49.4548
 11
73.8497
 21
-49.9873
  0
LINE
  8
0
 10
73.8497
 20
-49.9873
 11
73.1797
 21
-50.4398
  0
LINE
  8
0
 10
73.1797
 20
-50.4398
 11
72.4522
 21
-50.8049
  0
LINE
  8
0
 10
72.4522
 20
-50.8049
 11
71.6748
 21
-51.075
  0
LINE
  8
0
 10
71.6748
 20
-51.075
 11
70.8549
 21
-51.2425
  0
LINE
  8
0
 10
70.8549
 20
-51.2425
 11
70
 21
-51.3
  0
LINE
  8
0
 10
70
 20
-51.3
 11
69.1451
 21
-51.2425
  0
ENDSEC
  0
SECTION
  2
OBJECTS
  0
DICTIONARY
  0
ENDSEC
  0
EOF
