  0
SECTION
  2
BLOCKS
  0
ENDSEC
  0
SECTION
  2
ENTITIES
  0
LINE
  8
0
 10
79
 20
41.5
 11
60
 21
41.5
  0
LINE
  8
0
 10
60
 20
41.5
 11
60
 21
23
  0
LINE
  8
0
 10
60
 20
23
 11
61.8979
 21
20.2867
  0
LINE
  8
0
 10
61.8979
 20
20.2867
 11
63.5364
 21
17.4461
  0
LINE
  8
0
 10
63.5364
 20
17.4461
 11
64.9131
 21
14.4961
  0
LINE
  8
0
 10
64.9131
 20
14.4961
 11
66.0254
 21
11.4547
  0
LINE
  8
0
 10
66.0254
 20
11.4547
 11
66.8708
 21
8.33981
  0
LINE
  8
0
 10
66.8708
 20
8.33981
 11
67.447
 21
5.16946
  0
LINE
  8
0
 10
67.447
 20
5.16946
 11
67.7513
 21
1.96161
  0
LINE
  8
0
 10
67.7513
 20
1.96161
 11
67.7814
 21
-1.26579
  0
LINE
  8
0
 10
67.7814
 20
-1.26579
 11
67.5347
 21
-4.4948
  0
LINE
  8
0
 10
67.5347
 20
-4.4948
 11
67.0088
 21
-7.70744
  0
LINE
  8
0
 10
67.0088
 20
-7.70744
 11
66.2012
 21
-10.8858
  0
LINE
  8
0
 10
66.2012
 20
-10.8858
 11
65.1094
 21
-14.0118
  0
LINE
  8
0
 10
65.1094
 20
-14.0118
 11
63.7489
 21
-17.0305
  0
LINE
  8
0
 10
63.7489
 20
-17.0305
 11
62.1463
 21
-19.8916
  0
LINE
  8
0
 10
62.1463
 20
-19.8916
 11
60.3157
 21
-22.5836
  0
LINE
  8
0
 10
60.3157
 20
-22.5836
 11
58.2714
 21
-25.0951
  0
LINE
  8
0
 10
58.2714
 20
-25.0951
 11
56.0274
 21
-27.415
  0
LINE
  8
0
 10
56.0274
 20
-27.415
 11
53.5981
 21
-29.5319
  0
LINE
  8
0
 10
53.5981
 20
-29.5319
 11
50.9974
 21
-31.4344
  0
LINE
  8
0
 10
50.9974
 20
-31.4344
 11
48.2396
 21
-33.1112
  0
LINE
  8
0
 10
48.2396
 20
-33.1112
 11
45.3389
 21
-34.5511
  0
LINE
  8
0
 10
45.3389
 20
-34.5511
 11
42.3094
 21
-35.7426
  0
LINE
  8
0
 10
42.3094
 20
-35.7426
 11
39.1653
 21
-36.6746
  0
LINE
  8
0
 10
39.1653
 20
-36.6746
 11
35.9207
 21
-37.3356
  0
LINE
  8
0
 10
35.9207
 20
-37.3356
 11
79
 21
-67.5
  0
LINE
  8
0
 10
79
 20
-67.5
 11
79
 21
41.5
  0
LINE
  8
0
 10
69.1451
 20
23.7575
 11
68.3252
 21
23.925
  0
LINE
  8
0
 10
68.3252
 20
23.925
 11
67.5478
 21
24.1951
  0
LINE
  8
0
 10
67.5478
 20
24.1951
 11
66.8203
 21
24.5601
  0
LINE
  8
0
 10
66.8203
 20
24.5601
 11
66.1503
 21
25.0127
  0
LINE
  8
0
 10
66.1503
 20
25.0127
 11
65.5452
 21
25.5452
  0
LINE
  8
0
 10
65.5452
 20
25.5452
 11
65.0127
 21
26.1503
  0
LINE
  8
0
 10
65.0127
 20
26.1503
 11
64.5601
 21
26.8203
  0
LINE
  8
0
 10
64.5601
 20
26.8203
 11
64.1951
 21
27.5477
  0
LINE
  8
0
 10
64.1951
 20
27.5477
 11
63.925
 21
28.3252
  0
LINE
  8
0
 10
63.925
 20
28.3252
 11
63.7575
 21
29.1451
  0
LINE
  8
0
 10
63.7575
 20
29.1451
 11
63.7
 21
30
  0
LINE
  8
0
 10
63.7
 20
30
 11
63.7575
 21
30.8549
  0
LINE
  8
0
 10
63.7575
 20
30.8549
 11
63.925
 21
31.6748
  0
LINE
  8
0
 10
63.925
 20
31.6748
 11
64.1951
 21
32.4522
  0
LINE
  8
0
 10
64.1951
 20
32.4522
 11
64.5601
 21
33.1797
  0
LINE
  8
0
 10
64.5601
 20
33.1797
 11
65.0127
 21
33.8497
  0
LINE
  8
0
 10
65.0127
 20
33.8497
 11
65.5452
 21
34.4548
  0
LINE
  8
0
 10
65.5452
 20
34.4548
 11
66.1503
 21
34.9873
  0
LINE
  8
0
 10
66.1503
 20
34.9873
 11
66.8203
 21
35.4399
  0
LINE
  8
0
 10
66.8203
 20
35.4399
 11
67.5478
 21
35.8049
  0
LINE
  8
0
 10
67.5478
 20
35.8049
 11
68.3252
 21
36.075
  0
LINE
  8
0
 10
68.3252
 20
36.075
 11
69.1451
 21
36.2425
  0
LINE
  8
0
 10
69.1451
 20
36.2425
 11
70
 21
36.3
  0
LINE
  8
0
 10
70
 20
36.3
 11
70.8549
 21
36.2425
  0
LINE
  8
0
 10
70.8549
 20
36.2425
 11
71.6748
 21
36.075
  0
LINE
  8
0
 10
71.6748
 20
36.075
 11
72.4522
 21
35.8049
  0
LINE
  8
0
 10
72.4522
 20
35.8049
 11
73.1797
 21
35.4399
  0
LINE
  8
0
 10
73.1797
 20
35.4399
 11
73.8497
 21
34.9873
  0
LINE
  8
0
 10
73.8497
 20
34.9873
 11
74.4548
 21
34.4548
  0
LINE
  8
0
 10
74.4548
 20
34.4548
 11
74.9873
 21
33.8497
  0
LINE
  8
0
 10
74.9873
 20
33.8497
 11
75.4398
 21
33.1797
  0
LINE
  8
0
 10
75.4398
 20
33.1797
 11
75.8049
 21
32.4522
  0
LINE
  8
0
 10
75.8049
 20
32.4522
 11
76.075
 21
31.6748
  0
LINE
  8
0
 10
76.075
 20
31.6748
 11
76.2425
 21
30.8549
  0
LINE
  8
0
 10
76.2425
 20
30.8549
 11
76.3
 21
30
  0
LINE
  8
0
 10
76.3
 20
30
 11
76.2425
 21
29.1451
  0
LINE
  8
0
 10
76.2425
 20
29.1451
 11
76.075
 21
28.3252
  0
LINE
  8
0
 10
76.075
 20
28.3252
 11
75.8049
 21
27.5477
  0
LINE
  8
0
 10
75.8049
 20
27.5477
 11
75.4398
 21
26.8203
  0
LINE
  8
0
 10
75.4398
 20
26.8203
 11
74.9873
 21
26.1503
  0
LINE
  8
0
 10
74.9873
 20
26.1503
 11
74.4548
 21
25.5452
  0
LINE
  8
0
 10
74.4548
 20
25.5452
 11
73.8497
 21
25.0127
  0
LINE
  8
0
 10
73.8497
 20
25.0127
 11
73.1797
 21
24.5601
  0
LINE
  8
0
 10
73.1797
 20
24.5601
 11
72.4522
 21
24.1951
  0
LINE
  8
0
 10
72.4522
 20
24.1951
 11
71.6748
 21
23.925
  0
LINE
  8
0
 10
71.6748
 20
23.925
 11
70.8549
 21
23.7575
  0
LINE
  8
0
 10
70.8549
 20
23.7575
 11
70
 21
23.7
  0
LINE
  8
0
 10
70
 20
23.7
 11
69.1451
 21
23.7575
  0
LINE
  8
0
 10
69.1451
 20
-51.2425
 11
68.3252
 21
-51.075
  0
LINE
  8
0
 10
68.3252
 20
-51.075
 11
67.5478
 21
-50.8049
  0
LINE
  8
0
 10
67.5478
 20
-50.8049
 11
66.8203
 21
-50.4399
  0
LINE
  8
0
 10
66.8203
 20
-50.4399
 11
66.1503
 21
-49.9873
  0
LINE
  8
0
 10
66.1503
 20
-49.9873
 11
65.5452
 21
-49.4548
  0
LINE
  8
0
 10
65.5452
 20
-49.4548
 11
65.0127
 21
-48.8497
  0
LINE
  8
0
 10
65.0127
 20
-48.8497
 11
64.5601
 21
-48.1797
  0
LINE
  8
0
 10
64.5601
 20
-48.1797
 11
64.1951
 21
-47.4522
  0
LINE
  8
0
 10
64.1951
 20
-47.4522
 11
63.925
 21
-46.6748
  0
LINE
  8
0
 10
63.925
 20
-46.6748
 11
63.7575
 21
-45.8549
  0
LINE
  8
0
 10
63.7575
 20
-45.8549
 11
63.7
 21
-45
  0
LINE
  8
0
 10
63.7
 20
-45
 11
63.7575
 21
-44.1451
  0
LINE
  8
0
 10
63.7575
 20
-44.1451
 11
63.925
 21
-43.3252
  0
LINE
  8
0
 10
63.925
 20
-43.3252
 11
64.1951
 21
-42.5477
  0
LINE
  8
0
 10
64.1951
 20
-42.5477
 11
64.5601
 21
-41.8203
  0
LINE
  8
0
 10
64.5601
 20
-41.8203
 11
65.0127
 21
-41.1502
  0
LINE
  8
0
 10
65.0127
 20
-41.1502
 11
65.5452
 21
-40.5452
  0
LINE
  8
0
 10
65.5452
 20
-40.5452
 11
66.1503
 21
-40.0127
  0
LINE
  8
0
 10
66.1503
 20
-40.0127
 11
66.8203
 21
-39.5601
  0
LINE
  8
0
 10
66.8203
 20
-39.5601
 11
67.5478
 21
-39.1951
  0
LINE
  8
0
 10
67.5478
 20
-39.1951
 11
68.3252
 21
-38.925
  0
LINE
  8
0
 10
68.3252
 20
-38.925
 11
69.1451
 21
-38.7575
  0
LINE
  8
0
 10
69.1451
 20
-38.7575
 11
70
 21
-38.7
  0
LINE
  8
0
 10
70
 20
-38.7
 11
70.8549
 21
-38.7575
  0
LINE
  8
0
 10
70.8549
 20
-38.7575
 11
71.6748
 21
-38.925
  0
LINE
  8
0
 10
71.6748
 20
-38.925
 11
72.4522
 21
-39.1951
  0
LINE
  8
0
 10
72.4522
 20
-39.1951
 11
73.1797
 21
-39.5601
  0
LINE
  8
0
 10
73.1797
 20
-39.5601
 11
73.8497
 21
-40.0127
  0
LINE
  8
0
 10
73.8497
 20
-40.0127
 11
74.4548
 21
-40.5452
  0
LINE
  8
0
 10
74.4548
 20
-40.5452
 11
74.9873
 21
-41.1502
  0
LINE
  8
0
 10
74.9873
 20
-41.1502
 11
75.4398
 21
-41.8203
  0
LINE
  8
0
 10
75.4398
 20
-41.8203
 11
75.8049
 21
-42.5477
  0
LINE
  8
0
 10
75.8049
 20
-42.5477
 11
76.075
 21
-43.3252
  0
LINE
  8
0
 10
76.075
 20
-43.3252
 11
76.2425
 21
-44.1451
  0
LINE
  8
0
 10
76.2425
 20
-44.1451
 11
76.3
 21
-45
  0
LINE
  8
0
 10
76.3
 20
-45
 11
76.2425
 21
-45.8549
  0
LINE
  8
0
 10
76.2425
 20
-45.8549
 11
76.075
 21
-46.6748
  0
LINE
  8
0
 10
76.075
 20
-46.6748
 11
75.8049
 21
-47.4522
  0
LINE
  8
0
 10
75.8049
 20
-47.4522
 11
75.4398
 21
-48.1797
  0
LINE
  8
0
 10
75.4398
 20
-48.1797
 11
74.9873
 21
-48.8497
  0
LINE
  8
0
 10
74.9873
 20
-48.8497
 11
74.4548
 21
-49.4548
  0
LINE
  8
0
 10
74.4548
 20
-49.4548
 11
73.8497
 21
-49.9873
  0
LINE
  8
0
 10
73.8497
 20
-49.9873
 11
73.1797
 21
-50.4398
  0
LINE
  8
0
 10
73.1797
 20
-50.4398
 11
72.4522
 21
-50.8049
  0
LINE
  8
0
 10
72.4522
 20
-50.8049
 11
71.6748
 21
-51.075
  0
LINE
  8
0
 10
71.6748
 20
-51.075
 11
70.8549
 21
-51.2425
  0
LINE
  8
0
 10
70.8549
 20
-51.2425
 11
70
 21
-51.3
  0
LINE
  8
0
 10
70
 20
-51.3
 11
69.1451
 21
-51.2425
  0
ENDSEC
  0
SECTION
  2
OBJECTS
  0
DICTIONARY
  0
ENDSEC
  0
EOF
