  0
SECTION
  2
BLOCKS
  0
ENDSEC
  0
SECTION
  2
ENTITIES
  0
LINE
  8
0
 10
30.0124
 20
-36.3277
 11
30.9596
 21
-36.2713
  0
LINE
  8
0
 10
30.9596
 20
-36.2713
 11
31.8868
 21
-36.1767
  0
LINE
  8
0
 10
31.8868
 20
-36.1767
 11
32.7963
 21
-36.0431
  0
LINE
  8
0
 10
32.7963
 20
-36.0431
 11
33.6903
 21
-35.87
  0
LINE
  8
0
 10
33.6903
 20
-35.87
 11
34.5713
 21
-35.6568
  0
LINE
  8
0
 10
34.5713
 20
-35.6568
 11
35.4413
 21
-35.4028
  0
LINE
  8
0
 10
35.4413
 20
-35.4028
 11
36.3028
 21
-35.1075
  0
LINE
  8
0
 10
36.3028
 20
-35.1075
 11
37.1579
 21
-34.7702
  0
LINE
  8
0
 10
37.1579
 20
-34.7702
 11
38.009
 21
-34.3904
  0
LINE
  8
0
 10
38.009
 20
-34.3904
 11
38.8584
 21
-33.9673
  0
LINE
  8
0
 10
38.8584
 20
-33.9673
 11
39.7083
 21
-33.5005
  0
LINE
  8
0
 10
39.7083
 20
-33.5005
 11
41.5238
 21
-32.4119
  0
LINE
  8
0
 10
41.5238
 20
-32.4119
 11
43.2576
 21
-31.2783
  0
LINE
  8
0
 10
43.2576
 20
-31.2783
 11
44.9134
 21
-30.0958
  0
LINE
  8
0
 10
44.9134
 20
-30.0958
 11
46.4951
 21
-28.8608
  0
LINE
  8
0
 10
46.4951
 20
-28.8608
 11
48.0067
 21
-27.5694
  0
LINE
  8
0
 10
48.0067
 20
-27.5694
 11
49.4519
 21
-26.2179
  0
LINE
  8
0
 10
49.4519
 20
-26.2179
 11
50.8345
 21
-24.8026
  0
LINE
  8
0
 10
50.8345
 20
-24.8026
 11
52.1586
 21
-23.3195
  0
LINE
  8
0
 10
52.1586
 20
-23.3195
 11
53.4277
 21
-21.765
  0
LINE
  8
0
 10
53.4277
 20
-21.765
 11
54.646
 21
-20.1354
  0
LINE
  8
0
 10
54.646
 20
-20.1354
 11
55.8172
 21
-18.4268
  0
LINE
  8
0
 10
55.8172
 20
-18.4268
 11
56.9451
 21
-16.6354
  0
LINE
  8
0
 10
56.9451
 20
-16.6354
 11
56.9516
 21
-16.6272
  0
LINE
  8
0
 10
56.9516
 20
-16.6272
 11
56.9581
 21
-16.6193
  0
LINE
  8
0
 10
56.9581
 20
-16.6193
 11
56.9645
 21
-16.6116
  0
LINE
  8
0
 10
56.9645
 20
-16.6116
 11
56.9709
 21
-16.6041
  0
LINE
  8
0
 10
56.9709
 20
-16.6041
 11
56.9773
 21
-16.5967
  0
LINE
  8
0
 10
56.9773
 20
-16.5967
 11
56.9838
 21
-16.5894
  0
LINE
  8
0
 10
56.9838
 20
-16.5894
 11
56.9903
 21
-16.5821
  0
LINE
  8
0
 10
56.9903
 20
-16.5821
 11
56.997
 21
-16.5749
  0
LINE
  8
0
 10
56.997
 20
-16.5749
 11
57.0037
 21
-16.5677
  0
LINE
  8
0
 10
57.0037
 20
-16.5677
 11
57.0107
 21
-16.5605
  0
LINE
  8
0
 10
57.0107
 20
-16.5605
 11
57.0178
 21
-16.5532
  0
LINE
  8
0
 10
57.0178
 20
-16.5532
 11
57.0252
 21
-16.5457
  0
LINE
  8
0
 10
57.0252
 20
-16.5457
 11
57.1348
 21
-16.4499
  0
LINE
  8
0
 10
57.1348
 20
-16.4499
 11
57.2534
 21
-16.3716
  0
LINE
  8
0
 10
57.2534
 20
-16.3716
 11
57.3793
 21
-16.3106
  0
LINE
  8
0
 10
57.3793
 20
-16.3106
 11
57.5105
 21
-16.2671
  0
LINE
  8
0
 10
57.5105
 20
-16.2671
 11
57.6454
 21
-16.2409
  0
LINE
  8
0
 10
57.6454
 20
-16.2409
 11
57.7821
 21
-16.2322
  0
LINE
  8
0
 10
57.7821
 20
-16.2322
 11
57.9187
 21
-16.2409
  0
LINE
  8
0
 10
57.9187
 20
-16.2409
 11
58.0536
 21
-16.2671
  0
LINE
  8
0
 10
58.0536
 20
-16.2671
 11
58.1849
 21
-16.3106
  0
LINE
  8
0
 10
58.1849
 20
-16.3106
 11
58.3107
 21
-16.3716
  0
LINE
  8
0
 10
58.3107
 20
-16.3716
 11
58.4294
 21
-16.4499
  0
LINE
  8
0
 10
58.4294
 20
-16.4499
 11
58.539
 21
-16.5457
  0
LINE
  8
0
 10
58.539
 20
-16.5457
 11
61.0793
 21
-19.0861
  0
LINE
  8
0
 10
61.0793
 20
-19.0861
 11
61.5479
 21
-18.2372
  0
LINE
  8
0
 10
61.5479
 20
-18.2372
 11
61.9727
 21
-17.3887
  0
LINE
  8
0
 10
61.9727
 20
-17.3887
 11
62.3544
 21
-16.5384
  0
LINE
  8
0
 10
62.3544
 20
-16.5384
 11
62.6934
 21
-15.684
  0
LINE
  8
0
 10
62.6934
 20
-15.684
 11
62.9906
 21
-14.8231
  0
LINE
  8
0
 10
62.9906
 20
-14.8231
 11
63.2464
 21
-13.9536
  0
LINE
  8
0
 10
63.2464
 20
-13.9536
 11
63.4614
 21
-13.0732
  0
LINE
  8
0
 10
63.4614
 20
-13.0732
 11
63.6364
 21
-12.1794
  0
LINE
  8
0
 10
63.6364
 20
-12.1794
 11
63.9475
 21
-8.42671
  0
LINE
  8
0
 10
63.9475
 20
-8.42671
 11
63.9126
 21
-6.31015
  0
LINE
  8
0
 10
63.9126
 20
-6.31015
 11
63.7977
 21
-4.24187
  0
LINE
  8
0
 10
63.7977
 20
-4.24187
 11
63.6015
 21
-2.21664
  0
LINE
  8
0
 10
63.6015
 20
-2.21664
 11
63.3228
 21
-0.229294
  0
LINE
  8
0
 10
63.3228
 20
-0.229294
 11
62.9603
 21
1.72542
  0
LINE
  8
0
 10
62.9603
 20
1.72542
 11
62.5124
 21
3.65273
  0
LINE
  8
0
 10
62.5124
 20
3.65273
 11
61.978
 21
5.55785
  0
LINE
  8
0
 10
61.978
 20
5.55785
 11
61.3556
 21
7.446
  0
LINE
  8
0
 10
61.3556
 20
7.446
 11
60.644
 21
9.3224
  0
LINE
  8
0
 10
60.644
 20
9.3224
 11
59.8418
 21
11.1923
  0
LINE
  8
0
 10
59.8418
 20
11.1923
 11
58.9477
 21
13.0608
  0
LINE
  8
0
 10
58.9477
 20
13.0608
 11
57.9603
 21
14.9333
  0
LINE
  8
0
 10
57.9603
 20
14.9333
 11
57.9565
 21
14.9431
  0
LINE
  8
0
 10
57.9565
 20
14.9431
 11
57.9529
 21
14.9526
  0
LINE
  8
0
 10
57.9529
 20
14.9526
 11
57.9494
 21
14.962
  0
LINE
  8
0
 10
57.9494
 20
14.962
 11
57.9461
 21
14.9713
  0
LINE
  8
0
 10
57.9461
 20
14.9713
 11
57.9429
 21
14.9806
  0
LINE
  8
0
 10
57.9429
 20
14.9806
 11
57.9398
 21
14.9899
  0
LINE
  8
0
 10
57.9398
 20
14.9899
 11
57.9368
 21
14.9991
  0
LINE
  8
0
 10
57.9368
 20
14.9991
 11
57.9339
 21
15.0085
  0
LINE
  8
0
 10
57.9339
 20
15.0085
 11
57.931
 21
15.018
  0
LINE
  8
0
 10
57.931
 20
15.018
 11
57.9282
 21
15.0276
  0
LINE
  8
0
 10
57.9282
 20
15.0276
 11
57.9254
 21
15.0374
  0
LINE
  8
0
 10
57.9254
 20
15.0374
 11
57.9227
 21
15.0475
  0
LINE
  8
0
 10
57.9227
 20
15.0475
 11
57.8945
 21
15.1904
  0
LINE
  8
0
 10
57.8945
 20
15.1904
 11
57.886
 21
15.3323
  0
LINE
  8
0
 10
57.886
 20
15.3323
 11
57.8961
 21
15.4718
  0
LINE
  8
0
 10
57.8961
 20
15.4718
 11
57.924
 21
15.6072
  0
LINE
  8
0
 10
57.924
 20
15.6072
 11
57.9688
 21
15.7371
  0
LINE
  8
0
 10
57.9688
 20
15.7371
 11
58.0296
 21
15.8598
  0
LINE
  8
0
 10
58.0296
 20
15.8598
 11
58.1055
 21
15.9738
  0
LINE
  8
0
 10
58.1055
 20
15.9738
 11
58.1956
 21
16.0775
  0
LINE
  8
0
 10
58.1956
 20
16.0775
 11
58.2989
 21
16.1694
  0
LINE
  8
0
 10
58.2989
 20
16.1694
 11
58.4146
 21
16.2479
  0
LINE
  8
0
 10
58.4146
 20
16.2479
 11
58.5418
 21
16.3115
  0
LINE
  8
0
 10
58.5418
 20
16.3115
 11
58.6796
 21
16.3585
  0
LINE
  8
0
 10
58.6796
 20
16.3585
 11
62.1498
 21
17.2884
  0
LINE
  8
0
 10
62.1498
 20
17.2884
 11
61.6489
 21
18.1186
  0
LINE
  8
0
 10
61.6489
 20
18.1186
 11
61.1265
 21
18.9107
  0
LINE
  8
0
 10
61.1265
 20
18.9107
 11
60.5809
 21
19.6664
  0
LINE
  8
0
 10
60.5809
 20
19.6664
 11
60.0105
 21
20.3873
  0
LINE
  8
0
 10
60.0105
 20
20.3873
 11
59.4136
 21
21.075
  0
LINE
  8
0
 10
59.4136
 20
21.075
 11
58.7884
 21
21.7313
  0
LINE
  8
0
 10
58.7884
 20
21.7313
 11
58.1335
 21
22.3578
  0
LINE
  8
0
 10
58.1335
 20
22.3578
 11
57.447
 21
22.9562
  0
LINE
  8
0
 10
57.447
 20
22.9562
 11
56.7273
 21
23.5281
  0
LINE
  8
0
 10
56.7273
 20
23.5281
 11
55.9728
 21
24.0753
  0
LINE
  8
0
 10
55.9728
 20
24.0753
 11
55.1818
 21
24.5993
  0
LINE
  8
0
 10
55.1818
 20
24.5993
 11
54.3526
 21
25.102
  0
LINE
  8
0
 10
54.3526
 20
25.102
 11
52.5021
 21
26.13
  0
LINE
  8
0
 10
52.5021
 20
26.13
 11
50.6534
 21
27.0646
  0
LINE
  8
0
 10
50.6534
 20
27.0646
 11
48.8015
 21
27.9074
  0
LINE
  8
0
 10
48.8015
 20
27.9074
 11
46.941
 21
28.6597
  0
LINE
  8
0
 10
46.941
 20
28.6597
 11
45.0669
 21
29.323
  0
LINE
  8
0
 10
45.0669
 20
29.323
 11
43.1739
 21
29.8988
  0
LINE
  8
0
 10
43.1739
 20
29.8988
 11
41.2568
 21
30.3886
  0
LINE
  8
0
 10
41.2568
 20
30.3886
 11
39.3104
 21
30.7937
  0
LINE
  8
0
 10
39.3104
 20
30.7937
 11
37.3296
 21
31.1156
  0
LINE
  8
0
 10
37.3296
 20
31.1156
 11
35.3092
 21
31.3558
  0
LINE
  8
0
 10
35.3092
 20
31.3558
 11
33.2439
 21
31.5158
  0
LINE
  8
0
 10
33.2439
 20
31.5158
 11
31.1286
 21
31.5969
  0
LINE
  8
0
 10
31.1286
 20
31.5969
 11
31.1182
 21
31.5985
  0
LINE
  8
0
 10
31.1182
 20
31.5985
 11
31.1082
 21
31.6001
  0
LINE
  8
0
 10
31.1082
 20
31.6001
 11
31.0983
 21
31.6018
  0
LINE
  8
0
 10
31.0983
 20
31.6018
 11
31.0885
 21
31.6036
  0
LINE
  8
0
 10
31.0885
 20
31.6036
 11
31.0789
 21
31.6055
  0
LINE
  8
0
 10
31.0789
 20
31.6055
 11
31.0694
 21
31.6074
  0
LINE
  8
0
 10
31.0694
 20
31.6074
 11
31.0598
 21
31.6095
  0
LINE
  8
0
 10
31.0598
 20
31.6095
 11
31.0502
 21
31.6116
  0
LINE
  8
0
 10
31.0502
 20
31.6116
 11
31.0406
 21
31.6139
  0
LINE
  8
0
 10
31.0406
 20
31.6139
 11
31.0309
 21
31.6162
  0
LINE
  8
0
 10
31.0309
 20
31.6162
 11
31.021
 21
31.6188
  0
LINE
  8
0
 10
31.021
 20
31.6188
 11
31.0109
 21
31.6214
  0
LINE
  8
0
 10
31.0109
 20
31.6214
 11
30.8731
 21
31.6685
  0
LINE
  8
0
 10
30.8731
 20
31.6685
 11
30.7459
 21
31.732
  0
LINE
  8
0
 10
30.7459
 20
31.732
 11
30.6302
 21
31.8105
  0
LINE
  8
0
 10
30.6302
 20
31.8105
 11
30.5268
 21
31.9024
  0
LINE
  8
0
 10
30.5268
 20
31.9024
 11
30.4368
 21
32.0062
  0
LINE
  8
0
 10
30.4368
 20
32.0062
 11
30.3609
 21
32.1202
  0
LINE
  8
0
 10
30.3609
 20
32.1202
 11
30.3001
 21
32.2429
  0
LINE
  8
0
 10
30.3001
 20
32.2429
 11
30.2553
 21
32.3728
  0
LINE
  8
0
 10
30.2553
 20
32.3728
 11
30.2274
 21
32.5082
  0
LINE
  8
0
 10
30.2274
 20
32.5082
 11
30.2172
 21
32.6477
  0
LINE
  8
0
 10
30.2172
 20
32.6477
 11
30.2258
 21
32.7896
  0
LINE
  8
0
 10
30.2258
 20
32.7896
 11
30.254
 21
32.9324
  0
LINE
  8
0
 10
30.254
 20
32.9324
 11
31.1838
 21
36.4026
  0
LINE
  8
0
 10
31.1838
 20
36.4026
 11
30.2143
 21
36.384
  0
LINE
  8
0
 10
30.2143
 20
36.384
 11
29.2671
 21
36.3276
  0
LINE
  8
0
 10
29.2671
 20
36.3276
 11
28.3399
 21
36.233
  0
LINE
  8
0
 10
28.3399
 20
36.233
 11
27.4304
 21
36.0994
  0
LINE
  8
0
 10
27.4304
 20
36.0994
 11
26.5363
 21
35.9263
  0
LINE
  8
0
 10
26.5363
 20
35.9263
 11
25.6554
 21
35.7131
  0
LINE
  8
0
 10
25.6554
 20
35.7131
 11
24.7854
 21
35.4591
  0
LINE
  8
0
 10
24.7854
 20
35.4591
 11
23.9239
 21
35.1638
  0
LINE
  8
0
 10
23.9239
 20
35.1638
 11
23.0688
 21
34.8265
  0
LINE
  8
0
 10
23.0688
 20
34.8265
 11
22.2177
 21
34.4467
  0
LINE
  8
0
 10
22.2177
 20
34.4467
 11
21.3683
 21
34.0236
  0
LINE
  8
0
 10
21.3683
 20
34.0236
 11
20.5184
 21
33.5568
  0
LINE
  8
0
 10
20.5184
 20
33.5568
 11
18.7029
 21
32.4682
  0
LINE
  8
0
 10
18.7029
 20
32.4682
 11
16.9692
 21
31.3346
  0
LINE
  8
0
 10
16.9692
 20
31.3346
 11
15.3133
 21
30.1522
  0
LINE
  8
0
 10
15.3133
 20
30.1522
 11
13.7316
 21
28.9171
  0
LINE
  8
0
 10
13.7316
 20
28.9171
 11
12.22
 21
27.6257
  0
LINE
  8
0
 10
12.22
 20
27.6257
 11
10.7748
 21
26.2742
  0
LINE
  8
0
 10
10.7748
 20
26.2742
 11
9.39218
 21
24.8589
  0
LINE
  8
0
 10
9.39218
 20
24.8589
 11
8.06816
 21
23.3758
  0
LINE
  8
0
 10
8.06816
 20
23.3758
 11
6.79895
 21
21.8214
  0
LINE
  8
0
 10
6.79895
 20
21.8214
 11
5.5807
 21
20.1917
  0
LINE
  8
0
 10
5.5807
 20
20.1917
 11
4.40955
 21
18.4831
  0
LINE
  8
0
 10
4.40955
 20
18.4831
 11
3.28165
 21
16.6917
  0
LINE
  8
0
 10
3.28165
 20
16.6917
 11
3.2751
 21
16.6836
  0
LINE
  8
0
 10
3.2751
 20
16.6836
 11
3.26863
 21
16.6757
  0
LINE
  8
0
 10
3.26863
 20
16.6757
 11
3.26221
 21
16.668
  0
LINE
  8
0
 10
3.26221
 20
16.668
 11
3.2558
 21
16.6604
  0
LINE
  8
0
 10
3.2558
 20
16.6604
 11
3.24939
 21
16.653
  0
LINE
  8
0
 10
3.24939
 20
16.653
 11
3.24292
 21
16.6457
  0
LINE
  8
0
 10
3.24292
 20
16.6457
 11
3.23639
 21
16.6385
  0
LINE
  8
0
 10
3.23639
 20
16.6385
 11
3.22974
 21
16.6313
  0
LINE
  8
0
 10
3.22974
 20
16.6313
 11
3.22296
 21
16.624
  0
LINE
  8
0
 10
3.22296
 20
16.624
 11
3.21603
 21
16.6168
  0
LINE
  8
0
 10
3.21603
 20
16.6168
 11
3.20889
 21
16.6095
  0
LINE
  8
0
 10
3.20889
 20
16.6095
 11
3.20154
 21
16.6021
  0
LINE
  8
0
 10
3.20154
 20
16.6021
 11
3.09192
 21
16.5063
  0
LINE
  8
0
 10
3.09192
 20
16.5063
 11
2.97328
 21
16.4279
  0
LINE
  8
0
 10
2.97328
 20
16.4279
 11
2.84744
 21
16.3669
  0
LINE
  8
0
 10
2.84744
 20
16.3669
 11
2.71617
 21
16.3234
  0
LINE
  8
0
 10
2.71617
 20
16.3234
 11
2.5813
 21
16.2973
  0
LINE
  8
0
 10
2.5813
 20
16.2973
 11
2.44463
 21
16.2885
  0
LINE
  8
0
 10
2.44463
 20
16.2885
 11
2.30795
 21
16.2973
  0
LINE
  8
0
 10
2.30795
 20
16.2973
 11
2.17308
 21
16.3234
  0
LINE
  8
0
 10
2.17308
 20
16.3234
 11
2.04182
 21
16.3669
  0
LINE
  8
0
 10
2.04182
 20
16.3669
 11
1.91597
 21
16.4279
  0
LINE
  8
0
 10
1.91597
 20
16.4279
 11
1.79733
 21
16.5063
  0
LINE
  8
0
 10
1.79733
 20
16.5063
 11
1.68771
 21
16.6021
  0
LINE
  8
0
 10
1.68771
 20
16.6021
 11
-0.852615
 21
19.1424
  0
LINE
  8
0
 10
-0.852615
 20
19.1424
 11
-1.3212
 21
18.2935
  0
LINE
  8
0
 10
-1.3212
 20
18.2935
 11
-1.746
 21
17.445
  0
LINE
  8
0
 10
-1.746
 20
17.445
 11
-2.12764
 21
16.5947
  0
LINE
  8
0
 10
-2.12764
 20
16.5947
 11
-2.46671
 21
15.7403
  0
LINE
  8
0
 10
-2.46671
 20
15.7403
 11
-2.76384
 21
14.8795
  0
LINE
  8
0
 10
-2.76384
 20
14.8795
 11
-3.01964
 21
14.0099
  0
LINE
  8
0
 10
-3.01964
 20
14.0099
 11
-3.23471
 21
13.1295
  0
LINE
  8
0
 10
-3.23471
 20
13.1295
 11
-3.4097
 21
12.2358
  0
LINE
  8
0
 10
-3.4097
 20
12.2358
 11
-3.54518
 21
11.3266
  0
LINE
  8
0
 10
-3.54518
 20
11.3266
 11
-3.64178
 21
10.3996
  0
LINE
  8
0
 10
-3.64178
 20
10.3996
 11
-3.70012
 21
9.45248
  0
LINE
  8
0
 10
-3.70012
 20
9.45248
 11
-3.72079
 21
8.48306
  0
LINE
  8
0
 10
-3.72079
 20
8.48306
 11
-3.68581
 21
6.36647
  0
LINE
  8
0
 10
-3.68581
 20
6.36647
 11
-3.57092
 21
4.29819
  0
LINE
  8
0
 10
-3.57092
 20
4.29819
 11
-3.3748
 21
2.27296
  0
LINE
  8
0
 10
-3.3748
 20
2.27296
 11
-3.09612
 21
0.285614
  0
LINE
  8
0
 10
-3.09612
 20
0.285614
 11
-2.73352
 21
-1.6691
  0
LINE
  8
0
 10
-2.73352
 20
-1.6691
 11
-2.28569
 21
-3.59642
  0
LINE
  8
0
 10
-2.28569
 20
-3.59642
 11
-1.75127
 21
-5.50154
  0
LINE
  8
0
 10
-1.75127
 20
-5.50154
 11
-1.12892
 21
-7.38969
  0
LINE
  8
0
 10
-1.12892
 20
-7.38969
 11
-0.417313
 21
-9.2661
  0
LINE
  8
0
 10
-0.417313
 20
-9.2661
 11
0.384872
 21
-11.136
  0
LINE
  8
0
 10
0.384872
 20
-11.136
 11
1.27902
 21
-13.0045
  0
LINE
  8
0
 10
1.27902
 20
-13.0045
 11
2.26643
 21
-14.877
  0
LINE
  8
0
 10
2.26643
 20
-14.877
 11
2.2702
 21
-14.8867
  0
LINE
  8
0
 10
2.2702
 20
-14.8867
 11
2.27382
 21
-14.8963
  0
LINE
  8
0
 10
2.27382
 20
-14.8963
 11
2.27728
 21
-14.9057
  0
LINE
  8
0
 10
2.27728
 20
-14.9057
 11
2.28061
 21
-14.915
  0
LINE
  8
0
 10
2.28061
 20
-14.915
 11
2.28381
 21
-14.9243
  0
LINE
  8
0
 10
2.28381
 20
-14.9243
 11
2.28691
 21
-14.9335
  0
LINE
  8
0
 10
2.28691
 20
-14.9335
 11
2.28992
 21
-14.9428
  0
LINE
  8
0
 10
2.28992
 20
-14.9428
 11
2.29283
 21
-14.9522
  0
LINE
  8
0
 10
2.29283
 20
-14.9522
 11
2.2957
 21
-14.9617
  0
LINE
  8
0
 10
2.2957
 20
-14.9617
 11
2.29849
 21
-14.9713
  0
LINE
  8
0
 10
2.29849
 20
-14.9713
 11
2.30127
 21
-14.9811
  0
LINE
  8
0
 10
2.30127
 20
-14.9811
 11
2.30402
 21
-14.9912
  0
LINE
  8
0
 10
2.30402
 20
-14.9912
 11
2.33217
 21
-15.134
  0
LINE
  8
0
 10
2.33217
 20
-15.134
 11
2.34073
 21
-15.276
  0
LINE
  8
0
 10
2.34073
 20
-15.276
 11
2.3306
 21
-15.4154
  0
LINE
  8
0
 10
2.3306
 20
-15.4154
 11
2.30267
 21
-15.5509
  0
LINE
  8
0
 10
2.30267
 20
-15.5509
 11
2.25787
 21
-15.6807
  0
LINE
  8
0
 10
2.25787
 20
-15.6807
 11
2.19707
 21
-15.8035
  0
LINE
  8
0
 10
2.19707
 20
-15.8035
 11
2.12119
 21
-15.9175
  0
LINE
  8
0
 10
2.12119
 20
-15.9175
 11
2.03113
 21
-16.0212
  0
LINE
  8
0
 10
2.03113
 20
-16.0212
 11
1.9278
 21
-16.1131
  0
LINE
  8
0
 10
1.9278
 20
-16.1131
 11
1.81207
 21
-16.1916
  0
LINE
  8
0
 10
1.81207
 20
-16.1916
 11
1.68488
 21
-16.2552
  0
LINE
  8
0
 10
1.68488
 20
-16.2552
 11
1.54709
 21
-16.3022
  0
LINE
  8
0
 10
1.54709
 20
-16.3022
 11
-1.92307
 21
-17.232
  0
LINE
  8
0
 10
-1.92307
 20
-17.232
 11
-1.42218
 21
-18.0623
  0
LINE
  8
0
 10
-1.42218
 20
-18.0623
 11
-0.89978
 21
-18.8544
  0
LINE
  8
0
 10
-0.89978
 20
-18.8544
 11
-0.354202
 21
-19.6101
  0
LINE
  8
0
 10
-0.354202
 20
-19.6101
 11
0.216217
 21
-20.3309
  0
LINE
  8
0
 10
0.216217
 20
-20.3309
 11
0.813156
 21
-21.0187
  0
LINE
  8
0
 10
0.813156
 20
-21.0187
 11
1.43828
 21
-21.675
  0
LINE
  8
0
 10
1.43828
 20
-21.675
 11
2.09325
 21
-22.3015
  0
LINE
  8
0
 10
2.09325
 20
-22.3015
 11
2.77972
 21
-22.8999
  0
LINE
  8
0
 10
2.77972
 20
-22.8999
 11
3.49939
 21
-23.4718
  0
LINE
  8
0
 10
3.49939
 20
-23.4718
 11
4.25391
 21
-24.019
  0
LINE
  8
0
 10
4.25391
 20
-24.019
 11
5.04492
 21
-24.543
  0
LINE
  8
0
 10
5.04492
 20
-24.543
 11
5.87413
 21
-25.0456
  0
LINE
  8
0
 10
5.87413
 20
-25.0456
 11
7.72464
 21
-26.0737
  0
LINE
  8
0
 10
7.72464
 20
-26.0737
 11
9.57327
 21
-27.0083
  0
LINE
  8
0
 10
9.57327
 20
-27.0083
 11
11.4252
 21
-27.8511
  0
LINE
  8
0
 10
11.4252
 20
-27.8511
 11
13.2857
 21
-28.6034
  0
LINE
  8
0
 10
13.2857
 20
-28.6034
 11
15.1598
 21
-29.2667
  0
LINE
  8
0
 10
15.1598
 20
-29.2667
 11
17.0528
 21
-29.8425
  0
LINE
  8
0
 10
17.0528
 20
-29.8425
 11
18.9699
 21
-30.3323
  0
LINE
  8
0
 10
18.9699
 20
-30.3323
 11
20.9163
 21
-30.7374
  0
LINE
  8
0
 10
20.9163
 20
-30.7374
 11
22.8971
 21
-31.0593
  0
LINE
  8
0
 10
22.8971
 20
-31.0593
 11
24.9176
 21
-31.2995
  0
LINE
  8
0
 10
24.9176
 20
-31.2995
 11
26.9828
 21
-31.4595
  0
LINE
  8
0
 10
26.9828
 20
-31.4595
 11
29.0982
 21
-31.5406
  0
LINE
  8
0
 10
29.0982
 20
-31.5406
 11
29.1085
 21
-31.5421
  0
LINE
  8
0
 10
29.1085
 20
-31.5421
 11
29.1185
 21
-31.5438
  0
LINE
  8
0
 10
29.1185
 20
-31.5438
 11
29.1284
 21
-31.5455
  0
LINE
  8
0
 10
29.1284
 20
-31.5455
 11
29.1382
 21
-31.5473
  0
LINE
  8
0
 10
29.1382
 20
-31.5473
 11
29.1478
 21
-31.5491
  0
LINE
  8
0
 10
29.1478
 20
-31.5491
 11
29.1573
 21
-31.5511
  0
LINE
  8
0
 10
29.1573
 20
-31.5511
 11
29.1669
 21
-31.5531
  0
LINE
  8
0
 10
29.1669
 20
-31.5531
 11
29.1765
 21
-31.5553
  0
LINE
  8
0
 10
29.1765
 20
-31.5553
 11
29.1861
 21
-31.5575
  0
LINE
  8
0
 10
29.1861
 20
-31.5575
 11
29.1958
 21
-31.5599
  0
LINE
  8
0
 10
29.1958
 20
-31.5599
 11
29.2057
 21
-31.5624
  0
LINE
  8
0
 10
29.2057
 20
-31.5624
 11
29.2158
 21
-31.5651
  0
LINE
  8
0
 10
29.2158
 20
-31.5651
 11
29.3536
 21
-31.6121
  0
LINE
  8
0
 10
29.3536
 20
-31.6121
 11
29.4808
 21
-31.6757
  0
LINE
  8
0
 10
29.4808
 20
-31.6757
 11
29.5965
 21
-31.7542
  0
LINE
  8
0
 10
29.5965
 20
-31.7542
 11
29.6999
 21
-31.8461
  0
LINE
  8
0
 10
29.6999
 20
-31.8461
 11
29.7899
 21
-31.9498
  0
LINE
  8
0
 10
29.7899
 20
-31.9498
 11
29.8658
 21
-32.0639
  0
LINE
  8
0
 10
29.8658
 20
-32.0639
 11
29.9266
 21
-32.1866
  0
LINE
  8
0
 10
29.9266
 20
-32.1866
 11
29.9714
 21
-32.3164
  0
LINE
  8
0
 10
29.9714
 20
-32.3164
 11
29.9993
 21
-32.4519
  0
LINE
  8
0
 10
29.9993
 20
-32.4519
 11
30.0095
 21
-32.5914
  0
LINE
  8
0
 10
30.0095
 20
-32.5914
 11
30.0009
 21
-32.7333
  0
LINE
  8
0
 10
30.0009
 20
-32.7333
 11
29.9727
 21
-32.8761
  0
LINE
  8
0
 10
29.9727
 20
-32.8761
 11
29.0429
 21
-36.3463
  0
LINE
  8
0
 10
29.0429
 20
-36.3463
 11
30.0124
 21
-36.3277
  0
LINE
  8
0
 10
22.3013
 20
-13.9095
 11
22.2341
 21
-13.8961
  0
LINE
  8
0
 10
22.2341
 20
-13.8961
 11
22.1693
 21
-13.8742
  0
LINE
  8
0
 10
22.1693
 20
-13.8742
 11
22.1075
 21
-13.8441
  0
LINE
  8
0
 10
22.1075
 20
-13.8441
 11
22.0498
 21
-13.8061
  0
LINE
  8
0
 10
22.0498
 20
-13.8061
 11
21.9969
 21
-13.7604
  0
LINE
  8
0
 10
21.9969
 20
-13.7604
 11
21.9497
 21
-13.7072
  0
LINE
  8
0
 10
21.9497
 20
-13.7072
 11
21.9092
 21
-13.6467
  0
LINE
  8
0
 10
21.9092
 20
-13.6467
 11
21.8771
 21
-13.5813
  0
LINE
  8
0
 10
21.8771
 20
-13.5813
 11
21.8546
 21
-13.5139
  0
LINE
  8
0
 10
21.8546
 20
-13.5139
 11
21.8414
 21
-13.4452
  0
LINE
  8
0
 10
21.8414
 20
-13.4452
 11
21.8374
 21
-13.3762
  0
LINE
  8
0
 10
21.8374
 20
-13.3762
 11
21.8422
 21
-13.3077
  0
LINE
  8
0
 10
21.8422
 20
-13.3077
 11
21.8557
 21
-13.2406
  0
LINE
  8
0
 10
21.8557
 20
-13.2406
 11
21.8776
 21
-13.1757
  0
LINE
  8
0
 10
21.8776
 20
-13.1757
 11
21.9077
 21
-13.1139
  0
LINE
  8
0
 10
21.9077
 20
-13.1139
 11
21.9457
 21
-13.0562
  0
LINE
  8
0
 10
21.9457
 20
-13.0562
 11
21.9914
 21
-13.0033
  0
LINE
  8
0
 10
21.9914
 20
-13.0033
 11
22.0446
 21
-12.9561
  0
LINE
  8
0
 10
22.0446
 20
-12.9561
 11
22.1051
 21
-12.9156
  0
LINE
  8
0
 10
22.1051
 20
-12.9156
 11
14.8996
 21
-0.435349
  0
LINE
  8
0
 10
14.8996
 20
-0.435349
 11
14.8565
 21
-0.457916
  0
LINE
  8
0
 10
14.8565
 20
-0.457916
 11
14.8126
 21
-0.476395
  0
LINE
  8
0
 10
14.8126
 20
-0.476395
 11
14.768
 21
-0.490768
  0
LINE
  8
0
 10
14.768
 20
-0.490768
 11
14.7229
 21
-0.501022
  0
LINE
  8
0
 10
14.7229
 20
-0.501022
 11
14.6776
 21
-0.507187
  0
LINE
  8
0
 10
14.6776
 20
-0.507187
 11
14.632
 21
-0.509232
  0
LINE
  8
0
 10
14.632
 20
-0.509232
 11
14.5865
 21
-0.507187
  0
LINE
  8
0
 10
14.5865
 20
-0.507187
 11
14.5411
 21
-0.501022
  0
LINE
  8
0
 10
14.5411
 20
-0.501022
 11
14.496
 21
-0.490768
  0
LINE
  8
0
 10
14.496
 20
-0.490768
 11
14.4514
 21
-0.476395
  0
LINE
  8
0
 10
14.4514
 20
-0.476395
 11
14.4075
 21
-0.457916
  0
LINE
  8
0
 10
14.4075
 20
-0.457916
 11
14.3644
 21
-0.435349
  0
LINE
  8
0
 10
14.3644
 20
-0.435349
 11
14.3039
 21
-0.394806
  0
LINE
  8
0
 10
14.3039
 20
-0.394806
 11
14.2507
 21
-0.347641
  0
LINE
  8
0
 10
14.2507
 20
-0.347641
 11
14.205
 21
-0.294754
  0
LINE
  8
0
 10
14.205
 20
-0.294754
 11
14.167
 21
-0.236984
  0
LINE
  8
0
 10
14.167
 20
-0.236984
 11
14.1369
 21
-0.175232
  0
LINE
  8
0
 10
14.1369
 20
-0.175232
 11
14.115
 21
-0.110352
  0
LINE
  8
0
 10
14.115
 20
-0.110352
 11
14.1015
 21
-0.0432129
  0
LINE
  8
0
 10
14.1015
 20
-0.0432129
 11
14.0967
 21
0.0252838
  0
LINE
  8
0
 10
14.0967
 20
0.0252838
 11
14.1008
 21
0.0943146
  0
LINE
  8
0
 10
14.1008
 20
0.0943146
 11
14.1139
 21
0.162979
  0
LINE
  8
0
 10
14.1139
 20
0.162979
 11
14.1364
 21
0.230423
  0
LINE
  8
0
 10
14.1364
 20
0.230423
 11
14.1685
 21
0.295761
  0
LINE
  8
0
 10
14.1685
 20
0.295761
 11
14.209
 21
0.356216
  0
LINE
  8
0
 10
14.209
 20
0.356216
 11
14.2562
 21
0.409424
  0
LINE
  8
0
 10
14.2562
 20
0.409424
 11
14.3091
 21
0.455154
  0
LINE
  8
0
 10
14.3091
 20
0.455154
 11
14.3669
 21
0.493179
  0
LINE
  8
0
 10
14.3669
 20
0.493179
 11
14.4286
 21
0.523254
  0
LINE
  8
0
 10
14.4286
 20
0.523254
 11
14.4935
 21
0.545135
  0
LINE
  8
0
 10
14.4935
 20
0.545135
 11
14.5606
 21
0.558624
  0
LINE
  8
0
 10
14.5606
 20
0.558624
 11
14.6291
 21
0.563461
  0
LINE
  8
0
 10
14.6291
 20
0.563461
 11
14.6982
 21
0.559418
  0
LINE
  8
0
 10
14.6982
 20
0.559418
 11
14.7668
 21
0.546249
  0
LINE
  8
0
 10
14.7668
 20
0.546249
 11
14.8343
 21
0.523758
  0
LINE
  8
0
 10
14.8343
 20
0.523758
 11
14.8996
 21
0.491669
  0
LINE
  8
0
 10
14.8996
 20
0.491669
 11
22.1051
 21
12.9719
  0
LINE
  8
0
 10
22.1051
 20
12.9719
 11
22.0639
 21
12.9979
  0
LINE
  8
0
 10
22.0639
 20
12.9979
 11
22.026
 21
13.0267
  0
LINE
  8
0
 10
22.026
 20
13.0267
 11
21.9913
 21
13.0582
  0
LINE
  8
0
 10
21.9913
 20
13.0582
 11
21.9598
 21
13.092
  0
LINE
  8
0
 10
21.9598
 20
13.092
 11
21.9318
 21
13.1283
  0
LINE
  8
0
 10
21.9318
 20
13.1283
 11
21.9073
 21
13.1667
  0
LINE
  8
0
 10
21.9073
 20
13.1667
 11
21.8863
 21
13.2072
  0
LINE
  8
0
 10
21.8863
 20
13.2072
 11
21.8689
 21
13.2495
  0
LINE
  8
0
 10
21.8689
 20
13.2495
 11
21.8553
 21
13.2937
  0
LINE
  8
0
 10
21.8553
 20
13.2937
 11
21.8454
 21
13.3395
  0
LINE
  8
0
 10
21.8454
 20
13.3395
 11
21.8395
 21
13.3867
  0
LINE
  8
0
 10
21.8395
 20
13.3867
 11
21.8375
 21
13.4354
  0
LINE
  8
0
 10
21.8375
 20
13.4354
 11
21.8423
 21
13.508
  0
LINE
  8
0
 10
21.8423
 20
13.508
 11
21.8566
 21
13.5777
  0
LINE
  8
0
 10
21.8566
 20
13.5777
 11
21.8795
 21
13.6437
  0
LINE
  8
0
 10
21.8795
 20
13.6437
 11
21.9105
 21
13.7055
  0
LINE
  8
0
 10
21.9105
 20
13.7055
 11
21.949
 21
13.7625
  0
LINE
  8
0
 10
21.949
 20
13.7625
 11
21.9942
 21
13.8138
  0
LINE
  8
0
 10
21.9942
 20
13.8138
 11
22.0456
 21
13.8591
  0
LINE
  8
0
 10
22.0456
 20
13.8591
 11
22.1025
 21
13.8975
  0
LINE
  8
0
 10
22.1025
 20
13.8975
 11
22.1644
 21
13.9285
  0
LINE
  8
0
 10
22.1644
 20
13.9285
 11
22.2304
 21
13.9515
  0
LINE
  8
0
 10
22.2304
 20
13.9515
 11
22.3
 21
13.9657
  0
LINE
  8
0
 10
22.3
 20
13.9657
 11
22.3727
 21
13.9706
  0
LINE
  8
0
 10
22.3727
 20
13.9706
 11
22.4453
 21
13.9657
  0
LINE
  8
0
 10
22.4453
 20
13.9657
 11
22.515
 21
13.9515
  0
LINE
  8
0
 10
22.515
 20
13.9515
 11
22.581
 21
13.9286
  0
LINE
  8
0
 10
22.581
 20
13.9286
 11
22.6428
 21
13.8975
  0
LINE
  8
0
 10
22.6428
 20
13.8975
 11
22.6997
 21
13.8591
  0
LINE
  8
0
 10
22.6997
 20
13.8591
 11
22.7511
 21
13.8138
  0
LINE
  8
0
 10
22.7511
 20
13.8138
 11
22.7964
 21
13.7625
  0
LINE
  8
0
 10
22.7964
 20
13.7625
 11
22.8348
 21
13.7055
  0
LINE
  8
0
 10
22.8348
 20
13.7055
 11
22.8658
 21
13.6437
  0
LINE
  8
0
 10
22.8658
 20
13.6437
 11
22.8888
 21
13.5777
  0
LINE
  8
0
 10
22.8888
 20
13.5777
 11
22.903
 21
13.508
  0
LINE
  8
0
 10
22.903
 20
13.508
 11
22.9079
 21
13.4354
  0
LINE
  8
0
 10
22.9079
 20
13.4354
 11
37.3188
 21
13.4354
  0
LINE
  8
0
 10
37.3188
 20
13.4354
 11
37.3208
 21
13.484
  0
LINE
  8
0
 10
37.3208
 20
13.484
 11
37.3268
 21
13.5313
  0
LINE
  8
0
 10
37.3268
 20
13.5313
 11
37.3366
 21
13.5771
  0
LINE
  8
0
 10
37.3366
 20
13.5771
 11
37.3503
 21
13.6212
  0
LINE
  8
0
 10
37.3503
 20
13.6212
 11
37.3676
 21
13.6636
  0
LINE
  8
0
 10
37.3676
 20
13.6636
 11
37.3886
 21
13.7041
  0
LINE
  8
0
 10
37.3886
 20
13.7041
 11
37.4132
 21
13.7425
  0
LINE
  8
0
 10
37.4132
 20
13.7425
 11
37.4412
 21
13.7787
  0
LINE
  8
0
 10
37.4412
 20
13.7787
 11
37.4726
 21
13.8126
  0
LINE
  8
0
 10
37.4726
 20
13.8126
 11
37.5074
 21
13.844
  0
LINE
  8
0
 10
37.5074
 20
13.844
 11
37.5453
 21
13.8728
  0
LINE
  8
0
 10
37.5453
 20
13.8728
 11
37.5864
 21
13.8989
  0
LINE
  8
0
 10
37.5864
 20
13.8989
 11
37.6518
 21
13.931
  0
LINE
  8
0
 10
37.6518
 20
13.931
 11
37.7192
 21
13.9535
  0
LINE
  8
0
 10
37.7192
 20
13.9535
 11
37.7879
 21
13.9666
  0
LINE
  8
0
 10
37.7879
 20
13.9666
 11
37.8569
 21
13.9707
  0
LINE
  8
0
 10
37.8569
 20
13.9707
 11
37.9254
 21
13.9659
  0
LINE
  8
0
 10
37.9254
 20
13.9659
 11
37.9926
 21
13.9524
  0
LINE
  8
0
 10
37.9926
 20
13.9524
 11
38.0574
 21
13.9305
  0
LINE
  8
0
 10
38.0574
 20
13.9305
 11
38.1192
 21
13.9004
  0
LINE
  8
0
 10
38.1192
 20
13.9004
 11
38.177
 21
13.8624
  0
LINE
  8
0
 10
38.177
 20
13.8624
 11
38.2298
 21
13.8167
  0
LINE
  8
0
 10
38.2298
 20
13.8167
 11
38.277
 21
13.7635
  0
LINE
  8
0
 10
38.277
 20
13.7635
 11
38.3176
 21
13.703
  0
LINE
  8
0
 10
38.3176
 20
13.703
 11
38.3496
 21
13.6377
  0
LINE
  8
0
 10
38.3496
 20
13.6377
 11
38.3721
 21
13.5702
  0
LINE
  8
0
 10
38.3721
 20
13.5702
 11
38.3853
 21
13.5016
  0
LINE
  8
0
 10
38.3853
 20
13.5016
 11
38.3893
 21
13.4325
  0
LINE
  8
0
 10
38.3893
 20
13.4325
 11
38.3845
 21
13.364
  0
LINE
  8
0
 10
38.3845
 20
13.364
 11
38.371
 21
13.2969
  0
LINE
  8
0
 10
38.371
 20
13.2969
 11
38.3491
 21
13.232
  0
LINE
  8
0
 10
38.3491
 20
13.232
 11
38.319
 21
13.1702
  0
LINE
  8
0
 10
38.319
 20
13.1702
 11
38.281
 21
13.1125
  0
LINE
  8
0
 10
38.281
 20
13.1125
 11
38.2353
 21
13.0596
  0
LINE
  8
0
 10
38.2353
 20
13.0596
 11
38.1821
 21
13.0124
  0
LINE
  8
0
 10
38.1821
 20
13.0124
 11
38.1216
 21
12.9719
  0
LINE
  8
0
 10
38.1216
 20
12.9719
 11
45.3271
 21
0.491669
  0
LINE
  8
0
 10
45.3271
 20
0.491669
 11
45.3702
 21
0.514252
  0
LINE
  8
0
 10
45.3702
 20
0.514252
 11
45.4142
 21
0.532715
  0
LINE
  8
0
 10
45.4142
 20
0.532715
 11
45.4587
 21
0.547089
  0
LINE
  8
0
 10
45.4587
 20
0.547089
 11
45.5038
 21
0.557358
  0
LINE
  8
0
 10
45.5038
 20
0.557358
 11
45.5492
 21
0.563507
  0
LINE
  8
0
 10
45.5492
 20
0.563507
 11
45.5947
 21
0.565567
  0
LINE
  8
0
 10
45.5947
 20
0.565567
 11
45.6402
 21
0.563507
  0
LINE
  8
0
 10
45.6402
 20
0.563507
 11
45.6856
 21
0.557358
  0
LINE
  8
0
 10
45.6856
 20
0.557358
 11
45.7307
 21
0.547089
  0
LINE
  8
0
 10
45.7307
 20
0.547089
 11
45.7753
 21
0.532715
  0
LINE
  8
0
 10
45.7753
 20
0.532715
 11
45.8192
 21
0.514252
  0
LINE
  8
0
 10
45.8192
 20
0.514252
 11
45.8623
 21
0.491669
  0
LINE
  8
0
 10
45.8623
 20
0.491669
 11
45.9228
 21
0.451126
  0
LINE
  8
0
 10
45.9228
 20
0.451126
 11
45.976
 21
0.403976
  0
LINE
  8
0
 10
45.976
 20
0.403976
 11
46.0217
 21
0.351074
  0
LINE
  8
0
 10
46.0217
 20
0.351074
 11
46.0597
 21
0.29332
  0
LINE
  8
0
 10
46.0597
 20
0.29332
 11
46.0898
 21
0.231567
  0
LINE
  8
0
 10
46.0898
 20
0.231567
 11
46.1117
 21
0.166687
  0
LINE
  8
0
 10
46.1117
 20
0.166687
 11
46.1252
 21
0.0995483
  0
LINE
  8
0
 10
46.1252
 20
0.0995483
 11
46.13
 21
0.0310211
  0
LINE
  8
0
 10
46.13
 20
0.0310211
 11
46.126
 21
-0.0379944
  0
LINE
  8
0
 10
46.126
 20
-0.0379944
 11
46.1128
 21
-0.106659
  0
LINE
  8
0
 10
46.1128
 20
-0.106659
 11
46.0903
 21
-0.174103
  0
LINE
  8
0
 10
46.0903
 20
-0.174103
 11
46.0582
 21
-0.239441
  0
LINE
  8
0
 10
46.0582
 20
-0.239441
 11
46.0177
 21
-0.299896
  0
LINE
  8
0
 10
46.0177
 20
-0.299896
 11
45.9705
 21
-0.353104
  0
LINE
  8
0
 10
45.9705
 20
-0.353104
 11
45.9176
 21
-0.398834
  0
LINE
  8
0
 10
45.9176
 20
-0.398834
 11
45.8599
 21
-0.436844
  0
LINE
  8
0
 10
45.8599
 20
-0.436844
 11
45.7981
 21
-0.466919
  0
LINE
  8
0
 10
45.7981
 20
-0.466919
 11
45.7332
 21
-0.488815
  0
LINE
  8
0
 10
45.7332
 20
-0.488815
 11
45.6661
 21
-0.502304
  0
LINE
  8
0
 10
45.6661
 20
-0.502304
 11
45.5976
 21
-0.507126
  0
LINE
  8
0
 10
45.5976
 20
-0.507126
 11
45.5285
 21
-0.503082
  0
LINE
  8
0
 10
45.5285
 20
-0.503082
 11
45.4599
 21
-0.489929
  0
LINE
  8
0
 10
45.4599
 20
-0.489929
 11
45.3924
 21
-0.467422
  0
LINE
  8
0
 10
45.3924
 20
-0.467422
 11
45.3271
 21
-0.435349
  0
LINE
  8
0
 10
45.3271
 20
-0.435349
 11
38.1216
 21
-12.9156
  0
LINE
  8
0
 10
38.1216
 20
-12.9156
 11
38.1628
 21
-12.9416
  0
LINE
  8
0
 10
38.1628
 20
-12.9416
 11
38.2007
 21
-12.9704
  0
LINE
  8
0
 10
38.2007
 20
-12.9704
 11
38.2355
 21
-13.0018
  0
LINE
  8
0
 10
38.2355
 20
-13.0018
 11
38.2669
 21
-13.0357
  0
LINE
  8
0
 10
38.2669
 20
-13.0357
 11
38.2949
 21
-13.072
  0
LINE
  8
0
 10
38.2949
 20
-13.072
 11
38.3194
 21
-13.1104
  0
LINE
  8
0
 10
38.3194
 20
-13.1104
 11
38.3404
 21
-13.1508
  0
LINE
  8
0
 10
38.3404
 20
-13.1508
 11
38.3578
 21
-13.1932
  0
LINE
  8
0
 10
38.3578
 20
-13.1932
 11
38.3714
 21
-13.2374
  0
LINE
  8
0
 10
38.3714
 20
-13.2374
 11
38.3813
 21
-13.2832
  0
LINE
  8
0
 10
38.3813
 20
-13.2832
 11
38.3872
 21
-13.3304
  0
LINE
  8
0
 10
38.3872
 20
-13.3304
 11
38.3893
 21
-13.3791
  0
LINE
  8
0
 10
38.3893
 20
-13.3791
 11
38.3844
 21
-13.4517
  0
LINE
  8
0
 10
38.3844
 20
-13.4517
 11
38.3701
 21
-13.5214
  0
LINE
  8
0
 10
38.3701
 20
-13.5214
 11
38.3472
 21
-13.5874
  0
LINE
  8
0
 10
38.3472
 20
-13.5874
 11
38.3162
 21
-13.6492
  0
LINE
  8
0
 10
38.3162
 20
-13.6492
 11
38.2777
 21
-13.7061
  0
LINE
  8
0
 10
38.2777
 20
-13.7061
 11
38.2325
 21
-13.7575
  0
LINE
  8
0
 10
38.2325
 20
-13.7575
 11
38.1811
 21
-13.8028
  0
LINE
  8
0
 10
38.1811
 20
-13.8028
 11
38.1242
 21
-13.8412
  0
LINE
  8
0
 10
38.1242
 20
-13.8412
 11
38.0624
 21
-13.8722
  0
LINE
  8
0
 10
38.0624
 20
-13.8722
 11
37.9963
 21
-13.8952
  0
LINE
  8
0
 10
37.9963
 20
-13.8952
 11
37.9267
 21
-13.9094
  0
LINE
  8
0
 10
37.9267
 20
-13.9094
 11
37.854
 21
-13.9143
  0
LINE
  8
0
 10
37.854
 20
-13.9143
 11
37.7814
 21
-13.9094
  0
LINE
  8
0
 10
37.7814
 20
-13.9094
 11
37.7118
 21
-13.8952
  0
LINE
  8
0
 10
37.7118
 20
-13.8952
 11
37.6457
 21
-13.8722
  0
LINE
  8
0
 10
37.6457
 20
-13.8722
 11
37.5839
 21
-13.8412
  0
LINE
  8
0
 10
37.5839
 20
-13.8412
 11
37.527
 21
-13.8028
  0
LINE
  8
0
 10
37.527
 20
-13.8028
 11
37.4756
 21
-13.7575
  0
LINE
  8
0
 10
37.4756
 20
-13.7575
 11
37.4303
 21
-13.7061
  0
LINE
  8
0
 10
37.4303
 20
-13.7061
 11
37.3919
 21
-13.6492
  0
LINE
  8
0
 10
37.3919
 20
-13.6492
 11
37.3609
 21
-13.5874
  0
LINE
  8
0
 10
37.3609
 20
-13.5874
 11
37.3379
 21
-13.5214
  0
LINE
  8
0
 10
37.3379
 20
-13.5214
 11
37.3237
 21
-13.4517
  0
LINE
  8
0
 10
37.3237
 20
-13.4517
 11
37.3188
 21
-13.3791
  0
LINE
  8
0
 10
37.3188
 20
-13.3791
 11
28.2468
 21
-13.3791
  0
LINE
  8
0
 10
28.2468
 20
-13.3791
 11
28.2419
 21
-13.4517
  0
LINE
  8
0
 10
28.2419
 20
-13.4517
 11
28.2276
 21
-13.5214
  0
LINE
  8
0
 10
28.2276
 20
-13.5214
 11
28.2047
 21
-13.5874
  0
LINE
  8
0
 10
28.2047
 20
-13.5874
 11
28.1737
 21
-13.6492
  0
LINE
  8
0
 10
28.1737
 20
-13.6492
 11
28.1352
 21
-13.7061
  0
LINE
  8
0
 10
28.1352
 20
-13.7061
 11
28.09
 21
-13.7575
  0
LINE
  8
0
 10
28.09
 20
-13.7575
 11
28.0386
 21
-13.8028
  0
LINE
  8
0
 10
28.0386
 20
-13.8028
 11
27.9817
 21
-13.8412
  0
LINE
  8
0
 10
27.9817
 20
-13.8412
 11
27.9199
 21
-13.8722
  0
LINE
  8
0
 10
27.9199
 20
-13.8722
 11
27.8538
 21
-13.8952
  0
LINE
  8
0
 10
27.8538
 20
-13.8952
 11
27.7842
 21
-13.9094
  0
LINE
  8
0
 10
27.7842
 20
-13.9094
 11
27.7115
 21
-13.9143
  0
LINE
  8
0
 10
27.7115
 20
-13.9143
 11
27.6389
 21
-13.9094
  0
LINE
  8
0
 10
27.6389
 20
-13.9094
 11
27.5693
 21
-13.8952
  0
LINE
  8
0
 10
27.5693
 20
-13.8952
 11
27.5032
 21
-13.8722
  0
LINE
  8
0
 10
27.5032
 20
-13.8722
 11
27.4414
 21
-13.8412
  0
LINE
  8
0
 10
27.4414
 20
-13.8412
 11
27.3845
 21
-13.8028
  0
LINE
  8
0
 10
27.3845
 20
-13.8028
 11
27.3331
 21
-13.7575
  0
LINE
  8
0
 10
27.3331
 20
-13.7575
 11
27.2878
 21
-13.7061
  0
LINE
  8
0
 10
27.2878
 20
-13.7061
 11
27.2494
 21
-13.6492
  0
LINE
  8
0
 10
27.2494
 20
-13.6492
 11
27.2184
 21
-13.5874
  0
LINE
  8
0
 10
27.2184
 20
-13.5874
 11
27.1954
 21
-13.5214
  0
LINE
  8
0
 10
27.1954
 20
-13.5214
 11
27.1812
 21
-13.4517
  0
LINE
  8
0
 10
27.1812
 20
-13.4517
 11
27.1763
 21
-13.3791
  0
LINE
  8
0
 10
27.1763
 20
-13.3791
 11
22.9079
 21
-13.3791
  0
LINE
  8
0
 10
22.9079
 20
-13.3791
 11
22.9059
 21
-13.4277
  0
LINE
  8
0
 10
22.9059
 20
-13.4277
 11
22.8999
 21
-13.475
  0
LINE
  8
0
 10
22.8999
 20
-13.475
 11
22.8901
 21
-13.5208
  0
LINE
  8
0
 10
22.8901
 20
-13.5208
 11
22.8764
 21
-13.5649
  0
LINE
  8
0
 10
22.8764
 20
-13.5649
 11
22.8591
 21
-13.6073
  0
LINE
  8
0
 10
22.8591
 20
-13.6073
 11
22.8381
 21
-13.6478
  0
LINE
  8
0
 10
22.8381
 20
-13.6478
 11
22.8135
 21
-13.6862
  0
LINE
  8
0
 10
22.8135
 20
-13.6862
 11
22.7855
 21
-13.7224
  0
LINE
  8
0
 10
22.7855
 20
-13.7224
 11
22.7541
 21
-13.7563
  0
LINE
  8
0
 10
22.7541
 20
-13.7563
 11
22.7194
 21
-13.7877
  0
LINE
  8
0
 10
22.7194
 20
-13.7877
 11
22.6814
 21
-13.8165
  0
LINE
  8
0
 10
22.6814
 20
-13.8165
 11
22.6403
 21
-13.8426
  0
LINE
  8
0
 10
22.6403
 20
-13.8426
 11
22.575
 21
-13.8747
  0
LINE
  8
0
 10
22.575
 20
-13.8747
 11
22.5075
 21
-13.8972
  0
LINE
  8
0
 10
22.5075
 20
-13.8972
 11
22.4388
 21
-13.9103
  0
LINE
  8
0
 10
22.4388
 20
-13.9103
 11
22.3698
 21
-13.9144
  0
LINE
  8
0
 10
22.3698
 20
-13.9144
 11
22.3013
 21
-13.9095
  0
LINE
  8
0
 10
63.9475
 20
-8.42673
 11
63.6364
 21
-12.1794
  0
LINE
  8
0
 10
63.6364
 20
-12.1794
 11
63.7719
 21
-11.2702
  0
LINE
  8
0
 10
63.7719
 20
-11.2702
 11
63.8685
 21
-10.3432
  0
LINE
  8
0
 10
63.8685
 20
-10.3432
 11
63.9268
 21
-9.39613
  0
LINE
  8
0
 10
63.9268
 20
-9.39613
 11
63.9475
 21
-8.42673
  0
ENDSEC
  0
SECTION
  2
OBJECTS
  0
DICTIONARY
  0
ENDSEC
  0
EOF
