  0
SECTION
  2
HEADER
  9
$ACADVER
  1
AC1009
  9
$INSBASE
 10
0.0
 20
0.0
 30
0.0
  9
$EXTMIN
 10
0.0
 20
0.0
 30
0.0
  9
$EXTMAX
 10
0.0
 20
0.0
 30
0.0
  0
ENDSEC
  0
SECTION
  2
TABLES
  0
TABLE
  2
VPORT
 70
1
  0
VPORT
  2
*ACTIVE
 70
0
 10
0.0
 20
0.0
 11
1.0
 21
1.0
 12
-5.0
 22
1.0
 13
0.0
 23
0.0
 14
0.1
 24
0.1
 15
0.1
 25
0.1
 16
0.0
 26
0.0
 36
1.0
 17
0.0
 27
0.0
 37
0.0
 40
10.0
 41
1.0
 42
50.0
 43
0.0
 44
0.0
 50
0.0
 51
0.0
 71
0
 72
100
 73
1
 74
1
 75
0
 76
0
 77
0
 78
0
  0
ENDTAB
  0
TABLE
  2
LTYPE
 70
8
  0
LTYPE
  2
CONTINUOUS
 70
0
  3
Solid line
 72
65
 73
0
 40
0.0
  0
LTYPE
  2
DOT
 70
0
  3
. . . . . . .
 72
65
 73
2
 40
0.25
 49
0.0
 49
-0.25
  0
LTYPE
  2
DASHED
 70
0
  3
__ __ __ __ __
 72
65
 73
2
 40
0.8
 49
0.5
 49
-0.3
  0
LTYPE
  2
DASHDOT
 70
0
  3
__ . __ . __ .
 72
65
 73
4
 40
1.0
 49
0.5
 49
-0.25
 49
0.0
 49
-0.25
  0
LTYPE
  2
DIVIDE
 70
0
  3
____ . . ____ . . 
 72
65
 73
6
 40
1.25
 49
0.5
 49
-0.25
 49
0.0
 49
-0.25
 49
0.0
 49
-0.25
  0
LTYPE
  2
BORDER
 70
0
  3
__ __ . __ __ . 
 72
65
 73
6
 40
1.75
 49
0.5
 49
-0.25
 49
0.5
 49
-0.25
 49
0.0
 49
-0.25
  0
LTYPE
  2
HIDDEN
 70
0
  3
__ __ __ __ __
 72
65
 73
2
 40
0.4
 49
0.25
 49
-0.25
  0
LTYPE
  2
CENTER
 70
0
  3
____ _ ____ _ __
 72
65
 73
4
 40
2.0
 49
1.25
 49
-0.25
 49
0.25
 49
-0.25
  0
ENDTAB
  0
TABLE
  2
LAYER
 70
1
  0
LAYER
  2
PYDXF
 70
64
 62
7
  6
continuous
  0
ENDTAB
  0
TABLE
  2
STYLE
 70
1
  0
STYLE
  2
STANDARD
 70
0
 40
0
 41
1.0
 50
0.0
 71
0
 42
1
 3
ARIAL.TTF
 4

  0
ENDTAB
  0
TABLE
  2
VIEW
 70
1
  0
VIEW
  2
BF_TOPVIEW
 70
0
 40
120.0
 10
0.0
 20
0.0
 41
200.0
 11
0.0
 21
0.0
 31
1.0
 12
0.0
 22
0.0
 32
0.0
 42
50.0
 43
0.0
 44
0.0
 50
0.0
 71
0
  0
ENDTAB
  0
ENDSEC
  0
SECTION
  2
BLOCKS
  0
ENDSEC
  0
SECTION
  2
ENTITIES
  0
LINE
  8
0
 10
0.047677673399448395
 20
4.656612873077393e-10
 30
-0.0176776722073555
 11
0.0499144047498703
 21
4.656612873077393e-10
 31
-0.015118078328669071
  0
LINE
  8
0
 10
0.0499144047498703
 20
4.656612873077393e-10
 30
-0.015118078328669071
 11
0.051744453608989716
 21
4.656612873077393e-10
 31
-0.012347566895186901
  0
LINE
  8
0
 10
0.051744453608989716
 20
4.656612873077393e-10
 30
-0.012347566895186901
 11
0.053167831152677536
 21
4.656612873077393e-10
 31
-0.009408319368958473
  0
LINE
  8
0
 10
0.053167831152677536
 20
4.656612873077393e-10
 30
-0.009408319368958473
 11
0.054184529930353165
 21
9.313225746154785e-10
 31
-0.00634252093732357
  0
LINE
  8
0
 10
0.054184529930353165
 20
9.313225746154785e-10
 30
-0.00634252093732357
 11
0.0547945462167263
 21
4.656612873077393e-10
 31
-0.00319235329516232
  0
LINE
  8
0
 10
0.0547945462167263
 20
4.656612873077393e-10
 30
-0.00319235329516232
 11
0.05499788746237755
 21
4.656612873077393e-10
 31
-3.916923674296413e-09
  0
LINE
  8
0
 10
0.05499788746237755
 20
4.656612873077393e-10
 30
-3.916923674296413e-09
 11
0.0547945499420166
 21
4.656612873077393e-10
 31
0.0031923463102430105
  0
LINE
  8
0
 10
0.0547945499420166
 20
4.656612873077393e-10
 30
0.0031923463102430105
 11
0.05418453365564346
 21
0.0
 31
0.006342512555420399
  0
LINE
  8
0
 10
0.05418453365564346
 20
0.0
 30
0.006342512555420399
 11
0.053167834877967834
 21
0.0
 31
0.009408311918377876
  0
LINE
  8
0
 10
0.053167834877967834
 20
0.0
 30
0.009408311918377876
 11
0.05174446105957031
 21
0.0
 31
0.01234755851328373
  0
LINE
  8
0
 10
0.05174446105957031
 20
0.0
 30
0.01234755851328373
 11
0.0499144084751606
 21
0.0
 31
0.015118071809411049
  0
LINE
  8
0
 10
0.0499144084751606
 20
0.0
 30
0.015118071809411049
 11
0.047677673399448395
 21
-4.656612873077393e-10
 31
0.01767766661942005
  0
LINE
  8
0
 10
0.047677673399448395
 20
-4.656612873077393e-10
 30
0.01767766661942005
 11
0.04511807858943939
 21
-4.656612873077393e-10
 31
0.019914403557777405
  0
LINE
  8
0
 10
0.04511807858943939
 20
-4.656612873077393e-10
 30
0.019914403557777405
 11
0.04234757274389267
 21
-9.313225746154785e-10
 31
0.02174445614218712
  0
LINE
  8
0
 10
0.04234757274389267
 20
-9.313225746154785e-10
 30
0.02174445614218712
 11
0.03940832242369652
 21
-9.313225746154785e-10
 31
0.02316782996058464
  0
LINE
  8
0
 10
0.03940832242369652
 20
-9.313225746154785e-10
 30
0.02316782996058464
 11
0.036342520266771317
 21
-9.313225746154785e-10
 31
0.02418452873826027
  0
LINE
  8
0
 10
0.036342520266771317
 20
-9.313225746154785e-10
 30
0.02418452873826027
 11
0.03319235518574715
 21
-1.3969838619232178e-09
 31
0.024794548749923706
  0
LINE
  8
0
 10
0.03319235518574715
 20
-1.3969838619232178e-09
 30
0.024794548749923706
 11
0.030000003054738045
 21
-1.862645149230957e-09
 31
0.024997888132929802
  0
LINE
  8
0
 10
0.030000003054738045
 20
-1.862645149230957e-09
 30
0.024997888132929802
 11
0.02680765464901924
 21
-1.862645149230957e-09
 31
0.024794548749923706
  0
LINE
  8
0
 10
0.02680765464901924
 20
-1.862645149230957e-09
 30
0.024794548749923706
 11
0.023657487705349922
 21
-1.3969838619232178e-09
 31
0.02418453060090542
  0
LINE
  8
0
 10
0.023657487705349922
 20
-1.3969838619232178e-09
 30
0.02418453060090542
 11
0.02059168554842472
 21
-2.3283064365386963e-09
 31
0.023167835548520088
  0
LINE
  8
0
 10
0.02059168554842472
 20
-2.3283064365386963e-09
 30
0.023167835548520088
 11
0.017652437090873718
 21
-2.3283064365386963e-09
 31
0.021744459867477417
  0
LINE
  8
0
 10
0.017652437090873718
 20
-2.3283064365386963e-09
 30
0.021744459867477417
 11
0.014881925657391548
 21
-2.3283064365386963e-09
 31
0.019914403557777405
  0
LINE
  8
0
 10
0.014881925657391548
 20
-2.3283064365386963e-09
 30
0.019914403557777405
 11
0.012322334572672844
 21
-2.3283064365386963e-09
 31
0.01767767034471035
  0
LINE
  8
0
 10
0.012322334572672844
 20
-2.3283064365386963e-09
 30
0.01767767034471035
 11
0.010085605084896088
 21
-2.3283064365386963e-09
 31
0.015118072740733624
  0
LINE
  8
0
 10
0.010085605084896088
 20
-2.3283064365386963e-09
 30
0.015118072740733624
 11
0.008255548775196075
 21
-2.3283064365386963e-09
 31
0.012347563169896603
  0
LINE
  8
0
 10
0.008255548775196075
 20
-2.3283064365386963e-09
 30
0.012347563169896603
 11
0.006832173094153404
 21
-2.3283064365386963e-09
 31
0.009408315643668175
  0
LINE
  8
0
 10
0.006832173094153404
 20
-2.3283064365386963e-09
 30
0.009408315643668175
 11
0.005815478041768074
 21
-1.862645149230957e-09
 31
0.0063425153493881226
  0
LINE
  8
0
 10
0.005815478041768074
 20
-1.862645149230957e-09
 30
0.0063425153493881226
 11
0.005205461755394936
 21
-2.3283064365386963e-09
 31
0.003192347241565585
  0
LINE
  8
0
 10
0.005205461755394936
 20
-2.3283064365386963e-09
 30
0.003192347241565585
 11
0.005002118647098541
 21
-2.3283064365386963e-09
 31
-2.054278525065456e-09
  0
LINE
  8
0
 10
0.005002118647098541
 20
-2.3283064365386963e-09
 30
-2.054278525065456e-09
 11
0.005205458030104637
 21
-2.3283064365386963e-09
 31
-0.003192351432517171
  0
LINE
  8
0
 10
0.005205458030104637
 20
-2.3283064365386963e-09
 30
-0.003192351432517171
 11
0.005815476179122925
 21
-1.862645149230957e-09
 31
-0.006342518143355846
  0
LINE
  8
0
 10
0.005815476179122925
 20
-1.862645149230957e-09
 30
-0.006342518143355846
 11
0.006832169368863106
 21
-1.862645149230957e-09
 31
-0.009408313781023026
  0
LINE
  8
0
 10
0.006832169368863106
 20
-1.862645149230957e-09
 30
-0.009408313781023026
 11
0.008255543187260628
 21
-1.862645149230957e-09
 31
-0.012347561307251453
  0
LINE
  8
0
 10
0.008255543187260628
 20
-1.862645149230957e-09
 30
-0.012347561307251453
 11
0.01008559763431549
 21
-9.313225746154785e-10
 31
-0.015118073672056198
  0
LINE
  8
0
 10
0.01008559763431549
 20
-9.313225746154785e-10
 30
-0.015118073672056198
 11
0.012322330847382545
 21
-1.3969838619232178e-09
 31
-0.0176776684820652
  0
LINE
  8
0
 10
0.012322330847382545
 20
-1.3969838619232178e-09
 30
-0.0176776684820652
 11
0.014881919138133526
 21
-4.656612873077393e-10
 31
-0.019914401695132256
  0
LINE
  8
0
 10
0.014881919138133526
 20
-4.656612873077393e-10
 30
-0.019914401695132256
 11
0.01765242964029312
 21
-9.313225746154785e-10
 31
-0.02174445241689682
  0
LINE
  8
0
 10
0.01765242964029312
 20
-9.313225746154785e-10
 30
-0.02174445241689682
 11
0.020591678097844124
 21
-9.313225746154785e-10
 31
-0.023167826235294342
  0
LINE
  8
0
 10
0.020591678097844124
 20
-9.313225746154785e-10
 30
-0.023167826235294342
 11
0.023657480254769325
 21
0.0
 31
-0.02418452501296997
  0
LINE
  8
0
 10
0.023657480254769325
 20
0.0
 30
-0.02418452501296997
 11
0.026807645335793495
 21
-4.656612873077393e-10
 31
-0.024794545024633408
  0
LINE
  8
0
 10
0.026807645335793495
 20
-4.656612873077393e-10
 30
-0.024794545024633408
 11
0.029999997466802597
 21
0.0
 31
-0.024997886270284653
  0
LINE
  8
0
 10
0.029999997466802597
 20
0.0
 30
-0.024997886270284653
 11
0.03319234773516655
 21
0.0
 31
-0.024794548749923706
  0
LINE
  8
0
 10
0.03319234773516655
 20
0.0
 30
-0.024794548749923706
 11
0.03634251654148102
 21
0.0
 31
-0.02418453060090542
  0
LINE
  8
0
 10
0.03634251654148102
 20
0.0
 30
-0.02418453060090542
 11
0.03940831124782562
 21
4.656612873077393e-10
 31
-0.02316783368587494
  0
LINE
  8
0
 10
0.03940831124782562
 20
4.656612873077393e-10
 30
-0.02316783368587494
 11
0.042347561568021774
 21
4.656612873077393e-10
 31
-0.021744458004832268
  0
LINE
  8
0
 10
0.042347561568021774
 20
4.656612873077393e-10
 30
-0.021744458004832268
 11
0.04511807858943939
 21
4.656612873077393e-10
 31
-0.019914403557777405
  0
LINE
  8
0
 10
0.047677673399448395
 20
4.656612873077393e-10
 30
-0.0176776722073555
 11
0.04511807858943939
 21
4.656612873077393e-10
 31
-0.019914403557777405
  0
LINE
  8
0
 10
0.02217000350356102
 20
-1.862645149230957e-09
 30
0.013561958447098732
 11
0.03783000260591507
 21
-9.313225746154785e-10
 31
0.013561957515776157
  0
LINE
  8
0
 10
0.03783000260591507
 20
-9.313225746154785e-10
 30
0.013561957515776157
 11
0.045660004019737244
 21
0.0
 31
-2.9856010996809346e-09
  0
LINE
  8
0
 10
0.045660004019737244
 20
0.0
 30
-2.9856010996809346e-09
 11
0.03783000260591507
 21
0.0
 31
-0.013561960309743881
  0
LINE
  8
0
 10
0.03783000260591507
 20
0.0
 30
-0.013561960309743881
 11
0.02216999977827072
 21
-9.313225746154785e-10
 31
-0.013561960309743881
  0
LINE
  8
0
 10
0.02216999977827072
 20
-9.313225746154785e-10
 30
-0.013561960309743881
 11
0.014340002089738846
 21
-1.862645149230957e-09
 31
-1.9163343134565025e-10
  0
LINE
  8
0
 10
0.02217000350356102
 20
-1.862645149230957e-09
 30
0.013561958447098732
 11
0.014340002089738846
 21
-1.862645149230957e-09
 31
-1.9163343134565025e-10
  0
ENDSEC
  0
EOF
