  0
SECTION
  2
BLOCKS
  0
ENDSEC
  0
SECTION
  2
ENTITIES
  0
LINE
  8
0
 10
105
 20
67.5
 11
-105
 21
67.5
  0
LINE
  8
0
 10
-105
 20
67.5
 11
-105
 21
-67.5
  0
LINE
  8
0
 10
-105
 20
-67.5
 11
105
 21
-67.5
  0
LINE
  8
0
 10
105
 20
-67.5
 11
105
 21
67.5
  0
LINE
  8
0
 10
-92.465
 20
49.8027
 11
-92.6288
 21
49.8106
  0
LINE
  8
0
 10
-92.6288
 20
49.8106
 11
-92.791
 21
49.8238
  0
LINE
  8
0
 10
-92.791
 20
49.8238
 11
-92.9518
 21
49.8421
  0
LINE
  8
0
 10
-92.9518
 20
49.8421
 11
-93.111
 21
49.8654
  0
LINE
  8
0
 10
-93.111
 20
49.8654
 11
-93.2686
 21
49.8937
  0
LINE
  8
0
 10
-93.2686
 20
49.8937
 11
-93.4243
 21
49.9269
  0
LINE
  8
0
 10
-93.4243
 20
49.9269
 11
-93.5783
 21
49.9649
  0
LINE
  8
0
 10
-93.5783
 20
49.9649
 11
-93.7303
 21
50.0076
  0
LINE
  8
0
 10
-93.7303
 20
50.0076
 11
-93.8804
 21
50.0549
  0
LINE
  8
0
 10
-93.8804
 20
50.0549
 11
-94.0284
 21
50.1068
  0
LINE
  8
0
 10
-94.0284
 20
50.1068
 11
-94.1742
 21
50.1631
  0
LINE
  8
0
 10
-94.1742
 20
50.1631
 11
-94.3177
 21
50.2238
  0
LINE
  8
0
 10
-94.3177
 20
50.2238
 11
-94.459
 21
50.2888
  0
LINE
  8
0
 10
-94.459
 20
50.2888
 11
-94.5978
 21
50.3581
  0
LINE
  8
0
 10
-94.5978
 20
50.3581
 11
-94.7341
 21
50.4314
  0
LINE
  8
0
 10
-94.7341
 20
50.4314
 11
-94.8679
 21
50.5089
  0
LINE
  8
0
 10
-94.8679
 20
50.5089
 11
-94.999
 21
50.5903
  0
LINE
  8
0
 10
-94.999
 20
50.5903
 11
-95.1274
 21
50.6756
  0
LINE
  8
0
 10
-95.1274
 20
50.6756
 11
-95.2529
 21
50.7647
  0
LINE
  8
0
 10
-95.2529
 20
50.7647
 11
-95.3756
 21
50.8575
  0
LINE
  8
0
 10
-95.3756
 20
50.8575
 11
-95.4953
 21
50.954
  0
LINE
  8
0
 10
-95.4953
 20
50.954
 11
-95.6119
 21
51.054
  0
LINE
  8
0
 10
-95.6119
 20
51.054
 11
-95.7253
 21
51.1575
  0
LINE
  8
0
 10
-95.7253
 20
51.1575
 11
-95.8355
 21
51.2645
  0
LINE
  8
0
 10
-95.8355
 20
51.2645
 11
-95.9425
 21
51.3747
  0
LINE
  8
0
 10
-95.9425
 20
51.3747
 11
-96.046
 21
51.4881
  0
LINE
  8
0
 10
-96.046
 20
51.4881
 11
-96.146
 21
51.6047
  0
LINE
  8
0
 10
-96.146
 20
51.6047
 11
-96.2425
 21
51.7244
  0
LINE
  8
0
 10
-96.2425
 20
51.7244
 11
-96.3353
 21
51.847
  0
LINE
  8
0
 10
-96.3353
 20
51.847
 11
-96.4244
 21
51.9726
  0
LINE
  8
0
 10
-96.4244
 20
51.9726
 11
-96.5097
 21
52.101
  0
LINE
  8
0
 10
-96.5097
 20
52.101
 11
-96.5911
 21
52.2321
  0
LINE
  8
0
 10
-96.5911
 20
52.2321
 11
-96.6685
 21
52.3658
  0
LINE
  8
0
 10
-96.6685
 20
52.3658
 11
-96.7419
 21
52.5022
  0
LINE
  8
0
 10
-96.7419
 20
52.5022
 11
-96.8111
 21
52.641
  0
LINE
  8
0
 10
-96.8111
 20
52.641
 11
-96.8762
 21
52.7823
  0
LINE
  8
0
 10
-96.8762
 20
52.7823
 11
-96.9369
 21
52.9258
  0
LINE
  8
0
 10
-96.9369
 20
52.9258
 11
-96.9932
 21
53.0716
  0
LINE
  8
0
 10
-96.9932
 20
53.0716
 11
-97.0451
 21
53.2196
  0
LINE
  8
0
 10
-97.0451
 20
53.2196
 11
-97.0924
 21
53.3696
  0
LINE
  8
0
 10
-97.0924
 20
53.3696
 11
-97.1351
 21
53.5217
  0
LINE
  8
0
 10
-97.1351
 20
53.5217
 11
-97.1731
 21
53.6756
  0
LINE
  8
0
 10
-97.1731
 20
53.6756
 11
-97.2063
 21
53.8314
  0
LINE
  8
0
 10
-97.2063
 20
53.8314
 11
-97.2346
 21
53.9889
  0
LINE
  8
0
 10
-97.2346
 20
53.9889
 11
-97.2579
 21
54.1481
  0
LINE
  8
0
 10
-97.2579
 20
54.1481
 11
-97.2762
 21
54.3089
  0
LINE
  8
0
 10
-97.2762
 20
54.3089
 11
-97.2894
 21
54.4712
  0
LINE
  8
0
 10
-97.2894
 20
54.4712
 11
-97.2973
 21
54.6349
  0
LINE
  8
0
 10
-97.2973
 20
54.6349
 11
-97.3
 21
54.8
  0
LINE
  8
0
 10
-97.3
 20
54.8
 11
-97.2973
 21
54.965
  0
LINE
  8
0
 10
-97.2973
 20
54.965
 11
-97.2894
 21
55.1287
  0
LINE
  8
0
 10
-97.2894
 20
55.1287
 11
-97.2762
 21
55.291
  0
LINE
  8
0
 10
-97.2762
 20
55.291
 11
-97.2579
 21
55.4518
  0
LINE
  8
0
 10
-97.2579
 20
55.4518
 11
-97.2345
 21
55.611
  0
LINE
  8
0
 10
-97.2345
 20
55.611
 11
-97.2063
 21
55.7686
  0
LINE
  8
0
 10
-97.2063
 20
55.7686
 11
-97.1731
 21
55.9243
  0
LINE
  8
0
 10
-97.1731
 20
55.9243
 11
-97.1351
 21
56.0783
  0
LINE
  8
0
 10
-97.1351
 20
56.0783
 11
-97.0924
 21
56.2303
  0
LINE
  8
0
 10
-97.0924
 20
56.2303
 11
-97.0451
 21
56.3804
  0
LINE
  8
0
 10
-97.0451
 20
56.3804
 11
-96.9932
 21
56.5284
  0
LINE
  8
0
 10
-96.9932
 20
56.5284
 11
-96.9369
 21
56.6741
  0
LINE
  8
0
 10
-96.9369
 20
56.6741
 11
-96.8762
 21
56.8177
  0
LINE
  8
0
 10
-96.8762
 20
56.8177
 11
-96.8111
 21
56.959
  0
LINE
  8
0
 10
-96.8111
 20
56.959
 11
-96.7419
 21
57.0978
  0
LINE
  8
0
 10
-96.7419
 20
57.0978
 11
-96.6685
 21
57.2341
  0
LINE
  8
0
 10
-96.6685
 20
57.2341
 11
-96.5911
 21
57.3679
  0
LINE
  8
0
 10
-96.5911
 20
57.3679
 11
-96.5097
 21
57.499
  0
LINE
  8
0
 10
-96.5097
 20
57.499
 11
-96.4244
 21
57.6274
  0
LINE
  8
0
 10
-96.4244
 20
57.6274
 11
-96.3353
 21
57.7529
  0
LINE
  8
0
 10
-96.3353
 20
57.7529
 11
-96.2425
 21
57.8756
  0
LINE
  8
0
 10
-96.2425
 20
57.8756
 11
-96.146
 21
57.9952
  0
LINE
  8
0
 10
-96.146
 20
57.9952
 11
-96.046
 21
58.1118
  0
LINE
  8
0
 10
-96.046
 20
58.1118
 11
-95.9424
 21
58.2253
  0
LINE
  8
0
 10
-95.9424
 20
58.2253
 11
-95.8355
 21
58.3355
  0
LINE
  8
0
 10
-95.8355
 20
58.3355
 11
-95.7253
 21
58.4424
  0
LINE
  8
0
 10
-95.7253
 20
58.4424
 11
-95.6119
 21
58.5459
  0
LINE
  8
0
 10
-95.6119
 20
58.5459
 11
-95.4953
 21
58.646
  0
LINE
  8
0
 10
-95.4953
 20
58.646
 11
-95.3756
 21
58.7424
  0
LINE
  8
0
 10
-95.3756
 20
58.7424
 11
-95.2529
 21
58.8353
  0
LINE
  8
0
 10
-95.2529
 20
58.8353
 11
-95.1274
 21
58.9244
  0
LINE
  8
0
 10
-95.1274
 20
58.9244
 11
-94.999
 21
59.0097
  0
LINE
  8
0
 10
-94.999
 20
59.0097
 11
-94.8679
 21
59.0911
  0
LINE
  8
0
 10
-94.8679
 20
59.0911
 11
-94.7341
 21
59.1685
  0
LINE
  8
0
 10
-94.7341
 20
59.1685
 11
-94.5978
 21
59.2419
  0
LINE
  8
0
 10
-94.5978
 20
59.2419
 11
-94.459
 21
59.3111
  0
LINE
  8
0
 10
-94.459
 20
59.3111
 11
-94.3177
 21
59.3762
  0
LINE
  8
0
 10
-94.3177
 20
59.3762
 11
-94.1741
 21
59.4369
  0
LINE
  8
0
 10
-94.1741
 20
59.4369
 11
-94.0284
 21
59.4932
  0
LINE
  8
0
 10
-94.0284
 20
59.4932
 11
-93.8804
 21
59.5451
  0
LINE
  8
0
 10
-93.8804
 20
59.5451
 11
-93.7303
 21
59.5924
  0
LINE
  8
0
 10
-93.7303
 20
59.5924
 11
-93.5783
 21
59.6351
  0
LINE
  8
0
 10
-93.5783
 20
59.6351
 11
-93.4243
 21
59.6731
  0
LINE
  8
0
 10
-93.4243
 20
59.6731
 11
-93.2686
 21
59.7062
  0
LINE
  8
0
 10
-93.2686
 20
59.7062
 11
-93.111
 21
59.7345
  0
LINE
  8
0
 10
-93.111
 20
59.7345
 11
-92.9518
 21
59.7579
  0
LINE
  8
0
 10
-92.9518
 20
59.7579
 11
-92.791
 21
59.7762
  0
LINE
  8
0
 10
-92.791
 20
59.7762
 11
-92.6287
 21
59.7893
  0
LINE
  8
0
 10
-92.6287
 20
59.7893
 11
-92.465
 21
59.7973
  0
LINE
  8
0
 10
-92.465
 20
59.7973
 11
-92.3
 21
59.8
  0
LINE
  8
0
 10
-92.3
 20
59.8
 11
-92.1349
 21
59.7973
  0
LINE
  8
0
 10
-92.1349
 20
59.7973
 11
-91.9713
 21
59.7894
  0
LINE
  8
0
 10
-91.9713
 20
59.7894
 11
-91.809
 21
59.7762
  0
LINE
  8
0
 10
-91.809
 20
59.7762
 11
-91.6482
 21
59.7579
  0
LINE
  8
0
 10
-91.6482
 20
59.7579
 11
-91.489
 21
59.7346
  0
LINE
  8
0
 10
-91.489
 20
59.7346
 11
-91.3314
 21
59.7063
  0
LINE
  8
0
 10
-91.3314
 20
59.7063
 11
-91.1757
 21
59.6731
  0
LINE
  8
0
 10
-91.1757
 20
59.6731
 11
-91.0217
 21
59.6351
  0
LINE
  8
0
 10
-91.0217
 20
59.6351
 11
-90.8697
 21
59.5924
  0
LINE
  8
0
 10
-90.8697
 20
59.5924
 11
-90.7196
 21
59.5451
  0
LINE
  8
0
 10
-90.7196
 20
59.5451
 11
-90.5716
 21
59.4932
  0
LINE
  8
0
 10
-90.5716
 20
59.4932
 11
-90.4258
 21
59.4369
  0
LINE
  8
0
 10
-90.4258
 20
59.4369
 11
-90.2823
 21
59.3762
  0
LINE
  8
0
 10
-90.2823
 20
59.3762
 11
-90.141
 21
59.3112
  0
LINE
  8
0
 10
-90.141
 20
59.3112
 11
-90.0022
 21
59.2419
  0
LINE
  8
0
 10
-90.0022
 20
59.2419
 11
-89.8659
 21
59.1685
  0
LINE
  8
0
 10
-89.8659
 20
59.1685
 11
-89.7321
 21
59.0911
  0
LINE
  8
0
 10
-89.7321
 20
59.0911
 11
-89.601
 21
59.0097
  0
LINE
  8
0
 10
-89.601
 20
59.0097
 11
-89.4726
 21
58.9244
  0
LINE
  8
0
 10
-89.4726
 20
58.9244
 11
-89.347
 21
58.8353
  0
LINE
  8
0
 10
-89.347
 20
58.8353
 11
-89.2244
 21
58.7425
  0
LINE
  8
0
 10
-89.2244
 20
58.7425
 11
-89.1047
 21
58.646
  0
LINE
  8
0
 10
-89.1047
 20
58.646
 11
-88.9881
 21
58.546
  0
LINE
  8
0
 10
-88.9881
 20
58.546
 11
-88.8747
 21
58.4424
  0
LINE
  8
0
 10
-88.8747
 20
58.4424
 11
-88.7645
 21
58.3355
  0
LINE
  8
0
 10
-88.7645
 20
58.3355
 11
-88.6575
 21
58.2253
  0
LINE
  8
0
 10
-88.6575
 20
58.2253
 11
-88.554
 21
58.1119
  0
LINE
  8
0
 10
-88.554
 20
58.1119
 11
-88.454
 21
57.9953
  0
LINE
  8
0
 10
-88.454
 20
57.9953
 11
-88.3575
 21
57.8756
  0
LINE
  8
0
 10
-88.3575
 20
57.8756
 11
-88.2647
 21
57.7529
  0
LINE
  8
0
 10
-88.2647
 20
57.7529
 11
-88.1756
 21
57.6274
  0
LINE
  8
0
 10
-88.1756
 20
57.6274
 11
-88.0903
 21
57.499
  0
LINE
  8
0
 10
-88.0903
 20
57.499
 11
-88.0089
 21
57.3679
  0
LINE
  8
0
 10
-88.0089
 20
57.3679
 11
-87.9315
 21
57.2341
  0
LINE
  8
0
 10
-87.9315
 20
57.2341
 11
-87.8581
 21
57.0978
  0
LINE
  8
0
 10
-87.8581
 20
57.0978
 11
-87.7888
 21
56.959
  0
LINE
  8
0
 10
-87.7888
 20
56.959
 11
-87.7238
 21
56.8177
  0
LINE
  8
0
 10
-87.7238
 20
56.8177
 11
-87.6631
 21
56.6742
  0
LINE
  8
0
 10
-87.6631
 20
56.6742
 11
-87.6068
 21
56.5284
  0
LINE
  8
0
 10
-87.6068
 20
56.5284
 11
-87.5549
 21
56.3804
  0
LINE
  8
0
 10
-87.5549
 20
56.3804
 11
-87.5076
 21
56.2304
  0
LINE
  8
0
 10
-87.5076
 20
56.2304
 11
-87.4649
 21
56.0783
  0
LINE
  8
0
 10
-87.4649
 20
56.0783
 11
-87.4269
 21
55.9244
  0
LINE
  8
0
 10
-87.4269
 20
55.9244
 11
-87.3937
 21
55.7686
  0
LINE
  8
0
 10
-87.3937
 20
55.7686
 11
-87.3654
 21
55.611
  0
LINE
  8
0
 10
-87.3654
 20
55.611
 11
-87.3421
 21
55.4518
  0
LINE
  8
0
 10
-87.3421
 20
55.4518
 11
-87.3238
 21
55.291
  0
LINE
  8
0
 10
-87.3238
 20
55.291
 11
-87.3106
 21
55.1288
  0
LINE
  8
0
 10
-87.3106
 20
55.1288
 11
-87.3027
 21
54.9651
  0
LINE
  8
0
 10
-87.3027
 20
54.9651
 11
-87.3
 21
54.8
  0
LINE
  8
0
 10
-87.3
 20
54.8
 11
-87.3027
 21
54.6349
  0
LINE
  8
0
 10
-87.3027
 20
54.6349
 11
-87.3106
 21
54.4712
  0
LINE
  8
0
 10
-87.3106
 20
54.4712
 11
-87.3238
 21
54.3089
  0
LINE
  8
0
 10
-87.3238
 20
54.3089
 11
-87.3421
 21
54.1482
  0
LINE
  8
0
 10
-87.3421
 20
54.1482
 11
-87.3654
 21
53.989
  0
LINE
  8
0
 10
-87.3654
 20
53.989
 11
-87.3938
 21
53.8314
  0
LINE
  8
0
 10
-87.3938
 20
53.8314
 11
-87.4269
 21
53.6756
  0
LINE
  8
0
 10
-87.4269
 20
53.6756
 11
-87.4649
 21
53.5217
  0
LINE
  8
0
 10
-87.4649
 20
53.5217
 11
-87.5076
 21
53.3696
  0
LINE
  8
0
 10
-87.5076
 20
53.3696
 11
-87.5549
 21
53.2196
  0
LINE
  8
0
 10
-87.5549
 20
53.2196
 11
-87.6068
 21
53.0716
  0
LINE
  8
0
 10
-87.6068
 20
53.0716
 11
-87.6631
 21
52.9258
  0
LINE
  8
0
 10
-87.6631
 20
52.9258
 11
-87.7238
 21
52.7823
  0
LINE
  8
0
 10
-87.7238
 20
52.7823
 11
-87.7889
 21
52.641
  0
LINE
  8
0
 10
-87.7889
 20
52.641
 11
-87.8581
 21
52.5022
  0
LINE
  8
0
 10
-87.8581
 20
52.5022
 11
-87.9315
 21
52.3659
  0
LINE
  8
0
 10
-87.9315
 20
52.3659
 11
-88.0089
 21
52.2321
  0
LINE
  8
0
 10
-88.0089
 20
52.2321
 11
-88.0903
 21
52.101
  0
LINE
  8
0
 10
-88.0903
 20
52.101
 11
-88.1756
 21
51.9726
  0
LINE
  8
0
 10
-88.1756
 20
51.9726
 11
-88.2647
 21
51.8471
  0
LINE
  8
0
 10
-88.2647
 20
51.8471
 11
-88.3575
 21
51.7244
  0
LINE
  8
0
 10
-88.3575
 20
51.7244
 11
-88.454
 21
51.6047
  0
LINE
  8
0
 10
-88.454
 20
51.6047
 11
-88.554
 21
51.4881
  0
LINE
  8
0
 10
-88.554
 20
51.4881
 11
-88.6575
 21
51.3747
  0
LINE
  8
0
 10
-88.6575
 20
51.3747
 11
-88.7645
 21
51.2645
  0
LINE
  8
0
 10
-88.7645
 20
51.2645
 11
-88.8747
 21
51.1576
  0
LINE
  8
0
 10
-88.8747
 20
51.1576
 11
-88.9881
 21
51.054
  0
LINE
  8
0
 10
-88.9881
 20
51.054
 11
-89.1047
 21
50.954
  0
LINE
  8
0
 10
-89.1047
 20
50.954
 11
-89.2244
 21
50.8575
  0
LINE
  8
0
 10
-89.2244
 20
50.8575
 11
-89.3471
 21
50.7647
  0
LINE
  8
0
 10
-89.3471
 20
50.7647
 11
-89.4726
 21
50.6756
  0
LINE
  8
0
 10
-89.4726
 20
50.6756
 11
-89.601
 21
50.5903
  0
LINE
  8
0
 10
-89.601
 20
50.5903
 11
-89.7321
 21
50.5089
  0
LINE
  8
0
 10
-89.7321
 20
50.5089
 11
-89.8659
 21
50.4315
  0
LINE
  8
0
 10
-89.8659
 20
50.4315
 11
-90.0022
 21
50.3581
  0
LINE
  8
0
 10
-90.0022
 20
50.3581
 11
-90.141
 21
50.2888
  0
LINE
  8
0
 10
-90.141
 20
50.2888
 11
-90.2823
 21
50.2238
  0
LINE
  8
0
 10
-90.2823
 20
50.2238
 11
-90.4258
 21
50.1631
  0
LINE
  8
0
 10
-90.4258
 20
50.1631
 11
-90.5717
 21
50.1068
  0
LINE
  8
0
 10
-90.5717
 20
50.1068
 11
-90.7196
 21
50.0549
  0
LINE
  8
0
 10
-90.7196
 20
50.0549
 11
-90.8697
 21
50.0076
  0
LINE
  8
0
 10
-90.8697
 20
50.0076
 11
-91.0217
 21
49.9649
  0
LINE
  8
0
 10
-91.0217
 20
49.9649
 11
-91.1757
 21
49.9269
  0
LINE
  8
0
 10
-91.1757
 20
49.9269
 11
-91.3315
 21
49.8938
  0
LINE
  8
0
 10
-91.3315
 20
49.8938
 11
-91.489
 21
49.8654
  0
LINE
  8
0
 10
-91.489
 20
49.8654
 11
-91.6482
 21
49.8421
  0
LINE
  8
0
 10
-91.6482
 20
49.8421
 11
-91.809
 21
49.8238
  0
LINE
  8
0
 10
-91.809
 20
49.8238
 11
-91.9713
 21
49.8106
  0
LINE
  8
0
 10
-91.9713
 20
49.8106
 11
-92.135
 21
49.8027
  0
LINE
  8
0
 10
-92.135
 20
49.8027
 11
-92.3
 21
49.8
  0
LINE
  8
0
 10
-92.3
 20
49.8
 11
-92.465
 21
49.8027
  0
LINE
  8
0
 10
92.1349
 20
49.8027
 11
91.9713
 21
49.8106
  0
LINE
  8
0
 10
91.9713
 20
49.8106
 11
91.809
 21
49.8238
  0
LINE
  8
0
 10
91.809
 20
49.8238
 11
91.6482
 21
49.8421
  0
LINE
  8
0
 10
91.6482
 20
49.8421
 11
91.489
 21
49.8654
  0
LINE
  8
0
 10
91.489
 20
49.8654
 11
91.3314
 21
49.8937
  0
LINE
  8
0
 10
91.3314
 20
49.8937
 11
91.1757
 21
49.9269
  0
LINE
  8
0
 10
91.1757
 20
49.9269
 11
91.0217
 21
49.9649
  0
LINE
  8
0
 10
91.0217
 20
49.9649
 11
90.8697
 21
50.0076
  0
LINE
  8
0
 10
90.8697
 20
50.0076
 11
90.7196
 21
50.0549
  0
LINE
  8
0
 10
90.7196
 20
50.0549
 11
90.5716
 21
50.1068
  0
LINE
  8
0
 10
90.5716
 20
50.1068
 11
90.4258
 21
50.1631
  0
LINE
  8
0
 10
90.4258
 20
50.1631
 11
90.2823
 21
50.2238
  0
LINE
  8
0
 10
90.2823
 20
50.2238
 11
90.141
 21
50.2888
  0
LINE
  8
0
 10
90.141
 20
50.2888
 11
90.0022
 21
50.3581
  0
LINE
  8
0
 10
90.0022
 20
50.3581
 11
89.8659
 21
50.4314
  0
LINE
  8
0
 10
89.8659
 20
50.4314
 11
89.7321
 21
50.5089
  0
LINE
  8
0
 10
89.7321
 20
50.5089
 11
89.601
 21
50.5903
  0
LINE
  8
0
 10
89.601
 20
50.5903
 11
89.4726
 21
50.6756
  0
LINE
  8
0
 10
89.4726
 20
50.6756
 11
89.347
 21
50.7647
  0
LINE
  8
0
 10
89.347
 20
50.7647
 11
89.2244
 21
50.8575
  0
LINE
  8
0
 10
89.2244
 20
50.8575
 11
89.1047
 21
50.954
  0
LINE
  8
0
 10
89.1047
 20
50.954
 11
88.9881
 21
51.054
  0
LINE
  8
0
 10
88.9881
 20
51.054
 11
88.8747
 21
51.1575
  0
LINE
  8
0
 10
88.8747
 20
51.1575
 11
88.7645
 21
51.2645
  0
LINE
  8
0
 10
88.7645
 20
51.2645
 11
88.6575
 21
51.3747
  0
LINE
  8
0
 10
88.6575
 20
51.3747
 11
88.554
 21
51.4881
  0
LINE
  8
0
 10
88.554
 20
51.4881
 11
88.454
 21
51.6047
  0
LINE
  8
0
 10
88.454
 20
51.6047
 11
88.3575
 21
51.7244
  0
LINE
  8
0
 10
88.3575
 20
51.7244
 11
88.2647
 21
51.847
  0
LINE
  8
0
 10
88.2647
 20
51.847
 11
88.1756
 21
51.9726
  0
LINE
  8
0
 10
88.1756
 20
51.9726
 11
88.0903
 21
52.101
  0
LINE
  8
0
 10
88.0903
 20
52.101
 11
88.0089
 21
52.2321
  0
LINE
  8
0
 10
88.0089
 20
52.2321
 11
87.9315
 21
52.3658
  0
LINE
  8
0
 10
87.9315
 20
52.3658
 11
87.8581
 21
52.5022
  0
LINE
  8
0
 10
87.8581
 20
52.5022
 11
87.7888
 21
52.641
  0
LINE
  8
0
 10
87.7888
 20
52.641
 11
87.7238
 21
52.7823
  0
LINE
  8
0
 10
87.7238
 20
52.7823
 11
87.6631
 21
52.9258
  0
LINE
  8
0
 10
87.6631
 20
52.9258
 11
87.6068
 21
53.0716
  0
LINE
  8
0
 10
87.6068
 20
53.0716
 11
87.5549
 21
53.2196
  0
LINE
  8
0
 10
87.5549
 20
53.2196
 11
87.5076
 21
53.3696
  0
LINE
  8
0
 10
87.5076
 20
53.3696
 11
87.4649
 21
53.5217
  0
LINE
  8
0
 10
87.4649
 20
53.5217
 11
87.4269
 21
53.6756
  0
LINE
  8
0
 10
87.4269
 20
53.6756
 11
87.3937
 21
53.8314
  0
LINE
  8
0
 10
87.3937
 20
53.8314
 11
87.3654
 21
53.9889
  0
LINE
  8
0
 10
87.3654
 20
53.9889
 11
87.3421
 21
54.1481
  0
LINE
  8
0
 10
87.3421
 20
54.1481
 11
87.3238
 21
54.3089
  0
LINE
  8
0
 10
87.3238
 20
54.3089
 11
87.3106
 21
54.4712
  0
LINE
  8
0
 10
87.3106
 20
54.4712
 11
87.3027
 21
54.6349
  0
LINE
  8
0
 10
87.3027
 20
54.6349
 11
87.3
 21
54.8
  0
LINE
  8
0
 10
87.3
 20
54.8
 11
87.3027
 21
54.965
  0
LINE
  8
0
 10
87.3027
 20
54.965
 11
87.3106
 21
55.1287
  0
LINE
  8
0
 10
87.3106
 20
55.1287
 11
87.3238
 21
55.291
  0
LINE
  8
0
 10
87.3238
 20
55.291
 11
87.3421
 21
55.4518
  0
LINE
  8
0
 10
87.3421
 20
55.4518
 11
87.3654
 21
55.611
  0
LINE
  8
0
 10
87.3654
 20
55.611
 11
87.3938
 21
55.7686
  0
LINE
  8
0
 10
87.3938
 20
55.7686
 11
87.4269
 21
55.9243
  0
LINE
  8
0
 10
87.4269
 20
55.9243
 11
87.4649
 21
56.0783
  0
LINE
  8
0
 10
87.4649
 20
56.0783
 11
87.5076
 21
56.2303
  0
LINE
  8
0
 10
87.5076
 20
56.2303
 11
87.5549
 21
56.3804
  0
LINE
  8
0
 10
87.5549
 20
56.3804
 11
87.6068
 21
56.5284
  0
LINE
  8
0
 10
87.6068
 20
56.5284
 11
87.6631
 21
56.6741
  0
LINE
  8
0
 10
87.6631
 20
56.6741
 11
87.7238
 21
56.8177
  0
LINE
  8
0
 10
87.7238
 20
56.8177
 11
87.7889
 21
56.959
  0
LINE
  8
0
 10
87.7889
 20
56.959
 11
87.8581
 21
57.0978
  0
LINE
  8
0
 10
87.8581
 20
57.0978
 11
87.9315
 21
57.2341
  0
LINE
  8
0
 10
87.9315
 20
57.2341
 11
88.0089
 21
57.3679
  0
LINE
  8
0
 10
88.0089
 20
57.3679
 11
88.0903
 21
57.499
  0
LINE
  8
0
 10
88.0903
 20
57.499
 11
88.1756
 21
57.6274
  0
LINE
  8
0
 10
88.1756
 20
57.6274
 11
88.2647
 21
57.7529
  0
LINE
  8
0
 10
88.2647
 20
57.7529
 11
88.3575
 21
57.8756
  0
LINE
  8
0
 10
88.3575
 20
57.8756
 11
88.454
 21
57.9952
  0
LINE
  8
0
 10
88.454
 20
57.9952
 11
88.554
 21
58.1118
  0
LINE
  8
0
 10
88.554
 20
58.1118
 11
88.6575
 21
58.2253
  0
LINE
  8
0
 10
88.6575
 20
58.2253
 11
88.7645
 21
58.3355
  0
LINE
  8
0
 10
88.7645
 20
58.3355
 11
88.8747
 21
58.4424
  0
LINE
  8
0
 10
88.8747
 20
58.4424
 11
88.9881
 21
58.5459
  0
LINE
  8
0
 10
88.9881
 20
58.5459
 11
89.1047
 21
58.646
  0
LINE
  8
0
 10
89.1047
 20
58.646
 11
89.2244
 21
58.7424
  0
LINE
  8
0
 10
89.2244
 20
58.7424
 11
89.3471
 21
58.8353
  0
LINE
  8
0
 10
89.3471
 20
58.8353
 11
89.4726
 21
58.9244
  0
LINE
  8
0
 10
89.4726
 20
58.9244
 11
89.601
 21
59.0097
  0
LINE
  8
0
 10
89.601
 20
59.0097
 11
89.7321
 21
59.0911
  0
LINE
  8
0
 10
89.7321
 20
59.0911
 11
89.8659
 21
59.1685
  0
LINE
  8
0
 10
89.8659
 20
59.1685
 11
90.0022
 21
59.2419
  0
LINE
  8
0
 10
90.0022
 20
59.2419
 11
90.141
 21
59.3111
  0
LINE
  8
0
 10
90.141
 20
59.3111
 11
90.2823
 21
59.3762
  0
LINE
  8
0
 10
90.2823
 20
59.3762
 11
90.4258
 21
59.4369
  0
LINE
  8
0
 10
90.4258
 20
59.4369
 11
90.5717
 21
59.4932
  0
LINE
  8
0
 10
90.5717
 20
59.4932
 11
90.7196
 21
59.5451
  0
LINE
  8
0
 10
90.7196
 20
59.5451
 11
90.8697
 21
59.5924
  0
LINE
  8
0
 10
90.8697
 20
59.5924
 11
91.0217
 21
59.6351
  0
LINE
  8
0
 10
91.0217
 20
59.6351
 11
91.1757
 21
59.6731
  0
LINE
  8
0
 10
91.1757
 20
59.6731
 11
91.3315
 21
59.7062
  0
LINE
  8
0
 10
91.3315
 20
59.7062
 11
91.489
 21
59.7345
  0
LINE
  8
0
 10
91.489
 20
59.7345
 11
91.6482
 21
59.7579
  0
LINE
  8
0
 10
91.6482
 20
59.7579
 11
91.809
 21
59.7762
  0
LINE
  8
0
 10
91.809
 20
59.7762
 11
91.9713
 21
59.7893
  0
LINE
  8
0
 10
91.9713
 20
59.7893
 11
92.135
 21
59.7973
  0
LINE
  8
0
 10
92.135
 20
59.7973
 11
92.3
 21
59.8
  0
LINE
  8
0
 10
92.3
 20
59.8
 11
92.465
 21
59.7973
  0
LINE
  8
0
 10
92.465
 20
59.7973
 11
92.6288
 21
59.7894
  0
LINE
  8
0
 10
92.6288
 20
59.7894
 11
92.791
 21
59.7762
  0
LINE
  8
0
 10
92.791
 20
59.7762
 11
92.9518
 21
59.7579
  0
LINE
  8
0
 10
92.9518
 20
59.7579
 11
93.111
 21
59.7346
  0
LINE
  8
0
 10
93.111
 20
59.7346
 11
93.2686
 21
59.7063
  0
LINE
  8
0
 10
93.2686
 20
59.7063
 11
93.4243
 21
59.6731
  0
LINE
  8
0
 10
93.4243
 20
59.6731
 11
93.5783
 21
59.6351
  0
LINE
  8
0
 10
93.5783
 20
59.6351
 11
93.7303
 21
59.5924
  0
LINE
  8
0
 10
93.7303
 20
59.5924
 11
93.8804
 21
59.5451
  0
LINE
  8
0
 10
93.8804
 20
59.5451
 11
94.0284
 21
59.4932
  0
LINE
  8
0
 10
94.0284
 20
59.4932
 11
94.1742
 21
59.4369
  0
LINE
  8
0
 10
94.1742
 20
59.4369
 11
94.3177
 21
59.3762
  0
LINE
  8
0
 10
94.3177
 20
59.3762
 11
94.459
 21
59.3112
  0
LINE
  8
0
 10
94.459
 20
59.3112
 11
94.5978
 21
59.2419
  0
LINE
  8
0
 10
94.5978
 20
59.2419
 11
94.7341
 21
59.1685
  0
LINE
  8
0
 10
94.7341
 20
59.1685
 11
94.8679
 21
59.0911
  0
LINE
  8
0
 10
94.8679
 20
59.0911
 11
94.999
 21
59.0097
  0
LINE
  8
0
 10
94.999
 20
59.0097
 11
95.1274
 21
58.9244
  0
LINE
  8
0
 10
95.1274
 20
58.9244
 11
95.2529
 21
58.8353
  0
LINE
  8
0
 10
95.2529
 20
58.8353
 11
95.3756
 21
58.7425
  0
LINE
  8
0
 10
95.3756
 20
58.7425
 11
95.4953
 21
58.646
  0
LINE
  8
0
 10
95.4953
 20
58.646
 11
95.6119
 21
58.546
  0
LINE
  8
0
 10
95.6119
 20
58.546
 11
95.7253
 21
58.4424
  0
LINE
  8
0
 10
95.7253
 20
58.4424
 11
95.8355
 21
58.3355
  0
LINE
  8
0
 10
95.8355
 20
58.3355
 11
95.9425
 21
58.2253
  0
LINE
  8
0
 10
95.9425
 20
58.2253
 11
96.046
 21
58.1119
  0
LINE
  8
0
 10
96.046
 20
58.1119
 11
96.146
 21
57.9953
  0
LINE
  8
0
 10
96.146
 20
57.9953
 11
96.2425
 21
57.8756
  0
LINE
  8
0
 10
96.2425
 20
57.8756
 11
96.3353
 21
57.7529
  0
LINE
  8
0
 10
96.3353
 20
57.7529
 11
96.4244
 21
57.6274
  0
LINE
  8
0
 10
96.4244
 20
57.6274
 11
96.5097
 21
57.499
  0
LINE
  8
0
 10
96.5097
 20
57.499
 11
96.5911
 21
57.3679
  0
LINE
  8
0
 10
96.5911
 20
57.3679
 11
96.6685
 21
57.2341
  0
LINE
  8
0
 10
96.6685
 20
57.2341
 11
96.7419
 21
57.0978
  0
LINE
  8
0
 10
96.7419
 20
57.0978
 11
96.8111
 21
56.959
  0
LINE
  8
0
 10
96.8111
 20
56.959
 11
96.8762
 21
56.8177
  0
LINE
  8
0
 10
96.8762
 20
56.8177
 11
96.9369
 21
56.6742
  0
LINE
  8
0
 10
96.9369
 20
56.6742
 11
96.9932
 21
56.5284
  0
LINE
  8
0
 10
96.9932
 20
56.5284
 11
97.0451
 21
56.3804
  0
LINE
  8
0
 10
97.0451
 20
56.3804
 11
97.0924
 21
56.2304
  0
LINE
  8
0
 10
97.0924
 20
56.2304
 11
97.1351
 21
56.0783
  0
LINE
  8
0
 10
97.1351
 20
56.0783
 11
97.1731
 21
55.9244
  0
LINE
  8
0
 10
97.1731
 20
55.9244
 11
97.2063
 21
55.7686
  0
LINE
  8
0
 10
97.2063
 20
55.7686
 11
97.2346
 21
55.611
  0
LINE
  8
0
 10
97.2346
 20
55.611
 11
97.2579
 21
55.4518
  0
LINE
  8
0
 10
97.2579
 20
55.4518
 11
97.2762
 21
55.291
  0
LINE
  8
0
 10
97.2762
 20
55.291
 11
97.2894
 21
55.1288
  0
LINE
  8
0
 10
97.2894
 20
55.1288
 11
97.2973
 21
54.9651
  0
LINE
  8
0
 10
97.2973
 20
54.9651
 11
97.3
 21
54.8
  0
LINE
  8
0
 10
97.3
 20
54.8
 11
97.2973
 21
54.6349
  0
LINE
  8
0
 10
97.2973
 20
54.6349
 11
97.2894
 21
54.4712
  0
LINE
  8
0
 10
97.2894
 20
54.4712
 11
97.2762
 21
54.3089
  0
LINE
  8
0
 10
97.2762
 20
54.3089
 11
97.2579
 21
54.1482
  0
LINE
  8
0
 10
97.2579
 20
54.1482
 11
97.2345
 21
53.989
  0
LINE
  8
0
 10
97.2345
 20
53.989
 11
97.2063
 21
53.8314
  0
LINE
  8
0
 10
97.2063
 20
53.8314
 11
97.1731
 21
53.6756
  0
LINE
  8
0
 10
97.1731
 20
53.6756
 11
97.1351
 21
53.5217
  0
LINE
  8
0
 10
97.1351
 20
53.5217
 11
97.0924
 21
53.3696
  0
LINE
  8
0
 10
97.0924
 20
53.3696
 11
97.0451
 21
53.2196
  0
LINE
  8
0
 10
97.0451
 20
53.2196
 11
96.9932
 21
53.0716
  0
LINE
  8
0
 10
96.9932
 20
53.0716
 11
96.9369
 21
52.9258
  0
LINE
  8
0
 10
96.9369
 20
52.9258
 11
96.8762
 21
52.7823
  0
LINE
  8
0
 10
96.8762
 20
52.7823
 11
96.8111
 21
52.641
  0
LINE
  8
0
 10
96.8111
 20
52.641
 11
96.7419
 21
52.5022
  0
LINE
  8
0
 10
96.7419
 20
52.5022
 11
96.6685
 21
52.3659
  0
LINE
  8
0
 10
96.6685
 20
52.3659
 11
96.5911
 21
52.2321
  0
LINE
  8
0
 10
96.5911
 20
52.2321
 11
96.5097
 21
52.101
  0
LINE
  8
0
 10
96.5097
 20
52.101
 11
96.4244
 21
51.9726
  0
LINE
  8
0
 10
96.4244
 20
51.9726
 11
96.3353
 21
51.8471
  0
LINE
  8
0
 10
96.3353
 20
51.8471
 11
96.2425
 21
51.7244
  0
LINE
  8
0
 10
96.2425
 20
51.7244
 11
96.146
 21
51.6047
  0
LINE
  8
0
 10
96.146
 20
51.6047
 11
96.046
 21
51.4881
  0
LINE
  8
0
 10
96.046
 20
51.4881
 11
95.9424
 21
51.3747
  0
LINE
  8
0
 10
95.9424
 20
51.3747
 11
95.8355
 21
51.2645
  0
LINE
  8
0
 10
95.8355
 20
51.2645
 11
95.7253
 21
51.1576
  0
LINE
  8
0
 10
95.7253
 20
51.1576
 11
95.6119
 21
51.054
  0
LINE
  8
0
 10
95.6119
 20
51.054
 11
95.4953
 21
50.954
  0
LINE
  8
0
 10
95.4953
 20
50.954
 11
95.3756
 21
50.8575
  0
LINE
  8
0
 10
95.3756
 20
50.8575
 11
95.2529
 21
50.7647
  0
LINE
  8
0
 10
95.2529
 20
50.7647
 11
95.1274
 21
50.6756
  0
LINE
  8
0
 10
95.1274
 20
50.6756
 11
94.999
 21
50.5903
  0
LINE
  8
0
 10
94.999
 20
50.5903
 11
94.8679
 21
50.5089
  0
LINE
  8
0
 10
94.8679
 20
50.5089
 11
94.7341
 21
50.4315
  0
LINE
  8
0
 10
94.7341
 20
50.4315
 11
94.5978
 21
50.3581
  0
LINE
  8
0
 10
94.5978
 20
50.3581
 11
94.459
 21
50.2888
  0
LINE
  8
0
 10
94.459
 20
50.2888
 11
94.3177
 21
50.2238
  0
LINE
  8
0
 10
94.3177
 20
50.2238
 11
94.1741
 21
50.1631
  0
LINE
  8
0
 10
94.1741
 20
50.1631
 11
94.0284
 21
50.1068
  0
LINE
  8
0
 10
94.0284
 20
50.1068
 11
93.8804
 21
50.0549
  0
LINE
  8
0
 10
93.8804
 20
50.0549
 11
93.7303
 21
50.0076
  0
LINE
  8
0
 10
93.7303
 20
50.0076
 11
93.5783
 21
49.9649
  0
LINE
  8
0
 10
93.5783
 20
49.9649
 11
93.4243
 21
49.9269
  0
LINE
  8
0
 10
93.4243
 20
49.9269
 11
93.2686
 21
49.8938
  0
LINE
  8
0
 10
93.2686
 20
49.8938
 11
93.111
 21
49.8654
  0
LINE
  8
0
 10
93.111
 20
49.8654
 11
92.9518
 21
49.8421
  0
LINE
  8
0
 10
92.9518
 20
49.8421
 11
92.791
 21
49.8238
  0
LINE
  8
0
 10
92.791
 20
49.8238
 11
92.6287
 21
49.8106
  0
LINE
  8
0
 10
92.6287
 20
49.8106
 11
92.465
 21
49.8027
  0
LINE
  8
0
 10
92.465
 20
49.8027
 11
92.3
 21
49.8
  0
LINE
  8
0
 10
92.3
 20
49.8
 11
92.1349
 21
49.8027
  0
LINE
  8
0
 10
-30.1155
 20
41.5019
 11
-30.2301
 21
41.5074
  0
LINE
  8
0
 10
-30.2301
 20
41.5074
 11
-30.3437
 21
41.5166
  0
LINE
  8
0
 10
-30.3437
 20
41.5166
 11
-30.4563
 21
41.5295
  0
LINE
  8
0
 10
-30.4563
 20
41.5295
 11
-30.5677
 21
41.5458
  0
LINE
  8
0
 10
-30.5677
 20
41.5458
 11
-30.678
 21
41.5656
  0
LINE
  8
0
 10
-30.678
 20
41.5656
 11
-30.787
 21
41.5888
  0
LINE
  8
0
 10
-30.787
 20
41.5888
 11
-30.8948
 21
41.6154
  0
LINE
  8
0
 10
-30.8948
 20
41.6154
 11
-31.0012
 21
41.6453
  0
LINE
  8
0
 10
-31.0012
 20
41.6453
 11
-31.1063
 21
41.6784
  0
LINE
  8
0
 10
-31.1063
 20
41.6784
 11
-31.2098
 21
41.7147
  0
LINE
  8
0
 10
-31.2098
 20
41.7147
 11
-31.3119
 21
41.7542
  0
LINE
  8
0
 10
-31.3119
 20
41.7542
 11
-31.4124
 21
41.7967
  0
LINE
  8
0
 10
-31.4124
 20
41.7967
 11
-31.5113
 21
41.8422
  0
LINE
  8
0
 10
-31.5113
 20
41.8422
 11
-31.6084
 21
41.8907
  0
LINE
  8
0
 10
-31.6084
 20
41.8907
 11
-31.7039
 21
41.942
  0
LINE
  8
0
 10
-31.7039
 20
41.942
 11
-31.7975
 21
41.9962
  0
LINE
  8
0
 10
-31.7975
 20
41.9962
 11
-31.8893
 21
42.0532
  0
LINE
  8
0
 10
-31.8893
 20
42.0532
 11
-31.9792
 21
42.1129
  0
LINE
  8
0
 10
-31.9792
 20
42.1129
 11
-32.067
 21
42.1753
  0
LINE
  8
0
 10
-32.067
 20
42.1753
 11
-32.1529
 21
42.2403
  0
LINE
  8
0
 10
-32.1529
 20
42.2403
 11
-32.2367
 21
42.3078
  0
LINE
  8
0
 10
-32.2367
 20
42.3078
 11
-32.3183
 21
42.3778
  0
LINE
  8
0
 10
-32.3183
 20
42.3778
 11
-32.3977
 21
42.4503
  0
LINE
  8
0
 10
-32.3977
 20
42.4503
 11
-32.4749
 21
42.5251
  0
LINE
  8
0
 10
-32.4749
 20
42.5251
 11
-32.5497
 21
42.6023
  0
LINE
  8
0
 10
-32.5497
 20
42.6023
 11
-32.6222
 21
42.6817
  0
LINE
  8
0
 10
-32.6222
 20
42.6817
 11
-32.6922
 21
42.7633
  0
LINE
  8
0
 10
-32.6922
 20
42.7633
 11
-32.7597
 21
42.8471
  0
LINE
  8
0
 10
-32.7597
 20
42.8471
 11
-32.8247
 21
42.9329
  0
LINE
  8
0
 10
-32.8247
 20
42.9329
 11
-32.8871
 21
43.0208
  0
LINE
  8
0
 10
-32.8871
 20
43.0208
 11
-32.9468
 21
43.1107
  0
LINE
  8
0
 10
-32.9468
 20
43.1107
 11
-33.0038
 21
43.2025
  0
LINE
  8
0
 10
-33.0038
 20
43.2025
 11
-33.058
 21
43.2961
  0
LINE
  8
0
 10
-33.058
 20
43.2961
 11
-33.1093
 21
43.3915
  0
LINE
  8
0
 10
-33.1093
 20
43.3915
 11
-33.1578
 21
43.4887
  0
LINE
  8
0
 10
-33.1578
 20
43.4887
 11
-33.2033
 21
43.5876
  0
LINE
  8
0
 10
-33.2033
 20
43.5876
 11
-33.2458
 21
43.6881
  0
LINE
  8
0
 10
-33.2458
 20
43.6881
 11
-33.2852
 21
43.7901
  0
LINE
  8
0
 10
-33.2852
 20
43.7901
 11
-33.3216
 21
43.8937
  0
LINE
  8
0
 10
-33.3216
 20
43.8937
 11
-33.3547
 21
43.9987
  0
LINE
  8
0
 10
-33.3547
 20
43.9987
 11
-33.3846
 21
44.1052
  0
LINE
  8
0
 10
-33.3846
 20
44.1052
 11
-33.4111
 21
44.213
  0
LINE
  8
0
 10
-33.4111
 20
44.213
 11
-33.4344
 21
44.322
  0
LINE
  8
0
 10
-33.4344
 20
44.322
 11
-33.4542
 21
44.4323
  0
LINE
  8
0
 10
-33.4542
 20
44.4323
 11
-33.4705
 21
44.5437
  0
LINE
  8
0
 10
-33.4705
 20
44.5437
 11
-33.4833
 21
44.6563
  0
LINE
  8
0
 10
-33.4833
 20
44.6563
 11
-33.4926
 21
44.7699
  0
LINE
  8
0
 10
-33.4926
 20
44.7699
 11
-33.4981
 21
44.8845
  0
LINE
  8
0
 10
-33.4981
 20
44.8845
 11
-33.5
 21
45
  0
LINE
  8
0
 10
-33.5
 20
45
 11
-33.4981
 21
45.1155
  0
LINE
  8
0
 10
-33.4981
 20
45.1155
 11
-33.4926
 21
45.2301
  0
LINE
  8
0
 10
-33.4926
 20
45.2301
 11
-33.4833
 21
45.3437
  0
LINE
  8
0
 10
-33.4833
 20
45.3437
 11
-33.4705
 21
45.4563
  0
LINE
  8
0
 10
-33.4705
 20
45.4563
 11
-33.4542
 21
45.5677
  0
LINE
  8
0
 10
-33.4542
 20
45.5677
 11
-33.4344
 21
45.678
  0
LINE
  8
0
 10
-33.4344
 20
45.678
 11
-33.4111
 21
45.787
  0
LINE
  8
0
 10
-33.4111
 20
45.787
 11
-33.3846
 21
45.8948
  0
LINE
  8
0
 10
-33.3846
 20
45.8948
 11
-33.3547
 21
46.0012
  0
LINE
  8
0
 10
-33.3547
 20
46.0012
 11
-33.3216
 21
46.1063
  0
LINE
  8
0
 10
-33.3216
 20
46.1063
 11
-33.2852
 21
46.2098
  0
LINE
  8
0
 10
-33.2852
 20
46.2098
 11
-33.2458
 21
46.3119
  0
LINE
  8
0
 10
-33.2458
 20
46.3119
 11
-33.2033
 21
46.4124
  0
LINE
  8
0
 10
-33.2033
 20
46.4124
 11
-33.1578
 21
46.5113
  0
LINE
  8
0
 10
-33.1578
 20
46.5113
 11
-33.1093
 21
46.6084
  0
LINE
  8
0
 10
-33.1093
 20
46.6084
 11
-33.058
 21
46.7039
  0
LINE
  8
0
 10
-33.058
 20
46.7039
 11
-33.0038
 21
46.7975
  0
LINE
  8
0
 10
-33.0038
 20
46.7975
 11
-32.9468
 21
46.8893
  0
LINE
  8
0
 10
-32.9468
 20
46.8893
 11
-32.8871
 21
46.9792
  0
LINE
  8
0
 10
-32.8871
 20
46.9792
 11
-32.8247
 21
47.067
  0
LINE
  8
0
 10
-32.8247
 20
47.067
 11
-32.7597
 21
47.1529
  0
LINE
  8
0
 10
-32.7597
 20
47.1529
 11
-32.6922
 21
47.2367
  0
LINE
  8
0
 10
-32.6922
 20
47.2367
 11
-32.6222
 21
47.3183
  0
LINE
  8
0
 10
-32.6222
 20
47.3183
 11
-32.5497
 21
47.3977
  0
LINE
  8
0
 10
-32.5497
 20
47.3977
 11
-32.4749
 21
47.4749
  0
LINE
  8
0
 10
-32.4749
 20
47.4749
 11
-32.3977
 21
47.5497
  0
LINE
  8
0
 10
-32.3977
 20
47.5497
 11
-32.3183
 21
47.6222
  0
LINE
  8
0
 10
-32.3183
 20
47.6222
 11
-32.2367
 21
47.6922
  0
LINE
  8
0
 10
-32.2367
 20
47.6922
 11
-32.1529
 21
47.7597
  0
LINE
  8
0
 10
-32.1529
 20
47.7597
 11
-32.067
 21
47.8247
  0
LINE
  8
0
 10
-32.067
 20
47.8247
 11
-31.9792
 21
47.8871
  0
LINE
  8
0
 10
-31.9792
 20
47.8871
 11
-31.8893
 21
47.9468
  0
LINE
  8
0
 10
-31.8893
 20
47.9468
 11
-31.7975
 21
48.0038
  0
LINE
  8
0
 10
-31.7975
 20
48.0038
 11
-31.7039
 21
48.058
  0
LINE
  8
0
 10
-31.7039
 20
48.058
 11
-31.6084
 21
48.1093
  0
LINE
  8
0
 10
-31.6084
 20
48.1093
 11
-31.5113
 21
48.1578
  0
LINE
  8
0
 10
-31.5113
 20
48.1578
 11
-31.4124
 21
48.2033
  0
LINE
  8
0
 10
-31.4124
 20
48.2033
 11
-31.3119
 21
48.2458
  0
LINE
  8
0
 10
-31.3119
 20
48.2458
 11
-31.2098
 21
48.2853
  0
LINE
  8
0
 10
-31.2098
 20
48.2853
 11
-31.1063
 21
48.3216
  0
LINE
  8
0
 10
-31.1063
 20
48.3216
 11
-31.0012
 21
48.3547
  0
LINE
  8
0
 10
-31.0012
 20
48.3547
 11
-30.8948
 21
48.3846
  0
LINE
  8
0
 10
-30.8948
 20
48.3846
 11
-30.787
 21
48.4111
  0
LINE
  8
0
 10
-30.787
 20
48.4111
 11
-30.678
 21
48.4344
  0
LINE
  8
0
 10
-30.678
 20
48.4344
 11
-30.5677
 21
48.4542
  0
LINE
  8
0
 10
-30.5677
 20
48.4542
 11
-30.4563
 21
48.4705
  0
LINE
  8
0
 10
-30.4563
 20
48.4705
 11
-30.3437
 21
48.4833
  0
LINE
  8
0
 10
-30.3437
 20
48.4833
 11
-30.2301
 21
48.4926
  0
LINE
  8
0
 10
-30.2301
 20
48.4926
 11
-30.1155
 21
48.4981
  0
LINE
  8
0
 10
-30.1155
 20
48.4981
 11
-30
 21
48.5
  0
LINE
  8
0
 10
-30
 20
48.5
 11
-29.8845
 21
48.4981
  0
LINE
  8
0
 10
-29.8845
 20
48.4981
 11
-29.7699
 21
48.4926
  0
LINE
  8
0
 10
-29.7699
 20
48.4926
 11
-29.6563
 21
48.4833
  0
LINE
  8
0
 10
-29.6563
 20
48.4833
 11
-29.5437
 21
48.4705
  0
LINE
  8
0
 10
-29.5437
 20
48.4705
 11
-29.4323
 21
48.4542
  0
LINE
  8
0
 10
-29.4323
 20
48.4542
 11
-29.322
 21
48.4344
  0
LINE
  8
0
 10
-29.322
 20
48.4344
 11
-29.213
 21
48.4111
  0
LINE
  8
0
 10
-29.213
 20
48.4111
 11
-29.1052
 21
48.3846
  0
LINE
  8
0
 10
-29.1052
 20
48.3846
 11
-28.9987
 21
48.3547
  0
LINE
  8
0
 10
-28.9987
 20
48.3547
 11
-28.8937
 21
48.3216
  0
LINE
  8
0
 10
-28.8937
 20
48.3216
 11
-28.7901
 21
48.2852
  0
LINE
  8
0
 10
-28.7901
 20
48.2852
 11
-28.6881
 21
48.2458
  0
LINE
  8
0
 10
-28.6881
 20
48.2458
 11
-28.5876
 21
48.2033
  0
LINE
  8
0
 10
-28.5876
 20
48.2033
 11
-28.4887
 21
48.1578
  0
LINE
  8
0
 10
-28.4887
 20
48.1578
 11
-28.3915
 21
48.1093
  0
LINE
  8
0
 10
-28.3915
 20
48.1093
 11
-28.2961
 21
48.058
  0
LINE
  8
0
 10
-28.2961
 20
48.058
 11
-28.2025
 21
48.0038
  0
LINE
  8
0
 10
-28.2025
 20
48.0038
 11
-28.1107
 21
47.9468
  0
LINE
  8
0
 10
-28.1107
 20
47.9468
 11
-28.0208
 21
47.8871
  0
LINE
  8
0
 10
-28.0208
 20
47.8871
 11
-27.9329
 21
47.8247
  0
LINE
  8
0
 10
-27.9329
 20
47.8247
 11
-27.8471
 21
47.7597
  0
LINE
  8
0
 10
-27.8471
 20
47.7597
 11
-27.7633
 21
47.6922
  0
LINE
  8
0
 10
-27.7633
 20
47.6922
 11
-27.6817
 21
47.6221
  0
LINE
  8
0
 10
-27.6817
 20
47.6221
 11
-27.6023
 21
47.5497
  0
LINE
  8
0
 10
-27.6023
 20
47.5497
 11
-27.5251
 21
47.4749
  0
LINE
  8
0
 10
-27.5251
 20
47.4749
 11
-27.4503
 21
47.3977
  0
LINE
  8
0
 10
-27.4503
 20
47.3977
 11
-27.3778
 21
47.3183
  0
LINE
  8
0
 10
-27.3778
 20
47.3183
 11
-27.3078
 21
47.2367
  0
LINE
  8
0
 10
-27.3078
 20
47.2367
 11
-27.2403
 21
47.1529
  0
LINE
  8
0
 10
-27.2403
 20
47.1529
 11
-27.1753
 21
47.067
  0
LINE
  8
0
 10
-27.1753
 20
47.067
 11
-27.1129
 21
46.9792
  0
LINE
  8
0
 10
-27.1129
 20
46.9792
 11
-27.0532
 21
46.8893
  0
LINE
  8
0
 10
-27.0532
 20
46.8893
 11
-26.9962
 21
46.7975
  0
LINE
  8
0
 10
-26.9962
 20
46.7975
 11
-26.942
 21
46.7039
  0
LINE
  8
0
 10
-26.942
 20
46.7039
 11
-26.8907
 21
46.6084
  0
LINE
  8
0
 10
-26.8907
 20
46.6084
 11
-26.8422
 21
46.5113
  0
LINE
  8
0
 10
-26.8422
 20
46.5113
 11
-26.7967
 21
46.4124
  0
LINE
  8
0
 10
-26.7967
 20
46.4124
 11
-26.7542
 21
46.3119
  0
LINE
  8
0
 10
-26.7542
 20
46.3119
 11
-26.7147
 21
46.2098
  0
LINE
  8
0
 10
-26.7147
 20
46.2098
 11
-26.6784
 21
46.1063
  0
LINE
  8
0
 10
-26.6784
 20
46.1063
 11
-26.6453
 21
46.0012
  0
LINE
  8
0
 10
-26.6453
 20
46.0012
 11
-26.6154
 21
45.8948
  0
LINE
  8
0
 10
-26.6154
 20
45.8948
 11
-26.5888
 21
45.787
  0
LINE
  8
0
 10
-26.5888
 20
45.787
 11
-26.5656
 21
45.678
  0
LINE
  8
0
 10
-26.5656
 20
45.678
 11
-26.5458
 21
45.5677
  0
LINE
  8
0
 10
-26.5458
 20
45.5677
 11
-26.5295
 21
45.4563
  0
LINE
  8
0
 10
-26.5295
 20
45.4563
 11
-26.5167
 21
45.3437
  0
LINE
  8
0
 10
-26.5167
 20
45.3437
 11
-26.5074
 21
45.2301
  0
LINE
  8
0
 10
-26.5074
 20
45.2301
 11
-26.5019
 21
45.1155
  0
LINE
  8
0
 10
-26.5019
 20
45.1155
 11
-26.5
 21
45
  0
LINE
  8
0
 10
-26.5
 20
45
 11
-26.5019
 21
44.8845
  0
LINE
  8
0
 10
-26.5019
 20
44.8845
 11
-26.5074
 21
44.7699
  0
LINE
  8
0
 10
-26.5074
 20
44.7699
 11
-26.5167
 21
44.6563
  0
LINE
  8
0
 10
-26.5167
 20
44.6563
 11
-26.5295
 21
44.5437
  0
LINE
  8
0
 10
-26.5295
 20
44.5437
 11
-26.5458
 21
44.4323
  0
LINE
  8
0
 10
-26.5458
 20
44.4323
 11
-26.5656
 21
44.322
  0
LINE
  8
0
 10
-26.5656
 20
44.322
 11
-26.5888
 21
44.213
  0
LINE
  8
0
 10
-26.5888
 20
44.213
 11
-26.6154
 21
44.1052
  0
LINE
  8
0
 10
-26.6154
 20
44.1052
 11
-26.6453
 21
43.9987
  0
LINE
  8
0
 10
-26.6453
 20
43.9987
 11
-26.6784
 21
43.8937
  0
LINE
  8
0
 10
-26.6784
 20
43.8937
 11
-26.7147
 21
43.7901
  0
LINE
  8
0
 10
-26.7147
 20
43.7901
 11
-26.7542
 21
43.6881
  0
LINE
  8
0
 10
-26.7542
 20
43.6881
 11
-26.7967
 21
43.5876
  0
LINE
  8
0
 10
-26.7967
 20
43.5876
 11
-26.8422
 21
43.4887
  0
LINE
  8
0
 10
-26.8422
 20
43.4887
 11
-26.8907
 21
43.3915
  0
LINE
  8
0
 10
-26.8907
 20
43.3915
 11
-26.942
 21
43.2961
  0
LINE
  8
0
 10
-26.942
 20
43.2961
 11
-26.9962
 21
43.2025
  0
LINE
  8
0
 10
-26.9962
 20
43.2025
 11
-27.0532
 21
43.1107
  0
LINE
  8
0
 10
-27.0532
 20
43.1107
 11
-27.1129
 21
43.0208
  0
LINE
  8
0
 10
-27.1129
 20
43.0208
 11
-27.1753
 21
42.9329
  0
LINE
  8
0
 10
-27.1753
 20
42.9329
 11
-27.2403
 21
42.8471
  0
LINE
  8
0
 10
-27.2403
 20
42.8471
 11
-27.3078
 21
42.7633
  0
LINE
  8
0
 10
-27.3078
 20
42.7633
 11
-27.3778
 21
42.6817
  0
LINE
  8
0
 10
-27.3778
 20
42.6817
 11
-27.4503
 21
42.6023
  0
LINE
  8
0
 10
-27.4503
 20
42.6023
 11
-27.5251
 21
42.5251
  0
LINE
  8
0
 10
-27.5251
 20
42.5251
 11
-27.6023
 21
42.4503
  0
LINE
  8
0
 10
-27.6023
 20
42.4503
 11
-27.6817
 21
42.3778
  0
LINE
  8
0
 10
-27.6817
 20
42.3778
 11
-27.7633
 21
42.3078
  0
LINE
  8
0
 10
-27.7633
 20
42.3078
 11
-27.8471
 21
42.2403
  0
LINE
  8
0
 10
-27.8471
 20
42.2403
 11
-27.9329
 21
42.1753
  0
LINE
  8
0
 10
-27.9329
 20
42.1753
 11
-28.0208
 21
42.1129
  0
LINE
  8
0
 10
-28.0208
 20
42.1129
 11
-28.1107
 21
42.0532
  0
LINE
  8
0
 10
-28.1107
 20
42.0532
 11
-28.2025
 21
41.9962
  0
LINE
  8
0
 10
-28.2025
 20
41.9962
 11
-28.2961
 21
41.942
  0
LINE
  8
0
 10
-28.2961
 20
41.942
 11
-28.3915
 21
41.8907
  0
LINE
  8
0
 10
-28.3915
 20
41.8907
 11
-28.4887
 21
41.8422
  0
LINE
  8
0
 10
-28.4887
 20
41.8422
 11
-28.5876
 21
41.7967
  0
LINE
  8
0
 10
-28.5876
 20
41.7967
 11
-28.6881
 21
41.7542
  0
LINE
  8
0
 10
-28.6881
 20
41.7542
 11
-28.7901
 21
41.7147
  0
LINE
  8
0
 10
-28.7901
 20
41.7147
 11
-28.8937
 21
41.6784
  0
LINE
  8
0
 10
-28.8937
 20
41.6784
 11
-28.9987
 21
41.6453
  0
LINE
  8
0
 10
-28.9987
 20
41.6453
 11
-29.1052
 21
41.6154
  0
LINE
  8
0
 10
-29.1052
 20
41.6154
 11
-29.213
 21
41.5888
  0
LINE
  8
0
 10
-29.213
 20
41.5888
 11
-29.322
 21
41.5656
  0
LINE
  8
0
 10
-29.322
 20
41.5656
 11
-29.4323
 21
41.5458
  0
LINE
  8
0
 10
-29.4323
 20
41.5458
 11
-29.5437
 21
41.5294
  0
LINE
  8
0
 10
-29.5437
 20
41.5294
 11
-29.6563
 21
41.5166
  0
LINE
  8
0
 10
-29.6563
 20
41.5166
 11
-29.7699
 21
41.5074
  0
LINE
  8
0
 10
-29.7699
 20
41.5074
 11
-29.8845
 21
41.5018
  0
LINE
  8
0
 10
-29.8845
 20
41.5018
 11
-30
 21
41.5
  0
LINE
  8
0
 10
-30
 20
41.5
 11
-30.1155
 21
41.5019
  0
LINE
  8
0
 10
29.8845
 20
41.5019
 11
29.7699
 21
41.5074
  0
LINE
  8
0
 10
29.7699
 20
41.5074
 11
29.6563
 21
41.5166
  0
LINE
  8
0
 10
29.6563
 20
41.5166
 11
29.5437
 21
41.5295
  0
LINE
  8
0
 10
29.5437
 20
41.5295
 11
29.4323
 21
41.5458
  0
LINE
  8
0
 10
29.4323
 20
41.5458
 11
29.322
 21
41.5656
  0
LINE
  8
0
 10
29.322
 20
41.5656
 11
29.213
 21
41.5888
  0
LINE
  8
0
 10
29.213
 20
41.5888
 11
29.1052
 21
41.6154
  0
LINE
  8
0
 10
29.1052
 20
41.6154
 11
28.9987
 21
41.6453
  0
LINE
  8
0
 10
28.9987
 20
41.6453
 11
28.8937
 21
41.6784
  0
LINE
  8
0
 10
28.8937
 20
41.6784
 11
28.7901
 21
41.7147
  0
LINE
  8
0
 10
28.7901
 20
41.7147
 11
28.6881
 21
41.7542
  0
LINE
  8
0
 10
28.6881
 20
41.7542
 11
28.5876
 21
41.7967
  0
LINE
  8
0
 10
28.5876
 20
41.7967
 11
28.4887
 21
41.8422
  0
LINE
  8
0
 10
28.4887
 20
41.8422
 11
28.3915
 21
41.8907
  0
LINE
  8
0
 10
28.3915
 20
41.8907
 11
28.2961
 21
41.942
  0
LINE
  8
0
 10
28.2961
 20
41.942
 11
28.2025
 21
41.9962
  0
LINE
  8
0
 10
28.2025
 20
41.9962
 11
28.1107
 21
42.0532
  0
LINE
  8
0
 10
28.1107
 20
42.0532
 11
28.0208
 21
42.1129
  0
LINE
  8
0
 10
28.0208
 20
42.1129
 11
27.9329
 21
42.1753
  0
LINE
  8
0
 10
27.9329
 20
42.1753
 11
27.8471
 21
42.2403
  0
LINE
  8
0
 10
27.8471
 20
42.2403
 11
27.7633
 21
42.3078
  0
LINE
  8
0
 10
27.7633
 20
42.3078
 11
27.6817
 21
42.3778
  0
LINE
  8
0
 10
27.6817
 20
42.3778
 11
27.6023
 21
42.4503
  0
LINE
  8
0
 10
27.6023
 20
42.4503
 11
27.5251
 21
42.5251
  0
LINE
  8
0
 10
27.5251
 20
42.5251
 11
27.4503
 21
42.6023
  0
LINE
  8
0
 10
27.4503
 20
42.6023
 11
27.3778
 21
42.6817
  0
LINE
  8
0
 10
27.3778
 20
42.6817
 11
27.3078
 21
42.7633
  0
LINE
  8
0
 10
27.3078
 20
42.7633
 11
27.2403
 21
42.8471
  0
LINE
  8
0
 10
27.2403
 20
42.8471
 11
27.1753
 21
42.9329
  0
LINE
  8
0
 10
27.1753
 20
42.9329
 11
27.1129
 21
43.0208
  0
LINE
  8
0
 10
27.1129
 20
43.0208
 11
27.0532
 21
43.1107
  0
LINE
  8
0
 10
27.0532
 20
43.1107
 11
26.9962
 21
43.2025
  0
LINE
  8
0
 10
26.9962
 20
43.2025
 11
26.942
 21
43.2961
  0
LINE
  8
0
 10
26.942
 20
43.2961
 11
26.8907
 21
43.3915
  0
LINE
  8
0
 10
26.8907
 20
43.3915
 11
26.8422
 21
43.4887
  0
LINE
  8
0
 10
26.8422
 20
43.4887
 11
26.7967
 21
43.5876
  0
LINE
  8
0
 10
26.7967
 20
43.5876
 11
26.7542
 21
43.6881
  0
LINE
  8
0
 10
26.7542
 20
43.6881
 11
26.7147
 21
43.7901
  0
LINE
  8
0
 10
26.7147
 20
43.7901
 11
26.6784
 21
43.8937
  0
LINE
  8
0
 10
26.6784
 20
43.8937
 11
26.6453
 21
43.9987
  0
LINE
  8
0
 10
26.6453
 20
43.9987
 11
26.6154
 21
44.1052
  0
LINE
  8
0
 10
26.6154
 20
44.1052
 11
26.5888
 21
44.213
  0
LINE
  8
0
 10
26.5888
 20
44.213
 11
26.5656
 21
44.322
  0
LINE
  8
0
 10
26.5656
 20
44.322
 11
26.5458
 21
44.4323
  0
LINE
  8
0
 10
26.5458
 20
44.4323
 11
26.5295
 21
44.5437
  0
LINE
  8
0
 10
26.5295
 20
44.5437
 11
26.5167
 21
44.6563
  0
LINE
  8
0
 10
26.5167
 20
44.6563
 11
26.5074
 21
44.7699
  0
LINE
  8
0
 10
26.5074
 20
44.7699
 11
26.5019
 21
44.8845
  0
LINE
  8
0
 10
26.5019
 20
44.8845
 11
26.5
 21
45
  0
LINE
  8
0
 10
26.5
 20
45
 11
26.5019
 21
45.1155
  0
LINE
  8
0
 10
26.5019
 20
45.1155
 11
26.5074
 21
45.2301
  0
LINE
  8
0
 10
26.5074
 20
45.2301
 11
26.5167
 21
45.3437
  0
LINE
  8
0
 10
26.5167
 20
45.3437
 11
26.5295
 21
45.4563
  0
LINE
  8
0
 10
26.5295
 20
45.4563
 11
26.5458
 21
45.5677
  0
LINE
  8
0
 10
26.5458
 20
45.5677
 11
26.5656
 21
45.678
  0
LINE
  8
0
 10
26.5656
 20
45.678
 11
26.5888
 21
45.787
  0
LINE
  8
0
 10
26.5888
 20
45.787
 11
26.6154
 21
45.8948
  0
LINE
  8
0
 10
26.6154
 20
45.8948
 11
26.6453
 21
46.0012
  0
LINE
  8
0
 10
26.6453
 20
46.0012
 11
26.6784
 21
46.1063
  0
LINE
  8
0
 10
26.6784
 20
46.1063
 11
26.7147
 21
46.2098
  0
LINE
  8
0
 10
26.7147
 20
46.2098
 11
26.7542
 21
46.3119
  0
LINE
  8
0
 10
26.7542
 20
46.3119
 11
26.7967
 21
46.4124
  0
LINE
  8
0
 10
26.7967
 20
46.4124
 11
26.8422
 21
46.5113
  0
LINE
  8
0
 10
26.8422
 20
46.5113
 11
26.8907
 21
46.6084
  0
LINE
  8
0
 10
26.8907
 20
46.6084
 11
26.942
 21
46.7039
  0
LINE
  8
0
 10
26.942
 20
46.7039
 11
26.9962
 21
46.7975
  0
LINE
  8
0
 10
26.9962
 20
46.7975
 11
27.0532
 21
46.8893
  0
LINE
  8
0
 10
27.0532
 20
46.8893
 11
27.1129
 21
46.9792
  0
LINE
  8
0
 10
27.1129
 20
46.9792
 11
27.1753
 21
47.067
  0
LINE
  8
0
 10
27.1753
 20
47.067
 11
27.2403
 21
47.1529
  0
LINE
  8
0
 10
27.2403
 20
47.1529
 11
27.3078
 21
47.2367
  0
LINE
  8
0
 10
27.3078
 20
47.2367
 11
27.3778
 21
47.3183
  0
LINE
  8
0
 10
27.3778
 20
47.3183
 11
27.4503
 21
47.3977
  0
LINE
  8
0
 10
27.4503
 20
47.3977
 11
27.5251
 21
47.4749
  0
LINE
  8
0
 10
27.5251
 20
47.4749
 11
27.6023
 21
47.5497
  0
LINE
  8
0
 10
27.6023
 20
47.5497
 11
27.6817
 21
47.6222
  0
LINE
  8
0
 10
27.6817
 20
47.6222
 11
27.7633
 21
47.6922
  0
LINE
  8
0
 10
27.7633
 20
47.6922
 11
27.8471
 21
47.7597
  0
LINE
  8
0
 10
27.8471
 20
47.7597
 11
27.9329
 21
47.8247
  0
LINE
  8
0
 10
27.9329
 20
47.8247
 11
28.0208
 21
47.8871
  0
LINE
  8
0
 10
28.0208
 20
47.8871
 11
28.1107
 21
47.9468
  0
LINE
  8
0
 10
28.1107
 20
47.9468
 11
28.2025
 21
48.0038
  0
LINE
  8
0
 10
28.2025
 20
48.0038
 11
28.2961
 21
48.058
  0
LINE
  8
0
 10
28.2961
 20
48.058
 11
28.3915
 21
48.1093
  0
LINE
  8
0
 10
28.3915
 20
48.1093
 11
28.4887
 21
48.1578
  0
LINE
  8
0
 10
28.4887
 20
48.1578
 11
28.5876
 21
48.2033
  0
LINE
  8
0
 10
28.5876
 20
48.2033
 11
28.6881
 21
48.2458
  0
LINE
  8
0
 10
28.6881
 20
48.2458
 11
28.7901
 21
48.2853
  0
LINE
  8
0
 10
28.7901
 20
48.2853
 11
28.8937
 21
48.3216
  0
LINE
  8
0
 10
28.8937
 20
48.3216
 11
28.9987
 21
48.3547
  0
LINE
  8
0
 10
28.9987
 20
48.3547
 11
29.1052
 21
48.3846
  0
LINE
  8
0
 10
29.1052
 20
48.3846
 11
29.213
 21
48.4111
  0
LINE
  8
0
 10
29.213
 20
48.4111
 11
29.322
 21
48.4344
  0
LINE
  8
0
 10
29.322
 20
48.4344
 11
29.4323
 21
48.4542
  0
LINE
  8
0
 10
29.4323
 20
48.4542
 11
29.5437
 21
48.4705
  0
LINE
  8
0
 10
29.5437
 20
48.4705
 11
29.6563
 21
48.4833
  0
LINE
  8
0
 10
29.6563
 20
48.4833
 11
29.7699
 21
48.4926
  0
LINE
  8
0
 10
29.7699
 20
48.4926
 11
29.8845
 21
48.4981
  0
LINE
  8
0
 10
29.8845
 20
48.4981
 11
30
 21
48.5
  0
LINE
  8
0
 10
30
 20
48.5
 11
30.1155
 21
48.4981
  0
LINE
  8
0
 10
30.1155
 20
48.4981
 11
30.2301
 21
48.4926
  0
LINE
  8
0
 10
30.2301
 20
48.4926
 11
30.3437
 21
48.4833
  0
LINE
  8
0
 10
30.3437
 20
48.4833
 11
30.4563
 21
48.4705
  0
LINE
  8
0
 10
30.4563
 20
48.4705
 11
30.5677
 21
48.4542
  0
LINE
  8
0
 10
30.5677
 20
48.4542
 11
30.678
 21
48.4344
  0
LINE
  8
0
 10
30.678
 20
48.4344
 11
30.787
 21
48.4111
  0
LINE
  8
0
 10
30.787
 20
48.4111
 11
30.8948
 21
48.3846
  0
LINE
  8
0
 10
30.8948
 20
48.3846
 11
31.0012
 21
48.3547
  0
LINE
  8
0
 10
31.0012
 20
48.3547
 11
31.1063
 21
48.3216
  0
LINE
  8
0
 10
31.1063
 20
48.3216
 11
31.2098
 21
48.2852
  0
LINE
  8
0
 10
31.2098
 20
48.2852
 11
31.3119
 21
48.2458
  0
LINE
  8
0
 10
31.3119
 20
48.2458
 11
31.4124
 21
48.2033
  0
LINE
  8
0
 10
31.4124
 20
48.2033
 11
31.5113
 21
48.1578
  0
LINE
  8
0
 10
31.5113
 20
48.1578
 11
31.6084
 21
48.1093
  0
LINE
  8
0
 10
31.6084
 20
48.1093
 11
31.7039
 21
48.058
  0
LINE
  8
0
 10
31.7039
 20
48.058
 11
31.7975
 21
48.0038
  0
LINE
  8
0
 10
31.7975
 20
48.0038
 11
31.8893
 21
47.9468
  0
LINE
  8
0
 10
31.8893
 20
47.9468
 11
31.9792
 21
47.8871
  0
LINE
  8
0
 10
31.9792
 20
47.8871
 11
32.067
 21
47.8247
  0
LINE
  8
0
 10
32.067
 20
47.8247
 11
32.1529
 21
47.7597
  0
LINE
  8
0
 10
32.1529
 20
47.7597
 11
32.2367
 21
47.6922
  0
LINE
  8
0
 10
32.2367
 20
47.6922
 11
32.3183
 21
47.6221
  0
LINE
  8
0
 10
32.3183
 20
47.6221
 11
32.3977
 21
47.5497
  0
LINE
  8
0
 10
32.3977
 20
47.5497
 11
32.4749
 21
47.4749
  0
LINE
  8
0
 10
32.4749
 20
47.4749
 11
32.5497
 21
47.3977
  0
LINE
  8
0
 10
32.5497
 20
47.3977
 11
32.6222
 21
47.3183
  0
LINE
  8
0
 10
32.6222
 20
47.3183
 11
32.6922
 21
47.2367
  0
LINE
  8
0
 10
32.6922
 20
47.2367
 11
32.7597
 21
47.1529
  0
LINE
  8
0
 10
32.7597
 20
47.1529
 11
32.8247
 21
47.067
  0
LINE
  8
0
 10
32.8247
 20
47.067
 11
32.8871
 21
46.9792
  0
LINE
  8
0
 10
32.8871
 20
46.9792
 11
32.9468
 21
46.8893
  0
LINE
  8
0
 10
32.9468
 20
46.8893
 11
33.0038
 21
46.7975
  0
LINE
  8
0
 10
33.0038
 20
46.7975
 11
33.058
 21
46.7039
  0
LINE
  8
0
 10
33.058
 20
46.7039
 11
33.1093
 21
46.6084
  0
LINE
  8
0
 10
33.1093
 20
46.6084
 11
33.1578
 21
46.5113
  0
LINE
  8
0
 10
33.1578
 20
46.5113
 11
33.2033
 21
46.4124
  0
LINE
  8
0
 10
33.2033
 20
46.4124
 11
33.2458
 21
46.3119
  0
LINE
  8
0
 10
33.2458
 20
46.3119
 11
33.2852
 21
46.2098
  0
LINE
  8
0
 10
33.2852
 20
46.2098
 11
33.3216
 21
46.1063
  0
LINE
  8
0
 10
33.3216
 20
46.1063
 11
33.3547
 21
46.0012
  0
LINE
  8
0
 10
33.3547
 20
46.0012
 11
33.3846
 21
45.8948
  0
LINE
  8
0
 10
33.3846
 20
45.8948
 11
33.4111
 21
45.787
  0
LINE
  8
0
 10
33.4111
 20
45.787
 11
33.4344
 21
45.678
  0
LINE
  8
0
 10
33.4344
 20
45.678
 11
33.4542
 21
45.5677
  0
LINE
  8
0
 10
33.4542
 20
45.5677
 11
33.4705
 21
45.4563
  0
LINE
  8
0
 10
33.4705
 20
45.4563
 11
33.4833
 21
45.3437
  0
LINE
  8
0
 10
33.4833
 20
45.3437
 11
33.4926
 21
45.2301
  0
LINE
  8
0
 10
33.4926
 20
45.2301
 11
33.4981
 21
45.1155
  0
LINE
  8
0
 10
33.4981
 20
45.1155
 11
33.5
 21
45
  0
LINE
  8
0
 10
33.5
 20
45
 11
33.4981
 21
44.8845
  0
LINE
  8
0
 10
33.4981
 20
44.8845
 11
33.4926
 21
44.7699
  0
LINE
  8
0
 10
33.4926
 20
44.7699
 11
33.4833
 21
44.6563
  0
LINE
  8
0
 10
33.4833
 20
44.6563
 11
33.4705
 21
44.5437
  0
LINE
  8
0
 10
33.4705
 20
44.5437
 11
33.4542
 21
44.4323
  0
LINE
  8
0
 10
33.4542
 20
44.4323
 11
33.4344
 21
44.322
  0
LINE
  8
0
 10
33.4344
 20
44.322
 11
33.4111
 21
44.213
  0
LINE
  8
0
 10
33.4111
 20
44.213
 11
33.3846
 21
44.1052
  0
LINE
  8
0
 10
33.3846
 20
44.1052
 11
33.3547
 21
43.9987
  0
LINE
  8
0
 10
33.3547
 20
43.9987
 11
33.3216
 21
43.8937
  0
LINE
  8
0
 10
33.3216
 20
43.8937
 11
33.2852
 21
43.7901
  0
LINE
  8
0
 10
33.2852
 20
43.7901
 11
33.2458
 21
43.6881
  0
LINE
  8
0
 10
33.2458
 20
43.6881
 11
33.2033
 21
43.5876
  0
LINE
  8
0
 10
33.2033
 20
43.5876
 11
33.1578
 21
43.4887
  0
LINE
  8
0
 10
33.1578
 20
43.4887
 11
33.1093
 21
43.3915
  0
LINE
  8
0
 10
33.1093
 20
43.3915
 11
33.058
 21
43.2961
  0
LINE
  8
0
 10
33.058
 20
43.2961
 11
33.0038
 21
43.2025
  0
LINE
  8
0
 10
33.0038
 20
43.2025
 11
32.9468
 21
43.1107
  0
LINE
  8
0
 10
32.9468
 20
43.1107
 11
32.8871
 21
43.0208
  0
LINE
  8
0
 10
32.8871
 20
43.0208
 11
32.8247
 21
42.9329
  0
LINE
  8
0
 10
32.8247
 20
42.9329
 11
32.7597
 21
42.8471
  0
LINE
  8
0
 10
32.7597
 20
42.8471
 11
32.6922
 21
42.7633
  0
LINE
  8
0
 10
32.6922
 20
42.7633
 11
32.6222
 21
42.6817
  0
LINE
  8
0
 10
32.6222
 20
42.6817
 11
32.5497
 21
42.6023
  0
LINE
  8
0
 10
32.5497
 20
42.6023
 11
32.4749
 21
42.5251
  0
LINE
  8
0
 10
32.4749
 20
42.5251
 11
32.3977
 21
42.4503
  0
LINE
  8
0
 10
32.3977
 20
42.4503
 11
32.3183
 21
42.3778
  0
LINE
  8
0
 10
32.3183
 20
42.3778
 11
32.2367
 21
42.3078
  0
LINE
  8
0
 10
32.2367
 20
42.3078
 11
32.1529
 21
42.2403
  0
LINE
  8
0
 10
32.1529
 20
42.2403
 11
32.067
 21
42.1753
  0
LINE
  8
0
 10
32.067
 20
42.1753
 11
31.9792
 21
42.1129
  0
LINE
  8
0
 10
31.9792
 20
42.1129
 11
31.8893
 21
42.0532
  0
LINE
  8
0
 10
31.8893
 20
42.0532
 11
31.7975
 21
41.9962
  0
LINE
  8
0
 10
31.7975
 20
41.9962
 11
31.7039
 21
41.942
  0
LINE
  8
0
 10
31.7039
 20
41.942
 11
31.6084
 21
41.8907
  0
LINE
  8
0
 10
31.6084
 20
41.8907
 11
31.5113
 21
41.8422
  0
LINE
  8
0
 10
31.5113
 20
41.8422
 11
31.4124
 21
41.7967
  0
LINE
  8
0
 10
31.4124
 20
41.7967
 11
31.3119
 21
41.7542
  0
LINE
  8
0
 10
31.3119
 20
41.7542
 11
31.2098
 21
41.7147
  0
LINE
  8
0
 10
31.2098
 20
41.7147
 11
31.1063
 21
41.6784
  0
LINE
  8
0
 10
31.1063
 20
41.6784
 11
31.0012
 21
41.6453
  0
LINE
  8
0
 10
31.0012
 20
41.6453
 11
30.8948
 21
41.6154
  0
LINE
  8
0
 10
30.8948
 20
41.6154
 11
30.787
 21
41.5888
  0
LINE
  8
0
 10
30.787
 20
41.5888
 11
30.678
 21
41.5656
  0
LINE
  8
0
 10
30.678
 20
41.5656
 11
30.5677
 21
41.5458
  0
LINE
  8
0
 10
30.5677
 20
41.5458
 11
30.4563
 21
41.5294
  0
LINE
  8
0
 10
30.4563
 20
41.5294
 11
30.3437
 21
41.5166
  0
LINE
  8
0
 10
30.3437
 20
41.5166
 11
30.2301
 21
41.5074
  0
LINE
  8
0
 10
30.2301
 20
41.5074
 11
30.1155
 21
41.5018
  0
LINE
  8
0
 10
30.1155
 20
41.5018
 11
30
 21
41.5
  0
LINE
  8
0
 10
30
 20
41.5
 11
29.8845
 21
41.5019
  0
LINE
  8
0
 10
69.792
 20
23.7034
 11
69.5858
 21
23.7134
  0
LINE
  8
0
 10
69.5858
 20
23.7134
 11
69.3813
 21
23.73
  0
LINE
  8
0
 10
69.3813
 20
23.73
 11
69.1787
 21
23.753
  0
LINE
  8
0
 10
69.1787
 20
23.753
 11
68.9781
 21
23.7824
  0
LINE
  8
0
 10
68.9781
 20
23.7824
 11
68.7796
 21
23.8181
  0
LINE
  8
0
 10
68.7796
 20
23.8181
 11
68.5833
 21
23.8599
  0
LINE
  8
0
 10
68.5833
 20
23.8599
 11
68.3893
 21
23.9078
  0
LINE
  8
0
 10
68.3893
 20
23.9078
 11
68.1978
 21
23.9615
  0
LINE
  8
0
 10
68.1978
 20
23.9615
 11
68.0087
 21
24.0212
  0
LINE
  8
0
 10
68.0087
 20
24.0212
 11
67.8223
 21
24.0865
  0
LINE
  8
0
 10
67.8223
 20
24.0865
 11
67.6386
 21
24.1575
  0
LINE
  8
0
 10
67.6386
 20
24.1575
 11
67.4577
 21
24.234
  0
LINE
  8
0
 10
67.4577
 20
24.234
 11
67.2797
 21
24.3159
  0
LINE
  8
0
 10
67.2797
 20
24.3159
 11
67.1048
 21
24.4032
  0
LINE
  8
0
 10
67.1048
 20
24.4032
 11
66.933
 21
24.4957
  0
LINE
  8
0
 10
66.933
 20
24.4957
 11
66.7645
 21
24.5932
  0
LINE
  8
0
 10
66.7645
 20
24.5932
 11
66.5993
 21
24.6958
  0
LINE
  8
0
 10
66.5993
 20
24.6958
 11
66.4375
 21
24.8033
  0
LINE
  8
0
 10
66.4375
 20
24.8033
 11
66.2793
 21
24.9155
  0
LINE
  8
0
 10
66.2793
 20
24.9155
 11
66.1248
 21
25.0325
  0
LINE
  8
0
 10
66.1248
 20
25.0325
 11
65.974
 21
25.1541
  0
LINE
  8
0
 10
65.974
 20
25.1541
 11
65.8271
 21
25.2801
  0
LINE
  8
0
 10
65.8271
 20
25.2801
 11
65.6841
 21
25.4105
  0
LINE
  8
0
 10
65.6841
 20
25.4105
 11
65.5452
 21
25.5452
  0
LINE
  8
0
 10
65.5452
 20
25.5452
 11
65.4105
 21
25.6841
  0
LINE
  8
0
 10
65.4105
 20
25.6841
 11
65.2801
 21
25.827
  0
LINE
  8
0
 10
65.2801
 20
25.827
 11
65.1541
 21
25.974
  0
LINE
  8
0
 10
65.1541
 20
25.974
 11
65.0325
 21
26.1248
  0
LINE
  8
0
 10
65.0325
 20
26.1248
 11
64.9155
 21
26.2793
  0
LINE
  8
0
 10
64.9155
 20
26.2793
 11
64.8033
 21
26.4375
  0
LINE
  8
0
 10
64.8033
 20
26.4375
 11
64.6958
 21
26.5992
  0
LINE
  8
0
 10
64.6958
 20
26.5992
 11
64.5932
 21
26.7645
  0
LINE
  8
0
 10
64.5932
 20
26.7645
 11
64.4957
 21
26.933
  0
LINE
  8
0
 10
64.4957
 20
26.933
 11
64.4032
 21
27.1048
  0
LINE
  8
0
 10
64.4032
 20
27.1048
 11
64.3159
 21
27.2797
  0
LINE
  8
0
 10
64.3159
 20
27.2797
 11
64.234
 21
27.4577
  0
LINE
  8
0
 10
64.234
 20
27.4577
 11
64.1575
 21
27.6385
  0
LINE
  8
0
 10
64.1575
 20
27.6385
 11
64.0865
 21
27.8223
  0
LINE
  8
0
 10
64.0865
 20
27.8223
 11
64.0212
 21
28.0087
  0
LINE
  8
0
 10
64.0212
 20
28.0087
 11
63.9616
 21
28.1978
  0
LINE
  8
0
 10
63.9616
 20
28.1978
 11
63.9078
 21
28.3893
  0
LINE
  8
0
 10
63.9078
 20
28.3893
 11
63.8599
 21
28.5833
  0
LINE
  8
0
 10
63.8599
 20
28.5833
 11
63.8181
 21
28.7796
  0
LINE
  8
0
 10
63.8181
 20
28.7796
 11
63.7825
 21
28.9781
  0
LINE
  8
0
 10
63.7825
 20
28.9781
 11
63.7531
 21
29.1787
  0
LINE
  8
0
 10
63.7531
 20
29.1787
 11
63.73
 21
29.3813
  0
LINE
  8
0
 10
63.73
 20
29.3813
 11
63.7134
 21
29.5858
  0
LINE
  8
0
 10
63.7134
 20
29.5858
 11
63.7034
 21
29.792
  0
LINE
  8
0
 10
63.7034
 20
29.792
 11
63.7
 21
30
  0
LINE
  8
0
 10
63.7
 20
30
 11
63.7034
 21
30.2079
  0
LINE
  8
0
 10
63.7034
 20
30.2079
 11
63.7134
 21
30.4142
  0
LINE
  8
0
 10
63.7134
 20
30.4142
 11
63.73
 21
30.6187
  0
LINE
  8
0
 10
63.73
 20
30.6187
 11
63.753
 21
30.8213
  0
LINE
  8
0
 10
63.753
 20
30.8213
 11
63.7824
 21
31.0219
  0
LINE
  8
0
 10
63.7824
 20
31.0219
 11
63.8181
 21
31.2204
  0
LINE
  8
0
 10
63.8181
 20
31.2204
 11
63.8599
 21
31.4167
  0
LINE
  8
0
 10
63.8599
 20
31.4167
 11
63.9078
 21
31.6107
  0
LINE
  8
0
 10
63.9078
 20
31.6107
 11
63.9615
 21
31.8022
  0
LINE
  8
0
 10
63.9615
 20
31.8022
 11
64.0212
 21
31.9913
  0
LINE
  8
0
 10
64.0212
 20
31.9913
 11
64.0865
 21
32.1777
  0
LINE
  8
0
 10
64.0865
 20
32.1777
 11
64.1575
 21
32.3614
  0
LINE
  8
0
 10
64.1575
 20
32.3614
 11
64.234
 21
32.5423
  0
LINE
  8
0
 10
64.234
 20
32.5423
 11
64.3159
 21
32.7203
  0
LINE
  8
0
 10
64.3159
 20
32.7203
 11
64.4032
 21
32.8952
  0
LINE
  8
0
 10
64.4032
 20
32.8952
 11
64.4956
 21
33.067
  0
LINE
  8
0
 10
64.4956
 20
33.067
 11
64.5932
 21
33.2355
  0
LINE
  8
0
 10
64.5932
 20
33.2355
 11
64.6958
 21
33.4007
  0
LINE
  8
0
 10
64.6958
 20
33.4007
 11
64.8033
 21
33.5625
  0
LINE
  8
0
 10
64.8033
 20
33.5625
 11
64.9155
 21
33.7207
  0
LINE
  8
0
 10
64.9155
 20
33.7207
 11
65.0325
 21
33.8752
  0
LINE
  8
0
 10
65.0325
 20
33.8752
 11
65.1541
 21
34.026
  0
LINE
  8
0
 10
65.1541
 20
34.026
 11
65.2801
 21
34.1729
  0
LINE
  8
0
 10
65.2801
 20
34.1729
 11
65.4105
 21
34.3159
  0
LINE
  8
0
 10
65.4105
 20
34.3159
 11
65.5452
 21
34.4548
  0
LINE
  8
0
 10
65.5452
 20
34.4548
 11
65.6841
 21
34.5895
  0
LINE
  8
0
 10
65.6841
 20
34.5895
 11
65.827
 21
34.7199
  0
LINE
  8
0
 10
65.827
 20
34.7199
 11
65.974
 21
34.8459
  0
LINE
  8
0
 10
65.974
 20
34.8459
 11
66.1248
 21
34.9675
  0
LINE
  8
0
 10
66.1248
 20
34.9675
 11
66.2793
 21
35.0845
  0
LINE
  8
0
 10
66.2793
 20
35.0845
 11
66.4375
 21
35.1967
  0
LINE
  8
0
 10
66.4375
 20
35.1967
 11
66.5992
 21
35.3042
  0
LINE
  8
0
 10
66.5992
 20
35.3042
 11
66.7645
 21
35.4068
  0
LINE
  8
0
 10
66.7645
 20
35.4068
 11
66.933
 21
35.5043
  0
LINE
  8
0
 10
66.933
 20
35.5043
 11
67.1048
 21
35.5968
  0
LINE
  8
0
 10
67.1048
 20
35.5968
 11
67.2797
 21
35.6841
  0
LINE
  8
0
 10
67.2797
 20
35.6841
 11
67.4577
 21
35.766
  0
LINE
  8
0
 10
67.4577
 20
35.766
 11
67.6385
 21
35.8425
  0
LINE
  8
0
 10
67.6385
 20
35.8425
 11
67.8223
 21
35.9135
  0
LINE
  8
0
 10
67.8223
 20
35.9135
 11
68.0087
 21
35.9788
  0
LINE
  8
0
 10
68.0087
 20
35.9788
 11
68.1978
 21
36.0384
  0
LINE
  8
0
 10
68.1978
 20
36.0384
 11
68.3893
 21
36.0922
  0
LINE
  8
0
 10
68.3893
 20
36.0922
 11
68.5833
 21
36.1401
  0
LINE
  8
0
 10
68.5833
 20
36.1401
 11
68.7796
 21
36.1819
  0
LINE
  8
0
 10
68.7796
 20
36.1819
 11
68.9781
 21
36.2175
  0
LINE
  8
0
 10
68.9781
 20
36.2175
 11
69.1787
 21
36.2469
  0
LINE
  8
0
 10
69.1787
 20
36.2469
 11
69.3813
 21
36.27
  0
LINE
  8
0
 10
69.3813
 20
36.27
 11
69.5858
 21
36.2866
  0
LINE
  8
0
 10
69.5858
 20
36.2866
 11
69.792
 21
36.2966
  0
LINE
  8
0
 10
69.792
 20
36.2966
 11
70
 21
36.3
  0
LINE
  8
0
 10
70
 20
36.3
 11
70.2079
 21
36.2966
  0
LINE
  8
0
 10
70.2079
 20
36.2966
 11
70.4142
 21
36.2866
  0
LINE
  8
0
 10
70.4142
 20
36.2866
 11
70.6187
 21
36.27
  0
LINE
  8
0
 10
70.6187
 20
36.27
 11
70.8213
 21
36.2469
  0
LINE
  8
0
 10
70.8213
 20
36.2469
 11
71.0219
 21
36.2175
  0
LINE
  8
0
 10
71.0219
 20
36.2175
 11
71.2204
 21
36.1819
  0
LINE
  8
0
 10
71.2204
 20
36.1819
 11
71.4167
 21
36.1401
  0
LINE
  8
0
 10
71.4167
 20
36.1401
 11
71.6106
 21
36.0922
  0
LINE
  8
0
 10
71.6106
 20
36.0922
 11
71.8022
 21
36.0384
  0
LINE
  8
0
 10
71.8022
 20
36.0384
 11
71.9913
 21
35.9788
  0
LINE
  8
0
 10
71.9913
 20
35.9788
 11
72.1777
 21
35.9135
  0
LINE
  8
0
 10
72.1777
 20
35.9135
 11
72.3614
 21
35.8425
  0
LINE
  8
0
 10
72.3614
 20
35.8425
 11
72.5423
 21
35.766
  0
LINE
  8
0
 10
72.5423
 20
35.766
 11
72.7203
 21
35.6841
  0
LINE
  8
0
 10
72.7203
 20
35.6841
 11
72.8952
 21
35.5968
  0
LINE
  8
0
 10
72.8952
 20
35.5968
 11
73.067
 21
35.5043
  0
LINE
  8
0
 10
73.067
 20
35.5043
 11
73.2355
 21
35.4068
  0
LINE
  8
0
 10
73.2355
 20
35.4068
 11
73.4007
 21
35.3042
  0
LINE
  8
0
 10
73.4007
 20
35.3042
 11
73.5625
 21
35.1967
  0
LINE
  8
0
 10
73.5625
 20
35.1967
 11
73.7207
 21
35.0845
  0
LINE
  8
0
 10
73.7207
 20
35.0845
 11
73.8752
 21
34.9675
  0
LINE
  8
0
 10
73.8752
 20
34.9675
 11
74.026
 21
34.8459
  0
LINE
  8
0
 10
74.026
 20
34.8459
 11
74.1729
 21
34.7199
  0
LINE
  8
0
 10
74.1729
 20
34.7199
 11
74.3159
 21
34.5895
  0
LINE
  8
0
 10
74.3159
 20
34.5895
 11
74.4548
 21
34.4548
  0
LINE
  8
0
 10
74.4548
 20
34.4548
 11
74.5895
 21
34.3159
  0
LINE
  8
0
 10
74.5895
 20
34.3159
 11
74.7199
 21
34.1729
  0
LINE
  8
0
 10
74.7199
 20
34.1729
 11
74.8459
 21
34.026
  0
LINE
  8
0
 10
74.8459
 20
34.026
 11
74.9675
 21
33.8752
  0
LINE
  8
0
 10
74.9675
 20
33.8752
 11
75.0844
 21
33.7207
  0
LINE
  8
0
 10
75.0844
 20
33.7207
 11
75.1967
 21
33.5625
  0
LINE
  8
0
 10
75.1967
 20
33.5625
 11
75.3042
 21
33.4007
  0
LINE
  8
0
 10
75.3042
 20
33.4007
 11
75.4068
 21
33.2355
  0
LINE
  8
0
 10
75.4068
 20
33.2355
 11
75.5043
 21
33.067
  0
LINE
  8
0
 10
75.5043
 20
33.067
 11
75.5968
 21
32.8952
  0
LINE
  8
0
 10
75.5968
 20
32.8952
 11
75.684
 21
32.7203
  0
LINE
  8
0
 10
75.684
 20
32.7203
 11
75.766
 21
32.5423
  0
LINE
  8
0
 10
75.766
 20
32.5423
 11
75.8425
 21
32.3614
  0
LINE
  8
0
 10
75.8425
 20
32.3614
 11
75.9135
 21
32.1777
  0
LINE
  8
0
 10
75.9135
 20
32.1777
 11
75.9788
 21
31.9913
  0
LINE
  8
0
 10
75.9788
 20
31.9913
 11
76.0384
 21
31.8022
  0
LINE
  8
0
 10
76.0384
 20
31.8022
 11
76.0922
 21
31.6107
  0
LINE
  8
0
 10
76.0922
 20
31.6107
 11
76.1401
 21
31.4167
  0
LINE
  8
0
 10
76.1401
 20
31.4167
 11
76.1819
 21
31.2204
  0
LINE
  8
0
 10
76.1819
 20
31.2204
 11
76.2175
 21
31.0219
  0
LINE
  8
0
 10
76.2175
 20
31.0219
 11
76.2469
 21
30.8213
  0
LINE
  8
0
 10
76.2469
 20
30.8213
 11
76.27
 21
30.6187
  0
LINE
  8
0
 10
76.27
 20
30.6187
 11
76.2866
 21
30.4142
  0
LINE
  8
0
 10
76.2866
 20
30.4142
 11
76.2966
 21
30.2079
  0
LINE
  8
0
 10
76.2966
 20
30.2079
 11
76.3
 21
30
  0
LINE
  8
0
 10
76.3
 20
30
 11
76.2966
 21
29.792
  0
LINE
  8
0
 10
76.2966
 20
29.792
 11
76.2866
 21
29.5858
  0
LINE
  8
0
 10
76.2866
 20
29.5858
 11
76.27
 21
29.3813
  0
LINE
  8
0
 10
76.27
 20
29.3813
 11
76.2469
 21
29.1787
  0
LINE
  8
0
 10
76.2469
 20
29.1787
 11
76.2175
 21
28.9781
  0
LINE
  8
0
 10
76.2175
 20
28.9781
 11
76.1819
 21
28.7796
  0
LINE
  8
0
 10
76.1819
 20
28.7796
 11
76.1401
 21
28.5833
  0
LINE
  8
0
 10
76.1401
 20
28.5833
 11
76.0922
 21
28.3893
  0
LINE
  8
0
 10
76.0922
 20
28.3893
 11
76.0384
 21
28.1978
  0
LINE
  8
0
 10
76.0384
 20
28.1978
 11
75.9788
 21
28.0087
  0
LINE
  8
0
 10
75.9788
 20
28.0087
 11
75.9135
 21
27.8223
  0
LINE
  8
0
 10
75.9135
 20
27.8223
 11
75.8425
 21
27.6385
  0
LINE
  8
0
 10
75.8425
 20
27.6385
 11
75.766
 21
27.4577
  0
LINE
  8
0
 10
75.766
 20
27.4577
 11
75.6841
 21
27.2797
  0
LINE
  8
0
 10
75.6841
 20
27.2797
 11
75.5968
 21
27.1048
  0
LINE
  8
0
 10
75.5968
 20
27.1048
 11
75.5043
 21
26.933
  0
LINE
  8
0
 10
75.5043
 20
26.933
 11
75.4068
 21
26.7645
  0
LINE
  8
0
 10
75.4068
 20
26.7645
 11
75.3042
 21
26.5992
  0
LINE
  8
0
 10
75.3042
 20
26.5992
 11
75.1967
 21
26.4375
  0
LINE
  8
0
 10
75.1967
 20
26.4375
 11
75.0845
 21
26.2793
  0
LINE
  8
0
 10
75.0845
 20
26.2793
 11
74.9675
 21
26.1247
  0
LINE
  8
0
 10
74.9675
 20
26.1247
 11
74.8459
 21
25.974
  0
LINE
  8
0
 10
74.8459
 20
25.974
 11
74.7199
 21
25.827
  0
LINE
  8
0
 10
74.7199
 20
25.827
 11
74.5895
 21
25.6841
  0
LINE
  8
0
 10
74.5895
 20
25.6841
 11
74.4548
 21
25.5452
  0
LINE
  8
0
 10
74.4548
 20
25.5452
 11
74.3159
 21
25.4105
  0
LINE
  8
0
 10
74.3159
 20
25.4105
 11
74.1729
 21
25.2801
  0
LINE
  8
0
 10
74.1729
 20
25.2801
 11
74.026
 21
25.1541
  0
LINE
  8
0
 10
74.026
 20
25.1541
 11
73.8752
 21
25.0325
  0
LINE
  8
0
 10
73.8752
 20
25.0325
 11
73.7207
 21
24.9155
  0
LINE
  8
0
 10
73.7207
 20
24.9155
 11
73.5625
 21
24.8033
  0
LINE
  8
0
 10
73.5625
 20
24.8033
 11
73.4007
 21
24.6958
  0
LINE
  8
0
 10
73.4007
 20
24.6958
 11
73.2355
 21
24.5932
  0
LINE
  8
0
 10
73.2355
 20
24.5932
 11
73.067
 21
24.4956
  0
LINE
  8
0
 10
73.067
 20
24.4956
 11
72.8952
 21
24.4032
  0
LINE
  8
0
 10
72.8952
 20
24.4032
 11
72.7203
 21
24.3159
  0
LINE
  8
0
 10
72.7203
 20
24.3159
 11
72.5423
 21
24.234
  0
LINE
  8
0
 10
72.5423
 20
24.234
 11
72.3614
 21
24.1575
  0
LINE
  8
0
 10
72.3614
 20
24.1575
 11
72.1777
 21
24.0865
  0
LINE
  8
0
 10
72.1777
 20
24.0865
 11
71.9913
 21
24.0212
  0
LINE
  8
0
 10
71.9913
 20
24.0212
 11
71.8022
 21
23.9615
  0
LINE
  8
0
 10
71.8022
 20
23.9615
 11
71.6107
 21
23.9078
  0
LINE
  8
0
 10
71.6107
 20
23.9078
 11
71.4167
 21
23.8599
  0
LINE
  8
0
 10
71.4167
 20
23.8599
 11
71.2204
 21
23.8181
  0
LINE
  8
0
 10
71.2204
 20
23.8181
 11
71.0219
 21
23.7824
  0
LINE
  8
0
 10
71.0219
 20
23.7824
 11
70.8213
 21
23.753
  0
LINE
  8
0
 10
70.8213
 20
23.753
 11
70.6187
 21
23.73
  0
LINE
  8
0
 10
70.6187
 20
23.73
 11
70.4142
 21
23.7134
  0
LINE
  8
0
 10
70.4142
 20
23.7134
 11
70.208
 21
23.7034
  0
LINE
  8
0
 10
70.208
 20
23.7034
 11
70
 21
23.7
  0
LINE
  8
0
 10
70
 20
23.7
 11
69.792
 21
23.7034
  0
LINE
  8
0
 10
-70.2079
 20
23.7034
 11
-70.4142
 21
23.7134
  0
LINE
  8
0
 10
-70.4142
 20
23.7134
 11
-70.6187
 21
23.73
  0
LINE
  8
0
 10
-70.6187
 20
23.73
 11
-70.8213
 21
23.753
  0
LINE
  8
0
 10
-70.8213
 20
23.753
 11
-71.0219
 21
23.7824
  0
LINE
  8
0
 10
-71.0219
 20
23.7824
 11
-71.2204
 21
23.8181
  0
LINE
  8
0
 10
-71.2204
 20
23.8181
 11
-71.4167
 21
23.8599
  0
LINE
  8
0
 10
-71.4167
 20
23.8599
 11
-71.6106
 21
23.9078
  0
LINE
  8
0
 10
-71.6106
 20
23.9078
 11
-71.8022
 21
23.9615
  0
LINE
  8
0
 10
-71.8022
 20
23.9615
 11
-71.9913
 21
24.0212
  0
LINE
  8
0
 10
-71.9913
 20
24.0212
 11
-72.1777
 21
24.0865
  0
LINE
  8
0
 10
-72.1777
 20
24.0865
 11
-72.3614
 21
24.1575
  0
LINE
  8
0
 10
-72.3614
 20
24.1575
 11
-72.5423
 21
24.234
  0
LINE
  8
0
 10
-72.5423
 20
24.234
 11
-72.7203
 21
24.3159
  0
LINE
  8
0
 10
-72.7203
 20
24.3159
 11
-72.8952
 21
24.4032
  0
LINE
  8
0
 10
-72.8952
 20
24.4032
 11
-73.067
 21
24.4957
  0
LINE
  8
0
 10
-73.067
 20
24.4957
 11
-73.2355
 21
24.5932
  0
LINE
  8
0
 10
-73.2355
 20
24.5932
 11
-73.4007
 21
24.6958
  0
LINE
  8
0
 10
-73.4007
 20
24.6958
 11
-73.5625
 21
24.8033
  0
LINE
  8
0
 10
-73.5625
 20
24.8033
 11
-73.7207
 21
24.9155
  0
LINE
  8
0
 10
-73.7207
 20
24.9155
 11
-73.8752
 21
25.0325
  0
LINE
  8
0
 10
-73.8752
 20
25.0325
 11
-74.026
 21
25.1541
  0
LINE
  8
0
 10
-74.026
 20
25.1541
 11
-74.1729
 21
25.2801
  0
LINE
  8
0
 10
-74.1729
 20
25.2801
 11
-74.3159
 21
25.4105
  0
LINE
  8
0
 10
-74.3159
 20
25.4105
 11
-74.4548
 21
25.5452
  0
LINE
  8
0
 10
-74.4548
 20
25.5452
 11
-74.5895
 21
25.6841
  0
LINE
  8
0
 10
-74.5895
 20
25.6841
 11
-74.7199
 21
25.827
  0
LINE
  8
0
 10
-74.7199
 20
25.827
 11
-74.8459
 21
25.974
  0
LINE
  8
0
 10
-74.8459
 20
25.974
 11
-74.9675
 21
26.1248
  0
LINE
  8
0
 10
-74.9675
 20
26.1248
 11
-75.0844
 21
26.2793
  0
LINE
  8
0
 10
-75.0844
 20
26.2793
 11
-75.1967
 21
26.4375
  0
LINE
  8
0
 10
-75.1967
 20
26.4375
 11
-75.3042
 21
26.5992
  0
LINE
  8
0
 10
-75.3042
 20
26.5992
 11
-75.4068
 21
26.7645
  0
LINE
  8
0
 10
-75.4068
 20
26.7645
 11
-75.5043
 21
26.933
  0
LINE
  8
0
 10
-75.5043
 20
26.933
 11
-75.5968
 21
27.1048
  0
LINE
  8
0
 10
-75.5968
 20
27.1048
 11
-75.684
 21
27.2797
  0
LINE
  8
0
 10
-75.684
 20
27.2797
 11
-75.766
 21
27.4577
  0
LINE
  8
0
 10
-75.766
 20
27.4577
 11
-75.8425
 21
27.6385
  0
LINE
  8
0
 10
-75.8425
 20
27.6385
 11
-75.9135
 21
27.8223
  0
LINE
  8
0
 10
-75.9135
 20
27.8223
 11
-75.9788
 21
28.0087
  0
LINE
  8
0
 10
-75.9788
 20
28.0087
 11
-76.0384
 21
28.1978
  0
LINE
  8
0
 10
-76.0384
 20
28.1978
 11
-76.0922
 21
28.3893
  0
LINE
  8
0
 10
-76.0922
 20
28.3893
 11
-76.1401
 21
28.5833
  0
LINE
  8
0
 10
-76.1401
 20
28.5833
 11
-76.1819
 21
28.7796
  0
LINE
  8
0
 10
-76.1819
 20
28.7796
 11
-76.2175
 21
28.9781
  0
LINE
  8
0
 10
-76.2175
 20
28.9781
 11
-76.2469
 21
29.1787
  0
LINE
  8
0
 10
-76.2469
 20
29.1787
 11
-76.27
 21
29.3813
  0
LINE
  8
0
 10
-76.27
 20
29.3813
 11
-76.2866
 21
29.5858
  0
LINE
  8
0
 10
-76.2866
 20
29.5858
 11
-76.2966
 21
29.792
  0
LINE
  8
0
 10
-76.2966
 20
29.792
 11
-76.3
 21
30
  0
LINE
  8
0
 10
-76.3
 20
30
 11
-76.2966
 21
30.2079
  0
LINE
  8
0
 10
-76.2966
 20
30.2079
 11
-76.2866
 21
30.4142
  0
LINE
  8
0
 10
-76.2866
 20
30.4142
 11
-76.27
 21
30.6187
  0
LINE
  8
0
 10
-76.27
 20
30.6187
 11
-76.2469
 21
30.8213
  0
LINE
  8
0
 10
-76.2469
 20
30.8213
 11
-76.2175
 21
31.0219
  0
LINE
  8
0
 10
-76.2175
 20
31.0219
 11
-76.1819
 21
31.2204
  0
LINE
  8
0
 10
-76.1819
 20
31.2204
 11
-76.1401
 21
31.4167
  0
LINE
  8
0
 10
-76.1401
 20
31.4167
 11
-76.0922
 21
31.6107
  0
LINE
  8
0
 10
-76.0922
 20
31.6107
 11
-76.0384
 21
31.8022
  0
LINE
  8
0
 10
-76.0384
 20
31.8022
 11
-75.9788
 21
31.9913
  0
LINE
  8
0
 10
-75.9788
 20
31.9913
 11
-75.9135
 21
32.1777
  0
LINE
  8
0
 10
-75.9135
 20
32.1777
 11
-75.8425
 21
32.3614
  0
LINE
  8
0
 10
-75.8425
 20
32.3614
 11
-75.766
 21
32.5423
  0
LINE
  8
0
 10
-75.766
 20
32.5423
 11
-75.6841
 21
32.7203
  0
LINE
  8
0
 10
-75.6841
 20
32.7203
 11
-75.5968
 21
32.8952
  0
LINE
  8
0
 10
-75.5968
 20
32.8952
 11
-75.5043
 21
33.067
  0
LINE
  8
0
 10
-75.5043
 20
33.067
 11
-75.4068
 21
33.2355
  0
LINE
  8
0
 10
-75.4068
 20
33.2355
 11
-75.3042
 21
33.4007
  0
LINE
  8
0
 10
-75.3042
 20
33.4007
 11
-75.1967
 21
33.5625
  0
LINE
  8
0
 10
-75.1967
 20
33.5625
 11
-75.0845
 21
33.7207
  0
LINE
  8
0
 10
-75.0845
 20
33.7207
 11
-74.9675
 21
33.8752
  0
LINE
  8
0
 10
-74.9675
 20
33.8752
 11
-74.8459
 21
34.026
  0
LINE
  8
0
 10
-74.8459
 20
34.026
 11
-74.7199
 21
34.1729
  0
LINE
  8
0
 10
-74.7199
 20
34.1729
 11
-74.5895
 21
34.3159
  0
LINE
  8
0
 10
-74.5895
 20
34.3159
 11
-74.4548
 21
34.4548
  0
LINE
  8
0
 10
-74.4548
 20
34.4548
 11
-74.3159
 21
34.5895
  0
LINE
  8
0
 10
-74.3159
 20
34.5895
 11
-74.1729
 21
34.7199
  0
LINE
  8
0
 10
-74.1729
 20
34.7199
 11
-74.026
 21
34.8459
  0
LINE
  8
0
 10
-74.026
 20
34.8459
 11
-73.8752
 21
34.9675
  0
LINE
  8
0
 10
-73.8752
 20
34.9675
 11
-73.7207
 21
35.0845
  0
LINE
  8
0
 10
-73.7207
 20
35.0845
 11
-73.5625
 21
35.1967
  0
LINE
  8
0
 10
-73.5625
 20
35.1967
 11
-73.4007
 21
35.3042
  0
LINE
  8
0
 10
-73.4007
 20
35.3042
 11
-73.2355
 21
35.4068
  0
LINE
  8
0
 10
-73.2355
 20
35.4068
 11
-73.067
 21
35.5043
  0
LINE
  8
0
 10
-73.067
 20
35.5043
 11
-72.8952
 21
35.5968
  0
LINE
  8
0
 10
-72.8952
 20
35.5968
 11
-72.7203
 21
35.6841
  0
LINE
  8
0
 10
-72.7203
 20
35.6841
 11
-72.5423
 21
35.766
  0
LINE
  8
0
 10
-72.5423
 20
35.766
 11
-72.3614
 21
35.8425
  0
LINE
  8
0
 10
-72.3614
 20
35.8425
 11
-72.1777
 21
35.9135
  0
LINE
  8
0
 10
-72.1777
 20
35.9135
 11
-71.9913
 21
35.9788
  0
LINE
  8
0
 10
-71.9913
 20
35.9788
 11
-71.8022
 21
36.0384
  0
LINE
  8
0
 10
-71.8022
 20
36.0384
 11
-71.6107
 21
36.0922
  0
LINE
  8
0
 10
-71.6107
 20
36.0922
 11
-71.4167
 21
36.1401
  0
LINE
  8
0
 10
-71.4167
 20
36.1401
 11
-71.2204
 21
36.1819
  0
LINE
  8
0
 10
-71.2204
 20
36.1819
 11
-71.0219
 21
36.2175
  0
LINE
  8
0
 10
-71.0219
 20
36.2175
 11
-70.8213
 21
36.2469
  0
LINE
  8
0
 10
-70.8213
 20
36.2469
 11
-70.6187
 21
36.27
  0
LINE
  8
0
 10
-70.6187
 20
36.27
 11
-70.4142
 21
36.2866
  0
LINE
  8
0
 10
-70.4142
 20
36.2866
 11
-70.208
 21
36.2966
  0
LINE
  8
0
 10
-70.208
 20
36.2966
 11
-70
 21
36.3
  0
LINE
  8
0
 10
-70
 20
36.3
 11
-69.792
 21
36.2966
  0
LINE
  8
0
 10
-69.792
 20
36.2966
 11
-69.5858
 21
36.2866
  0
LINE
  8
0
 10
-69.5858
 20
36.2866
 11
-69.3813
 21
36.27
  0
LINE
  8
0
 10
-69.3813
 20
36.27
 11
-69.1787
 21
36.2469
  0
LINE
  8
0
 10
-69.1787
 20
36.2469
 11
-68.9781
 21
36.2175
  0
LINE
  8
0
 10
-68.9781
 20
36.2175
 11
-68.7796
 21
36.1819
  0
LINE
  8
0
 10
-68.7796
 20
36.1819
 11
-68.5833
 21
36.1401
  0
LINE
  8
0
 10
-68.5833
 20
36.1401
 11
-68.3893
 21
36.0922
  0
LINE
  8
0
 10
-68.3893
 20
36.0922
 11
-68.1978
 21
36.0384
  0
LINE
  8
0
 10
-68.1978
 20
36.0384
 11
-68.0087
 21
35.9788
  0
LINE
  8
0
 10
-68.0087
 20
35.9788
 11
-67.8223
 21
35.9135
  0
LINE
  8
0
 10
-67.8223
 20
35.9135
 11
-67.6386
 21
35.8425
  0
LINE
  8
0
 10
-67.6386
 20
35.8425
 11
-67.4577
 21
35.766
  0
LINE
  8
0
 10
-67.4577
 20
35.766
 11
-67.2797
 21
35.6841
  0
LINE
  8
0
 10
-67.2797
 20
35.6841
 11
-67.1048
 21
35.5968
  0
LINE
  8
0
 10
-67.1048
 20
35.5968
 11
-66.933
 21
35.5043
  0
LINE
  8
0
 10
-66.933
 20
35.5043
 11
-66.7645
 21
35.4068
  0
LINE
  8
0
 10
-66.7645
 20
35.4068
 11
-66.5993
 21
35.3042
  0
LINE
  8
0
 10
-66.5993
 20
35.3042
 11
-66.4375
 21
35.1967
  0
LINE
  8
0
 10
-66.4375
 20
35.1967
 11
-66.2793
 21
35.0845
  0
LINE
  8
0
 10
-66.2793
 20
35.0845
 11
-66.1248
 21
34.9675
  0
LINE
  8
0
 10
-66.1248
 20
34.9675
 11
-65.974
 21
34.8459
  0
LINE
  8
0
 10
-65.974
 20
34.8459
 11
-65.8271
 21
34.7199
  0
LINE
  8
0
 10
-65.8271
 20
34.7199
 11
-65.6841
 21
34.5895
  0
LINE
  8
0
 10
-65.6841
 20
34.5895
 11
-65.5452
 21
34.4548
  0
LINE
  8
0
 10
-65.5452
 20
34.4548
 11
-65.4105
 21
34.3159
  0
LINE
  8
0
 10
-65.4105
 20
34.3159
 11
-65.2801
 21
34.1729
  0
LINE
  8
0
 10
-65.2801
 20
34.1729
 11
-65.1541
 21
34.026
  0
LINE
  8
0
 10
-65.1541
 20
34.026
 11
-65.0325
 21
33.8752
  0
LINE
  8
0
 10
-65.0325
 20
33.8752
 11
-64.9155
 21
33.7207
  0
LINE
  8
0
 10
-64.9155
 20
33.7207
 11
-64.8033
 21
33.5625
  0
LINE
  8
0
 10
-64.8033
 20
33.5625
 11
-64.6958
 21
33.4007
  0
LINE
  8
0
 10
-64.6958
 20
33.4007
 11
-64.5932
 21
33.2355
  0
LINE
  8
0
 10
-64.5932
 20
33.2355
 11
-64.4957
 21
33.067
  0
LINE
  8
0
 10
-64.4957
 20
33.067
 11
-64.4032
 21
32.8952
  0
LINE
  8
0
 10
-64.4032
 20
32.8952
 11
-64.3159
 21
32.7203
  0
LINE
  8
0
 10
-64.3159
 20
32.7203
 11
-64.234
 21
32.5423
  0
LINE
  8
0
 10
-64.234
 20
32.5423
 11
-64.1575
 21
32.3614
  0
LINE
  8
0
 10
-64.1575
 20
32.3614
 11
-64.0865
 21
32.1777
  0
LINE
  8
0
 10
-64.0865
 20
32.1777
 11
-64.0212
 21
31.9913
  0
LINE
  8
0
 10
-64.0212
 20
31.9913
 11
-63.9616
 21
31.8022
  0
LINE
  8
0
 10
-63.9616
 20
31.8022
 11
-63.9078
 21
31.6107
  0
LINE
  8
0
 10
-63.9078
 20
31.6107
 11
-63.8599
 21
31.4167
  0
LINE
  8
0
 10
-63.8599
 20
31.4167
 11
-63.8181
 21
31.2204
  0
LINE
  8
0
 10
-63.8181
 20
31.2204
 11
-63.7825
 21
31.0219
  0
LINE
  8
0
 10
-63.7825
 20
31.0219
 11
-63.7531
 21
30.8213
  0
LINE
  8
0
 10
-63.7531
 20
30.8213
 11
-63.73
 21
30.6187
  0
LINE
  8
0
 10
-63.73
 20
30.6187
 11
-63.7134
 21
30.4142
  0
LINE
  8
0
 10
-63.7134
 20
30.4142
 11
-63.7034
 21
30.2079
  0
LINE
  8
0
 10
-63.7034
 20
30.2079
 11
-63.7
 21
30
  0
LINE
  8
0
 10
-63.7
 20
30
 11
-63.7034
 21
29.792
  0
LINE
  8
0
 10
-63.7034
 20
29.792
 11
-63.7134
 21
29.5858
  0
LINE
  8
0
 10
-63.7134
 20
29.5858
 11
-63.73
 21
29.3813
  0
LINE
  8
0
 10
-63.73
 20
29.3813
 11
-63.753
 21
29.1787
  0
LINE
  8
0
 10
-63.753
 20
29.1787
 11
-63.7824
 21
28.9781
  0
LINE
  8
0
 10
-63.7824
 20
28.9781
 11
-63.8181
 21
28.7796
  0
LINE
  8
0
 10
-63.8181
 20
28.7796
 11
-63.8599
 21
28.5833
  0
LINE
  8
0
 10
-63.8599
 20
28.5833
 11
-63.9078
 21
28.3893
  0
LINE
  8
0
 10
-63.9078
 20
28.3893
 11
-63.9615
 21
28.1978
  0
LINE
  8
0
 10
-63.9615
 20
28.1978
 11
-64.0212
 21
28.0087
  0
LINE
  8
0
 10
-64.0212
 20
28.0087
 11
-64.0865
 21
27.8223
  0
LINE
  8
0
 10
-64.0865
 20
27.8223
 11
-64.1575
 21
27.6385
  0
LINE
  8
0
 10
-64.1575
 20
27.6385
 11
-64.234
 21
27.4577
  0
LINE
  8
0
 10
-64.234
 20
27.4577
 11
-64.3159
 21
27.2797
  0
LINE
  8
0
 10
-64.3159
 20
27.2797
 11
-64.4032
 21
27.1048
  0
LINE
  8
0
 10
-64.4032
 20
27.1048
 11
-64.4956
 21
26.933
  0
LINE
  8
0
 10
-64.4956
 20
26.933
 11
-64.5932
 21
26.7645
  0
LINE
  8
0
 10
-64.5932
 20
26.7645
 11
-64.6958
 21
26.5992
  0
LINE
  8
0
 10
-64.6958
 20
26.5992
 11
-64.8033
 21
26.4375
  0
LINE
  8
0
 10
-64.8033
 20
26.4375
 11
-64.9155
 21
26.2793
  0
LINE
  8
0
 10
-64.9155
 20
26.2793
 11
-65.0325
 21
26.1247
  0
LINE
  8
0
 10
-65.0325
 20
26.1247
 11
-65.1541
 21
25.974
  0
LINE
  8
0
 10
-65.1541
 20
25.974
 11
-65.2801
 21
25.827
  0
LINE
  8
0
 10
-65.2801
 20
25.827
 11
-65.4105
 21
25.6841
  0
LINE
  8
0
 10
-65.4105
 20
25.6841
 11
-65.5452
 21
25.5452
  0
LINE
  8
0
 10
-65.5452
 20
25.5452
 11
-65.6841
 21
25.4105
  0
LINE
  8
0
 10
-65.6841
 20
25.4105
 11
-65.827
 21
25.2801
  0
LINE
  8
0
 10
-65.827
 20
25.2801
 11
-65.974
 21
25.1541
  0
LINE
  8
0
 10
-65.974
 20
25.1541
 11
-66.1248
 21
25.0325
  0
LINE
  8
0
 10
-66.1248
 20
25.0325
 11
-66.2793
 21
24.9155
  0
LINE
  8
0
 10
-66.2793
 20
24.9155
 11
-66.4375
 21
24.8033
  0
LINE
  8
0
 10
-66.4375
 20
24.8033
 11
-66.5992
 21
24.6958
  0
LINE
  8
0
 10
-66.5992
 20
24.6958
 11
-66.7645
 21
24.5932
  0
LINE
  8
0
 10
-66.7645
 20
24.5932
 11
-66.933
 21
24.4956
  0
LINE
  8
0
 10
-66.933
 20
24.4956
 11
-67.1048
 21
24.4032
  0
LINE
  8
0
 10
-67.1048
 20
24.4032
 11
-67.2797
 21
24.3159
  0
LINE
  8
0
 10
-67.2797
 20
24.3159
 11
-67.4577
 21
24.234
  0
LINE
  8
0
 10
-67.4577
 20
24.234
 11
-67.6385
 21
24.1575
  0
LINE
  8
0
 10
-67.6385
 20
24.1575
 11
-67.8223
 21
24.0865
  0
LINE
  8
0
 10
-67.8223
 20
24.0865
 11
-68.0087
 21
24.0212
  0
LINE
  8
0
 10
-68.0087
 20
24.0212
 11
-68.1978
 21
23.9615
  0
LINE
  8
0
 10
-68.1978
 20
23.9615
 11
-68.3893
 21
23.9078
  0
LINE
  8
0
 10
-68.3893
 20
23.9078
 11
-68.5833
 21
23.8599
  0
LINE
  8
0
 10
-68.5833
 20
23.8599
 11
-68.7796
 21
23.8181
  0
LINE
  8
0
 10
-68.7796
 20
23.8181
 11
-68.9781
 21
23.7824
  0
LINE
  8
0
 10
-68.9781
 20
23.7824
 11
-69.1787
 21
23.753
  0
LINE
  8
0
 10
-69.1787
 20
23.753
 11
-69.3813
 21
23.73
  0
LINE
  8
0
 10
-69.3813
 20
23.73
 11
-69.5858
 21
23.7134
  0
LINE
  8
0
 10
-69.5858
 20
23.7134
 11
-69.792
 21
23.7034
  0
LINE
  8
0
 10
-69.792
 20
23.7034
 11
-70
 21
23.7
  0
LINE
  8
0
 10
-70
 20
23.7
 11
-70.2079
 21
23.7034
  0
LINE
  8
0
 10
29.1748
 20
-24.9866
 11
28.3562
 21
-24.9468
  0
LINE
  8
0
 10
28.3562
 20
-24.9468
 11
27.5448
 21
-24.881
  0
LINE
  8
0
 10
27.5448
 20
-24.881
 11
26.7409
 21
-24.7895
  0
LINE
  8
0
 10
26.7409
 20
-24.7895
 11
25.9449
 21
-24.6728
  0
LINE
  8
0
 10
25.9449
 20
-24.6728
 11
25.1572
 21
-24.5313
  0
LINE
  8
0
 10
25.1572
 20
-24.5313
 11
24.3783
 21
-24.3654
  0
LINE
  8
0
 10
24.3783
 20
-24.3654
 11
23.6085
 21
-24.1755
  0
LINE
  8
0
 10
23.6085
 20
-24.1755
 11
22.8483
 21
-23.9621
  0
LINE
  8
0
 10
22.8483
 20
-23.9621
 11
22.0981
 21
-23.7255
  0
LINE
  8
0
 10
22.0981
 20
-23.7255
 11
21.3582
 21
-23.4661
  0
LINE
  8
0
 10
21.3582
 20
-23.4661
 11
20.6292
 21
-23.1844
  0
LINE
  8
0
 10
20.6292
 20
-23.1844
 11
19.9114
 21
-22.8809
  0
LINE
  8
0
 10
19.9114
 20
-22.8809
 11
19.2052
 21
-22.5557
  0
LINE
  8
0
 10
19.2052
 20
-22.5557
 11
18.5111
 21
-22.2095
  0
LINE
  8
0
 10
18.5111
 20
-22.2095
 11
17.8294
 21
-21.8426
  0
LINE
  8
0
 10
17.8294
 20
-21.8426
 11
17.1605
 21
-21.4555
  0
LINE
  8
0
 10
17.1605
 20
-21.4555
 11
16.505
 21
-21.0484
  0
LINE
  8
0
 10
16.505
 20
-21.0484
 11
15.8631
 21
-20.622
  0
LINE
  8
0
 10
15.8631
 20
-20.622
 11
15.2353
 21
-20.1764
  0
LINE
  8
0
 10
15.2353
 20
-20.1764
 11
14.6221
 21
-19.7123
  0
LINE
  8
0
 10
14.6221
 20
-19.7123
 11
14.0237
 21
-19.2299
  0
LINE
  8
0
 10
14.0237
 20
-19.2299
 11
13.4407
 21
-18.7298
  0
LINE
  8
0
 10
13.4407
 20
-18.7298
 11
12.8734
 21
-18.2122
  0
LINE
  8
0
 10
12.8734
 20
-18.2122
 11
12.3223
 21
-17.6777
  0
LINE
  8
0
 10
12.3223
 20
-17.6777
 11
11.7878
 21
-17.1266
  0
LINE
  8
0
 10
11.7878
 20
-17.1266
 11
11.2702
 21
-16.5593
  0
LINE
  8
0
 10
11.2702
 20
-16.5593
 11
10.7701
 21
-15.9763
  0
LINE
  8
0
 10
10.7701
 20
-15.9763
 11
10.2877
 21
-15.3779
  0
LINE
  8
0
 10
10.2877
 20
-15.3779
 11
9.82355
 21
-14.7647
  0
LINE
  8
0
 10
9.82355
 20
-14.7647
 11
9.37802
 21
-14.1369
  0
LINE
  8
0
 10
9.37802
 20
-14.1369
 11
8.95154
 21
-13.495
  0
LINE
  8
0
 10
8.95154
 20
-13.495
 11
8.54451
 21
-12.8395
  0
LINE
  8
0
 10
8.54451
 20
-12.8395
 11
8.15735
 21
-12.1706
  0
LINE
  8
0
 10
8.15735
 20
-12.1706
 11
7.79045
 21
-11.4889
  0
LINE
  8
0
 10
7.79045
 20
-11.4889
 11
7.44424
 21
-10.7948
  0
LINE
  8
0
 10
7.44424
 20
-10.7948
 11
7.11914
 21
-10.0886
  0
LINE
  8
0
 10
7.11914
 20
-10.0886
 11
6.81554
 21
-9.37079
  0
LINE
  8
0
 10
6.81554
 20
-9.37079
 11
6.53386
 21
-8.64177
  0
LINE
  8
0
 10
6.53386
 20
-8.64177
 11
6.27451
 21
-7.90193
  0
LINE
  8
0
 10
6.27451
 20
-7.90193
 11
6.03792
 21
-7.1517
  0
LINE
  8
0
 10
6.03792
 20
-7.1517
 11
5.82448
 21
-6.39151
  0
LINE
  8
0
 10
5.82448
 20
-6.39151
 11
5.6346
 21
-5.62173
  0
LINE
  8
0
 10
5.6346
 20
-5.62173
 11
5.4687
 21
-4.8428
  0
LINE
  8
0
 10
5.4687
 20
-4.8428
 11
5.32721
 21
-4.05513
  0
LINE
  8
0
 10
5.32721
 20
-4.05513
 11
5.21051
 21
-3.25912
  0
LINE
  8
0
 10
5.21051
 20
-3.25912
 11
5.11903
 21
-2.4552
  0
LINE
  8
0
 10
5.11903
 20
-2.4552
 11
5.05318
 21
-1.64375
  0
LINE
  8
0
 10
5.05318
 20
-1.64375
 11
5.01337
 21
-0.825226
  0
LINE
  8
0
 10
5.01337
 20
-0.825226
 11
5
 21
0
  0
LINE
  8
0
 10
5
 20
0
 11
5.01335
 21
0.825211
  0
LINE
  8
0
 10
5.01335
 20
0.825211
 11
5.05318
 21
1.64375
  0
LINE
  8
0
 10
5.05318
 20
1.64375
 11
5.11902
 21
2.45518
  0
LINE
  8
0
 10
5.11902
 20
2.45518
 11
5.21051
 21
3.25911
  0
LINE
  8
0
 10
5.21051
 20
3.25911
 11
5.32719
 21
4.05511
  0
LINE
  8
0
 10
5.32719
 20
4.05511
 11
5.4687
 21
4.84279
  0
LINE
  8
0
 10
5.4687
 20
4.84279
 11
5.6346
 21
5.62172
  0
LINE
  8
0
 10
5.6346
 20
5.62172
 11
5.82446
 21
6.39149
  0
LINE
  8
0
 10
5.82446
 20
6.39149
 11
6.0379
 21
7.1517
  0
LINE
  8
0
 10
6.0379
 20
7.1517
 11
6.27451
 21
7.90193
  0
LINE
  8
0
 10
6.27451
 20
7.90193
 11
6.53386
 21
8.64175
  0
LINE
  8
0
 10
6.53386
 20
8.64175
 11
6.81554
 21
9.37079
  0
LINE
  8
0
 10
6.81554
 20
9.37079
 11
7.11913
 21
10.0886
  0
LINE
  8
0
 10
7.11913
 20
10.0886
 11
7.44424
 21
10.7948
  0
LINE
  8
0
 10
7.44424
 20
10.7948
 11
7.79045
 21
11.4889
  0
LINE
  8
0
 10
7.79045
 20
11.4889
 11
8.15733
 21
12.1706
  0
LINE
  8
0
 10
8.15733
 20
12.1706
 11
8.54451
 21
12.8395
  0
LINE
  8
0
 10
8.54451
 20
12.8395
 11
8.95154
 21
13.495
  0
LINE
  8
0
 10
8.95154
 20
13.495
 11
9.37802
 21
14.1369
  0
LINE
  8
0
 10
9.37802
 20
14.1369
 11
9.82355
 21
14.7647
  0
LINE
  8
0
 10
9.82355
 20
14.7647
 11
10.2877
 21
15.3779
  0
LINE
  8
0
 10
10.2877
 20
15.3779
 11
10.7701
 21
15.9763
  0
LINE
  8
0
 10
10.7701
 20
15.9763
 11
11.2702
 21
16.5593
  0
LINE
  8
0
 10
11.2702
 20
16.5593
 11
11.7878
 21
17.1266
  0
LINE
  8
0
 10
11.7878
 20
17.1266
 11
12.3223
 21
17.6777
  0
LINE
  8
0
 10
12.3223
 20
17.6777
 11
12.8734
 21
18.2122
  0
LINE
  8
0
 10
12.8734
 20
18.2122
 11
13.4407
 21
18.7298
  0
LINE
  8
0
 10
13.4407
 20
18.7298
 11
14.0237
 21
19.2299
  0
LINE
  8
0
 10
14.0237
 20
19.2299
 11
14.6221
 21
19.7123
  0
LINE
  8
0
 10
14.6221
 20
19.7123
 11
15.2353
 21
20.1764
  0
LINE
  8
0
 10
15.2353
 20
20.1764
 11
15.8631
 21
20.622
  0
LINE
  8
0
 10
15.8631
 20
20.622
 11
16.505
 21
21.0484
  0
LINE
  8
0
 10
16.505
 20
21.0484
 11
17.1605
 21
21.4555
  0
LINE
  8
0
 10
17.1605
 20
21.4555
 11
17.8294
 21
21.8426
  0
LINE
  8
0
 10
17.8294
 20
21.8426
 11
18.511
 21
22.2095
  0
LINE
  8
0
 10
18.511
 20
22.2095
 11
19.2052
 21
22.5557
  0
LINE
  8
0
 10
19.2052
 20
22.5557
 11
19.9114
 21
22.8809
  0
LINE
  8
0
 10
19.9114
 20
22.8809
 11
20.6292
 21
23.1844
  0
LINE
  8
0
 10
20.6292
 20
23.1844
 11
21.3582
 21
23.4661
  0
LINE
  8
0
 10
21.3582
 20
23.4661
 11
22.0981
 21
23.7255
  0
LINE
  8
0
 10
22.0981
 20
23.7255
 11
22.8483
 21
23.9621
  0
LINE
  8
0
 10
22.8483
 20
23.9621
 11
23.6085
 21
24.1755
  0
LINE
  8
0
 10
23.6085
 20
24.1755
 11
24.3783
 21
24.3654
  0
LINE
  8
0
 10
24.3783
 20
24.3654
 11
25.1572
 21
24.5313
  0
LINE
  8
0
 10
25.1572
 20
24.5313
 11
25.9449
 21
24.6728
  0
LINE
  8
0
 10
25.9449
 20
24.6728
 11
26.7409
 21
24.7895
  0
LINE
  8
0
 10
26.7409
 20
24.7895
 11
27.5448
 21
24.881
  0
LINE
  8
0
 10
27.5448
 20
24.881
 11
28.3562
 21
24.9468
  0
LINE
  8
0
 10
28.3562
 20
24.9468
 11
29.1748
 21
24.9866
  0
LINE
  8
0
 10
29.1748
 20
24.9866
 11
30
 21
25
  0
LINE
  8
0
 10
30
 20
25
 11
30.8252
 21
24.9866
  0
LINE
  8
0
 10
30.8252
 20
24.9866
 11
31.6438
 21
24.9468
  0
LINE
  8
0
 10
31.6438
 20
24.9468
 11
32.4552
 21
24.881
  0
LINE
  8
0
 10
32.4552
 20
24.881
 11
33.2591
 21
24.7895
  0
LINE
  8
0
 10
33.2591
 20
24.7895
 11
34.0551
 21
24.6728
  0
LINE
  8
0
 10
34.0551
 20
24.6728
 11
34.8428
 21
24.5313
  0
LINE
  8
0
 10
34.8428
 20
24.5313
 11
35.6217
 21
24.3654
  0
LINE
  8
0
 10
35.6217
 20
24.3654
 11
36.3915
 21
24.1755
  0
LINE
  8
0
 10
36.3915
 20
24.1755
 11
37.1517
 21
23.9621
  0
LINE
  8
0
 10
37.1517
 20
23.9621
 11
37.9019
 21
23.7255
  0
LINE
  8
0
 10
37.9019
 20
23.7255
 11
38.6418
 21
23.4661
  0
LINE
  8
0
 10
38.6418
 20
23.4661
 11
39.3708
 21
23.1844
  0
LINE
  8
0
 10
39.3708
 20
23.1844
 11
40.0886
 21
22.8809
  0
LINE
  8
0
 10
40.0886
 20
22.8809
 11
40.7948
 21
22.5557
  0
LINE
  8
0
 10
40.7948
 20
22.5557
 11
41.4889
 21
22.2095
  0
LINE
  8
0
 10
41.4889
 20
22.2095
 11
42.1706
 21
21.8426
  0
LINE
  8
0
 10
42.1706
 20
21.8426
 11
42.8395
 21
21.4555
  0
LINE
  8
0
 10
42.8395
 20
21.4555
 11
43.495
 21
21.0484
  0
LINE
  8
0
 10
43.495
 20
21.0484
 11
44.1369
 21
20.622
  0
LINE
  8
0
 10
44.1369
 20
20.622
 11
44.7647
 21
20.1764
  0
LINE
  8
0
 10
44.7647
 20
20.1764
 11
45.3779
 21
19.7123
  0
LINE
  8
0
 10
45.3779
 20
19.7123
 11
45.9763
 21
19.2299
  0
LINE
  8
0
 10
45.9763
 20
19.2299
 11
46.5593
 21
18.7298
  0
LINE
  8
0
 10
46.5593
 20
18.7298
 11
47.1266
 21
18.2122
  0
LINE
  8
0
 10
47.1266
 20
18.2122
 11
47.6777
 21
17.6777
  0
LINE
  8
0
 10
47.6777
 20
17.6777
 11
48.2122
 21
17.1266
  0
LINE
  8
0
 10
48.2122
 20
17.1266
 11
48.7298
 21
16.5593
  0
LINE
  8
0
 10
48.7298
 20
16.5593
 11
49.2299
 21
15.9763
  0
LINE
  8
0
 10
49.2299
 20
15.9763
 11
49.7123
 21
15.3779
  0
LINE
  8
0
 10
49.7123
 20
15.3779
 11
50.1764
 21
14.7647
  0
LINE
  8
0
 10
50.1764
 20
14.7647
 11
50.622
 21
14.1369
  0
LINE
  8
0
 10
50.622
 20
14.1369
 11
51.0484
 21
13.495
  0
LINE
  8
0
 10
51.0484
 20
13.495
 11
51.4555
 21
12.8395
  0
LINE
  8
0
 10
51.4555
 20
12.8395
 11
51.8427
 21
12.1706
  0
LINE
  8
0
 10
51.8427
 20
12.1706
 11
52.2095
 21
11.4889
  0
LINE
  8
0
 10
52.2095
 20
11.4889
 11
52.5557
 21
10.7948
  0
LINE
  8
0
 10
52.5557
 20
10.7948
 11
52.8809
 21
10.0886
  0
LINE
  8
0
 10
52.8809
 20
10.0886
 11
53.1844
 21
9.37079
  0
LINE
  8
0
 10
53.1844
 20
9.37079
 11
53.4661
 21
8.64177
  0
LINE
  8
0
 10
53.4661
 20
8.64177
 11
53.7255
 21
7.90193
  0
LINE
  8
0
 10
53.7255
 20
7.90193
 11
53.9621
 21
7.1517
  0
LINE
  8
0
 10
53.9621
 20
7.1517
 11
54.1755
 21
6.39151
  0
LINE
  8
0
 10
54.1755
 20
6.39151
 11
54.3654
 21
5.62173
  0
LINE
  8
0
 10
54.3654
 20
5.62173
 11
54.5313
 21
4.8428
  0
LINE
  8
0
 10
54.5313
 20
4.8428
 11
54.6728
 21
4.05513
  0
LINE
  8
0
 10
54.6728
 20
4.05513
 11
54.7895
 21
3.25912
  0
LINE
  8
0
 10
54.7895
 20
3.25912
 11
54.881
 21
2.4552
  0
LINE
  8
0
 10
54.881
 20
2.4552
 11
54.9468
 21
1.64375
  0
LINE
  8
0
 10
54.9468
 20
1.64375
 11
54.9866
 21
0.825226
  0
LINE
  8
0
 10
54.9866
 20
0.825226
 11
55
 21
0
  0
LINE
  8
0
 10
55
 20
0
 11
54.9866
 21
-0.825211
  0
LINE
  8
0
 10
54.9866
 20
-0.825211
 11
54.9468
 21
-1.64375
  0
LINE
  8
0
 10
54.9468
 20
-1.64375
 11
54.881
 21
-2.45518
  0
LINE
  8
0
 10
54.881
 20
-2.45518
 11
54.7895
 21
-3.25911
  0
LINE
  8
0
 10
54.7895
 20
-3.25911
 11
54.6728
 21
-4.05511
  0
LINE
  8
0
 10
54.6728
 20
-4.05511
 11
54.5313
 21
-4.84279
  0
LINE
  8
0
 10
54.5313
 20
-4.84279
 11
54.3654
 21
-5.62172
  0
LINE
  8
0
 10
54.3654
 20
-5.62172
 11
54.1755
 21
-6.39149
  0
LINE
  8
0
 10
54.1755
 20
-6.39149
 11
53.9621
 21
-7.1517
  0
LINE
  8
0
 10
53.9621
 20
-7.1517
 11
53.7255
 21
-7.90193
  0
LINE
  8
0
 10
53.7255
 20
-7.90193
 11
53.4661
 21
-8.64175
  0
LINE
  8
0
 10
53.4661
 20
-8.64175
 11
53.1844
 21
-9.37079
  0
LINE
  8
0
 10
53.1844
 20
-9.37079
 11
52.8809
 21
-10.0886
  0
LINE
  8
0
 10
52.8809
 20
-10.0886
 11
52.5557
 21
-10.7948
  0
LINE
  8
0
 10
52.5557
 20
-10.7948
 11
52.2095
 21
-11.4889
  0
LINE
  8
0
 10
52.2095
 20
-11.4889
 11
51.8427
 21
-12.1706
  0
LINE
  8
0
 10
51.8427
 20
-12.1706
 11
51.4555
 21
-12.8395
  0
LINE
  8
0
 10
51.4555
 20
-12.8395
 11
51.0484
 21
-13.495
  0
LINE
  8
0
 10
51.0484
 20
-13.495
 11
50.622
 21
-14.1369
  0
LINE
  8
0
 10
50.622
 20
-14.1369
 11
50.1764
 21
-14.7647
  0
LINE
  8
0
 10
50.1764
 20
-14.7647
 11
49.7123
 21
-15.3779
  0
LINE
  8
0
 10
49.7123
 20
-15.3779
 11
49.2299
 21
-15.9763
  0
LINE
  8
0
 10
49.2299
 20
-15.9763
 11
48.7298
 21
-16.5593
  0
LINE
  8
0
 10
48.7298
 20
-16.5593
 11
48.2122
 21
-17.1266
  0
LINE
  8
0
 10
48.2122
 20
-17.1266
 11
47.6777
 21
-17.6777
  0
LINE
  8
0
 10
47.6777
 20
-17.6777
 11
47.1265
 21
-18.2122
  0
LINE
  8
0
 10
47.1265
 20
-18.2122
 11
46.5593
 21
-18.7298
  0
LINE
  8
0
 10
46.5593
 20
-18.7298
 11
45.9763
 21
-19.2299
  0
LINE
  8
0
 10
45.9763
 20
-19.2299
 11
45.3779
 21
-19.7123
  0
LINE
  8
0
 10
45.3779
 20
-19.7123
 11
44.7647
 21
-20.1764
  0
LINE
  8
0
 10
44.7647
 20
-20.1764
 11
44.1369
 21
-20.622
  0
LINE
  8
0
 10
44.1369
 20
-20.622
 11
43.495
 21
-21.0484
  0
LINE
  8
0
 10
43.495
 20
-21.0484
 11
42.8395
 21
-21.4555
  0
LINE
  8
0
 10
42.8395
 20
-21.4555
 11
42.1706
 21
-21.8426
  0
LINE
  8
0
 10
42.1706
 20
-21.8426
 11
41.4889
 21
-22.2095
  0
LINE
  8
0
 10
41.4889
 20
-22.2095
 11
40.7948
 21
-22.5557
  0
LINE
  8
0
 10
40.7948
 20
-22.5557
 11
40.0886
 21
-22.8809
  0
LINE
  8
0
 10
40.0886
 20
-22.8809
 11
39.3708
 21
-23.1844
  0
LINE
  8
0
 10
39.3708
 20
-23.1844
 11
38.6418
 21
-23.4661
  0
LINE
  8
0
 10
38.6418
 20
-23.4661
 11
37.9019
 21
-23.7255
  0
LINE
  8
0
 10
37.9019
 20
-23.7255
 11
37.1517
 21
-23.9621
  0
LINE
  8
0
 10
37.1517
 20
-23.9621
 11
36.3915
 21
-24.1755
  0
LINE
  8
0
 10
36.3915
 20
-24.1755
 11
35.6217
 21
-24.3654
  0
LINE
  8
0
 10
35.6217
 20
-24.3654
 11
34.8428
 21
-24.5313
  0
LINE
  8
0
 10
34.8428
 20
-24.5313
 11
34.0551
 21
-24.6728
  0
LINE
  8
0
 10
34.0551
 20
-24.6728
 11
33.2591
 21
-24.7895
  0
LINE
  8
0
 10
33.2591
 20
-24.7895
 11
32.4552
 21
-24.881
  0
LINE
  8
0
 10
32.4552
 20
-24.881
 11
31.6437
 21
-24.9468
  0
LINE
  8
0
 10
31.6437
 20
-24.9468
 11
30.8252
 21
-24.9866
  0
LINE
  8
0
 10
30.8252
 20
-24.9866
 11
30
 21
-25
  0
LINE
  8
0
 10
30
 20
-25
 11
29.1748
 21
-24.9866
  0
LINE
  8
0
 10
-55
 20
0
 11
-54.9866
 21
0.825211
  0
LINE
  8
0
 10
-54.9866
 20
0.825211
 11
-54.9468
 21
1.64375
  0
LINE
  8
0
 10
-54.9468
 20
1.64375
 11
-54.881
 21
2.45518
  0
LINE
  8
0
 10
-54.881
 20
2.45518
 11
-54.7895
 21
3.25911
  0
LINE
  8
0
 10
-54.7895
 20
3.25911
 11
-54.6728
 21
4.05511
  0
LINE
  8
0
 10
-54.6728
 20
4.05511
 11
-54.5313
 21
4.84279
  0
LINE
  8
0
 10
-54.5313
 20
4.84279
 11
-54.3654
 21
5.62172
  0
LINE
  8
0
 10
-54.3654
 20
5.62172
 11
-54.1755
 21
6.39149
  0
LINE
  8
0
 10
-54.1755
 20
6.39149
 11
-53.9621
 21
7.1517
  0
LINE
  8
0
 10
-53.9621
 20
7.1517
 11
-53.7255
 21
7.90193
  0
LINE
  8
0
 10
-53.7255
 20
7.90193
 11
-53.4661
 21
8.64175
  0
LINE
  8
0
 10
-53.4661
 20
8.64175
 11
-53.1844
 21
9.37079
  0
LINE
  8
0
 10
-53.1844
 20
9.37079
 11
-52.8809
 21
10.0886
  0
LINE
  8
0
 10
-52.8809
 20
10.0886
 11
-52.5557
 21
10.7948
  0
LINE
  8
0
 10
-52.5557
 20
10.7948
 11
-52.2095
 21
11.4889
  0
LINE
  8
0
 10
-52.2095
 20
11.4889
 11
-51.8427
 21
12.1706
  0
LINE
  8
0
 10
-51.8427
 20
12.1706
 11
-51.4555
 21
12.8395
  0
LINE
  8
0
 10
-51.4555
 20
12.8395
 11
-51.0484
 21
13.495
  0
LINE
  8
0
 10
-51.0484
 20
13.495
 11
-50.622
 21
14.1369
  0
LINE
  8
0
 10
-50.622
 20
14.1369
 11
-50.1764
 21
14.7647
  0
LINE
  8
0
 10
-50.1764
 20
14.7647
 11
-49.7123
 21
15.3779
  0
LINE
  8
0
 10
-49.7123
 20
15.3779
 11
-49.2299
 21
15.9763
  0
LINE
  8
0
 10
-49.2299
 20
15.9763
 11
-48.7298
 21
16.5593
  0
LINE
  8
0
 10
-48.7298
 20
16.5593
 11
-48.2122
 21
17.1266
  0
LINE
  8
0
 10
-48.2122
 20
17.1266
 11
-47.6777
 21
17.6777
  0
LINE
  8
0
 10
-47.6777
 20
17.6777
 11
-47.1265
 21
18.2122
  0
LINE
  8
0
 10
-47.1265
 20
18.2122
 11
-46.5593
 21
18.7298
  0
LINE
  8
0
 10
-46.5593
 20
18.7298
 11
-45.9763
 21
19.2299
  0
LINE
  8
0
 10
-45.9763
 20
19.2299
 11
-45.3779
 21
19.7123
  0
LINE
  8
0
 10
-45.3779
 20
19.7123
 11
-44.7647
 21
20.1764
  0
LINE
  8
0
 10
-44.7647
 20
20.1764
 11
-44.1369
 21
20.622
  0
LINE
  8
0
 10
-44.1369
 20
20.622
 11
-43.495
 21
21.0484
  0
LINE
  8
0
 10
-43.495
 20
21.0484
 11
-42.8395
 21
21.4555
  0
LINE
  8
0
 10
-42.8395
 20
21.4555
 11
-42.1706
 21
21.8426
  0
LINE
  8
0
 10
-42.1706
 20
21.8426
 11
-41.4889
 21
22.2095
  0
LINE
  8
0
 10
-41.4889
 20
22.2095
 11
-40.7948
 21
22.5557
  0
LINE
  8
0
 10
-40.7948
 20
22.5557
 11
-40.0886
 21
22.8809
  0
LINE
  8
0
 10
-40.0886
 20
22.8809
 11
-39.3708
 21
23.1844
  0
LINE
  8
0
 10
-39.3708
 20
23.1844
 11
-38.6418
 21
23.4661
  0
LINE
  8
0
 10
-38.6418
 20
23.4661
 11
-37.9019
 21
23.7255
  0
LINE
  8
0
 10
-37.9019
 20
23.7255
 11
-37.1517
 21
23.9621
  0
LINE
  8
0
 10
-37.1517
 20
23.9621
 11
-36.3915
 21
24.1755
  0
LINE
  8
0
 10
-36.3915
 20
24.1755
 11
-35.6217
 21
24.3654
  0
LINE
  8
0
 10
-35.6217
 20
24.3654
 11
-34.8428
 21
24.5313
  0
LINE
  8
0
 10
-34.8428
 20
24.5313
 11
-34.0551
 21
24.6728
  0
LINE
  8
0
 10
-34.0551
 20
24.6728
 11
-33.2591
 21
24.7895
  0
LINE
  8
0
 10
-33.2591
 20
24.7895
 11
-32.4552
 21
24.881
  0
LINE
  8
0
 10
-32.4552
 20
24.881
 11
-31.6437
 21
24.9468
  0
LINE
  8
0
 10
-31.6437
 20
24.9468
 11
-30.8252
 21
24.9866
  0
LINE
  8
0
 10
-30.8252
 20
24.9866
 11
-30
 21
25
  0
LINE
  8
0
 10
-30
 20
25
 11
-29.1748
 21
24.9866
  0
LINE
  8
0
 10
-29.1748
 20
24.9866
 11
-28.3562
 21
24.9468
  0
LINE
  8
0
 10
-28.3562
 20
24.9468
 11
-27.5448
 21
24.881
  0
LINE
  8
0
 10
-27.5448
 20
24.881
 11
-26.7409
 21
24.7895
  0
LINE
  8
0
 10
-26.7409
 20
24.7895
 11
-25.9449
 21
24.6728
  0
LINE
  8
0
 10
-25.9449
 20
24.6728
 11
-25.1572
 21
24.5313
  0
LINE
  8
0
 10
-25.1572
 20
24.5313
 11
-24.3783
 21
24.3654
  0
LINE
  8
0
 10
-24.3783
 20
24.3654
 11
-23.6085
 21
24.1755
  0
LINE
  8
0
 10
-23.6085
 20
24.1755
 11
-22.8483
 21
23.9621
  0
LINE
  8
0
 10
-22.8483
 20
23.9621
 11
-22.0981
 21
23.7255
  0
LINE
  8
0
 10
-22.0981
 20
23.7255
 11
-21.3582
 21
23.4661
  0
LINE
  8
0
 10
-21.3582
 20
23.4661
 11
-20.6292
 21
23.1844
  0
LINE
  8
0
 10
-20.6292
 20
23.1844
 11
-19.9114
 21
22.8809
  0
LINE
  8
0
 10
-19.9114
 20
22.8809
 11
-19.2052
 21
22.5557
  0
LINE
  8
0
 10
-19.2052
 20
22.5557
 11
-18.5111
 21
22.2095
  0
LINE
  8
0
 10
-18.5111
 20
22.2095
 11
-17.8294
 21
21.8426
  0
LINE
  8
0
 10
-17.8294
 20
21.8426
 11
-17.1605
 21
21.4555
  0
LINE
  8
0
 10
-17.1605
 20
21.4555
 11
-16.505
 21
21.0484
  0
LINE
  8
0
 10
-16.505
 20
21.0484
 11
-15.8631
 21
20.622
  0
LINE
  8
0
 10
-15.8631
 20
20.622
 11
-15.2353
 21
20.1764
  0
LINE
  8
0
 10
-15.2353
 20
20.1764
 11
-14.6221
 21
19.7123
  0
LINE
  8
0
 10
-14.6221
 20
19.7123
 11
-14.0237
 21
19.2299
  0
LINE
  8
0
 10
-14.0237
 20
19.2299
 11
-13.4407
 21
18.7298
  0
LINE
  8
0
 10
-13.4407
 20
18.7298
 11
-12.8734
 21
18.2122
  0
LINE
  8
0
 10
-12.8734
 20
18.2122
 11
-12.3223
 21
17.6777
  0
LINE
  8
0
 10
-12.3223
 20
17.6777
 11
-11.7878
 21
17.1266
  0
LINE
  8
0
 10
-11.7878
 20
17.1266
 11
-11.2702
 21
16.5593
  0
LINE
  8
0
 10
-11.2702
 20
16.5593
 11
-10.7701
 21
15.9763
  0
LINE
  8
0
 10
-10.7701
 20
15.9763
 11
-10.2877
 21
15.3779
  0
LINE
  8
0
 10
-10.2877
 20
15.3779
 11
-9.82355
 21
14.7647
  0
LINE
  8
0
 10
-9.82355
 20
14.7647
 11
-9.37804
 21
14.1369
  0
LINE
  8
0
 10
-9.37804
 20
14.1369
 11
-8.95155
 21
13.495
  0
LINE
  8
0
 10
-8.95155
 20
13.495
 11
-8.54451
 21
12.8395
  0
LINE
  8
0
 10
-8.54451
 20
12.8395
 11
-8.15735
 21
12.1706
  0
LINE
  8
0
 10
-8.15735
 20
12.1706
 11
-7.79045
 21
11.4889
  0
LINE
  8
0
 10
-7.79045
 20
11.4889
 11
-7.44424
 21
10.7948
  0
LINE
  8
0
 10
-7.44424
 20
10.7948
 11
-7.11914
 21
10.0886
  0
LINE
  8
0
 10
-7.11914
 20
10.0886
 11
-6.81554
 21
9.37079
  0
LINE
  8
0
 10
-6.81554
 20
9.37079
 11
-6.53386
 21
8.64177
  0
LINE
  8
0
 10
-6.53386
 20
8.64177
 11
-6.27452
 21
7.90193
  0
LINE
  8
0
 10
-6.27452
 20
7.90193
 11
-6.03792
 21
7.1517
  0
LINE
  8
0
 10
-6.03792
 20
7.1517
 11
-5.82448
 21
6.39151
  0
LINE
  8
0
 10
-5.82448
 20
6.39151
 11
-5.63461
 21
5.62173
  0
LINE
  8
0
 10
-5.63461
 20
5.62173
 11
-5.46872
 21
4.8428
  0
LINE
  8
0
 10
-5.46872
 20
4.8428
 11
-5.32721
 21
4.05513
  0
LINE
  8
0
 10
-5.32721
 20
4.05513
 11
-5.21053
 21
3.25912
  0
LINE
  8
0
 10
-5.21053
 20
3.25912
 11
-5.11903
 21
2.4552
  0
LINE
  8
0
 10
-5.11903
 20
2.4552
 11
-5.05319
 21
1.64375
  0
LINE
  8
0
 10
-5.05319
 20
1.64375
 11
-5.01337
 21
0.825226
  0
LINE
  8
0
 10
-5.01337
 20
0.825226
 11
-5
 21
0
  0
LINE
  8
0
 10
-5
 20
0
 11
-5.01335
 21
-0.825211
  0
LINE
  8
0
 10
-5.01335
 20
-0.825211
 11
-5.05318
 21
-1.64375
  0
LINE
  8
0
 10
-5.05318
 20
-1.64375
 11
-5.11902
 21
-2.45518
  0
LINE
  8
0
 10
-5.11902
 20
-2.45518
 11
-5.21051
 21
-3.25911
  0
LINE
  8
0
 10
-5.21051
 20
-3.25911
 11
-5.32719
 21
-4.05511
  0
LINE
  8
0
 10
-5.32719
 20
-4.05511
 11
-5.4687
 21
-4.84279
  0
LINE
  8
0
 10
-5.4687
 20
-4.84279
 11
-5.6346
 21
-5.62172
  0
LINE
  8
0
 10
-5.6346
 20
-5.62172
 11
-5.82446
 21
-6.39149
  0
LINE
  8
0
 10
-5.82446
 20
-6.39149
 11
-6.03792
 21
-7.1517
  0
LINE
  8
0
 10
-6.03792
 20
-7.1517
 11
-6.27451
 21
-7.90193
  0
LINE
  8
0
 10
-6.27451
 20
-7.90193
 11
-6.53386
 21
-8.64175
  0
LINE
  8
0
 10
-6.53386
 20
-8.64175
 11
-6.81554
 21
-9.37079
  0
LINE
  8
0
 10
-6.81554
 20
-9.37079
 11
-7.11913
 21
-10.0886
  0
LINE
  8
0
 10
-7.11913
 20
-10.0886
 11
-7.44424
 21
-10.7948
  0
LINE
  8
0
 10
-7.44424
 20
-10.7948
 11
-7.79045
 21
-11.4889
  0
LINE
  8
0
 10
-7.79045
 20
-11.4889
 11
-8.15735
 21
-12.1706
  0
LINE
  8
0
 10
-8.15735
 20
-12.1706
 11
-8.54451
 21
-12.8395
  0
LINE
  8
0
 10
-8.54451
 20
-12.8395
 11
-8.95154
 21
-13.495
  0
LINE
  8
0
 10
-8.95154
 20
-13.495
 11
-9.37802
 21
-14.1369
  0
LINE
  8
0
 10
-9.37802
 20
-14.1369
 11
-9.82355
 21
-14.7647
  0
LINE
  8
0
 10
-9.82355
 20
-14.7647
 11
-10.2877
 21
-15.3779
  0
LINE
  8
0
 10
-10.2877
 20
-15.3779
 11
-10.7701
 21
-15.9763
  0
LINE
  8
0
 10
-10.7701
 20
-15.9763
 11
-11.2702
 21
-16.5593
  0
LINE
  8
0
 10
-11.2702
 20
-16.5593
 11
-11.7878
 21
-17.1266
  0
LINE
  8
0
 10
-11.7878
 20
-17.1266
 11
-12.3223
 21
-17.6777
  0
LINE
  8
0
 10
-12.3223
 20
-17.6777
 11
-12.8734
 21
-18.2122
  0
LINE
  8
0
 10
-12.8734
 20
-18.2122
 11
-13.4407
 21
-18.7298
  0
LINE
  8
0
 10
-13.4407
 20
-18.7298
 11
-14.0237
 21
-19.2299
  0
LINE
  8
0
 10
-14.0237
 20
-19.2299
 11
-14.6221
 21
-19.7123
  0
LINE
  8
0
 10
-14.6221
 20
-19.7123
 11
-15.2353
 21
-20.1764
  0
LINE
  8
0
 10
-15.2353
 20
-20.1764
 11
-15.8631
 21
-20.622
  0
LINE
  8
0
 10
-15.8631
 20
-20.622
 11
-16.505
 21
-21.0484
  0
LINE
  8
0
 10
-16.505
 20
-21.0484
 11
-17.1605
 21
-21.4555
  0
LINE
  8
0
 10
-17.1605
 20
-21.4555
 11
-17.8294
 21
-21.8426
  0
LINE
  8
0
 10
-17.8294
 20
-21.8426
 11
-18.5111
 21
-22.2095
  0
LINE
  8
0
 10
-18.5111
 20
-22.2095
 11
-19.2052
 21
-22.5557
  0
LINE
  8
0
 10
-19.2052
 20
-22.5557
 11
-19.9114
 21
-22.8809
  0
LINE
  8
0
 10
-19.9114
 20
-22.8809
 11
-20.6292
 21
-23.1844
  0
LINE
  8
0
 10
-20.6292
 20
-23.1844
 11
-21.3582
 21
-23.4661
  0
LINE
  8
0
 10
-21.3582
 20
-23.4661
 11
-22.0981
 21
-23.7255
  0
LINE
  8
0
 10
-22.0981
 20
-23.7255
 11
-22.8483
 21
-23.9621
  0
LINE
  8
0
 10
-22.8483
 20
-23.9621
 11
-23.6085
 21
-24.1755
  0
LINE
  8
0
 10
-23.6085
 20
-24.1755
 11
-24.3783
 21
-24.3654
  0
LINE
  8
0
 10
-24.3783
 20
-24.3654
 11
-25.1572
 21
-24.5313
  0
LINE
  8
0
 10
-25.1572
 20
-24.5313
 11
-25.9449
 21
-24.6728
  0
LINE
  8
0
 10
-25.9449
 20
-24.6728
 11
-26.7409
 21
-24.7895
  0
LINE
  8
0
 10
-26.7409
 20
-24.7895
 11
-27.5448
 21
-24.881
  0
LINE
  8
0
 10
-27.5448
 20
-24.881
 11
-28.3562
 21
-24.9468
  0
LINE
  8
0
 10
-28.3562
 20
-24.9468
 11
-29.1748
 21
-24.9866
  0
LINE
  8
0
 10
-29.1748
 20
-24.9866
 11
-30
 21
-25
  0
LINE
  8
0
 10
-30
 20
-25
 11
-30.8252
 21
-24.9866
  0
LINE
  8
0
 10
-30.8252
 20
-24.9866
 11
-31.6438
 21
-24.9468
  0
LINE
  8
0
 10
-31.6438
 20
-24.9468
 11
-32.4552
 21
-24.881
  0
LINE
  8
0
 10
-32.4552
 20
-24.881
 11
-33.2591
 21
-24.7895
  0
LINE
  8
0
 10
-33.2591
 20
-24.7895
 11
-34.0551
 21
-24.6728
  0
LINE
  8
0
 10
-34.0551
 20
-24.6728
 11
-34.8428
 21
-24.5313
  0
LINE
  8
0
 10
-34.8428
 20
-24.5313
 11
-35.6217
 21
-24.3654
  0
LINE
  8
0
 10
-35.6217
 20
-24.3654
 11
-36.3915
 21
-24.1755
  0
LINE
  8
0
 10
-36.3915
 20
-24.1755
 11
-37.1517
 21
-23.9621
  0
LINE
  8
0
 10
-37.1517
 20
-23.9621
 11
-37.9019
 21
-23.7255
  0
LINE
  8
0
 10
-37.9019
 20
-23.7255
 11
-38.6418
 21
-23.4661
  0
LINE
  8
0
 10
-38.6418
 20
-23.4661
 11
-39.3708
 21
-23.1844
  0
LINE
  8
0
 10
-39.3708
 20
-23.1844
 11
-40.0886
 21
-22.8809
  0
LINE
  8
0
 10
-40.0886
 20
-22.8809
 11
-40.7948
 21
-22.5557
  0
LINE
  8
0
 10
-40.7948
 20
-22.5557
 11
-41.4889
 21
-22.2095
  0
LINE
  8
0
 10
-41.4889
 20
-22.2095
 11
-42.1706
 21
-21.8426
  0
LINE
  8
0
 10
-42.1706
 20
-21.8426
 11
-42.8395
 21
-21.4555
  0
LINE
  8
0
 10
-42.8395
 20
-21.4555
 11
-43.495
 21
-21.0484
  0
LINE
  8
0
 10
-43.495
 20
-21.0484
 11
-44.1369
 21
-20.622
  0
LINE
  8
0
 10
-44.1369
 20
-20.622
 11
-44.7647
 21
-20.1764
  0
LINE
  8
0
 10
-44.7647
 20
-20.1764
 11
-45.3779
 21
-19.7123
  0
LINE
  8
0
 10
-45.3779
 20
-19.7123
 11
-45.9763
 21
-19.2299
  0
LINE
  8
0
 10
-45.9763
 20
-19.2299
 11
-46.5593
 21
-18.7298
  0
LINE
  8
0
 10
-46.5593
 20
-18.7298
 11
-47.1266
 21
-18.2122
  0
LINE
  8
0
 10
-47.1266
 20
-18.2122
 11
-47.6777
 21
-17.6777
  0
LINE
  8
0
 10
-47.6777
 20
-17.6777
 11
-48.2122
 21
-17.1266
  0
LINE
  8
0
 10
-48.2122
 20
-17.1266
 11
-48.7298
 21
-16.5593
  0
LINE
  8
0
 10
-48.7298
 20
-16.5593
 11
-49.2299
 21
-15.9763
  0
LINE
  8
0
 10
-49.2299
 20
-15.9763
 11
-49.7123
 21
-15.3779
  0
LINE
  8
0
 10
-49.7123
 20
-15.3779
 11
-50.1764
 21
-14.7647
  0
LINE
  8
0
 10
-50.1764
 20
-14.7647
 11
-50.622
 21
-14.1369
  0
LINE
  8
0
 10
-50.622
 20
-14.1369
 11
-51.0484
 21
-13.495
  0
LINE
  8
0
 10
-51.0484
 20
-13.495
 11
-51.4555
 21
-12.8395
  0
LINE
  8
0
 10
-51.4555
 20
-12.8395
 11
-51.8427
 21
-12.1706
  0
LINE
  8
0
 10
-51.8427
 20
-12.1706
 11
-52.2095
 21
-11.4889
  0
LINE
  8
0
 10
-52.2095
 20
-11.4889
 11
-52.5557
 21
-10.7948
  0
LINE
  8
0
 10
-52.5557
 20
-10.7948
 11
-52.8809
 21
-10.0886
  0
LINE
  8
0
 10
-52.8809
 20
-10.0886
 11
-53.1844
 21
-9.37079
  0
LINE
  8
0
 10
-53.1844
 20
-9.37079
 11
-53.4661
 21
-8.64177
  0
LINE
  8
0
 10
-53.4661
 20
-8.64177
 11
-53.7255
 21
-7.90193
  0
LINE
  8
0
 10
-53.7255
 20
-7.90193
 11
-53.9621
 21
-7.1517
  0
LINE
  8
0
 10
-53.9621
 20
-7.1517
 11
-54.1755
 21
-6.39151
  0
LINE
  8
0
 10
-54.1755
 20
-6.39151
 11
-54.3654
 21
-5.62173
  0
LINE
  8
0
 10
-54.3654
 20
-5.62173
 11
-54.5313
 21
-4.8428
  0
LINE
  8
0
 10
-54.5313
 20
-4.8428
 11
-54.6728
 21
-4.05513
  0
LINE
  8
0
 10
-54.6728
 20
-4.05513
 11
-54.7895
 21
-3.25912
  0
LINE
  8
0
 10
-54.7895
 20
-3.25912
 11
-54.881
 21
-2.4552
  0
LINE
  8
0
 10
-54.881
 20
-2.4552
 11
-54.9468
 21
-1.64375
  0
LINE
  8
0
 10
-54.9468
 20
-1.64375
 11
-54.9866
 21
-0.825226
  0
LINE
  8
0
 10
-54.9866
 20
-0.825226
 11
-55
 21
0
  0
LINE
  8
0
 10
-70.2079
 20
-51.2966
 11
-70.4142
 21
-51.2866
  0
LINE
  8
0
 10
-70.4142
 20
-51.2866
 11
-70.6187
 21
-51.27
  0
LINE
  8
0
 10
-70.6187
 20
-51.27
 11
-70.8213
 21
-51.2469
  0
LINE
  8
0
 10
-70.8213
 20
-51.2469
 11
-71.0219
 21
-51.2175
  0
LINE
  8
0
 10
-71.0219
 20
-51.2175
 11
-71.2204
 21
-51.1819
  0
LINE
  8
0
 10
-71.2204
 20
-51.1819
 11
-71.4167
 21
-51.1401
  0
LINE
  8
0
 10
-71.4167
 20
-51.1401
 11
-71.6106
 21
-51.0922
  0
LINE
  8
0
 10
-71.6106
 20
-51.0922
 11
-71.8022
 21
-51.0384
  0
LINE
  8
0
 10
-71.8022
 20
-51.0384
 11
-71.9913
 21
-50.9788
  0
LINE
  8
0
 10
-71.9913
 20
-50.9788
 11
-72.1777
 21
-50.9135
  0
LINE
  8
0
 10
-72.1777
 20
-50.9135
 11
-72.3614
 21
-50.8425
  0
LINE
  8
0
 10
-72.3614
 20
-50.8425
 11
-72.5423
 21
-50.766
  0
LINE
  8
0
 10
-72.5423
 20
-50.766
 11
-72.7203
 21
-50.6841
  0
LINE
  8
0
 10
-72.7203
 20
-50.6841
 11
-72.8952
 21
-50.5968
  0
LINE
  8
0
 10
-72.8952
 20
-50.5968
 11
-73.067
 21
-50.5043
  0
LINE
  8
0
 10
-73.067
 20
-50.5043
 11
-73.2355
 21
-50.4068
  0
LINE
  8
0
 10
-73.2355
 20
-50.4068
 11
-73.4007
 21
-50.3042
  0
LINE
  8
0
 10
-73.4007
 20
-50.3042
 11
-73.5625
 21
-50.1967
  0
LINE
  8
0
 10
-73.5625
 20
-50.1967
 11
-73.7207
 21
-50.0845
  0
LINE
  8
0
 10
-73.7207
 20
-50.0845
 11
-73.8752
 21
-49.9675
  0
LINE
  8
0
 10
-73.8752
 20
-49.9675
 11
-74.026
 21
-49.8459
  0
LINE
  8
0
 10
-74.026
 20
-49.8459
 11
-74.1729
 21
-49.7199
  0
LINE
  8
0
 10
-74.1729
 20
-49.7199
 11
-74.3159
 21
-49.5895
  0
LINE
  8
0
 10
-74.3159
 20
-49.5895
 11
-74.4548
 21
-49.4548
  0
LINE
  8
0
 10
-74.4548
 20
-49.4548
 11
-74.5895
 21
-49.3159
  0
LINE
  8
0
 10
-74.5895
 20
-49.3159
 11
-74.7199
 21
-49.1729
  0
LINE
  8
0
 10
-74.7199
 20
-49.1729
 11
-74.8459
 21
-49.026
  0
LINE
  8
0
 10
-74.8459
 20
-49.026
 11
-74.9675
 21
-48.8752
  0
LINE
  8
0
 10
-74.9675
 20
-48.8752
 11
-75.0844
 21
-48.7207
  0
LINE
  8
0
 10
-75.0844
 20
-48.7207
 11
-75.1967
 21
-48.5625
  0
LINE
  8
0
 10
-75.1967
 20
-48.5625
 11
-75.3042
 21
-48.4007
  0
LINE
  8
0
 10
-75.3042
 20
-48.4007
 11
-75.4068
 21
-48.2355
  0
LINE
  8
0
 10
-75.4068
 20
-48.2355
 11
-75.5043
 21
-48.067
  0
LINE
  8
0
 10
-75.5043
 20
-48.067
 11
-75.5968
 21
-47.8952
  0
LINE
  8
0
 10
-75.5968
 20
-47.8952
 11
-75.684
 21
-47.7203
  0
LINE
  8
0
 10
-75.684
 20
-47.7203
 11
-75.766
 21
-47.5423
  0
LINE
  8
0
 10
-75.766
 20
-47.5423
 11
-75.8425
 21
-47.3614
  0
LINE
  8
0
 10
-75.8425
 20
-47.3614
 11
-75.9135
 21
-47.1777
  0
LINE
  8
0
 10
-75.9135
 20
-47.1777
 11
-75.9788
 21
-46.9913
  0
LINE
  8
0
 10
-75.9788
 20
-46.9913
 11
-76.0384
 21
-46.8022
  0
LINE
  8
0
 10
-76.0384
 20
-46.8022
 11
-76.0922
 21
-46.6107
  0
LINE
  8
0
 10
-76.0922
 20
-46.6107
 11
-76.1401
 21
-46.4167
  0
LINE
  8
0
 10
-76.1401
 20
-46.4167
 11
-76.1819
 21
-46.2204
  0
LINE
  8
0
 10
-76.1819
 20
-46.2204
 11
-76.2175
 21
-46.0219
  0
LINE
  8
0
 10
-76.2175
 20
-46.0219
 11
-76.2469
 21
-45.8213
  0
LINE
  8
0
 10
-76.2469
 20
-45.8213
 11
-76.27
 21
-45.6187
  0
LINE
  8
0
 10
-76.27
 20
-45.6187
 11
-76.2866
 21
-45.4142
  0
LINE
  8
0
 10
-76.2866
 20
-45.4142
 11
-76.2966
 21
-45.208
  0
LINE
  8
0
 10
-76.2966
 20
-45.208
 11
-76.3
 21
-45
  0
LINE
  8
0
 10
-76.3
 20
-45
 11
-76.2966
 21
-44.792
  0
LINE
  8
0
 10
-76.2966
 20
-44.792
 11
-76.2866
 21
-44.5858
  0
LINE
  8
0
 10
-76.2866
 20
-44.5858
 11
-76.27
 21
-44.3813
  0
LINE
  8
0
 10
-76.27
 20
-44.3813
 11
-76.2469
 21
-44.1787
  0
LINE
  8
0
 10
-76.2469
 20
-44.1787
 11
-76.2175
 21
-43.9781
  0
LINE
  8
0
 10
-76.2175
 20
-43.9781
 11
-76.1819
 21
-43.7796
  0
LINE
  8
0
 10
-76.1819
 20
-43.7796
 11
-76.1401
 21
-43.5833
  0
LINE
  8
0
 10
-76.1401
 20
-43.5833
 11
-76.0922
 21
-43.3893
  0
LINE
  8
0
 10
-76.0922
 20
-43.3893
 11
-76.0384
 21
-43.1978
  0
LINE
  8
0
 10
-76.0384
 20
-43.1978
 11
-75.9788
 21
-43.0087
  0
LINE
  8
0
 10
-75.9788
 20
-43.0087
 11
-75.9135
 21
-42.8223
  0
LINE
  8
0
 10
-75.9135
 20
-42.8223
 11
-75.8425
 21
-42.6385
  0
LINE
  8
0
 10
-75.8425
 20
-42.6385
 11
-75.766
 21
-42.4577
  0
LINE
  8
0
 10
-75.766
 20
-42.4577
 11
-75.6841
 21
-42.2797
  0
LINE
  8
0
 10
-75.6841
 20
-42.2797
 11
-75.5968
 21
-42.1048
  0
LINE
  8
0
 10
-75.5968
 20
-42.1048
 11
-75.5043
 21
-41.933
  0
LINE
  8
0
 10
-75.5043
 20
-41.933
 11
-75.4068
 21
-41.7645
  0
LINE
  8
0
 10
-75.4068
 20
-41.7645
 11
-75.3042
 21
-41.5992
  0
LINE
  8
0
 10
-75.3042
 20
-41.5992
 11
-75.1967
 21
-41.4375
  0
LINE
  8
0
 10
-75.1967
 20
-41.4375
 11
-75.0845
 21
-41.2793
  0
LINE
  8
0
 10
-75.0845
 20
-41.2793
 11
-74.9675
 21
-41.1248
  0
LINE
  8
0
 10
-74.9675
 20
-41.1248
 11
-74.8459
 21
-40.974
  0
LINE
  8
0
 10
-74.8459
 20
-40.974
 11
-74.7199
 21
-40.8271
  0
LINE
  8
0
 10
-74.7199
 20
-40.8271
 11
-74.5895
 21
-40.6841
  0
LINE
  8
0
 10
-74.5895
 20
-40.6841
 11
-74.4548
 21
-40.5452
  0
LINE
  8
0
 10
-74.4548
 20
-40.5452
 11
-74.3159
 21
-40.4105
  0
LINE
  8
0
 10
-74.3159
 20
-40.4105
 11
-74.1729
 21
-40.2801
  0
LINE
  8
0
 10
-74.1729
 20
-40.2801
 11
-74.026
 21
-40.1541
  0
LINE
  8
0
 10
-74.026
 20
-40.1541
 11
-73.8752
 21
-40.0325
  0
LINE
  8
0
 10
-73.8752
 20
-40.0325
 11
-73.7207
 21
-39.9155
  0
LINE
  8
0
 10
-73.7207
 20
-39.9155
 11
-73.5625
 21
-39.8033
  0
LINE
  8
0
 10
-73.5625
 20
-39.8033
 11
-73.4007
 21
-39.6958
  0
LINE
  8
0
 10
-73.4007
 20
-39.6958
 11
-73.2355
 21
-39.5932
  0
LINE
  8
0
 10
-73.2355
 20
-39.5932
 11
-73.067
 21
-39.4956
  0
LINE
  8
0
 10
-73.067
 20
-39.4956
 11
-72.8952
 21
-39.4032
  0
LINE
  8
0
 10
-72.8952
 20
-39.4032
 11
-72.7203
 21
-39.3159
  0
LINE
  8
0
 10
-72.7203
 20
-39.3159
 11
-72.5423
 21
-39.234
  0
LINE
  8
0
 10
-72.5423
 20
-39.234
 11
-72.3614
 21
-39.1575
  0
LINE
  8
0
 10
-72.3614
 20
-39.1575
 11
-72.1777
 21
-39.0865
  0
LINE
  8
0
 10
-72.1777
 20
-39.0865
 11
-71.9913
 21
-39.0212
  0
LINE
  8
0
 10
-71.9913
 20
-39.0212
 11
-71.8022
 21
-38.9615
  0
LINE
  8
0
 10
-71.8022
 20
-38.9615
 11
-71.6107
 21
-38.9078
  0
LINE
  8
0
 10
-71.6107
 20
-38.9078
 11
-71.4167
 21
-38.8599
  0
LINE
  8
0
 10
-71.4167
 20
-38.8599
 11
-71.2204
 21
-38.8181
  0
LINE
  8
0
 10
-71.2204
 20
-38.8181
 11
-71.0219
 21
-38.7825
  0
LINE
  8
0
 10
-71.0219
 20
-38.7825
 11
-70.8213
 21
-38.753
  0
LINE
  8
0
 10
-70.8213
 20
-38.753
 11
-70.6187
 21
-38.73
  0
LINE
  8
0
 10
-70.6187
 20
-38.73
 11
-70.4142
 21
-38.7134
  0
LINE
  8
0
 10
-70.4142
 20
-38.7134
 11
-70.208
 21
-38.7034
  0
LINE
  8
0
 10
-70.208
 20
-38.7034
 11
-70
 21
-38.7
  0
LINE
  8
0
 10
-70
 20
-38.7
 11
-69.792
 21
-38.7034
  0
LINE
  8
0
 10
-69.792
 20
-38.7034
 11
-69.5858
 21
-38.7134
  0
LINE
  8
0
 10
-69.5858
 20
-38.7134
 11
-69.3813
 21
-38.73
  0
LINE
  8
0
 10
-69.3813
 20
-38.73
 11
-69.1787
 21
-38.753
  0
LINE
  8
0
 10
-69.1787
 20
-38.753
 11
-68.9781
 21
-38.7824
  0
LINE
  8
0
 10
-68.9781
 20
-38.7824
 11
-68.7796
 21
-38.8181
  0
LINE
  8
0
 10
-68.7796
 20
-38.8181
 11
-68.5833
 21
-38.8599
  0
LINE
  8
0
 10
-68.5833
 20
-38.8599
 11
-68.3893
 21
-38.9078
  0
LINE
  8
0
 10
-68.3893
 20
-38.9078
 11
-68.1978
 21
-38.9615
  0
LINE
  8
0
 10
-68.1978
 20
-38.9615
 11
-68.0087
 21
-39.0212
  0
LINE
  8
0
 10
-68.0087
 20
-39.0212
 11
-67.8223
 21
-39.0865
  0
LINE
  8
0
 10
-67.8223
 20
-39.0865
 11
-67.6386
 21
-39.1575
  0
LINE
  8
0
 10
-67.6386
 20
-39.1575
 11
-67.4577
 21
-39.234
  0
LINE
  8
0
 10
-67.4577
 20
-39.234
 11
-67.2797
 21
-39.3159
  0
LINE
  8
0
 10
-67.2797
 20
-39.3159
 11
-67.1048
 21
-39.4032
  0
LINE
  8
0
 10
-67.1048
 20
-39.4032
 11
-66.933
 21
-39.4956
  0
LINE
  8
0
 10
-66.933
 20
-39.4956
 11
-66.7645
 21
-39.5932
  0
LINE
  8
0
 10
-66.7645
 20
-39.5932
 11
-66.5993
 21
-39.6958
  0
LINE
  8
0
 10
-66.5993
 20
-39.6958
 11
-66.4375
 21
-39.8033
  0
LINE
  8
0
 10
-66.4375
 20
-39.8033
 11
-66.2793
 21
-39.9155
  0
LINE
  8
0
 10
-66.2793
 20
-39.9155
 11
-66.1248
 21
-40.0325
  0
LINE
  8
0
 10
-66.1248
 20
-40.0325
 11
-65.974
 21
-40.154
  0
LINE
  8
0
 10
-65.974
 20
-40.154
 11
-65.8271
 21
-40.2801
  0
LINE
  8
0
 10
-65.8271
 20
-40.2801
 11
-65.6841
 21
-40.4105
  0
LINE
  8
0
 10
-65.6841
 20
-40.4105
 11
-65.5452
 21
-40.5452
  0
LINE
  8
0
 10
-65.5452
 20
-40.5452
 11
-65.4105
 21
-40.6841
  0
LINE
  8
0
 10
-65.4105
 20
-40.6841
 11
-65.2801
 21
-40.827
  0
LINE
  8
0
 10
-65.2801
 20
-40.827
 11
-65.1541
 21
-40.974
  0
LINE
  8
0
 10
-65.1541
 20
-40.974
 11
-65.0325
 21
-41.1247
  0
LINE
  8
0
 10
-65.0325
 20
-41.1247
 11
-64.9155
 21
-41.2793
  0
LINE
  8
0
 10
-64.9155
 20
-41.2793
 11
-64.8033
 21
-41.4375
  0
LINE
  8
0
 10
-64.8033
 20
-41.4375
 11
-64.6958
 21
-41.5992
  0
LINE
  8
0
 10
-64.6958
 20
-41.5992
 11
-64.5932
 21
-41.7644
  0
LINE
  8
0
 10
-64.5932
 20
-41.7644
 11
-64.4957
 21
-41.933
  0
LINE
  8
0
 10
-64.4957
 20
-41.933
 11
-64.4032
 21
-42.1048
  0
LINE
  8
0
 10
-64.4032
 20
-42.1048
 11
-64.3159
 21
-42.2797
  0
LINE
  8
0
 10
-64.3159
 20
-42.2797
 11
-64.234
 21
-42.4577
  0
LINE
  8
0
 10
-64.234
 20
-42.4577
 11
-64.1575
 21
-42.6385
  0
LINE
  8
0
 10
-64.1575
 20
-42.6385
 11
-64.0865
 21
-42.8223
  0
LINE
  8
0
 10
-64.0865
 20
-42.8223
 11
-64.0212
 21
-43.0087
  0
LINE
  8
0
 10
-64.0212
 20
-43.0087
 11
-63.9616
 21
-43.1978
  0
LINE
  8
0
 10
-63.9616
 20
-43.1978
 11
-63.9078
 21
-43.3893
  0
LINE
  8
0
 10
-63.9078
 20
-43.3893
 11
-63.8599
 21
-43.5833
  0
LINE
  8
0
 10
-63.8599
 20
-43.5833
 11
-63.8181
 21
-43.7796
  0
LINE
  8
0
 10
-63.8181
 20
-43.7796
 11
-63.7825
 21
-43.9781
  0
LINE
  8
0
 10
-63.7825
 20
-43.9781
 11
-63.7531
 21
-44.1787
  0
LINE
  8
0
 10
-63.7531
 20
-44.1787
 11
-63.73
 21
-44.3813
  0
LINE
  8
0
 10
-63.73
 20
-44.3813
 11
-63.7134
 21
-44.5858
  0
LINE
  8
0
 10
-63.7134
 20
-44.5858
 11
-63.7034
 21
-44.792
  0
LINE
  8
0
 10
-63.7034
 20
-44.792
 11
-63.7
 21
-45
  0
LINE
  8
0
 10
-63.7
 20
-45
 11
-63.7034
 21
-45.2079
  0
LINE
  8
0
 10
-63.7034
 20
-45.2079
 11
-63.7134
 21
-45.4142
  0
LINE
  8
0
 10
-63.7134
 20
-45.4142
 11
-63.73
 21
-45.6187
  0
LINE
  8
0
 10
-63.73
 20
-45.6187
 11
-63.753
 21
-45.8213
  0
LINE
  8
0
 10
-63.753
 20
-45.8213
 11
-63.7824
 21
-46.0219
  0
LINE
  8
0
 10
-63.7824
 20
-46.0219
 11
-63.8181
 21
-46.2204
  0
LINE
  8
0
 10
-63.8181
 20
-46.2204
 11
-63.8599
 21
-46.4167
  0
LINE
  8
0
 10
-63.8599
 20
-46.4167
 11
-63.9078
 21
-46.6106
  0
LINE
  8
0
 10
-63.9078
 20
-46.6106
 11
-63.9615
 21
-46.8022
  0
LINE
  8
0
 10
-63.9615
 20
-46.8022
 11
-64.0212
 21
-46.9913
  0
LINE
  8
0
 10
-64.0212
 20
-46.9913
 11
-64.0865
 21
-47.1777
  0
LINE
  8
0
 10
-64.0865
 20
-47.1777
 11
-64.1575
 21
-47.3614
  0
LINE
  8
0
 10
-64.1575
 20
-47.3614
 11
-64.234
 21
-47.5423
  0
LINE
  8
0
 10
-64.234
 20
-47.5423
 11
-64.3159
 21
-47.7203
  0
LINE
  8
0
 10
-64.3159
 20
-47.7203
 11
-64.4032
 21
-47.8952
  0
LINE
  8
0
 10
-64.4032
 20
-47.8952
 11
-64.4956
 21
-48.067
  0
LINE
  8
0
 10
-64.4956
 20
-48.067
 11
-64.5932
 21
-48.2355
  0
LINE
  8
0
 10
-64.5932
 20
-48.2355
 11
-64.6958
 21
-48.4007
  0
LINE
  8
0
 10
-64.6958
 20
-48.4007
 11
-64.8033
 21
-48.5625
  0
LINE
  8
0
 10
-64.8033
 20
-48.5625
 11
-64.9155
 21
-48.7207
  0
LINE
  8
0
 10
-64.9155
 20
-48.7207
 11
-65.0325
 21
-48.8752
  0
LINE
  8
0
 10
-65.0325
 20
-48.8752
 11
-65.1541
 21
-49.026
  0
LINE
  8
0
 10
-65.1541
 20
-49.026
 11
-65.2801
 21
-49.1729
  0
LINE
  8
0
 10
-65.2801
 20
-49.1729
 11
-65.4105
 21
-49.3159
  0
LINE
  8
0
 10
-65.4105
 20
-49.3159
 11
-65.5452
 21
-49.4548
  0
LINE
  8
0
 10
-65.5452
 20
-49.4548
 11
-65.6841
 21
-49.5895
  0
LINE
  8
0
 10
-65.6841
 20
-49.5895
 11
-65.827
 21
-49.7199
  0
LINE
  8
0
 10
-65.827
 20
-49.7199
 11
-65.974
 21
-49.8459
  0
LINE
  8
0
 10
-65.974
 20
-49.8459
 11
-66.1248
 21
-49.9675
  0
LINE
  8
0
 10
-66.1248
 20
-49.9675
 11
-66.2793
 21
-50.0844
  0
LINE
  8
0
 10
-66.2793
 20
-50.0844
 11
-66.4375
 21
-50.1967
  0
LINE
  8
0
 10
-66.4375
 20
-50.1967
 11
-66.5992
 21
-50.3042
  0
LINE
  8
0
 10
-66.5992
 20
-50.3042
 11
-66.7645
 21
-50.4068
  0
LINE
  8
0
 10
-66.7645
 20
-50.4068
 11
-66.933
 21
-50.5043
  0
LINE
  8
0
 10
-66.933
 20
-50.5043
 11
-67.1048
 21
-50.5968
  0
LINE
  8
0
 10
-67.1048
 20
-50.5968
 11
-67.2797
 21
-50.684
  0
LINE
  8
0
 10
-67.2797
 20
-50.684
 11
-67.4577
 21
-50.766
  0
LINE
  8
0
 10
-67.4577
 20
-50.766
 11
-67.6385
 21
-50.8425
  0
LINE
  8
0
 10
-67.6385
 20
-50.8425
 11
-67.8223
 21
-50.9135
  0
LINE
  8
0
 10
-67.8223
 20
-50.9135
 11
-68.0087
 21
-50.9788
  0
LINE
  8
0
 10
-68.0087
 20
-50.9788
 11
-68.1978
 21
-51.0384
  0
LINE
  8
0
 10
-68.1978
 20
-51.0384
 11
-68.3893
 21
-51.0922
  0
LINE
  8
0
 10
-68.3893
 20
-51.0922
 11
-68.5833
 21
-51.1401
  0
LINE
  8
0
 10
-68.5833
 20
-51.1401
 11
-68.7797
 21
-51.1819
  0
LINE
  8
0
 10
-68.7797
 20
-51.1819
 11
-68.9781
 21
-51.2175
  0
LINE
  8
0
 10
-68.9781
 20
-51.2175
 11
-69.1787
 21
-51.2469
  0
LINE
  8
0
 10
-69.1787
 20
-51.2469
 11
-69.3813
 21
-51.27
  0
LINE
  8
0
 10
-69.3813
 20
-51.27
 11
-69.5858
 21
-51.2866
  0
LINE
  8
0
 10
-69.5858
 20
-51.2866
 11
-69.792
 21
-51.2966
  0
LINE
  8
0
 10
-69.792
 20
-51.2966
 11
-70
 21
-51.3
  0
LINE
  8
0
 10
-70
 20
-51.3
 11
-70.2079
 21
-51.2966
  0
LINE
  8
0
 10
69.792
 20
-51.2966
 11
69.5858
 21
-51.2866
  0
LINE
  8
0
 10
69.5858
 20
-51.2866
 11
69.3813
 21
-51.27
  0
LINE
  8
0
 10
69.3813
 20
-51.27
 11
69.1787
 21
-51.2469
  0
LINE
  8
0
 10
69.1787
 20
-51.2469
 11
68.9781
 21
-51.2175
  0
LINE
  8
0
 10
68.9781
 20
-51.2175
 11
68.7797
 21
-51.1819
  0
LINE
  8
0
 10
68.7797
 20
-51.1819
 11
68.5833
 21
-51.1401
  0
LINE
  8
0
 10
68.5833
 20
-51.1401
 11
68.3893
 21
-51.0922
  0
LINE
  8
0
 10
68.3893
 20
-51.0922
 11
68.1978
 21
-51.0384
  0
LINE
  8
0
 10
68.1978
 20
-51.0384
 11
68.0087
 21
-50.9788
  0
LINE
  8
0
 10
68.0087
 20
-50.9788
 11
67.8223
 21
-50.9135
  0
LINE
  8
0
 10
67.8223
 20
-50.9135
 11
67.6386
 21
-50.8425
  0
LINE
  8
0
 10
67.6386
 20
-50.8425
 11
67.4577
 21
-50.766
  0
LINE
  8
0
 10
67.4577
 20
-50.766
 11
67.2797
 21
-50.6841
  0
LINE
  8
0
 10
67.2797
 20
-50.6841
 11
67.1048
 21
-50.5968
  0
LINE
  8
0
 10
67.1048
 20
-50.5968
 11
66.933
 21
-50.5043
  0
LINE
  8
0
 10
66.933
 20
-50.5043
 11
66.7645
 21
-50.4068
  0
LINE
  8
0
 10
66.7645
 20
-50.4068
 11
66.5993
 21
-50.3042
  0
LINE
  8
0
 10
66.5993
 20
-50.3042
 11
66.4375
 21
-50.1967
  0
LINE
  8
0
 10
66.4375
 20
-50.1967
 11
66.2793
 21
-50.0845
  0
LINE
  8
0
 10
66.2793
 20
-50.0845
 11
66.1248
 21
-49.9675
  0
LINE
  8
0
 10
66.1248
 20
-49.9675
 11
65.974
 21
-49.8459
  0
LINE
  8
0
 10
65.974
 20
-49.8459
 11
65.8271
 21
-49.7199
  0
LINE
  8
0
 10
65.8271
 20
-49.7199
 11
65.6841
 21
-49.5895
  0
LINE
  8
0
 10
65.6841
 20
-49.5895
 11
65.5452
 21
-49.4548
  0
LINE
  8
0
 10
65.5452
 20
-49.4548
 11
65.4105
 21
-49.3159
  0
LINE
  8
0
 10
65.4105
 20
-49.3159
 11
65.2801
 21
-49.1729
  0
LINE
  8
0
 10
65.2801
 20
-49.1729
 11
65.1541
 21
-49.026
  0
LINE
  8
0
 10
65.1541
 20
-49.026
 11
65.0325
 21
-48.8752
  0
LINE
  8
0
 10
65.0325
 20
-48.8752
 11
64.9155
 21
-48.7207
  0
LINE
  8
0
 10
64.9155
 20
-48.7207
 11
64.8033
 21
-48.5625
  0
LINE
  8
0
 10
64.8033
 20
-48.5625
 11
64.6958
 21
-48.4007
  0
LINE
  8
0
 10
64.6958
 20
-48.4007
 11
64.5932
 21
-48.2355
  0
LINE
  8
0
 10
64.5932
 20
-48.2355
 11
64.4957
 21
-48.067
  0
LINE
  8
0
 10
64.4957
 20
-48.067
 11
64.4032
 21
-47.8952
  0
LINE
  8
0
 10
64.4032
 20
-47.8952
 11
64.3159
 21
-47.7203
  0
LINE
  8
0
 10
64.3159
 20
-47.7203
 11
64.234
 21
-47.5423
  0
LINE
  8
0
 10
64.234
 20
-47.5423
 11
64.1575
 21
-47.3614
  0
LINE
  8
0
 10
64.1575
 20
-47.3614
 11
64.0865
 21
-47.1777
  0
LINE
  8
0
 10
64.0865
 20
-47.1777
 11
64.0212
 21
-46.9913
  0
LINE
  8
0
 10
64.0212
 20
-46.9913
 11
63.9616
 21
-46.8022
  0
LINE
  8
0
 10
63.9616
 20
-46.8022
 11
63.9078
 21
-46.6107
  0
LINE
  8
0
 10
63.9078
 20
-46.6107
 11
63.8599
 21
-46.4167
  0
LINE
  8
0
 10
63.8599
 20
-46.4167
 11
63.8181
 21
-46.2204
  0
LINE
  8
0
 10
63.8181
 20
-46.2204
 11
63.7825
 21
-46.0219
  0
LINE
  8
0
 10
63.7825
 20
-46.0219
 11
63.7531
 21
-45.8213
  0
LINE
  8
0
 10
63.7531
 20
-45.8213
 11
63.73
 21
-45.6187
  0
LINE
  8
0
 10
63.73
 20
-45.6187
 11
63.7134
 21
-45.4142
  0
LINE
  8
0
 10
63.7134
 20
-45.4142
 11
63.7034
 21
-45.208
  0
LINE
  8
0
 10
63.7034
 20
-45.208
 11
63.7
 21
-45
  0
LINE
  8
0
 10
63.7
 20
-45
 11
63.7034
 21
-44.792
  0
LINE
  8
0
 10
63.7034
 20
-44.792
 11
63.7134
 21
-44.5858
  0
LINE
  8
0
 10
63.7134
 20
-44.5858
 11
63.73
 21
-44.3813
  0
LINE
  8
0
 10
63.73
 20
-44.3813
 11
63.753
 21
-44.1787
  0
LINE
  8
0
 10
63.753
 20
-44.1787
 11
63.7824
 21
-43.9781
  0
LINE
  8
0
 10
63.7824
 20
-43.9781
 11
63.8181
 21
-43.7796
  0
LINE
  8
0
 10
63.8181
 20
-43.7796
 11
63.8599
 21
-43.5833
  0
LINE
  8
0
 10
63.8599
 20
-43.5833
 11
63.9078
 21
-43.3893
  0
LINE
  8
0
 10
63.9078
 20
-43.3893
 11
63.9615
 21
-43.1978
  0
LINE
  8
0
 10
63.9615
 20
-43.1978
 11
64.0212
 21
-43.0087
  0
LINE
  8
0
 10
64.0212
 20
-43.0087
 11
64.0865
 21
-42.8223
  0
LINE
  8
0
 10
64.0865
 20
-42.8223
 11
64.1575
 21
-42.6385
  0
LINE
  8
0
 10
64.1575
 20
-42.6385
 11
64.234
 21
-42.4577
  0
LINE
  8
0
 10
64.234
 20
-42.4577
 11
64.3159
 21
-42.2797
  0
LINE
  8
0
 10
64.3159
 20
-42.2797
 11
64.4032
 21
-42.1048
  0
LINE
  8
0
 10
64.4032
 20
-42.1048
 11
64.4956
 21
-41.933
  0
LINE
  8
0
 10
64.4956
 20
-41.933
 11
64.5932
 21
-41.7645
  0
LINE
  8
0
 10
64.5932
 20
-41.7645
 11
64.6958
 21
-41.5992
  0
LINE
  8
0
 10
64.6958
 20
-41.5992
 11
64.8033
 21
-41.4375
  0
LINE
  8
0
 10
64.8033
 20
-41.4375
 11
64.9155
 21
-41.2793
  0
LINE
  8
0
 10
64.9155
 20
-41.2793
 11
65.0325
 21
-41.1248
  0
LINE
  8
0
 10
65.0325
 20
-41.1248
 11
65.1541
 21
-40.974
  0
LINE
  8
0
 10
65.1541
 20
-40.974
 11
65.2801
 21
-40.8271
  0
LINE
  8
0
 10
65.2801
 20
-40.8271
 11
65.4105
 21
-40.6841
  0
LINE
  8
0
 10
65.4105
 20
-40.6841
 11
65.5452
 21
-40.5452
  0
LINE
  8
0
 10
65.5452
 20
-40.5452
 11
65.6841
 21
-40.4105
  0
LINE
  8
0
 10
65.6841
 20
-40.4105
 11
65.827
 21
-40.2801
  0
LINE
  8
0
 10
65.827
 20
-40.2801
 11
65.974
 21
-40.1541
  0
LINE
  8
0
 10
65.974
 20
-40.1541
 11
66.1248
 21
-40.0325
  0
LINE
  8
0
 10
66.1248
 20
-40.0325
 11
66.2793
 21
-39.9155
  0
LINE
  8
0
 10
66.2793
 20
-39.9155
 11
66.4375
 21
-39.8033
  0
LINE
  8
0
 10
66.4375
 20
-39.8033
 11
66.5992
 21
-39.6958
  0
LINE
  8
0
 10
66.5992
 20
-39.6958
 11
66.7645
 21
-39.5932
  0
LINE
  8
0
 10
66.7645
 20
-39.5932
 11
66.933
 21
-39.4956
  0
LINE
  8
0
 10
66.933
 20
-39.4956
 11
67.1048
 21
-39.4032
  0
LINE
  8
0
 10
67.1048
 20
-39.4032
 11
67.2797
 21
-39.3159
  0
LINE
  8
0
 10
67.2797
 20
-39.3159
 11
67.4577
 21
-39.234
  0
LINE
  8
0
 10
67.4577
 20
-39.234
 11
67.6385
 21
-39.1575
  0
LINE
  8
0
 10
67.6385
 20
-39.1575
 11
67.8223
 21
-39.0865
  0
LINE
  8
0
 10
67.8223
 20
-39.0865
 11
68.0087
 21
-39.0212
  0
LINE
  8
0
 10
68.0087
 20
-39.0212
 11
68.1978
 21
-38.9615
  0
LINE
  8
0
 10
68.1978
 20
-38.9615
 11
68.3893
 21
-38.9078
  0
LINE
  8
0
 10
68.3893
 20
-38.9078
 11
68.5833
 21
-38.8599
  0
LINE
  8
0
 10
68.5833
 20
-38.8599
 11
68.7796
 21
-38.8181
  0
LINE
  8
0
 10
68.7796
 20
-38.8181
 11
68.9781
 21
-38.7825
  0
LINE
  8
0
 10
68.9781
 20
-38.7825
 11
69.1787
 21
-38.753
  0
LINE
  8
0
 10
69.1787
 20
-38.753
 11
69.3813
 21
-38.73
  0
LINE
  8
0
 10
69.3813
 20
-38.73
 11
69.5858
 21
-38.7134
  0
LINE
  8
0
 10
69.5858
 20
-38.7134
 11
69.792
 21
-38.7034
  0
LINE
  8
0
 10
69.792
 20
-38.7034
 11
70
 21
-38.7
  0
LINE
  8
0
 10
70
 20
-38.7
 11
70.2079
 21
-38.7034
  0
LINE
  8
0
 10
70.2079
 20
-38.7034
 11
70.4142
 21
-38.7134
  0
LINE
  8
0
 10
70.4142
 20
-38.7134
 11
70.6187
 21
-38.73
  0
LINE
  8
0
 10
70.6187
 20
-38.73
 11
70.8213
 21
-38.753
  0
LINE
  8
0
 10
70.8213
 20
-38.753
 11
71.0219
 21
-38.7824
  0
LINE
  8
0
 10
71.0219
 20
-38.7824
 11
71.2204
 21
-38.8181
  0
LINE
  8
0
 10
71.2204
 20
-38.8181
 11
71.4167
 21
-38.8599
  0
LINE
  8
0
 10
71.4167
 20
-38.8599
 11
71.6106
 21
-38.9078
  0
LINE
  8
0
 10
71.6106
 20
-38.9078
 11
71.8022
 21
-38.9615
  0
LINE
  8
0
 10
71.8022
 20
-38.9615
 11
71.9913
 21
-39.0212
  0
LINE
  8
0
 10
71.9913
 20
-39.0212
 11
72.1777
 21
-39.0865
  0
LINE
  8
0
 10
72.1777
 20
-39.0865
 11
72.3614
 21
-39.1575
  0
LINE
  8
0
 10
72.3614
 20
-39.1575
 11
72.5423
 21
-39.234
  0
LINE
  8
0
 10
72.5423
 20
-39.234
 11
72.7203
 21
-39.3159
  0
LINE
  8
0
 10
72.7203
 20
-39.3159
 11
72.8952
 21
-39.4032
  0
LINE
  8
0
 10
72.8952
 20
-39.4032
 11
73.067
 21
-39.4956
  0
LINE
  8
0
 10
73.067
 20
-39.4956
 11
73.2355
 21
-39.5932
  0
LINE
  8
0
 10
73.2355
 20
-39.5932
 11
73.4007
 21
-39.6958
  0
LINE
  8
0
 10
73.4007
 20
-39.6958
 11
73.5625
 21
-39.8033
  0
LINE
  8
0
 10
73.5625
 20
-39.8033
 11
73.7207
 21
-39.9155
  0
LINE
  8
0
 10
73.7207
 20
-39.9155
 11
73.8752
 21
-40.0325
  0
LINE
  8
0
 10
73.8752
 20
-40.0325
 11
74.026
 21
-40.154
  0
LINE
  8
0
 10
74.026
 20
-40.154
 11
74.1729
 21
-40.2801
  0
LINE
  8
0
 10
74.1729
 20
-40.2801
 11
74.3159
 21
-40.4105
  0
LINE
  8
0
 10
74.3159
 20
-40.4105
 11
74.4548
 21
-40.5452
  0
LINE
  8
0
 10
74.4548
 20
-40.5452
 11
74.5895
 21
-40.6841
  0
LINE
  8
0
 10
74.5895
 20
-40.6841
 11
74.7199
 21
-40.827
  0
LINE
  8
0
 10
74.7199
 20
-40.827
 11
74.8459
 21
-40.974
  0
LINE
  8
0
 10
74.8459
 20
-40.974
 11
74.9675
 21
-41.1247
  0
LINE
  8
0
 10
74.9675
 20
-41.1247
 11
75.0844
 21
-41.2793
  0
LINE
  8
0
 10
75.0844
 20
-41.2793
 11
75.1967
 21
-41.4375
  0
LINE
  8
0
 10
75.1967
 20
-41.4375
 11
75.3042
 21
-41.5992
  0
LINE
  8
0
 10
75.3042
 20
-41.5992
 11
75.4068
 21
-41.7644
  0
LINE
  8
0
 10
75.4068
 20
-41.7644
 11
75.5043
 21
-41.933
  0
LINE
  8
0
 10
75.5043
 20
-41.933
 11
75.5968
 21
-42.1048
  0
LINE
  8
0
 10
75.5968
 20
-42.1048
 11
75.684
 21
-42.2797
  0
LINE
  8
0
 10
75.684
 20
-42.2797
 11
75.766
 21
-42.4577
  0
LINE
  8
0
 10
75.766
 20
-42.4577
 11
75.8425
 21
-42.6385
  0
LINE
  8
0
 10
75.8425
 20
-42.6385
 11
75.9135
 21
-42.8223
  0
LINE
  8
0
 10
75.9135
 20
-42.8223
 11
75.9788
 21
-43.0087
  0
LINE
  8
0
 10
75.9788
 20
-43.0087
 11
76.0384
 21
-43.1978
  0
LINE
  8
0
 10
76.0384
 20
-43.1978
 11
76.0922
 21
-43.3893
  0
LINE
  8
0
 10
76.0922
 20
-43.3893
 11
76.1401
 21
-43.5833
  0
LINE
  8
0
 10
76.1401
 20
-43.5833
 11
76.1819
 21
-43.7796
  0
LINE
  8
0
 10
76.1819
 20
-43.7796
 11
76.2175
 21
-43.9781
  0
LINE
  8
0
 10
76.2175
 20
-43.9781
 11
76.2469
 21
-44.1787
  0
LINE
  8
0
 10
76.2469
 20
-44.1787
 11
76.27
 21
-44.3813
  0
LINE
  8
0
 10
76.27
 20
-44.3813
 11
76.2866
 21
-44.5858
  0
LINE
  8
0
 10
76.2866
 20
-44.5858
 11
76.2966
 21
-44.792
  0
LINE
  8
0
 10
76.2966
 20
-44.792
 11
76.3
 21
-45
  0
LINE
  8
0
 10
76.3
 20
-45
 11
76.2966
 21
-45.2079
  0
LINE
  8
0
 10
76.2966
 20
-45.2079
 11
76.2866
 21
-45.4142
  0
LINE
  8
0
 10
76.2866
 20
-45.4142
 11
76.27
 21
-45.6187
  0
LINE
  8
0
 10
76.27
 20
-45.6187
 11
76.2469
 21
-45.8213
  0
LINE
  8
0
 10
76.2469
 20
-45.8213
 11
76.2175
 21
-46.0219
  0
LINE
  8
0
 10
76.2175
 20
-46.0219
 11
76.1819
 21
-46.2204
  0
LINE
  8
0
 10
76.1819
 20
-46.2204
 11
76.1401
 21
-46.4167
  0
LINE
  8
0
 10
76.1401
 20
-46.4167
 11
76.0922
 21
-46.6106
  0
LINE
  8
0
 10
76.0922
 20
-46.6106
 11
76.0384
 21
-46.8022
  0
LINE
  8
0
 10
76.0384
 20
-46.8022
 11
75.9788
 21
-46.9913
  0
LINE
  8
0
 10
75.9788
 20
-46.9913
 11
75.9135
 21
-47.1777
  0
LINE
  8
0
 10
75.9135
 20
-47.1777
 11
75.8425
 21
-47.3614
  0
LINE
  8
0
 10
75.8425
 20
-47.3614
 11
75.766
 21
-47.5423
  0
LINE
  8
0
 10
75.766
 20
-47.5423
 11
75.6841
 21
-47.7203
  0
LINE
  8
0
 10
75.6841
 20
-47.7203
 11
75.5968
 21
-47.8952
  0
LINE
  8
0
 10
75.5968
 20
-47.8952
 11
75.5043
 21
-48.067
  0
LINE
  8
0
 10
75.5043
 20
-48.067
 11
75.4068
 21
-48.2355
  0
LINE
  8
0
 10
75.4068
 20
-48.2355
 11
75.3042
 21
-48.4007
  0
LINE
  8
0
 10
75.3042
 20
-48.4007
 11
75.1967
 21
-48.5625
  0
LINE
  8
0
 10
75.1967
 20
-48.5625
 11
75.0845
 21
-48.7207
  0
LINE
  8
0
 10
75.0845
 20
-48.7207
 11
74.9675
 21
-48.8752
  0
LINE
  8
0
 10
74.9675
 20
-48.8752
 11
74.8459
 21
-49.026
  0
LINE
  8
0
 10
74.8459
 20
-49.026
 11
74.7199
 21
-49.1729
  0
LINE
  8
0
 10
74.7199
 20
-49.1729
 11
74.5895
 21
-49.3159
  0
LINE
  8
0
 10
74.5895
 20
-49.3159
 11
74.4548
 21
-49.4548
  0
LINE
  8
0
 10
74.4548
 20
-49.4548
 11
74.3159
 21
-49.5895
  0
LINE
  8
0
 10
74.3159
 20
-49.5895
 11
74.1729
 21
-49.7199
  0
LINE
  8
0
 10
74.1729
 20
-49.7199
 11
74.026
 21
-49.8459
  0
LINE
  8
0
 10
74.026
 20
-49.8459
 11
73.8752
 21
-49.9675
  0
LINE
  8
0
 10
73.8752
 20
-49.9675
 11
73.7207
 21
-50.0844
  0
LINE
  8
0
 10
73.7207
 20
-50.0844
 11
73.5625
 21
-50.1967
  0
LINE
  8
0
 10
73.5625
 20
-50.1967
 11
73.4007
 21
-50.3042
  0
LINE
  8
0
 10
73.4007
 20
-50.3042
 11
73.2355
 21
-50.4068
  0
LINE
  8
0
 10
73.2355
 20
-50.4068
 11
73.067
 21
-50.5043
  0
LINE
  8
0
 10
73.067
 20
-50.5043
 11
72.8952
 21
-50.5968
  0
LINE
  8
0
 10
72.8952
 20
-50.5968
 11
72.7203
 21
-50.684
  0
LINE
  8
0
 10
72.7203
 20
-50.684
 11
72.5423
 21
-50.766
  0
LINE
  8
0
 10
72.5423
 20
-50.766
 11
72.3614
 21
-50.8425
  0
LINE
  8
0
 10
72.3614
 20
-50.8425
 11
72.1777
 21
-50.9135
  0
LINE
  8
0
 10
72.1777
 20
-50.9135
 11
71.9913
 21
-50.9788
  0
LINE
  8
0
 10
71.9913
 20
-50.9788
 11
71.8022
 21
-51.0384
  0
LINE
  8
0
 10
71.8022
 20
-51.0384
 11
71.6107
 21
-51.0922
  0
LINE
  8
0
 10
71.6107
 20
-51.0922
 11
71.4167
 21
-51.1401
  0
LINE
  8
0
 10
71.4167
 20
-51.1401
 11
71.2204
 21
-51.1819
  0
LINE
  8
0
 10
71.2204
 20
-51.1819
 11
71.0219
 21
-51.2175
  0
LINE
  8
0
 10
71.0219
 20
-51.2175
 11
70.8213
 21
-51.2469
  0
LINE
  8
0
 10
70.8213
 20
-51.2469
 11
70.6187
 21
-51.27
  0
LINE
  8
0
 10
70.6187
 20
-51.27
 11
70.4142
 21
-51.2866
  0
LINE
  8
0
 10
70.4142
 20
-51.2866
 11
70.208
 21
-51.2966
  0
LINE
  8
0
 10
70.208
 20
-51.2966
 11
70
 21
-51.3
  0
LINE
  8
0
 10
70
 20
-51.3
 11
69.792
 21
-51.2966
  0
LINE
  8
0
 10
29.8845
 20
-48.4981
 11
29.7699
 21
-48.4926
  0
LINE
  8
0
 10
29.7699
 20
-48.4926
 11
29.6563
 21
-48.4833
  0
LINE
  8
0
 10
29.6563
 20
-48.4833
 11
29.5437
 21
-48.4705
  0
LINE
  8
0
 10
29.5437
 20
-48.4705
 11
29.4323
 21
-48.4542
  0
LINE
  8
0
 10
29.4323
 20
-48.4542
 11
29.322
 21
-48.4344
  0
LINE
  8
0
 10
29.322
 20
-48.4344
 11
29.213
 21
-48.4111
  0
LINE
  8
0
 10
29.213
 20
-48.4111
 11
29.1052
 21
-48.3846
  0
LINE
  8
0
 10
29.1052
 20
-48.3846
 11
28.9987
 21
-48.3547
  0
LINE
  8
0
 10
28.9987
 20
-48.3547
 11
28.8937
 21
-48.3216
  0
LINE
  8
0
 10
28.8937
 20
-48.3216
 11
28.7901
 21
-48.2852
  0
LINE
  8
0
 10
28.7901
 20
-48.2852
 11
28.6881
 21
-48.2458
  0
LINE
  8
0
 10
28.6881
 20
-48.2458
 11
28.5876
 21
-48.2033
  0
LINE
  8
0
 10
28.5876
 20
-48.2033
 11
28.4887
 21
-48.1578
  0
LINE
  8
0
 10
28.4887
 20
-48.1578
 11
28.3915
 21
-48.1093
  0
LINE
  8
0
 10
28.3915
 20
-48.1093
 11
28.2961
 21
-48.058
  0
LINE
  8
0
 10
28.2961
 20
-48.058
 11
28.2025
 21
-48.0038
  0
LINE
  8
0
 10
28.2025
 20
-48.0038
 11
28.1107
 21
-47.9468
  0
LINE
  8
0
 10
28.1107
 20
-47.9468
 11
28.0208
 21
-47.8871
  0
LINE
  8
0
 10
28.0208
 20
-47.8871
 11
27.9329
 21
-47.8247
  0
LINE
  8
0
 10
27.9329
 20
-47.8247
 11
27.8471
 21
-47.7597
  0
LINE
  8
0
 10
27.8471
 20
-47.7597
 11
27.7633
 21
-47.6922
  0
LINE
  8
0
 10
27.7633
 20
-47.6922
 11
27.6817
 21
-47.6221
  0
LINE
  8
0
 10
27.6817
 20
-47.6221
 11
27.6023
 21
-47.5497
  0
LINE
  8
0
 10
27.6023
 20
-47.5497
 11
27.5251
 21
-47.4749
  0
LINE
  8
0
 10
27.5251
 20
-47.4749
 11
27.4503
 21
-47.3977
  0
LINE
  8
0
 10
27.4503
 20
-47.3977
 11
27.3778
 21
-47.3183
  0
LINE
  8
0
 10
27.3778
 20
-47.3183
 11
27.3078
 21
-47.2367
  0
LINE
  8
0
 10
27.3078
 20
-47.2367
 11
27.2403
 21
-47.1529
  0
LINE
  8
0
 10
27.2403
 20
-47.1529
 11
27.1753
 21
-47.067
  0
LINE
  8
0
 10
27.1753
 20
-47.067
 11
27.1129
 21
-46.9792
  0
LINE
  8
0
 10
27.1129
 20
-46.9792
 11
27.0532
 21
-46.8893
  0
LINE
  8
0
 10
27.0532
 20
-46.8893
 11
26.9962
 21
-46.7975
  0
LINE
  8
0
 10
26.9962
 20
-46.7975
 11
26.942
 21
-46.7039
  0
LINE
  8
0
 10
26.942
 20
-46.7039
 11
26.8907
 21
-46.6084
  0
LINE
  8
0
 10
26.8907
 20
-46.6084
 11
26.8422
 21
-46.5113
  0
LINE
  8
0
 10
26.8422
 20
-46.5113
 11
26.7967
 21
-46.4124
  0
LINE
  8
0
 10
26.7967
 20
-46.4124
 11
26.7542
 21
-46.3119
  0
LINE
  8
0
 10
26.7542
 20
-46.3119
 11
26.7147
 21
-46.2098
  0
LINE
  8
0
 10
26.7147
 20
-46.2098
 11
26.6784
 21
-46.1063
  0
LINE
  8
0
 10
26.6784
 20
-46.1063
 11
26.6453
 21
-46.0012
  0
LINE
  8
0
 10
26.6453
 20
-46.0012
 11
26.6154
 21
-45.8948
  0
LINE
  8
0
 10
26.6154
 20
-45.8948
 11
26.5888
 21
-45.787
  0
LINE
  8
0
 10
26.5888
 20
-45.787
 11
26.5656
 21
-45.678
  0
LINE
  8
0
 10
26.5656
 20
-45.678
 11
26.5458
 21
-45.5677
  0
LINE
  8
0
 10
26.5458
 20
-45.5677
 11
26.5295
 21
-45.4563
  0
LINE
  8
0
 10
26.5295
 20
-45.4563
 11
26.5167
 21
-45.3437
  0
LINE
  8
0
 10
26.5167
 20
-45.3437
 11
26.5074
 21
-45.2301
  0
LINE
  8
0
 10
26.5074
 20
-45.2301
 11
26.5019
 21
-45.1155
  0
LINE
  8
0
 10
26.5019
 20
-45.1155
 11
26.5
 21
-45
  0
LINE
  8
0
 10
26.5
 20
-45
 11
26.5019
 21
-44.8845
  0
LINE
  8
0
 10
26.5019
 20
-44.8845
 11
26.5074
 21
-44.7699
  0
LINE
  8
0
 10
26.5074
 20
-44.7699
 11
26.5167
 21
-44.6563
  0
LINE
  8
0
 10
26.5167
 20
-44.6563
 11
26.5295
 21
-44.5437
  0
LINE
  8
0
 10
26.5295
 20
-44.5437
 11
26.5458
 21
-44.4323
  0
LINE
  8
0
 10
26.5458
 20
-44.4323
 11
26.5656
 21
-44.322
  0
LINE
  8
0
 10
26.5656
 20
-44.322
 11
26.5888
 21
-44.213
  0
LINE
  8
0
 10
26.5888
 20
-44.213
 11
26.6154
 21
-44.1052
  0
LINE
  8
0
 10
26.6154
 20
-44.1052
 11
26.6453
 21
-43.9987
  0
LINE
  8
0
 10
26.6453
 20
-43.9987
 11
26.6784
 21
-43.8937
  0
LINE
  8
0
 10
26.6784
 20
-43.8937
 11
26.7147
 21
-43.7901
  0
LINE
  8
0
 10
26.7147
 20
-43.7901
 11
26.7542
 21
-43.6881
  0
LINE
  8
0
 10
26.7542
 20
-43.6881
 11
26.7967
 21
-43.5876
  0
LINE
  8
0
 10
26.7967
 20
-43.5876
 11
26.8422
 21
-43.4887
  0
LINE
  8
0
 10
26.8422
 20
-43.4887
 11
26.8907
 21
-43.3915
  0
LINE
  8
0
 10
26.8907
 20
-43.3915
 11
26.942
 21
-43.2961
  0
LINE
  8
0
 10
26.942
 20
-43.2961
 11
26.9962
 21
-43.2025
  0
LINE
  8
0
 10
26.9962
 20
-43.2025
 11
27.0532
 21
-43.1107
  0
LINE
  8
0
 10
27.0532
 20
-43.1107
 11
27.1129
 21
-43.0208
  0
LINE
  8
0
 10
27.1129
 20
-43.0208
 11
27.1753
 21
-42.9329
  0
LINE
  8
0
 10
27.1753
 20
-42.9329
 11
27.2403
 21
-42.8471
  0
LINE
  8
0
 10
27.2403
 20
-42.8471
 11
27.3078
 21
-42.7633
  0
LINE
  8
0
 10
27.3078
 20
-42.7633
 11
27.3778
 21
-42.6817
  0
LINE
  8
0
 10
27.3778
 20
-42.6817
 11
27.4503
 21
-42.6023
  0
LINE
  8
0
 10
27.4503
 20
-42.6023
 11
27.5251
 21
-42.5251
  0
LINE
  8
0
 10
27.5251
 20
-42.5251
 11
27.6023
 21
-42.4503
  0
LINE
  8
0
 10
27.6023
 20
-42.4503
 11
27.6817
 21
-42.3778
  0
LINE
  8
0
 10
27.6817
 20
-42.3778
 11
27.7633
 21
-42.3078
  0
LINE
  8
0
 10
27.7633
 20
-42.3078
 11
27.8471
 21
-42.2403
  0
LINE
  8
0
 10
27.8471
 20
-42.2403
 11
27.9329
 21
-42.1753
  0
LINE
  8
0
 10
27.9329
 20
-42.1753
 11
28.0208
 21
-42.1129
  0
LINE
  8
0
 10
28.0208
 20
-42.1129
 11
28.1107
 21
-42.0532
  0
LINE
  8
0
 10
28.1107
 20
-42.0532
 11
28.2025
 21
-41.9962
  0
LINE
  8
0
 10
28.2025
 20
-41.9962
 11
28.2961
 21
-41.942
  0
LINE
  8
0
 10
28.2961
 20
-41.942
 11
28.3915
 21
-41.8907
  0
LINE
  8
0
 10
28.3915
 20
-41.8907
 11
28.4887
 21
-41.8422
  0
LINE
  8
0
 10
28.4887
 20
-41.8422
 11
28.5876
 21
-41.7967
  0
LINE
  8
0
 10
28.5876
 20
-41.7967
 11
28.6881
 21
-41.7542
  0
LINE
  8
0
 10
28.6881
 20
-41.7542
 11
28.7901
 21
-41.7147
  0
LINE
  8
0
 10
28.7901
 20
-41.7147
 11
28.8937
 21
-41.6784
  0
LINE
  8
0
 10
28.8937
 20
-41.6784
 11
28.9987
 21
-41.6453
  0
LINE
  8
0
 10
28.9987
 20
-41.6453
 11
29.1052
 21
-41.6154
  0
LINE
  8
0
 10
29.1052
 20
-41.6154
 11
29.213
 21
-41.5888
  0
LINE
  8
0
 10
29.213
 20
-41.5888
 11
29.322
 21
-41.5656
  0
LINE
  8
0
 10
29.322
 20
-41.5656
 11
29.4323
 21
-41.5458
  0
LINE
  8
0
 10
29.4323
 20
-41.5458
 11
29.5437
 21
-41.5294
  0
LINE
  8
0
 10
29.5437
 20
-41.5294
 11
29.6563
 21
-41.5166
  0
LINE
  8
0
 10
29.6563
 20
-41.5166
 11
29.7699
 21
-41.5074
  0
LINE
  8
0
 10
29.7699
 20
-41.5074
 11
29.8845
 21
-41.5018
  0
LINE
  8
0
 10
29.8845
 20
-41.5018
 11
30
 21
-41.5
  0
LINE
  8
0
 10
30
 20
-41.5
 11
30.1155
 21
-41.5019
  0
LINE
  8
0
 10
30.1155
 20
-41.5019
 11
30.2301
 21
-41.5074
  0
LINE
  8
0
 10
30.2301
 20
-41.5074
 11
30.3437
 21
-41.5166
  0
LINE
  8
0
 10
30.3437
 20
-41.5166
 11
30.4563
 21
-41.5295
  0
LINE
  8
0
 10
30.4563
 20
-41.5295
 11
30.5677
 21
-41.5458
  0
LINE
  8
0
 10
30.5677
 20
-41.5458
 11
30.678
 21
-41.5656
  0
LINE
  8
0
 10
30.678
 20
-41.5656
 11
30.787
 21
-41.5888
  0
LINE
  8
0
 10
30.787
 20
-41.5888
 11
30.8948
 21
-41.6154
  0
LINE
  8
0
 10
30.8948
 20
-41.6154
 11
31.0012
 21
-41.6453
  0
LINE
  8
0
 10
31.0012
 20
-41.6453
 11
31.1063
 21
-41.6784
  0
LINE
  8
0
 10
31.1063
 20
-41.6784
 11
31.2098
 21
-41.7147
  0
LINE
  8
0
 10
31.2098
 20
-41.7147
 11
31.3119
 21
-41.7542
  0
LINE
  8
0
 10
31.3119
 20
-41.7542
 11
31.4124
 21
-41.7967
  0
LINE
  8
0
 10
31.4124
 20
-41.7967
 11
31.5113
 21
-41.8422
  0
LINE
  8
0
 10
31.5113
 20
-41.8422
 11
31.6084
 21
-41.8907
  0
LINE
  8
0
 10
31.6084
 20
-41.8907
 11
31.7039
 21
-41.942
  0
LINE
  8
0
 10
31.7039
 20
-41.942
 11
31.7975
 21
-41.9962
  0
LINE
  8
0
 10
31.7975
 20
-41.9962
 11
31.8893
 21
-42.0532
  0
LINE
  8
0
 10
31.8893
 20
-42.0532
 11
31.9792
 21
-42.1129
  0
LINE
  8
0
 10
31.9792
 20
-42.1129
 11
32.067
 21
-42.1753
  0
LINE
  8
0
 10
32.067
 20
-42.1753
 11
32.1529
 21
-42.2403
  0
LINE
  8
0
 10
32.1529
 20
-42.2403
 11
32.2367
 21
-42.3078
  0
LINE
  8
0
 10
32.2367
 20
-42.3078
 11
32.3183
 21
-42.3778
  0
LINE
  8
0
 10
32.3183
 20
-42.3778
 11
32.3977
 21
-42.4503
  0
LINE
  8
0
 10
32.3977
 20
-42.4503
 11
32.4749
 21
-42.5251
  0
LINE
  8
0
 10
32.4749
 20
-42.5251
 11
32.5497
 21
-42.6023
  0
LINE
  8
0
 10
32.5497
 20
-42.6023
 11
32.6222
 21
-42.6817
  0
LINE
  8
0
 10
32.6222
 20
-42.6817
 11
32.6922
 21
-42.7633
  0
LINE
  8
0
 10
32.6922
 20
-42.7633
 11
32.7597
 21
-42.8471
  0
LINE
  8
0
 10
32.7597
 20
-42.8471
 11
32.8247
 21
-42.9329
  0
LINE
  8
0
 10
32.8247
 20
-42.9329
 11
32.8871
 21
-43.0208
  0
LINE
  8
0
 10
32.8871
 20
-43.0208
 11
32.9468
 21
-43.1107
  0
LINE
  8
0
 10
32.9468
 20
-43.1107
 11
33.0038
 21
-43.2025
  0
LINE
  8
0
 10
33.0038
 20
-43.2025
 11
33.058
 21
-43.2961
  0
LINE
  8
0
 10
33.058
 20
-43.2961
 11
33.1093
 21
-43.3915
  0
LINE
  8
0
 10
33.1093
 20
-43.3915
 11
33.1578
 21
-43.4887
  0
LINE
  8
0
 10
33.1578
 20
-43.4887
 11
33.2033
 21
-43.5876
  0
LINE
  8
0
 10
33.2033
 20
-43.5876
 11
33.2458
 21
-43.6881
  0
LINE
  8
0
 10
33.2458
 20
-43.6881
 11
33.2852
 21
-43.7901
  0
LINE
  8
0
 10
33.2852
 20
-43.7901
 11
33.3216
 21
-43.8937
  0
LINE
  8
0
 10
33.3216
 20
-43.8937
 11
33.3547
 21
-43.9987
  0
LINE
  8
0
 10
33.3547
 20
-43.9987
 11
33.3846
 21
-44.1052
  0
LINE
  8
0
 10
33.3846
 20
-44.1052
 11
33.4111
 21
-44.213
  0
LINE
  8
0
 10
33.4111
 20
-44.213
 11
33.4344
 21
-44.322
  0
LINE
  8
0
 10
33.4344
 20
-44.322
 11
33.4542
 21
-44.4323
  0
LINE
  8
0
 10
33.4542
 20
-44.4323
 11
33.4705
 21
-44.5437
  0
LINE
  8
0
 10
33.4705
 20
-44.5437
 11
33.4833
 21
-44.6563
  0
LINE
  8
0
 10
33.4833
 20
-44.6563
 11
33.4926
 21
-44.7699
  0
LINE
  8
0
 10
33.4926
 20
-44.7699
 11
33.4981
 21
-44.8845
  0
LINE
  8
0
 10
33.4981
 20
-44.8845
 11
33.5
 21
-45
  0
LINE
  8
0
 10
33.5
 20
-45
 11
33.4981
 21
-45.1155
  0
LINE
  8
0
 10
33.4981
 20
-45.1155
 11
33.4926
 21
-45.2301
  0
LINE
  8
0
 10
33.4926
 20
-45.2301
 11
33.4833
 21
-45.3437
  0
LINE
  8
0
 10
33.4833
 20
-45.3437
 11
33.4705
 21
-45.4563
  0
LINE
  8
0
 10
33.4705
 20
-45.4563
 11
33.4542
 21
-45.5677
  0
LINE
  8
0
 10
33.4542
 20
-45.5677
 11
33.4344
 21
-45.678
  0
LINE
  8
0
 10
33.4344
 20
-45.678
 11
33.4111
 21
-45.787
  0
LINE
  8
0
 10
33.4111
 20
-45.787
 11
33.3846
 21
-45.8948
  0
LINE
  8
0
 10
33.3846
 20
-45.8948
 11
33.3547
 21
-46.0012
  0
LINE
  8
0
 10
33.3547
 20
-46.0012
 11
33.3216
 21
-46.1063
  0
LINE
  8
0
 10
33.3216
 20
-46.1063
 11
33.2852
 21
-46.2098
  0
LINE
  8
0
 10
33.2852
 20
-46.2098
 11
33.2458
 21
-46.3119
  0
LINE
  8
0
 10
33.2458
 20
-46.3119
 11
33.2033
 21
-46.4124
  0
LINE
  8
0
 10
33.2033
 20
-46.4124
 11
33.1578
 21
-46.5113
  0
LINE
  8
0
 10
33.1578
 20
-46.5113
 11
33.1093
 21
-46.6084
  0
LINE
  8
0
 10
33.1093
 20
-46.6084
 11
33.058
 21
-46.7039
  0
LINE
  8
0
 10
33.058
 20
-46.7039
 11
33.0038
 21
-46.7975
  0
LINE
  8
0
 10
33.0038
 20
-46.7975
 11
32.9468
 21
-46.8893
  0
LINE
  8
0
 10
32.9468
 20
-46.8893
 11
32.8871
 21
-46.9792
  0
LINE
  8
0
 10
32.8871
 20
-46.9792
 11
32.8247
 21
-47.067
  0
LINE
  8
0
 10
32.8247
 20
-47.067
 11
32.7597
 21
-47.1529
  0
LINE
  8
0
 10
32.7597
 20
-47.1529
 11
32.6922
 21
-47.2367
  0
LINE
  8
0
 10
32.6922
 20
-47.2367
 11
32.6222
 21
-47.3183
  0
LINE
  8
0
 10
32.6222
 20
-47.3183
 11
32.5497
 21
-47.3977
  0
LINE
  8
0
 10
32.5497
 20
-47.3977
 11
32.4749
 21
-47.4749
  0
LINE
  8
0
 10
32.4749
 20
-47.4749
 11
32.3977
 21
-47.5497
  0
LINE
  8
0
 10
32.3977
 20
-47.5497
 11
32.3183
 21
-47.6222
  0
LINE
  8
0
 10
32.3183
 20
-47.6222
 11
32.2367
 21
-47.6922
  0
LINE
  8
0
 10
32.2367
 20
-47.6922
 11
32.1529
 21
-47.7597
  0
LINE
  8
0
 10
32.1529
 20
-47.7597
 11
32.067
 21
-47.8247
  0
LINE
  8
0
 10
32.067
 20
-47.8247
 11
31.9792
 21
-47.8871
  0
LINE
  8
0
 10
31.9792
 20
-47.8871
 11
31.8893
 21
-47.9468
  0
LINE
  8
0
 10
31.8893
 20
-47.9468
 11
31.7975
 21
-48.0038
  0
LINE
  8
0
 10
31.7975
 20
-48.0038
 11
31.7039
 21
-48.058
  0
LINE
  8
0
 10
31.7039
 20
-48.058
 11
31.6084
 21
-48.1093
  0
LINE
  8
0
 10
31.6084
 20
-48.1093
 11
31.5113
 21
-48.1578
  0
LINE
  8
0
 10
31.5113
 20
-48.1578
 11
31.4124
 21
-48.2033
  0
LINE
  8
0
 10
31.4124
 20
-48.2033
 11
31.3119
 21
-48.2458
  0
LINE
  8
0
 10
31.3119
 20
-48.2458
 11
31.2098
 21
-48.2853
  0
LINE
  8
0
 10
31.2098
 20
-48.2853
 11
31.1063
 21
-48.3216
  0
LINE
  8
0
 10
31.1063
 20
-48.3216
 11
31.0012
 21
-48.3547
  0
LINE
  8
0
 10
31.0012
 20
-48.3547
 11
30.8948
 21
-48.3846
  0
LINE
  8
0
 10
30.8948
 20
-48.3846
 11
30.787
 21
-48.4111
  0
LINE
  8
0
 10
30.787
 20
-48.4111
 11
30.678
 21
-48.4344
  0
LINE
  8
0
 10
30.678
 20
-48.4344
 11
30.5677
 21
-48.4542
  0
LINE
  8
0
 10
30.5677
 20
-48.4542
 11
30.4563
 21
-48.4705
  0
LINE
  8
0
 10
30.4563
 20
-48.4705
 11
30.3437
 21
-48.4833
  0
LINE
  8
0
 10
30.3437
 20
-48.4833
 11
30.2301
 21
-48.4926
  0
LINE
  8
0
 10
30.2301
 20
-48.4926
 11
30.1155
 21
-48.4981
  0
LINE
  8
0
 10
30.1155
 20
-48.4981
 11
30
 21
-48.5
  0
LINE
  8
0
 10
30
 20
-48.5
 11
29.8845
 21
-48.4981
  0
LINE
  8
0
 10
-30.1155
 20
-48.4981
 11
-30.2301
 21
-48.4926
  0
LINE
  8
0
 10
-30.2301
 20
-48.4926
 11
-30.3437
 21
-48.4833
  0
LINE
  8
0
 10
-30.3437
 20
-48.4833
 11
-30.4563
 21
-48.4705
  0
LINE
  8
0
 10
-30.4563
 20
-48.4705
 11
-30.5677
 21
-48.4542
  0
LINE
  8
0
 10
-30.5677
 20
-48.4542
 11
-30.678
 21
-48.4344
  0
LINE
  8
0
 10
-30.678
 20
-48.4344
 11
-30.787
 21
-48.4111
  0
LINE
  8
0
 10
-30.787
 20
-48.4111
 11
-30.8948
 21
-48.3846
  0
LINE
  8
0
 10
-30.8948
 20
-48.3846
 11
-31.0012
 21
-48.3547
  0
LINE
  8
0
 10
-31.0012
 20
-48.3547
 11
-31.1063
 21
-48.3216
  0
LINE
  8
0
 10
-31.1063
 20
-48.3216
 11
-31.2098
 21
-48.2852
  0
LINE
  8
0
 10
-31.2098
 20
-48.2852
 11
-31.3119
 21
-48.2458
  0
LINE
  8
0
 10
-31.3119
 20
-48.2458
 11
-31.4124
 21
-48.2033
  0
LINE
  8
0
 10
-31.4124
 20
-48.2033
 11
-31.5113
 21
-48.1578
  0
LINE
  8
0
 10
-31.5113
 20
-48.1578
 11
-31.6084
 21
-48.1093
  0
LINE
  8
0
 10
-31.6084
 20
-48.1093
 11
-31.7039
 21
-48.058
  0
LINE
  8
0
 10
-31.7039
 20
-48.058
 11
-31.7975
 21
-48.0038
  0
LINE
  8
0
 10
-31.7975
 20
-48.0038
 11
-31.8893
 21
-47.9468
  0
LINE
  8
0
 10
-31.8893
 20
-47.9468
 11
-31.9792
 21
-47.8871
  0
LINE
  8
0
 10
-31.9792
 20
-47.8871
 11
-32.067
 21
-47.8247
  0
LINE
  8
0
 10
-32.067
 20
-47.8247
 11
-32.1529
 21
-47.7597
  0
LINE
  8
0
 10
-32.1529
 20
-47.7597
 11
-32.2367
 21
-47.6922
  0
LINE
  8
0
 10
-32.2367
 20
-47.6922
 11
-32.3183
 21
-47.6221
  0
LINE
  8
0
 10
-32.3183
 20
-47.6221
 11
-32.3977
 21
-47.5497
  0
LINE
  8
0
 10
-32.3977
 20
-47.5497
 11
-32.4749
 21
-47.4749
  0
LINE
  8
0
 10
-32.4749
 20
-47.4749
 11
-32.5497
 21
-47.3977
  0
LINE
  8
0
 10
-32.5497
 20
-47.3977
 11
-32.6222
 21
-47.3183
  0
LINE
  8
0
 10
-32.6222
 20
-47.3183
 11
-32.6922
 21
-47.2367
  0
LINE
  8
0
 10
-32.6922
 20
-47.2367
 11
-32.7597
 21
-47.1529
  0
LINE
  8
0
 10
-32.7597
 20
-47.1529
 11
-32.8247
 21
-47.067
  0
LINE
  8
0
 10
-32.8247
 20
-47.067
 11
-32.8871
 21
-46.9792
  0
LINE
  8
0
 10
-32.8871
 20
-46.9792
 11
-32.9468
 21
-46.8893
  0
LINE
  8
0
 10
-32.9468
 20
-46.8893
 11
-33.0038
 21
-46.7975
  0
LINE
  8
0
 10
-33.0038
 20
-46.7975
 11
-33.058
 21
-46.7039
  0
LINE
  8
0
 10
-33.058
 20
-46.7039
 11
-33.1093
 21
-46.6084
  0
LINE
  8
0
 10
-33.1093
 20
-46.6084
 11
-33.1578
 21
-46.5113
  0
LINE
  8
0
 10
-33.1578
 20
-46.5113
 11
-33.2033
 21
-46.4124
  0
LINE
  8
0
 10
-33.2033
 20
-46.4124
 11
-33.2458
 21
-46.3119
  0
LINE
  8
0
 10
-33.2458
 20
-46.3119
 11
-33.2852
 21
-46.2098
  0
LINE
  8
0
 10
-33.2852
 20
-46.2098
 11
-33.3216
 21
-46.1063
  0
LINE
  8
0
 10
-33.3216
 20
-46.1063
 11
-33.3547
 21
-46.0012
  0
LINE
  8
0
 10
-33.3547
 20
-46.0012
 11
-33.3846
 21
-45.8948
  0
LINE
  8
0
 10
-33.3846
 20
-45.8948
 11
-33.4111
 21
-45.787
  0
LINE
  8
0
 10
-33.4111
 20
-45.787
 11
-33.4344
 21
-45.678
  0
LINE
  8
0
 10
-33.4344
 20
-45.678
 11
-33.4542
 21
-45.5677
  0
LINE
  8
0
 10
-33.4542
 20
-45.5677
 11
-33.4705
 21
-45.4563
  0
LINE
  8
0
 10
-33.4705
 20
-45.4563
 11
-33.4833
 21
-45.3437
  0
LINE
  8
0
 10
-33.4833
 20
-45.3437
 11
-33.4926
 21
-45.2301
  0
LINE
  8
0
 10
-33.4926
 20
-45.2301
 11
-33.4981
 21
-45.1155
  0
LINE
  8
0
 10
-33.4981
 20
-45.1155
 11
-33.5
 21
-45
  0
LINE
  8
0
 10
-33.5
 20
-45
 11
-33.4981
 21
-44.8845
  0
LINE
  8
0
 10
-33.4981
 20
-44.8845
 11
-33.4926
 21
-44.7699
  0
LINE
  8
0
 10
-33.4926
 20
-44.7699
 11
-33.4833
 21
-44.6563
  0
LINE
  8
0
 10
-33.4833
 20
-44.6563
 11
-33.4705
 21
-44.5437
  0
LINE
  8
0
 10
-33.4705
 20
-44.5437
 11
-33.4542
 21
-44.4323
  0
LINE
  8
0
 10
-33.4542
 20
-44.4323
 11
-33.4344
 21
-44.322
  0
LINE
  8
0
 10
-33.4344
 20
-44.322
 11
-33.4111
 21
-44.213
  0
LINE
  8
0
 10
-33.4111
 20
-44.213
 11
-33.3846
 21
-44.1052
  0
LINE
  8
0
 10
-33.3846
 20
-44.1052
 11
-33.3547
 21
-43.9987
  0
LINE
  8
0
 10
-33.3547
 20
-43.9987
 11
-33.3216
 21
-43.8937
  0
LINE
  8
0
 10
-33.3216
 20
-43.8937
 11
-33.2852
 21
-43.7901
  0
LINE
  8
0
 10
-33.2852
 20
-43.7901
 11
-33.2458
 21
-43.6881
  0
LINE
  8
0
 10
-33.2458
 20
-43.6881
 11
-33.2033
 21
-43.5876
  0
LINE
  8
0
 10
-33.2033
 20
-43.5876
 11
-33.1578
 21
-43.4887
  0
LINE
  8
0
 10
-33.1578
 20
-43.4887
 11
-33.1093
 21
-43.3915
  0
LINE
  8
0
 10
-33.1093
 20
-43.3915
 11
-33.058
 21
-43.2961
  0
LINE
  8
0
 10
-33.058
 20
-43.2961
 11
-33.0038
 21
-43.2025
  0
LINE
  8
0
 10
-33.0038
 20
-43.2025
 11
-32.9468
 21
-43.1107
  0
LINE
  8
0
 10
-32.9468
 20
-43.1107
 11
-32.8871
 21
-43.0208
  0
LINE
  8
0
 10
-32.8871
 20
-43.0208
 11
-32.8247
 21
-42.9329
  0
LINE
  8
0
 10
-32.8247
 20
-42.9329
 11
-32.7597
 21
-42.8471
  0
LINE
  8
0
 10
-32.7597
 20
-42.8471
 11
-32.6922
 21
-42.7633
  0
LINE
  8
0
 10
-32.6922
 20
-42.7633
 11
-32.6222
 21
-42.6817
  0
LINE
  8
0
 10
-32.6222
 20
-42.6817
 11
-32.5497
 21
-42.6023
  0
LINE
  8
0
 10
-32.5497
 20
-42.6023
 11
-32.4749
 21
-42.5251
  0
LINE
  8
0
 10
-32.4749
 20
-42.5251
 11
-32.3977
 21
-42.4503
  0
LINE
  8
0
 10
-32.3977
 20
-42.4503
 11
-32.3183
 21
-42.3778
  0
LINE
  8
0
 10
-32.3183
 20
-42.3778
 11
-32.2367
 21
-42.3078
  0
LINE
  8
0
 10
-32.2367
 20
-42.3078
 11
-32.1529
 21
-42.2403
  0
LINE
  8
0
 10
-32.1529
 20
-42.2403
 11
-32.067
 21
-42.1753
  0
LINE
  8
0
 10
-32.067
 20
-42.1753
 11
-31.9792
 21
-42.1129
  0
LINE
  8
0
 10
-31.9792
 20
-42.1129
 11
-31.8893
 21
-42.0532
  0
LINE
  8
0
 10
-31.8893
 20
-42.0532
 11
-31.7975
 21
-41.9962
  0
LINE
  8
0
 10
-31.7975
 20
-41.9962
 11
-31.7039
 21
-41.942
  0
LINE
  8
0
 10
-31.7039
 20
-41.942
 11
-31.6084
 21
-41.8907
  0
LINE
  8
0
 10
-31.6084
 20
-41.8907
 11
-31.5113
 21
-41.8422
  0
LINE
  8
0
 10
-31.5113
 20
-41.8422
 11
-31.4124
 21
-41.7967
  0
LINE
  8
0
 10
-31.4124
 20
-41.7967
 11
-31.3119
 21
-41.7542
  0
LINE
  8
0
 10
-31.3119
 20
-41.7542
 11
-31.2098
 21
-41.7147
  0
LINE
  8
0
 10
-31.2098
 20
-41.7147
 11
-31.1063
 21
-41.6784
  0
LINE
  8
0
 10
-31.1063
 20
-41.6784
 11
-31.0012
 21
-41.6453
  0
LINE
  8
0
 10
-31.0012
 20
-41.6453
 11
-30.8948
 21
-41.6154
  0
LINE
  8
0
 10
-30.8948
 20
-41.6154
 11
-30.787
 21
-41.5888
  0
LINE
  8
0
 10
-30.787
 20
-41.5888
 11
-30.678
 21
-41.5656
  0
LINE
  8
0
 10
-30.678
 20
-41.5656
 11
-30.5677
 21
-41.5458
  0
LINE
  8
0
 10
-30.5677
 20
-41.5458
 11
-30.4563
 21
-41.5294
  0
LINE
  8
0
 10
-30.4563
 20
-41.5294
 11
-30.3437
 21
-41.5166
  0
LINE
  8
0
 10
-30.3437
 20
-41.5166
 11
-30.2301
 21
-41.5074
  0
LINE
  8
0
 10
-30.2301
 20
-41.5074
 11
-30.1155
 21
-41.5018
  0
LINE
  8
0
 10
-30.1155
 20
-41.5018
 11
-30
 21
-41.5
  0
LINE
  8
0
 10
-30
 20
-41.5
 11
-29.8845
 21
-41.5019
  0
LINE
  8
0
 10
-29.8845
 20
-41.5019
 11
-29.7699
 21
-41.5074
  0
LINE
  8
0
 10
-29.7699
 20
-41.5074
 11
-29.6563
 21
-41.5166
  0
LINE
  8
0
 10
-29.6563
 20
-41.5166
 11
-29.5437
 21
-41.5295
  0
LINE
  8
0
 10
-29.5437
 20
-41.5295
 11
-29.4323
 21
-41.5458
  0
LINE
  8
0
 10
-29.4323
 20
-41.5458
 11
-29.322
 21
-41.5656
  0
LINE
  8
0
 10
-29.322
 20
-41.5656
 11
-29.213
 21
-41.5888
  0
LINE
  8
0
 10
-29.213
 20
-41.5888
 11
-29.1052
 21
-41.6154
  0
LINE
  8
0
 10
-29.1052
 20
-41.6154
 11
-28.9987
 21
-41.6453
  0
LINE
  8
0
 10
-28.9987
 20
-41.6453
 11
-28.8937
 21
-41.6784
  0
LINE
  8
0
 10
-28.8937
 20
-41.6784
 11
-28.7901
 21
-41.7147
  0
LINE
  8
0
 10
-28.7901
 20
-41.7147
 11
-28.6881
 21
-41.7542
  0
LINE
  8
0
 10
-28.6881
 20
-41.7542
 11
-28.5876
 21
-41.7967
  0
LINE
  8
0
 10
-28.5876
 20
-41.7967
 11
-28.4887
 21
-41.8422
  0
LINE
  8
0
 10
-28.4887
 20
-41.8422
 11
-28.3915
 21
-41.8907
  0
LINE
  8
0
 10
-28.3915
 20
-41.8907
 11
-28.2961
 21
-41.942
  0
LINE
  8
0
 10
-28.2961
 20
-41.942
 11
-28.2025
 21
-41.9962
  0
LINE
  8
0
 10
-28.2025
 20
-41.9962
 11
-28.1107
 21
-42.0532
  0
LINE
  8
0
 10
-28.1107
 20
-42.0532
 11
-28.0208
 21
-42.1129
  0
LINE
  8
0
 10
-28.0208
 20
-42.1129
 11
-27.9329
 21
-42.1753
  0
LINE
  8
0
 10
-27.9329
 20
-42.1753
 11
-27.8471
 21
-42.2403
  0
LINE
  8
0
 10
-27.8471
 20
-42.2403
 11
-27.7633
 21
-42.3078
  0
LINE
  8
0
 10
-27.7633
 20
-42.3078
 11
-27.6817
 21
-42.3778
  0
LINE
  8
0
 10
-27.6817
 20
-42.3778
 11
-27.6023
 21
-42.4503
  0
LINE
  8
0
 10
-27.6023
 20
-42.4503
 11
-27.5251
 21
-42.5251
  0
LINE
  8
0
 10
-27.5251
 20
-42.5251
 11
-27.4503
 21
-42.6023
  0
LINE
  8
0
 10
-27.4503
 20
-42.6023
 11
-27.3778
 21
-42.6817
  0
LINE
  8
0
 10
-27.3778
 20
-42.6817
 11
-27.3078
 21
-42.7633
  0
LINE
  8
0
 10
-27.3078
 20
-42.7633
 11
-27.2403
 21
-42.8471
  0
LINE
  8
0
 10
-27.2403
 20
-42.8471
 11
-27.1753
 21
-42.9329
  0
LINE
  8
0
 10
-27.1753
 20
-42.9329
 11
-27.1129
 21
-43.0208
  0
LINE
  8
0
 10
-27.1129
 20
-43.0208
 11
-27.0532
 21
-43.1107
  0
LINE
  8
0
 10
-27.0532
 20
-43.1107
 11
-26.9962
 21
-43.2025
  0
LINE
  8
0
 10
-26.9962
 20
-43.2025
 11
-26.942
 21
-43.2961
  0
LINE
  8
0
 10
-26.942
 20
-43.2961
 11
-26.8907
 21
-43.3915
  0
LINE
  8
0
 10
-26.8907
 20
-43.3915
 11
-26.8422
 21
-43.4887
  0
LINE
  8
0
 10
-26.8422
 20
-43.4887
 11
-26.7967
 21
-43.5876
  0
LINE
  8
0
 10
-26.7967
 20
-43.5876
 11
-26.7542
 21
-43.6881
  0
LINE
  8
0
 10
-26.7542
 20
-43.6881
 11
-26.7147
 21
-43.7901
  0
LINE
  8
0
 10
-26.7147
 20
-43.7901
 11
-26.6784
 21
-43.8937
  0
LINE
  8
0
 10
-26.6784
 20
-43.8937
 11
-26.6453
 21
-43.9987
  0
LINE
  8
0
 10
-26.6453
 20
-43.9987
 11
-26.6154
 21
-44.1052
  0
LINE
  8
0
 10
-26.6154
 20
-44.1052
 11
-26.5888
 21
-44.213
  0
LINE
  8
0
 10
-26.5888
 20
-44.213
 11
-26.5656
 21
-44.322
  0
LINE
  8
0
 10
-26.5656
 20
-44.322
 11
-26.5458
 21
-44.4323
  0
LINE
  8
0
 10
-26.5458
 20
-44.4323
 11
-26.5295
 21
-44.5437
  0
LINE
  8
0
 10
-26.5295
 20
-44.5437
 11
-26.5167
 21
-44.6563
  0
LINE
  8
0
 10
-26.5167
 20
-44.6563
 11
-26.5074
 21
-44.7699
  0
LINE
  8
0
 10
-26.5074
 20
-44.7699
 11
-26.5019
 21
-44.8845
  0
LINE
  8
0
 10
-26.5019
 20
-44.8845
 11
-26.5
 21
-45
  0
LINE
  8
0
 10
-26.5
 20
-45
 11
-26.5019
 21
-45.1155
  0
LINE
  8
0
 10
-26.5019
 20
-45.1155
 11
-26.5074
 21
-45.2301
  0
LINE
  8
0
 10
-26.5074
 20
-45.2301
 11
-26.5167
 21
-45.3437
  0
LINE
  8
0
 10
-26.5167
 20
-45.3437
 11
-26.5295
 21
-45.4563
  0
LINE
  8
0
 10
-26.5295
 20
-45.4563
 11
-26.5458
 21
-45.5677
  0
LINE
  8
0
 10
-26.5458
 20
-45.5677
 11
-26.5656
 21
-45.678
  0
LINE
  8
0
 10
-26.5656
 20
-45.678
 11
-26.5888
 21
-45.787
  0
LINE
  8
0
 10
-26.5888
 20
-45.787
 11
-26.6154
 21
-45.8948
  0
LINE
  8
0
 10
-26.6154
 20
-45.8948
 11
-26.6453
 21
-46.0012
  0
LINE
  8
0
 10
-26.6453
 20
-46.0012
 11
-26.6784
 21
-46.1063
  0
LINE
  8
0
 10
-26.6784
 20
-46.1063
 11
-26.7147
 21
-46.2098
  0
LINE
  8
0
 10
-26.7147
 20
-46.2098
 11
-26.7542
 21
-46.3119
  0
LINE
  8
0
 10
-26.7542
 20
-46.3119
 11
-26.7967
 21
-46.4124
  0
LINE
  8
0
 10
-26.7967
 20
-46.4124
 11
-26.8422
 21
-46.5113
  0
LINE
  8
0
 10
-26.8422
 20
-46.5113
 11
-26.8907
 21
-46.6084
  0
LINE
  8
0
 10
-26.8907
 20
-46.6084
 11
-26.942
 21
-46.7039
  0
LINE
  8
0
 10
-26.942
 20
-46.7039
 11
-26.9962
 21
-46.7975
  0
LINE
  8
0
 10
-26.9962
 20
-46.7975
 11
-27.0532
 21
-46.8893
  0
LINE
  8
0
 10
-27.0532
 20
-46.8893
 11
-27.1129
 21
-46.9792
  0
LINE
  8
0
 10
-27.1129
 20
-46.9792
 11
-27.1753
 21
-47.067
  0
LINE
  8
0
 10
-27.1753
 20
-47.067
 11
-27.2403
 21
-47.1529
  0
LINE
  8
0
 10
-27.2403
 20
-47.1529
 11
-27.3078
 21
-47.2367
  0
LINE
  8
0
 10
-27.3078
 20
-47.2367
 11
-27.3778
 21
-47.3183
  0
LINE
  8
0
 10
-27.3778
 20
-47.3183
 11
-27.4503
 21
-47.3977
  0
LINE
  8
0
 10
-27.4503
 20
-47.3977
 11
-27.5251
 21
-47.4749
  0
LINE
  8
0
 10
-27.5251
 20
-47.4749
 11
-27.6023
 21
-47.5497
  0
LINE
  8
0
 10
-27.6023
 20
-47.5497
 11
-27.6817
 21
-47.6222
  0
LINE
  8
0
 10
-27.6817
 20
-47.6222
 11
-27.7633
 21
-47.6922
  0
LINE
  8
0
 10
-27.7633
 20
-47.6922
 11
-27.8471
 21
-47.7597
  0
LINE
  8
0
 10
-27.8471
 20
-47.7597
 11
-27.9329
 21
-47.8247
  0
LINE
  8
0
 10
-27.9329
 20
-47.8247
 11
-28.0208
 21
-47.8871
  0
LINE
  8
0
 10
-28.0208
 20
-47.8871
 11
-28.1107
 21
-47.9468
  0
LINE
  8
0
 10
-28.1107
 20
-47.9468
 11
-28.2025
 21
-48.0038
  0
LINE
  8
0
 10
-28.2025
 20
-48.0038
 11
-28.2961
 21
-48.058
  0
LINE
  8
0
 10
-28.2961
 20
-48.058
 11
-28.3915
 21
-48.1093
  0
LINE
  8
0
 10
-28.3915
 20
-48.1093
 11
-28.4887
 21
-48.1578
  0
LINE
  8
0
 10
-28.4887
 20
-48.1578
 11
-28.5876
 21
-48.2033
  0
LINE
  8
0
 10
-28.5876
 20
-48.2033
 11
-28.6881
 21
-48.2458
  0
LINE
  8
0
 10
-28.6881
 20
-48.2458
 11
-28.7901
 21
-48.2853
  0
LINE
  8
0
 10
-28.7901
 20
-48.2853
 11
-28.8937
 21
-48.3216
  0
LINE
  8
0
 10
-28.8937
 20
-48.3216
 11
-28.9987
 21
-48.3547
  0
LINE
  8
0
 10
-28.9987
 20
-48.3547
 11
-29.1052
 21
-48.3846
  0
LINE
  8
0
 10
-29.1052
 20
-48.3846
 11
-29.213
 21
-48.4111
  0
LINE
  8
0
 10
-29.213
 20
-48.4111
 11
-29.322
 21
-48.4344
  0
LINE
  8
0
 10
-29.322
 20
-48.4344
 11
-29.4323
 21
-48.4542
  0
LINE
  8
0
 10
-29.4323
 20
-48.4542
 11
-29.5437
 21
-48.4705
  0
LINE
  8
0
 10
-29.5437
 20
-48.4705
 11
-29.6563
 21
-48.4833
  0
LINE
  8
0
 10
-29.6563
 20
-48.4833
 11
-29.7699
 21
-48.4926
  0
LINE
  8
0
 10
-29.7699
 20
-48.4926
 11
-29.8845
 21
-48.4981
  0
LINE
  8
0
 10
-29.8845
 20
-48.4981
 11
-30
 21
-48.5
  0
LINE
  8
0
 10
-30
 20
-48.5
 11
-30.1155
 21
-48.4981
  0
LINE
  8
0
 10
-92.465
 20
-59.7973
 11
-92.6288
 21
-59.7894
  0
LINE
  8
0
 10
-92.6288
 20
-59.7894
 11
-92.791
 21
-59.7762
  0
LINE
  8
0
 10
-92.791
 20
-59.7762
 11
-92.9518
 21
-59.7579
  0
LINE
  8
0
 10
-92.9518
 20
-59.7579
 11
-93.111
 21
-59.7346
  0
LINE
  8
0
 10
-93.111
 20
-59.7346
 11
-93.2686
 21
-59.7063
  0
LINE
  8
0
 10
-93.2686
 20
-59.7063
 11
-93.4243
 21
-59.6731
  0
LINE
  8
0
 10
-93.4243
 20
-59.6731
 11
-93.5783
 21
-59.6351
  0
LINE
  8
0
 10
-93.5783
 20
-59.6351
 11
-93.7303
 21
-59.5924
  0
LINE
  8
0
 10
-93.7303
 20
-59.5924
 11
-93.8804
 21
-59.5451
  0
LINE
  8
0
 10
-93.8804
 20
-59.5451
 11
-94.0284
 21
-59.4932
  0
LINE
  8
0
 10
-94.0284
 20
-59.4932
 11
-94.1742
 21
-59.4369
  0
LINE
  8
0
 10
-94.1742
 20
-59.4369
 11
-94.3177
 21
-59.3762
  0
LINE
  8
0
 10
-94.3177
 20
-59.3762
 11
-94.459
 21
-59.3112
  0
LINE
  8
0
 10
-94.459
 20
-59.3112
 11
-94.5978
 21
-59.2419
  0
LINE
  8
0
 10
-94.5978
 20
-59.2419
 11
-94.7341
 21
-59.1685
  0
LINE
  8
0
 10
-94.7341
 20
-59.1685
 11
-94.8679
 21
-59.0911
  0
LINE
  8
0
 10
-94.8679
 20
-59.0911
 11
-94.999
 21
-59.0097
  0
LINE
  8
0
 10
-94.999
 20
-59.0097
 11
-95.1274
 21
-58.9244
  0
LINE
  8
0
 10
-95.1274
 20
-58.9244
 11
-95.2529
 21
-58.8353
  0
LINE
  8
0
 10
-95.2529
 20
-58.8353
 11
-95.3756
 21
-58.7425
  0
LINE
  8
0
 10
-95.3756
 20
-58.7425
 11
-95.4953
 21
-58.646
  0
LINE
  8
0
 10
-95.4953
 20
-58.646
 11
-95.6119
 21
-58.546
  0
LINE
  8
0
 10
-95.6119
 20
-58.546
 11
-95.7253
 21
-58.4424
  0
LINE
  8
0
 10
-95.7253
 20
-58.4424
 11
-95.8355
 21
-58.3355
  0
LINE
  8
0
 10
-95.8355
 20
-58.3355
 11
-95.9425
 21
-58.2253
  0
LINE
  8
0
 10
-95.9425
 20
-58.2253
 11
-96.046
 21
-58.1119
  0
LINE
  8
0
 10
-96.046
 20
-58.1119
 11
-96.146
 21
-57.9953
  0
LINE
  8
0
 10
-96.146
 20
-57.9953
 11
-96.2425
 21
-57.8756
  0
LINE
  8
0
 10
-96.2425
 20
-57.8756
 11
-96.3353
 21
-57.7529
  0
LINE
  8
0
 10
-96.3353
 20
-57.7529
 11
-96.4244
 21
-57.6274
  0
LINE
  8
0
 10
-96.4244
 20
-57.6274
 11
-96.5097
 21
-57.499
  0
LINE
  8
0
 10
-96.5097
 20
-57.499
 11
-96.5911
 21
-57.3679
  0
LINE
  8
0
 10
-96.5911
 20
-57.3679
 11
-96.6685
 21
-57.2341
  0
LINE
  8
0
 10
-96.6685
 20
-57.2341
 11
-96.7419
 21
-57.0978
  0
LINE
  8
0
 10
-96.7419
 20
-57.0978
 11
-96.8111
 21
-56.959
  0
LINE
  8
0
 10
-96.8111
 20
-56.959
 11
-96.8762
 21
-56.8177
  0
LINE
  8
0
 10
-96.8762
 20
-56.8177
 11
-96.9369
 21
-56.6742
  0
LINE
  8
0
 10
-96.9369
 20
-56.6742
 11
-96.9932
 21
-56.5284
  0
LINE
  8
0
 10
-96.9932
 20
-56.5284
 11
-97.0451
 21
-56.3804
  0
LINE
  8
0
 10
-97.0451
 20
-56.3804
 11
-97.0924
 21
-56.2304
  0
LINE
  8
0
 10
-97.0924
 20
-56.2304
 11
-97.1351
 21
-56.0783
  0
LINE
  8
0
 10
-97.1351
 20
-56.0783
 11
-97.1731
 21
-55.9244
  0
LINE
  8
0
 10
-97.1731
 20
-55.9244
 11
-97.2063
 21
-55.7686
  0
LINE
  8
0
 10
-97.2063
 20
-55.7686
 11
-97.2346
 21
-55.611
  0
LINE
  8
0
 10
-97.2346
 20
-55.611
 11
-97.2579
 21
-55.4518
  0
LINE
  8
0
 10
-97.2579
 20
-55.4518
 11
-97.2762
 21
-55.291
  0
LINE
  8
0
 10
-97.2762
 20
-55.291
 11
-97.2894
 21
-55.1288
  0
LINE
  8
0
 10
-97.2894
 20
-55.1288
 11
-97.2973
 21
-54.9651
  0
LINE
  8
0
 10
-97.2973
 20
-54.9651
 11
-97.3
 21
-54.8
  0
LINE
  8
0
 10
-97.3
 20
-54.8
 11
-97.2973
 21
-54.6349
  0
LINE
  8
0
 10
-97.2973
 20
-54.6349
 11
-97.2894
 21
-54.4712
  0
LINE
  8
0
 10
-97.2894
 20
-54.4712
 11
-97.2762
 21
-54.3089
  0
LINE
  8
0
 10
-97.2762
 20
-54.3089
 11
-97.2579
 21
-54.1482
  0
LINE
  8
0
 10
-97.2579
 20
-54.1482
 11
-97.2345
 21
-53.989
  0
LINE
  8
0
 10
-97.2345
 20
-53.989
 11
-97.2063
 21
-53.8314
  0
LINE
  8
0
 10
-97.2063
 20
-53.8314
 11
-97.1731
 21
-53.6756
  0
LINE
  8
0
 10
-97.1731
 20
-53.6756
 11
-97.1351
 21
-53.5217
  0
LINE
  8
0
 10
-97.1351
 20
-53.5217
 11
-97.0924
 21
-53.3696
  0
LINE
  8
0
 10
-97.0924
 20
-53.3696
 11
-97.0451
 21
-53.2196
  0
LINE
  8
0
 10
-97.0451
 20
-53.2196
 11
-96.9932
 21
-53.0716
  0
LINE
  8
0
 10
-96.9932
 20
-53.0716
 11
-96.9369
 21
-52.9258
  0
LINE
  8
0
 10
-96.9369
 20
-52.9258
 11
-96.8762
 21
-52.7823
  0
LINE
  8
0
 10
-96.8762
 20
-52.7823
 11
-96.8111
 21
-52.641
  0
LINE
  8
0
 10
-96.8111
 20
-52.641
 11
-96.7419
 21
-52.5022
  0
LINE
  8
0
 10
-96.7419
 20
-52.5022
 11
-96.6685
 21
-52.3659
  0
LINE
  8
0
 10
-96.6685
 20
-52.3659
 11
-96.5911
 21
-52.2321
  0
LINE
  8
0
 10
-96.5911
 20
-52.2321
 11
-96.5097
 21
-52.101
  0
LINE
  8
0
 10
-96.5097
 20
-52.101
 11
-96.4244
 21
-51.9726
  0
LINE
  8
0
 10
-96.4244
 20
-51.9726
 11
-96.3353
 21
-51.8471
  0
LINE
  8
0
 10
-96.3353
 20
-51.8471
 11
-96.2425
 21
-51.7244
  0
LINE
  8
0
 10
-96.2425
 20
-51.7244
 11
-96.146
 21
-51.6047
  0
LINE
  8
0
 10
-96.146
 20
-51.6047
 11
-96.046
 21
-51.4881
  0
LINE
  8
0
 10
-96.046
 20
-51.4881
 11
-95.9424
 21
-51.3747
  0
LINE
  8
0
 10
-95.9424
 20
-51.3747
 11
-95.8355
 21
-51.2645
  0
LINE
  8
0
 10
-95.8355
 20
-51.2645
 11
-95.7253
 21
-51.1576
  0
LINE
  8
0
 10
-95.7253
 20
-51.1576
 11
-95.6119
 21
-51.054
  0
LINE
  8
0
 10
-95.6119
 20
-51.054
 11
-95.4953
 21
-50.954
  0
LINE
  8
0
 10
-95.4953
 20
-50.954
 11
-95.3756
 21
-50.8575
  0
LINE
  8
0
 10
-95.3756
 20
-50.8575
 11
-95.2529
 21
-50.7647
  0
LINE
  8
0
 10
-95.2529
 20
-50.7647
 11
-95.1274
 21
-50.6756
  0
LINE
  8
0
 10
-95.1274
 20
-50.6756
 11
-94.999
 21
-50.5903
  0
LINE
  8
0
 10
-94.999
 20
-50.5903
 11
-94.8679
 21
-50.5089
  0
LINE
  8
0
 10
-94.8679
 20
-50.5089
 11
-94.7341
 21
-50.4315
  0
LINE
  8
0
 10
-94.7341
 20
-50.4315
 11
-94.5978
 21
-50.3581
  0
LINE
  8
0
 10
-94.5978
 20
-50.3581
 11
-94.459
 21
-50.2888
  0
LINE
  8
0
 10
-94.459
 20
-50.2888
 11
-94.3177
 21
-50.2238
  0
LINE
  8
0
 10
-94.3177
 20
-50.2238
 11
-94.1741
 21
-50.1631
  0
LINE
  8
0
 10
-94.1741
 20
-50.1631
 11
-94.0284
 21
-50.1068
  0
LINE
  8
0
 10
-94.0284
 20
-50.1068
 11
-93.8804
 21
-50.0549
  0
LINE
  8
0
 10
-93.8804
 20
-50.0549
 11
-93.7303
 21
-50.0076
  0
LINE
  8
0
 10
-93.7303
 20
-50.0076
 11
-93.5783
 21
-49.9649
  0
LINE
  8
0
 10
-93.5783
 20
-49.9649
 11
-93.4243
 21
-49.9269
  0
LINE
  8
0
 10
-93.4243
 20
-49.9269
 11
-93.2686
 21
-49.8938
  0
LINE
  8
0
 10
-93.2686
 20
-49.8938
 11
-93.111
 21
-49.8654
  0
LINE
  8
0
 10
-93.111
 20
-49.8654
 11
-92.9518
 21
-49.8421
  0
LINE
  8
0
 10
-92.9518
 20
-49.8421
 11
-92.791
 21
-49.8238
  0
LINE
  8
0
 10
-92.791
 20
-49.8238
 11
-92.6287
 21
-49.8106
  0
LINE
  8
0
 10
-92.6287
 20
-49.8106
 11
-92.465
 21
-49.8027
  0
LINE
  8
0
 10
-92.465
 20
-49.8027
 11
-92.3
 21
-49.8
  0
LINE
  8
0
 10
-92.3
 20
-49.8
 11
-92.1349
 21
-49.8027
  0
LINE
  8
0
 10
-92.1349
 20
-49.8027
 11
-91.9713
 21
-49.8106
  0
LINE
  8
0
 10
-91.9713
 20
-49.8106
 11
-91.809
 21
-49.8238
  0
LINE
  8
0
 10
-91.809
 20
-49.8238
 11
-91.6482
 21
-49.8421
  0
LINE
  8
0
 10
-91.6482
 20
-49.8421
 11
-91.489
 21
-49.8654
  0
LINE
  8
0
 10
-91.489
 20
-49.8654
 11
-91.3314
 21
-49.8937
  0
LINE
  8
0
 10
-91.3314
 20
-49.8937
 11
-91.1757
 21
-49.9269
  0
LINE
  8
0
 10
-91.1757
 20
-49.9269
 11
-91.0217
 21
-49.9649
  0
LINE
  8
0
 10
-91.0217
 20
-49.9649
 11
-90.8697
 21
-50.0076
  0
LINE
  8
0
 10
-90.8697
 20
-50.0076
 11
-90.7196
 21
-50.0549
  0
LINE
  8
0
 10
-90.7196
 20
-50.0549
 11
-90.5716
 21
-50.1068
  0
LINE
  8
0
 10
-90.5716
 20
-50.1068
 11
-90.4258
 21
-50.1631
  0
LINE
  8
0
 10
-90.4258
 20
-50.1631
 11
-90.2823
 21
-50.2238
  0
LINE
  8
0
 10
-90.2823
 20
-50.2238
 11
-90.141
 21
-50.2888
  0
LINE
  8
0
 10
-90.141
 20
-50.2888
 11
-90.0022
 21
-50.3581
  0
LINE
  8
0
 10
-90.0022
 20
-50.3581
 11
-89.8659
 21
-50.4314
  0
LINE
  8
0
 10
-89.8659
 20
-50.4314
 11
-89.7321
 21
-50.5089
  0
LINE
  8
0
 10
-89.7321
 20
-50.5089
 11
-89.601
 21
-50.5903
  0
LINE
  8
0
 10
-89.601
 20
-50.5903
 11
-89.4726
 21
-50.6756
  0
LINE
  8
0
 10
-89.4726
 20
-50.6756
 11
-89.347
 21
-50.7647
  0
LINE
  8
0
 10
-89.347
 20
-50.7647
 11
-89.2244
 21
-50.8575
  0
LINE
  8
0
 10
-89.2244
 20
-50.8575
 11
-89.1047
 21
-50.954
  0
LINE
  8
0
 10
-89.1047
 20
-50.954
 11
-88.9881
 21
-51.054
  0
LINE
  8
0
 10
-88.9881
 20
-51.054
 11
-88.8747
 21
-51.1575
  0
LINE
  8
0
 10
-88.8747
 20
-51.1575
 11
-88.7645
 21
-51.2645
  0
LINE
  8
0
 10
-88.7645
 20
-51.2645
 11
-88.6575
 21
-51.3747
  0
LINE
  8
0
 10
-88.6575
 20
-51.3747
 11
-88.554
 21
-51.4881
  0
LINE
  8
0
 10
-88.554
 20
-51.4881
 11
-88.454
 21
-51.6047
  0
LINE
  8
0
 10
-88.454
 20
-51.6047
 11
-88.3575
 21
-51.7244
  0
LINE
  8
0
 10
-88.3575
 20
-51.7244
 11
-88.2647
 21
-51.847
  0
LINE
  8
0
 10
-88.2647
 20
-51.847
 11
-88.1756
 21
-51.9726
  0
LINE
  8
0
 10
-88.1756
 20
-51.9726
 11
-88.0903
 21
-52.101
  0
LINE
  8
0
 10
-88.0903
 20
-52.101
 11
-88.0089
 21
-52.2321
  0
LINE
  8
0
 10
-88.0089
 20
-52.2321
 11
-87.9315
 21
-52.3658
  0
LINE
  8
0
 10
-87.9315
 20
-52.3658
 11
-87.8581
 21
-52.5022
  0
LINE
  8
0
 10
-87.8581
 20
-52.5022
 11
-87.7888
 21
-52.641
  0
LINE
  8
0
 10
-87.7888
 20
-52.641
 11
-87.7238
 21
-52.7823
  0
LINE
  8
0
 10
-87.7238
 20
-52.7823
 11
-87.6631
 21
-52.9258
  0
LINE
  8
0
 10
-87.6631
 20
-52.9258
 11
-87.6068
 21
-53.0716
  0
LINE
  8
0
 10
-87.6068
 20
-53.0716
 11
-87.5549
 21
-53.2196
  0
LINE
  8
0
 10
-87.5549
 20
-53.2196
 11
-87.5076
 21
-53.3696
  0
LINE
  8
0
 10
-87.5076
 20
-53.3696
 11
-87.4649
 21
-53.5217
  0
LINE
  8
0
 10
-87.4649
 20
-53.5217
 11
-87.4269
 21
-53.6756
  0
LINE
  8
0
 10
-87.4269
 20
-53.6756
 11
-87.3937
 21
-53.8314
  0
LINE
  8
0
 10
-87.3937
 20
-53.8314
 11
-87.3654
 21
-53.9889
  0
LINE
  8
0
 10
-87.3654
 20
-53.9889
 11
-87.3421
 21
-54.1481
  0
LINE
  8
0
 10
-87.3421
 20
-54.1481
 11
-87.3238
 21
-54.3089
  0
LINE
  8
0
 10
-87.3238
 20
-54.3089
 11
-87.3106
 21
-54.4712
  0
LINE
  8
0
 10
-87.3106
 20
-54.4712
 11
-87.3027
 21
-54.6349
  0
LINE
  8
0
 10
-87.3027
 20
-54.6349
 11
-87.3
 21
-54.8
  0
LINE
  8
0
 10
-87.3
 20
-54.8
 11
-87.3027
 21
-54.965
  0
LINE
  8
0
 10
-87.3027
 20
-54.965
 11
-87.3106
 21
-55.1287
  0
LINE
  8
0
 10
-87.3106
 20
-55.1287
 11
-87.3238
 21
-55.291
  0
LINE
  8
0
 10
-87.3238
 20
-55.291
 11
-87.3421
 21
-55.4518
  0
LINE
  8
0
 10
-87.3421
 20
-55.4518
 11
-87.3654
 21
-55.611
  0
LINE
  8
0
 10
-87.3654
 20
-55.611
 11
-87.3938
 21
-55.7686
  0
LINE
  8
0
 10
-87.3938
 20
-55.7686
 11
-87.4269
 21
-55.9243
  0
LINE
  8
0
 10
-87.4269
 20
-55.9243
 11
-87.4649
 21
-56.0783
  0
LINE
  8
0
 10
-87.4649
 20
-56.0783
 11
-87.5076
 21
-56.2303
  0
LINE
  8
0
 10
-87.5076
 20
-56.2303
 11
-87.5549
 21
-56.3804
  0
LINE
  8
0
 10
-87.5549
 20
-56.3804
 11
-87.6068
 21
-56.5284
  0
LINE
  8
0
 10
-87.6068
 20
-56.5284
 11
-87.6631
 21
-56.6741
  0
LINE
  8
0
 10
-87.6631
 20
-56.6741
 11
-87.7238
 21
-56.8177
  0
LINE
  8
0
 10
-87.7238
 20
-56.8177
 11
-87.7889
 21
-56.959
  0
LINE
  8
0
 10
-87.7889
 20
-56.959
 11
-87.8581
 21
-57.0978
  0
LINE
  8
0
 10
-87.8581
 20
-57.0978
 11
-87.9315
 21
-57.2341
  0
LINE
  8
0
 10
-87.9315
 20
-57.2341
 11
-88.0089
 21
-57.3679
  0
LINE
  8
0
 10
-88.0089
 20
-57.3679
 11
-88.0903
 21
-57.499
  0
LINE
  8
0
 10
-88.0903
 20
-57.499
 11
-88.1756
 21
-57.6274
  0
LINE
  8
0
 10
-88.1756
 20
-57.6274
 11
-88.2647
 21
-57.7529
  0
LINE
  8
0
 10
-88.2647
 20
-57.7529
 11
-88.3575
 21
-57.8756
  0
LINE
  8
0
 10
-88.3575
 20
-57.8756
 11
-88.454
 21
-57.9952
  0
LINE
  8
0
 10
-88.454
 20
-57.9952
 11
-88.554
 21
-58.1118
  0
LINE
  8
0
 10
-88.554
 20
-58.1118
 11
-88.6575
 21
-58.2253
  0
LINE
  8
0
 10
-88.6575
 20
-58.2253
 11
-88.7645
 21
-58.3355
  0
LINE
  8
0
 10
-88.7645
 20
-58.3355
 11
-88.8747
 21
-58.4424
  0
LINE
  8
0
 10
-88.8747
 20
-58.4424
 11
-88.9881
 21
-58.5459
  0
LINE
  8
0
 10
-88.9881
 20
-58.5459
 11
-89.1047
 21
-58.646
  0
LINE
  8
0
 10
-89.1047
 20
-58.646
 11
-89.2244
 21
-58.7424
  0
LINE
  8
0
 10
-89.2244
 20
-58.7424
 11
-89.3471
 21
-58.8353
  0
LINE
  8
0
 10
-89.3471
 20
-58.8353
 11
-89.4726
 21
-58.9244
  0
LINE
  8
0
 10
-89.4726
 20
-58.9244
 11
-89.601
 21
-59.0097
  0
LINE
  8
0
 10
-89.601
 20
-59.0097
 11
-89.7321
 21
-59.0911
  0
LINE
  8
0
 10
-89.7321
 20
-59.0911
 11
-89.8659
 21
-59.1685
  0
LINE
  8
0
 10
-89.8659
 20
-59.1685
 11
-90.0022
 21
-59.2419
  0
LINE
  8
0
 10
-90.0022
 20
-59.2419
 11
-90.141
 21
-59.3111
  0
LINE
  8
0
 10
-90.141
 20
-59.3111
 11
-90.2823
 21
-59.3762
  0
LINE
  8
0
 10
-90.2823
 20
-59.3762
 11
-90.4258
 21
-59.4369
  0
LINE
  8
0
 10
-90.4258
 20
-59.4369
 11
-90.5717
 21
-59.4932
  0
LINE
  8
0
 10
-90.5717
 20
-59.4932
 11
-90.7196
 21
-59.5451
  0
LINE
  8
0
 10
-90.7196
 20
-59.5451
 11
-90.8697
 21
-59.5924
  0
LINE
  8
0
 10
-90.8697
 20
-59.5924
 11
-91.0217
 21
-59.6351
  0
LINE
  8
0
 10
-91.0217
 20
-59.6351
 11
-91.1757
 21
-59.6731
  0
LINE
  8
0
 10
-91.1757
 20
-59.6731
 11
-91.3315
 21
-59.7062
  0
LINE
  8
0
 10
-91.3315
 20
-59.7062
 11
-91.489
 21
-59.7345
  0
LINE
  8
0
 10
-91.489
 20
-59.7345
 11
-91.6482
 21
-59.7579
  0
LINE
  8
0
 10
-91.6482
 20
-59.7579
 11
-91.809
 21
-59.7762
  0
LINE
  8
0
 10
-91.809
 20
-59.7762
 11
-91.9713
 21
-59.7893
  0
LINE
  8
0
 10
-91.9713
 20
-59.7893
 11
-92.135
 21
-59.7973
  0
LINE
  8
0
 10
-92.135
 20
-59.7973
 11
-92.3
 21
-59.8
  0
LINE
  8
0
 10
-92.3
 20
-59.8
 11
-92.465
 21
-59.7973
  0
LINE
  8
0
 10
92.1349
 20
-59.7973
 11
91.9713
 21
-59.7894
  0
LINE
  8
0
 10
91.9713
 20
-59.7894
 11
91.809
 21
-59.7762
  0
LINE
  8
0
 10
91.809
 20
-59.7762
 11
91.6482
 21
-59.7579
  0
LINE
  8
0
 10
91.6482
 20
-59.7579
 11
91.489
 21
-59.7346
  0
LINE
  8
0
 10
91.489
 20
-59.7346
 11
91.3314
 21
-59.7063
  0
LINE
  8
0
 10
91.3314
 20
-59.7063
 11
91.1757
 21
-59.6731
  0
LINE
  8
0
 10
91.1757
 20
-59.6731
 11
91.0217
 21
-59.6351
  0
LINE
  8
0
 10
91.0217
 20
-59.6351
 11
90.8697
 21
-59.5924
  0
LINE
  8
0
 10
90.8697
 20
-59.5924
 11
90.7196
 21
-59.5451
  0
LINE
  8
0
 10
90.7196
 20
-59.5451
 11
90.5716
 21
-59.4932
  0
LINE
  8
0
 10
90.5716
 20
-59.4932
 11
90.4258
 21
-59.4369
  0
LINE
  8
0
 10
90.4258
 20
-59.4369
 11
90.2823
 21
-59.3762
  0
LINE
  8
0
 10
90.2823
 20
-59.3762
 11
90.141
 21
-59.3112
  0
LINE
  8
0
 10
90.141
 20
-59.3112
 11
90.0022
 21
-59.2419
  0
LINE
  8
0
 10
90.0022
 20
-59.2419
 11
89.8659
 21
-59.1685
  0
LINE
  8
0
 10
89.8659
 20
-59.1685
 11
89.7321
 21
-59.0911
  0
LINE
  8
0
 10
89.7321
 20
-59.0911
 11
89.601
 21
-59.0097
  0
LINE
  8
0
 10
89.601
 20
-59.0097
 11
89.4726
 21
-58.9244
  0
LINE
  8
0
 10
89.4726
 20
-58.9244
 11
89.347
 21
-58.8353
  0
LINE
  8
0
 10
89.347
 20
-58.8353
 11
89.2244
 21
-58.7425
  0
LINE
  8
0
 10
89.2244
 20
-58.7425
 11
89.1047
 21
-58.646
  0
LINE
  8
0
 10
89.1047
 20
-58.646
 11
88.9881
 21
-58.546
  0
LINE
  8
0
 10
88.9881
 20
-58.546
 11
88.8747
 21
-58.4424
  0
LINE
  8
0
 10
88.8747
 20
-58.4424
 11
88.7645
 21
-58.3355
  0
LINE
  8
0
 10
88.7645
 20
-58.3355
 11
88.6575
 21
-58.2253
  0
LINE
  8
0
 10
88.6575
 20
-58.2253
 11
88.554
 21
-58.1119
  0
LINE
  8
0
 10
88.554
 20
-58.1119
 11
88.454
 21
-57.9953
  0
LINE
  8
0
 10
88.454
 20
-57.9953
 11
88.3575
 21
-57.8756
  0
LINE
  8
0
 10
88.3575
 20
-57.8756
 11
88.2647
 21
-57.7529
  0
LINE
  8
0
 10
88.2647
 20
-57.7529
 11
88.1756
 21
-57.6274
  0
LINE
  8
0
 10
88.1756
 20
-57.6274
 11
88.0903
 21
-57.499
  0
LINE
  8
0
 10
88.0903
 20
-57.499
 11
88.0089
 21
-57.3679
  0
LINE
  8
0
 10
88.0089
 20
-57.3679
 11
87.9315
 21
-57.2341
  0
LINE
  8
0
 10
87.9315
 20
-57.2341
 11
87.8581
 21
-57.0978
  0
LINE
  8
0
 10
87.8581
 20
-57.0978
 11
87.7888
 21
-56.959
  0
LINE
  8
0
 10
87.7888
 20
-56.959
 11
87.7238
 21
-56.8177
  0
LINE
  8
0
 10
87.7238
 20
-56.8177
 11
87.6631
 21
-56.6742
  0
LINE
  8
0
 10
87.6631
 20
-56.6742
 11
87.6068
 21
-56.5284
  0
LINE
  8
0
 10
87.6068
 20
-56.5284
 11
87.5549
 21
-56.3804
  0
LINE
  8
0
 10
87.5549
 20
-56.3804
 11
87.5076
 21
-56.2304
  0
LINE
  8
0
 10
87.5076
 20
-56.2304
 11
87.4649
 21
-56.0783
  0
LINE
  8
0
 10
87.4649
 20
-56.0783
 11
87.4269
 21
-55.9244
  0
LINE
  8
0
 10
87.4269
 20
-55.9244
 11
87.3937
 21
-55.7686
  0
LINE
  8
0
 10
87.3937
 20
-55.7686
 11
87.3654
 21
-55.611
  0
LINE
  8
0
 10
87.3654
 20
-55.611
 11
87.3421
 21
-55.4518
  0
LINE
  8
0
 10
87.3421
 20
-55.4518
 11
87.3238
 21
-55.291
  0
LINE
  8
0
 10
87.3238
 20
-55.291
 11
87.3106
 21
-55.1288
  0
LINE
  8
0
 10
87.3106
 20
-55.1288
 11
87.3027
 21
-54.9651
  0
LINE
  8
0
 10
87.3027
 20
-54.9651
 11
87.3
 21
-54.8
  0
LINE
  8
0
 10
87.3
 20
-54.8
 11
87.3027
 21
-54.6349
  0
LINE
  8
0
 10
87.3027
 20
-54.6349
 11
87.3106
 21
-54.4712
  0
LINE
  8
0
 10
87.3106
 20
-54.4712
 11
87.3238
 21
-54.3089
  0
LINE
  8
0
 10
87.3238
 20
-54.3089
 11
87.3421
 21
-54.1482
  0
LINE
  8
0
 10
87.3421
 20
-54.1482
 11
87.3654
 21
-53.989
  0
LINE
  8
0
 10
87.3654
 20
-53.989
 11
87.3938
 21
-53.8314
  0
LINE
  8
0
 10
87.3938
 20
-53.8314
 11
87.4269
 21
-53.6756
  0
LINE
  8
0
 10
87.4269
 20
-53.6756
 11
87.4649
 21
-53.5217
  0
LINE
  8
0
 10
87.4649
 20
-53.5217
 11
87.5076
 21
-53.3696
  0
LINE
  8
0
 10
87.5076
 20
-53.3696
 11
87.5549
 21
-53.2196
  0
LINE
  8
0
 10
87.5549
 20
-53.2196
 11
87.6068
 21
-53.0716
  0
LINE
  8
0
 10
87.6068
 20
-53.0716
 11
87.6631
 21
-52.9258
  0
LINE
  8
0
 10
87.6631
 20
-52.9258
 11
87.7238
 21
-52.7823
  0
LINE
  8
0
 10
87.7238
 20
-52.7823
 11
87.7889
 21
-52.641
  0
LINE
  8
0
 10
87.7889
 20
-52.641
 11
87.8581
 21
-52.5022
  0
LINE
  8
0
 10
87.8581
 20
-52.5022
 11
87.9315
 21
-52.3659
  0
LINE
  8
0
 10
87.9315
 20
-52.3659
 11
88.0089
 21
-52.2321
  0
LINE
  8
0
 10
88.0089
 20
-52.2321
 11
88.0903
 21
-52.101
  0
LINE
  8
0
 10
88.0903
 20
-52.101
 11
88.1756
 21
-51.9726
  0
LINE
  8
0
 10
88.1756
 20
-51.9726
 11
88.2647
 21
-51.8471
  0
LINE
  8
0
 10
88.2647
 20
-51.8471
 11
88.3575
 21
-51.7244
  0
LINE
  8
0
 10
88.3575
 20
-51.7244
 11
88.454
 21
-51.6047
  0
LINE
  8
0
 10
88.454
 20
-51.6047
 11
88.554
 21
-51.4881
  0
LINE
  8
0
 10
88.554
 20
-51.4881
 11
88.6575
 21
-51.3747
  0
LINE
  8
0
 10
88.6575
 20
-51.3747
 11
88.7645
 21
-51.2645
  0
LINE
  8
0
 10
88.7645
 20
-51.2645
 11
88.8747
 21
-51.1576
  0
LINE
  8
0
 10
88.8747
 20
-51.1576
 11
88.9881
 21
-51.054
  0
LINE
  8
0
 10
88.9881
 20
-51.054
 11
89.1047
 21
-50.954
  0
LINE
  8
0
 10
89.1047
 20
-50.954
 11
89.2244
 21
-50.8575
  0
LINE
  8
0
 10
89.2244
 20
-50.8575
 11
89.3471
 21
-50.7647
  0
LINE
  8
0
 10
89.3471
 20
-50.7647
 11
89.4726
 21
-50.6756
  0
LINE
  8
0
 10
89.4726
 20
-50.6756
 11
89.601
 21
-50.5903
  0
LINE
  8
0
 10
89.601
 20
-50.5903
 11
89.7321
 21
-50.5089
  0
LINE
  8
0
 10
89.7321
 20
-50.5089
 11
89.8659
 21
-50.4315
  0
LINE
  8
0
 10
89.8659
 20
-50.4315
 11
90.0022
 21
-50.3581
  0
LINE
  8
0
 10
90.0022
 20
-50.3581
 11
90.141
 21
-50.2888
  0
LINE
  8
0
 10
90.141
 20
-50.2888
 11
90.2823
 21
-50.2238
  0
LINE
  8
0
 10
90.2823
 20
-50.2238
 11
90.4258
 21
-50.1631
  0
LINE
  8
0
 10
90.4258
 20
-50.1631
 11
90.5717
 21
-50.1068
  0
LINE
  8
0
 10
90.5717
 20
-50.1068
 11
90.7196
 21
-50.0549
  0
LINE
  8
0
 10
90.7196
 20
-50.0549
 11
90.8697
 21
-50.0076
  0
LINE
  8
0
 10
90.8697
 20
-50.0076
 11
91.0217
 21
-49.9649
  0
LINE
  8
0
 10
91.0217
 20
-49.9649
 11
91.1757
 21
-49.9269
  0
LINE
  8
0
 10
91.1757
 20
-49.9269
 11
91.3315
 21
-49.8938
  0
LINE
  8
0
 10
91.3315
 20
-49.8938
 11
91.489
 21
-49.8654
  0
LINE
  8
0
 10
91.489
 20
-49.8654
 11
91.6482
 21
-49.8421
  0
LINE
  8
0
 10
91.6482
 20
-49.8421
 11
91.809
 21
-49.8238
  0
LINE
  8
0
 10
91.809
 20
-49.8238
 11
91.9713
 21
-49.8106
  0
LINE
  8
0
 10
91.9713
 20
-49.8106
 11
92.135
 21
-49.8027
  0
LINE
  8
0
 10
92.135
 20
-49.8027
 11
92.3
 21
-49.8
  0
LINE
  8
0
 10
92.3
 20
-49.8
 11
92.465
 21
-49.8027
  0
LINE
  8
0
 10
92.465
 20
-49.8027
 11
92.6288
 21
-49.8106
  0
LINE
  8
0
 10
92.6288
 20
-49.8106
 11
92.791
 21
-49.8238
  0
LINE
  8
0
 10
92.791
 20
-49.8238
 11
92.9518
 21
-49.8421
  0
LINE
  8
0
 10
92.9518
 20
-49.8421
 11
93.111
 21
-49.8654
  0
LINE
  8
0
 10
93.111
 20
-49.8654
 11
93.2686
 21
-49.8937
  0
LINE
  8
0
 10
93.2686
 20
-49.8937
 11
93.4243
 21
-49.9269
  0
LINE
  8
0
 10
93.4243
 20
-49.9269
 11
93.5783
 21
-49.9649
  0
LINE
  8
0
 10
93.5783
 20
-49.9649
 11
93.7303
 21
-50.0076
  0
LINE
  8
0
 10
93.7303
 20
-50.0076
 11
93.8804
 21
-50.0549
  0
LINE
  8
0
 10
93.8804
 20
-50.0549
 11
94.0284
 21
-50.1068
  0
LINE
  8
0
 10
94.0284
 20
-50.1068
 11
94.1742
 21
-50.1631
  0
LINE
  8
0
 10
94.1742
 20
-50.1631
 11
94.3177
 21
-50.2238
  0
LINE
  8
0
 10
94.3177
 20
-50.2238
 11
94.459
 21
-50.2888
  0
LINE
  8
0
 10
94.459
 20
-50.2888
 11
94.5978
 21
-50.3581
  0
LINE
  8
0
 10
94.5978
 20
-50.3581
 11
94.7341
 21
-50.4314
  0
LINE
  8
0
 10
94.7341
 20
-50.4314
 11
94.8679
 21
-50.5089
  0
LINE
  8
0
 10
94.8679
 20
-50.5089
 11
94.999
 21
-50.5903
  0
LINE
  8
0
 10
94.999
 20
-50.5903
 11
95.1274
 21
-50.6756
  0
LINE
  8
0
 10
95.1274
 20
-50.6756
 11
95.2529
 21
-50.7647
  0
LINE
  8
0
 10
95.2529
 20
-50.7647
 11
95.3756
 21
-50.8575
  0
LINE
  8
0
 10
95.3756
 20
-50.8575
 11
95.4953
 21
-50.954
  0
LINE
  8
0
 10
95.4953
 20
-50.954
 11
95.6119
 21
-51.054
  0
LINE
  8
0
 10
95.6119
 20
-51.054
 11
95.7253
 21
-51.1575
  0
LINE
  8
0
 10
95.7253
 20
-51.1575
 11
95.8355
 21
-51.2645
  0
LINE
  8
0
 10
95.8355
 20
-51.2645
 11
95.9425
 21
-51.3747
  0
LINE
  8
0
 10
95.9425
 20
-51.3747
 11
96.046
 21
-51.4881
  0
LINE
  8
0
 10
96.046
 20
-51.4881
 11
96.146
 21
-51.6047
  0
LINE
  8
0
 10
96.146
 20
-51.6047
 11
96.2425
 21
-51.7244
  0
LINE
  8
0
 10
96.2425
 20
-51.7244
 11
96.3353
 21
-51.847
  0
LINE
  8
0
 10
96.3353
 20
-51.847
 11
96.4244
 21
-51.9726
  0
LINE
  8
0
 10
96.4244
 20
-51.9726
 11
96.5097
 21
-52.101
  0
LINE
  8
0
 10
96.5097
 20
-52.101
 11
96.5911
 21
-52.2321
  0
LINE
  8
0
 10
96.5911
 20
-52.2321
 11
96.6685
 21
-52.3658
  0
LINE
  8
0
 10
96.6685
 20
-52.3658
 11
96.7419
 21
-52.5022
  0
LINE
  8
0
 10
96.7419
 20
-52.5022
 11
96.8111
 21
-52.641
  0
LINE
  8
0
 10
96.8111
 20
-52.641
 11
96.8762
 21
-52.7823
  0
LINE
  8
0
 10
96.8762
 20
-52.7823
 11
96.9369
 21
-52.9258
  0
LINE
  8
0
 10
96.9369
 20
-52.9258
 11
96.9932
 21
-53.0716
  0
LINE
  8
0
 10
96.9932
 20
-53.0716
 11
97.0451
 21
-53.2196
  0
LINE
  8
0
 10
97.0451
 20
-53.2196
 11
97.0924
 21
-53.3696
  0
LINE
  8
0
 10
97.0924
 20
-53.3696
 11
97.1351
 21
-53.5217
  0
LINE
  8
0
 10
97.1351
 20
-53.5217
 11
97.1731
 21
-53.6756
  0
LINE
  8
0
 10
97.1731
 20
-53.6756
 11
97.2063
 21
-53.8314
  0
LINE
  8
0
 10
97.2063
 20
-53.8314
 11
97.2346
 21
-53.9889
  0
LINE
  8
0
 10
97.2346
 20
-53.9889
 11
97.2579
 21
-54.1481
  0
LINE
  8
0
 10
97.2579
 20
-54.1481
 11
97.2762
 21
-54.3089
  0
LINE
  8
0
 10
97.2762
 20
-54.3089
 11
97.2894
 21
-54.4712
  0
LINE
  8
0
 10
97.2894
 20
-54.4712
 11
97.2973
 21
-54.6349
  0
LINE
  8
0
 10
97.2973
 20
-54.6349
 11
97.3
 21
-54.8
  0
LINE
  8
0
 10
97.3
 20
-54.8
 11
97.2973
 21
-54.965
  0
LINE
  8
0
 10
97.2973
 20
-54.965
 11
97.2894
 21
-55.1287
  0
LINE
  8
0
 10
97.2894
 20
-55.1287
 11
97.2762
 21
-55.291
  0
LINE
  8
0
 10
97.2762
 20
-55.291
 11
97.2579
 21
-55.4518
  0
LINE
  8
0
 10
97.2579
 20
-55.4518
 11
97.2345
 21
-55.611
  0
LINE
  8
0
 10
97.2345
 20
-55.611
 11
97.2063
 21
-55.7686
  0
LINE
  8
0
 10
97.2063
 20
-55.7686
 11
97.1731
 21
-55.9243
  0
LINE
  8
0
 10
97.1731
 20
-55.9243
 11
97.1351
 21
-56.0783
  0
LINE
  8
0
 10
97.1351
 20
-56.0783
 11
97.0924
 21
-56.2303
  0
LINE
  8
0
 10
97.0924
 20
-56.2303
 11
97.0451
 21
-56.3804
  0
LINE
  8
0
 10
97.0451
 20
-56.3804
 11
96.9932
 21
-56.5284
  0
LINE
  8
0
 10
96.9932
 20
-56.5284
 11
96.9369
 21
-56.6741
  0
LINE
  8
0
 10
96.9369
 20
-56.6741
 11
96.8762
 21
-56.8177
  0
LINE
  8
0
 10
96.8762
 20
-56.8177
 11
96.8111
 21
-56.959
  0
LINE
  8
0
 10
96.8111
 20
-56.959
 11
96.7419
 21
-57.0978
  0
LINE
  8
0
 10
96.7419
 20
-57.0978
 11
96.6685
 21
-57.2341
  0
LINE
  8
0
 10
96.6685
 20
-57.2341
 11
96.5911
 21
-57.3679
  0
LINE
  8
0
 10
96.5911
 20
-57.3679
 11
96.5097
 21
-57.499
  0
LINE
  8
0
 10
96.5097
 20
-57.499
 11
96.4244
 21
-57.6274
  0
LINE
  8
0
 10
96.4244
 20
-57.6274
 11
96.3353
 21
-57.7529
  0
LINE
  8
0
 10
96.3353
 20
-57.7529
 11
96.2425
 21
-57.8756
  0
LINE
  8
0
 10
96.2425
 20
-57.8756
 11
96.146
 21
-57.9952
  0
LINE
  8
0
 10
96.146
 20
-57.9952
 11
96.046
 21
-58.1118
  0
LINE
  8
0
 10
96.046
 20
-58.1118
 11
95.9424
 21
-58.2253
  0
LINE
  8
0
 10
95.9424
 20
-58.2253
 11
95.8355
 21
-58.3355
  0
LINE
  8
0
 10
95.8355
 20
-58.3355
 11
95.7253
 21
-58.4424
  0
LINE
  8
0
 10
95.7253
 20
-58.4424
 11
95.6119
 21
-58.5459
  0
LINE
  8
0
 10
95.6119
 20
-58.5459
 11
95.4953
 21
-58.646
  0
LINE
  8
0
 10
95.4953
 20
-58.646
 11
95.3756
 21
-58.7424
  0
LINE
  8
0
 10
95.3756
 20
-58.7424
 11
95.2529
 21
-58.8353
  0
LINE
  8
0
 10
95.2529
 20
-58.8353
 11
95.1274
 21
-58.9244
  0
LINE
  8
0
 10
95.1274
 20
-58.9244
 11
94.999
 21
-59.0097
  0
LINE
  8
0
 10
94.999
 20
-59.0097
 11
94.8679
 21
-59.0911
  0
LINE
  8
0
 10
94.8679
 20
-59.0911
 11
94.7341
 21
-59.1685
  0
LINE
  8
0
 10
94.7341
 20
-59.1685
 11
94.5978
 21
-59.2419
  0
LINE
  8
0
 10
94.5978
 20
-59.2419
 11
94.459
 21
-59.3111
  0
LINE
  8
0
 10
94.459
 20
-59.3111
 11
94.3177
 21
-59.3762
  0
LINE
  8
0
 10
94.3177
 20
-59.3762
 11
94.1741
 21
-59.4369
  0
LINE
  8
0
 10
94.1741
 20
-59.4369
 11
94.0284
 21
-59.4932
  0
LINE
  8
0
 10
94.0284
 20
-59.4932
 11
93.8804
 21
-59.5451
  0
LINE
  8
0
 10
93.8804
 20
-59.5451
 11
93.7303
 21
-59.5924
  0
LINE
  8
0
 10
93.7303
 20
-59.5924
 11
93.5783
 21
-59.6351
  0
LINE
  8
0
 10
93.5783
 20
-59.6351
 11
93.4243
 21
-59.6731
  0
LINE
  8
0
 10
93.4243
 20
-59.6731
 11
93.2686
 21
-59.7062
  0
LINE
  8
0
 10
93.2686
 20
-59.7062
 11
93.111
 21
-59.7345
  0
LINE
  8
0
 10
93.111
 20
-59.7345
 11
92.9518
 21
-59.7579
  0
LINE
  8
0
 10
92.9518
 20
-59.7579
 11
92.791
 21
-59.7762
  0
LINE
  8
0
 10
92.791
 20
-59.7762
 11
92.6287
 21
-59.7893
  0
LINE
  8
0
 10
92.6287
 20
-59.7893
 11
92.465
 21
-59.7973
  0
LINE
  8
0
 10
92.465
 20
-59.7973
 11
92.3
 21
-59.8
  0
LINE
  8
0
 10
92.3
 20
-59.8
 11
92.1349
 21
-59.7973
  0
ENDSEC
  0
SECTION
  2
OBJECTS
  0
DICTIONARY
  0
ENDSEC
  0
EOF
