  0
SECTION
  2
BLOCKS
  0
ENDSEC
  0
SECTION
  2
ENTITIES
  0
LINE
  8
0
 10
-25.2557
 20
-34.556
 11
-24.8924
 21
-34.5287
  0
LINE
  8
0
 10
-24.8924
 20
-34.5287
 11
-24.5226
 21
-34.4849
  0
LINE
  8
0
 10
-24.5226
 20
-34.4849
 11
-25.8604
 21
-31.3326
  0
LINE
  8
0
 10
-25.8604
 20
-31.3326
 11
-25.9036
 21
-31.2103
  0
LINE
  8
0
 10
-25.9036
 20
-31.2103
 11
-25.9308
 21
-31.0865
  0
LINE
  8
0
 10
-25.9308
 20
-31.0865
 11
-25.9423
 21
-30.9625
  0
LINE
  8
0
 10
-25.9423
 20
-30.9625
 11
-25.9386
 21
-30.8394
  0
LINE
  8
0
 10
-25.9386
 20
-30.8394
 11
-25.9202
 21
-30.7185
  0
LINE
  8
0
 10
-25.9202
 20
-30.7185
 11
-25.8875
 21
-30.6012
  0
LINE
  8
0
 10
-25.8875
 20
-30.6012
 11
-25.841
 21
-30.4887
  0
LINE
  8
0
 10
-25.841
 20
-30.4887
 11
-25.781
 21
-30.3822
  0
LINE
  8
0
 10
-25.781
 20
-30.3822
 11
-25.708
 21
-30.283
  0
LINE
  8
0
 10
-25.708
 20
-30.283
 11
-25.6224
 21
-30.1925
  0
LINE
  8
0
 10
-25.6224
 20
-30.1925
 11
-25.5247
 21
-30.1117
  0
LINE
  8
0
 10
-25.5247
 20
-30.1117
 11
-25.4154
 21
-30.0421
  0
LINE
  8
0
 10
-25.4154
 20
-30.0421
 11
-13.283
 21
-29.289
  0
LINE
  8
0
 10
-13.283
 20
-29.289
 11
-12.9119
 21
-29.2582
  0
LINE
  8
0
 10
-12.9119
 20
-29.2582
 11
-12.5505
 21
-29.2124
  0
LINE
  8
0
 10
-12.5505
 20
-29.2124
 11
-12.1978
 21
-29.1514
  0
LINE
  8
0
 10
-12.1978
 20
-29.1514
 11
-11.8533
 21
-29.0748
  0
LINE
  8
0
 10
-11.8533
 20
-29.0748
 11
-11.516
 21
-28.9824
  0
LINE
  8
0
 10
-11.516
 20
-28.9824
 11
-11.1854
 21
-28.8739
  0
LINE
  8
0
 10
-11.1854
 20
-28.8739
 11
-10.8605
 21
-28.749
  0
LINE
  8
0
 10
-10.8605
 20
-28.749
 11
-10.5408
 21
-28.6075
  0
LINE
  8
0
 10
-10.5408
 20
-28.6075
 11
-10.2254
 21
-28.4492
  0
LINE
  8
0
 10
-10.2254
 20
-28.4492
 11
-9.9136
 21
-28.2737
  0
LINE
  8
0
 10
-9.9136
 20
-28.2737
 11
-9.60463
 21
-28.0808
  0
LINE
  8
0
 10
-9.60463
 20
-28.0808
 11
-9.29774
 21
-27.8702
  0
LINE
  8
0
 10
-9.29774
 20
-27.8702
 11
-11.9475
 21
-25.6995
  0
LINE
  8
0
 10
-11.9475
 20
-25.6995
 11
-12.0426
 21
-25.6113
  0
LINE
  8
0
 10
-12.0426
 20
-25.6113
 11
-12.1241
 21
-25.5142
  0
LINE
  8
0
 10
-12.1241
 20
-25.5142
 11
-12.192
 21
-25.4097
  0
LINE
  8
0
 10
-12.192
 20
-25.4097
 11
-12.246
 21
-25.299
  0
LINE
  8
0
 10
-12.246
 20
-25.299
 11
-12.2859
 21
-25.1834
  0
LINE
  8
0
 10
-12.2859
 20
-25.1834
 11
-12.3116
 21
-25.0643
  0
LINE
  8
0
 10
-12.3116
 20
-25.0643
 11
-12.3226
 21
-24.943
  0
LINE
  8
0
 10
-12.3226
 20
-24.943
 11
-12.319
 21
-24.8208
  0
LINE
  8
0
 10
-12.319
 20
-24.8208
 11
-12.3005
 21
-24.6991
  0
LINE
  8
0
 10
-12.3005
 20
-24.6991
 11
-12.2669
 21
-24.5791
  0
LINE
  8
0
 10
-12.2669
 20
-24.5791
 11
-12.218
 21
-24.4622
  0
LINE
  8
0
 10
-12.218
 20
-24.4622
 11
-12.1535
 21
-24.3498
  0
LINE
  8
0
 10
-12.1535
 20
-24.3498
 11
-1.76454
 21
-18.0471
  0
LINE
  8
0
 10
-1.76454
 20
-18.0471
 11
-1.45039
 21
-17.8475
  0
LINE
  8
0
 10
-1.45039
 20
-17.8475
 11
-1.15172
 21
-17.639
  0
LINE
  8
0
 10
-1.15172
 20
-17.639
 11
-0.86795
 21
-17.4211
  0
LINE
  8
0
 10
-0.86795
 20
-17.4211
 11
-0.598572
 21
-17.1932
  0
LINE
  8
0
 10
-0.598572
 20
-17.1932
 11
-0.343033
 21
-16.9547
  0
LINE
  8
0
 10
-0.343033
 20
-16.9547
 11
-0.1008
 21
-16.705
  0
LINE
  8
0
 10
-0.1008
 20
-16.705
 11
0.128662
 21
-16.4435
  0
LINE
  8
0
 10
0.128662
 20
-16.4435
 11
0.345901
 21
-16.1697
  0
LINE
  8
0
 10
0.345901
 20
-16.1697
 11
0.551453
 21
-15.8829
  0
LINE
  8
0
 10
0.551453
 20
-15.8829
 11
0.745865
 21
-15.5827
  0
LINE
  8
0
 10
0.745865
 20
-15.5827
 11
0.929672
 21
-15.2683
  0
LINE
  8
0
 10
0.929672
 20
-15.2683
 11
1.10339
 21
-14.9392
  0
LINE
  8
0
 10
1.10339
 20
-14.9392
 11
-2.25131
 21
-14.2473
  0
LINE
  8
0
 10
-2.25131
 20
-14.2473
 11
-2.37648
 21
-14.2134
  0
LINE
  8
0
 10
-2.37648
 20
-14.2134
 11
-2.49382
 21
-14.1653
  0
LINE
  8
0
 10
-2.49382
 20
-14.1653
 11
-2.60252
 21
-14.1042
  0
LINE
  8
0
 10
-2.60252
 20
-14.1042
 11
-2.7018
 21
-14.0313
  0
LINE
  8
0
 10
-2.7018
 20
-14.0313
 11
-2.79086
 21
-13.9474
  0
LINE
  8
0
 10
-2.79086
 20
-13.9474
 11
-2.8689
 21
-13.8538
  0
LINE
  8
0
 10
-2.8689
 20
-13.8538
 11
-2.93512
 21
-13.7515
  0
LINE
  8
0
 10
-2.93512
 20
-13.7515
 11
-2.98874
 21
-13.6416
  0
LINE
  8
0
 10
-2.98874
 20
-13.6416
 11
-3.02896
 21
-13.5252
  0
LINE
  8
0
 10
-3.02896
 20
-13.5252
 11
-3.05498
 21
-13.4033
  0
LINE
  8
0
 10
-3.05498
 20
-13.4033
 11
-3.06601
 21
-13.2771
  0
LINE
  8
0
 10
-3.06601
 20
-13.2771
 11
-3.06125
 21
-13.1475
  0
LINE
  8
0
 10
-3.06125
 20
-13.1475
 11
3.20435
 21
-2.7392
  0
LINE
  8
0
 10
3.20435
 20
-2.7392
 11
3.38962
 21
-2.41647
  0
LINE
  8
0
 10
3.38962
 20
-2.41647
 11
3.55707
 21
-2.09309
  0
LINE
  8
0
 10
3.55707
 20
-2.09309
 11
3.70694
 21
-1.76828
  0
LINE
  8
0
 10
3.70694
 20
-1.76828
 11
3.83943
 21
-1.44128
  0
LINE
  8
0
 10
3.83943
 20
-1.44128
 11
3.95473
 21
-1.11131
  0
LINE
  8
0
 10
3.95473
 20
-1.11131
 11
4.05305
 21
-0.777634
  0
LINE
  8
0
 10
4.05305
 20
-0.777634
 11
4.1346
 21
-0.439438
  0
LINE
  8
0
 10
4.1346
 20
-0.439438
 11
4.19958
 21
-0.095993
  0
LINE
  8
0
 10
4.19958
 20
-0.095993
 11
4.24821
 21
0.253464
  0
LINE
  8
0
 10
4.24821
 20
0.253464
 11
4.28069
 21
0.609741
  0
LINE
  8
0
 10
4.28069
 20
0.609741
 11
4.29721
 21
0.973587
  0
LINE
  8
0
 10
4.29721
 20
0.973587
 11
4.298
 21
1.34576
  0
LINE
  8
0
 10
4.298
 20
1.34576
 11
1.00685
 21
0.400299
  0
LINE
  8
0
 10
1.00685
 20
0.400299
 11
0.880249
 21
0.372238
  0
LINE
  8
0
 10
0.880249
 20
0.372238
 11
0.754044
 21
0.360306
  0
LINE
  8
0
 10
0.754044
 20
0.360306
 11
0.629425
 21
0.363892
  0
LINE
  8
0
 10
0.629425
 20
0.363892
 11
0.507614
 21
0.382431
  0
LINE
  8
0
 10
0.507614
 20
0.382431
 11
0.389801
 21
0.415314
  0
LINE
  8
0
 10
0.389801
 20
0.415314
 11
0.277206
 21
0.461975
  0
LINE
  8
0
 10
0.277206
 20
0.461975
 11
0.171036
 21
0.52182
  0
LINE
  8
0
 10
0.171036
 20
0.52182
 11
0.0724792
 21
0.594254
  0
LINE
  8
0
 10
0.0724792
 20
0.594254
 11
-0.0172424
 21
0.678696
  0
LINE
  8
0
 10
-0.0172424
 20
0.678696
 11
-0.0969391
 21
0.774567
  0
LINE
  8
0
 10
-0.0969391
 20
0.774567
 11
-0.16539
 21
0.881271
  0
LINE
  8
0
 10
-0.16539
 20
0.881271
 11
-0.221405
 21
0.998215
  0
LINE
  8
0
 10
-0.221405
 20
0.998215
 11
0.485443
 21
13.1278
  0
LINE
  8
0
 10
0.485443
 20
13.1278
 11
0.49939
 21
13.4997
  0
LINE
  8
0
 10
0.49939
 20
13.4997
 11
0.497269
 21
13.8639
  0
LINE
  8
0
 10
0.497269
 20
13.8639
 11
0.478912
 21
14.2212
  0
LINE
  8
0
 10
0.478912
 20
14.2212
 11
0.444153
 21
14.5724
  0
LINE
  8
0
 10
0.444153
 20
14.5724
 11
0.392792
 21
14.9182
  0
LINE
  8
0
 10
0.392792
 20
14.9182
 11
0.324677
 21
15.2594
  0
LINE
  8
0
 10
0.324677
 20
15.2594
 11
0.239624
 21
15.5969
  0
LINE
  8
0
 10
0.239624
 20
15.5969
 11
0.137466
 21
15.9313
  0
LINE
  8
0
 10
0.137466
 20
15.9313
 11
0.0180206
 21
16.2634
  0
LINE
  8
0
 10
0.0180206
 20
16.2634
 11
-0.118866
 21
16.5941
  0
LINE
  8
0
 10
-0.118866
 20
16.5941
 11
-0.273407
 21
16.924
  0
LINE
  8
0
 10
-0.273407
 20
16.924
 11
-0.445755
 21
17.254
  0
LINE
  8
0
 10
-0.445755
 20
17.254
 11
-2.9194
 21
14.8878
  0
LINE
  8
0
 10
-2.9194
 20
14.8878
 11
-3.0184
 21
14.8042
  0
LINE
  8
0
 10
-3.0184
 20
14.8042
 11
-3.12456
 21
14.735
  0
LINE
  8
0
 10
-3.12456
 20
14.735
 11
-3.23654
 21
14.6803
  0
LINE
  8
0
 10
-3.23654
 20
14.6803
 11
-3.35298
 21
14.6401
  0
LINE
  8
0
 10
-3.35298
 20
14.6401
 11
-3.47255
 21
14.6145
  0
LINE
  8
0
 10
-3.47255
 20
14.6145
 11
-3.59392
 21
14.6035
  0
LINE
  8
0
 10
-3.59392
 20
14.6035
 11
-3.71571
 21
14.6072
  0
LINE
  8
0
 10
-3.71571
 20
14.6072
 11
-3.83664
 21
14.6256
  0
LINE
  8
0
 10
-3.83664
 20
14.6256
 11
-3.95532
 21
14.6587
  0
LINE
  8
0
 10
-3.95532
 20
14.6587
 11
-4.07045
 21
14.7066
  0
LINE
  8
0
 10
-4.07045
 20
14.7066
 11
-4.18065
 21
14.7693
  0
LINE
  8
0
 10
-4.18065
 20
14.7693
 11
-4.28461
 21
14.8469
  0
LINE
  8
0
 10
-4.28461
 20
14.8469
 11
-9.29845
 21
25.9189
  0
LINE
  8
0
 10
-9.29845
 20
25.9189
 11
-9.45901
 21
26.2548
  0
LINE
  8
0
 10
-9.45901
 20
26.2548
 11
-9.63023
 21
26.5765
  0
LINE
  8
0
 10
-9.63023
 20
26.5765
 11
-9.81261
 21
26.8844
  0
LINE
  8
0
 10
-9.81261
 20
26.8844
 11
-10.0067
 21
27.1793
  0
LINE
  8
0
 10
-10.0067
 20
27.1793
 11
-10.2129
 21
27.4618
  0
LINE
  8
0
 10
-10.2129
 20
27.4618
 11
-10.4319
 21
27.7324
  0
LINE
  8
0
 10
-10.4319
 20
27.7324
 11
-10.664
 21
27.9918
  0
LINE
  8
0
 10
-10.664
 20
27.9918
 11
-10.9099
 21
28.2405
  0
LINE
  8
0
 10
-10.9099
 20
28.2405
 11
-11.1701
 21
28.4792
  0
LINE
  8
0
 10
-11.1701
 20
28.4792
 11
-11.445
 21
28.7085
  0
LINE
  8
0
 10
-11.445
 20
28.7085
 11
-11.7352
 21
28.929
  0
LINE
  8
0
 10
-11.7352
 20
28.929
 11
-12.0412
 21
29.1412
  0
LINE
  8
0
 10
-12.0412
 20
29.1412
 11
-13.1306
 21
25.8963
  0
LINE
  8
0
 10
-13.1306
 20
25.8963
 11
-13.1794
 21
25.7762
  0
LINE
  8
0
 10
-13.1794
 20
25.7762
 11
-13.2412
 21
25.6656
  0
LINE
  8
0
 10
-13.2412
 20
25.6656
 11
-13.3148
 21
25.5652
  0
LINE
  8
0
 10
-13.3148
 20
25.5652
 11
-13.3992
 21
25.4755
  0
LINE
  8
0
 10
-13.3992
 20
25.4755
 11
-13.4932
 21
25.3973
  0
LINE
  8
0
 10
-13.4932
 20
25.3973
 11
-13.5955
 21
25.3312
  0
LINE
  8
0
 10
-13.5955
 20
25.3312
 11
-13.705
 21
25.2779
  0
LINE
  8
0
 10
-13.705
 20
25.2779
 11
-13.8206
 21
25.238
  0
LINE
  8
0
 10
-13.8206
 20
25.238
 11
-13.9411
 21
25.2122
  0
LINE
  8
0
 10
-13.9411
 20
25.2122
 11
-14.0652
 21
25.2012
  0
LINE
  8
0
 10
-14.0652
 20
25.2012
 11
-14.1919
 21
25.2055
  0
LINE
  8
0
 10
-14.1919
 20
25.2055
 11
-14.32
 21
25.2259
  0
LINE
  8
0
 10
-14.32
 20
25.2259
 11
-23.9059
 21
32.704
  0
LINE
  8
0
 10
-23.9059
 20
32.704
 11
-24.2042
 21
32.9269
  0
LINE
  8
0
 10
-24.2042
 20
32.9269
 11
-24.5053
 21
33.1323
  0
LINE
  8
0
 10
-24.5053
 20
33.1323
 11
-24.81
 21
33.3203
  0
LINE
  8
0
 10
-24.81
 20
33.3203
 11
-25.1188
 21
33.4914
  0
LINE
  8
0
 10
-25.1188
 20
33.4914
 11
-25.4327
 21
33.6458
  0
LINE
  8
0
 10
-25.4327
 20
33.6458
 11
-25.7523
 21
33.7838
  0
LINE
  8
0
 10
-25.7523
 20
33.7838
 11
-26.0784
 21
33.9057
  0
LINE
  8
0
 10
-26.0784
 20
33.9057
 11
-26.4117
 21
34.0118
  0
LINE
  8
0
 10
-26.4117
 20
34.0118
 11
-26.753
 21
34.1024
  0
LINE
  8
0
 10
-26.753
 20
34.1024
 11
-27.103
 21
34.1777
  0
LINE
  8
0
 10
-27.103
 20
34.1777
 11
-27.4623
 21
34.2382
  0
LINE
  8
0
 10
-27.4623
 20
34.2382
 11
-27.8319
 21
34.2841
  0
LINE
  8
0
 10
-27.8319
 20
34.2841
 11
-27.2875
 21
30.9039
  0
LINE
  8
0
 10
-27.2875
 20
30.9039
 11
-27.2749
 21
30.7749
  0
LINE
  8
0
 10
-27.2749
 20
30.7749
 11
-27.2781
 21
30.6482
  0
LINE
  8
0
 10
-27.2781
 20
30.6482
 11
-27.2966
 21
30.525
  0
LINE
  8
0
 10
-27.2966
 20
30.525
 11
-27.3297
 21
30.4064
  0
LINE
  8
0
 10
-27.3297
 20
30.4064
 11
-27.3764
 21
30.2935
  0
LINE
  8
0
 10
-27.3764
 20
30.2935
 11
-27.4363
 21
30.1874
  0
LINE
  8
0
 10
-27.4363
 20
30.1874
 11
-27.5085
 21
30.0893
  0
LINE
  8
0
 10
-27.5085
 20
30.0893
 11
-27.5922
 21
30.0003
  0
LINE
  8
0
 10
-27.5922
 20
30.0003
 11
-27.6868
 21
29.9215
  0
LINE
  8
0
 10
-27.6868
 20
29.9215
 11
-27.7916
 21
29.854
  0
LINE
  8
0
 10
-27.7916
 20
29.854
 11
-27.9058
 21
29.799
  0
LINE
  8
0
 10
-27.9058
 20
29.799
 11
-28.0287
 21
29.7576
  0
LINE
  8
0
 10
-28.0287
 20
29.7576
 11
-39.9906
 21
31.9285
  0
LINE
  8
0
 10
-39.9906
 20
31.9285
 11
-40.3583
 21
31.9874
  0
LINE
  8
0
 10
-40.3583
 20
31.9874
 11
-40.7203
 21
32.0295
  0
LINE
  8
0
 10
-40.7203
 20
32.0295
 11
-41.0774
 21
32.0545
  0
LINE
  8
0
 10
-41.0774
 20
32.0545
 11
-41.4304
 21
32.0626
  0
LINE
  8
0
 10
-41.4304
 20
32.0626
 11
-41.78
 21
32.0535
  0
LINE
  8
0
 10
-41.78
 20
32.0535
 11
-42.127
 21
32.0273
  0
LINE
  8
0
 10
-42.127
 20
32.0273
 11
-42.4724
 21
31.9838
  0
LINE
  8
0
 10
-42.4724
 20
31.9838
 11
-42.8167
 21
31.9229
  0
LINE
  8
0
 10
-42.8167
 20
31.9229
 11
-43.1609
 21
31.8447
  0
LINE
  8
0
 10
-43.1609
 20
31.8447
 11
-43.5057
 21
31.7489
  0
LINE
  8
0
 10
-43.5057
 20
31.7489
 11
-43.852
 21
31.6355
  0
LINE
  8
0
 10
-43.852
 20
31.6355
 11
-44.2004
 21
31.5045
  0
LINE
  8
0
 10
-44.2004
 20
31.5045
 11
-42.147
 21
28.7634
  0
LINE
  8
0
 10
-42.147
 20
28.7634
 11
-42.0757
 21
28.655
  0
LINE
  8
0
 10
-42.0757
 20
28.655
 11
-42.0197
 21
28.5412
  0
LINE
  8
0
 10
-42.0197
 20
28.5412
 11
-41.9789
 21
28.4235
  0
LINE
  8
0
 10
-41.9789
 20
28.4235
 11
-41.9529
 21
28.3031
  0
LINE
  8
0
 10
-41.9529
 20
28.3031
 11
-41.9418
 21
28.1814
  0
LINE
  8
0
 10
-41.9418
 20
28.1814
 11
-41.9455
 21
28.0596
  0
LINE
  8
0
 10
-41.9455
 20
28.0596
 11
-41.9638
 21
27.9392
  0
LINE
  8
0
 10
-41.9638
 20
27.9392
 11
-41.9965
 21
27.8214
  0
LINE
  8
0
 10
-41.9965
 20
27.8214
 11
-42.0436
 21
27.7077
  0
LINE
  8
0
 10
-42.0436
 20
27.7077
 11
-42.105
 21
27.5993
  0
LINE
  8
0
 10
-42.105
 20
27.5993
 11
-42.1805
 21
27.4975
  0
LINE
  8
0
 10
-42.1805
 20
27.4975
 11
-42.27
 21
27.4038
  0
LINE
  8
0
 10
-42.27
 20
27.4038
 11
-53.8677
 21
23.7703
  0
LINE
  8
0
 10
-53.8677
 20
23.7703
 11
-54.2206
 21
23.6516
  0
LINE
  8
0
 10
-54.2206
 20
23.6516
 11
-54.5605
 21
23.5207
  0
LINE
  8
0
 10
-54.5605
 20
23.5207
 11
-54.8883
 21
23.377
  0
LINE
  8
0
 10
-54.8883
 20
23.377
 11
-55.2044
 21
23.2202
  0
LINE
  8
0
 10
-55.2044
 20
23.2202
 11
-55.5097
 21
23.0498
  0
LINE
  8
0
 10
-55.5097
 20
23.0498
 11
-55.8047
 21
22.8653
  0
LINE
  8
0
 10
-55.8047
 20
22.8653
 11
-56.0901
 21
22.6664
  0
LINE
  8
0
 10
-56.0901
 20
22.6664
 11
-56.3667
 21
22.4525
  0
LINE
  8
0
 10
-56.3667
 20
22.4525
 11
-56.6349
 21
22.2233
  0
LINE
  8
0
 10
-56.6349
 20
22.2233
 11
-56.8956
 21
21.9783
  0
LINE
  8
0
 10
-56.8956
 20
21.9783
 11
-57.1494
 21
21.7171
  0
LINE
  8
0
 10
-57.1494
 20
21.7171
 11
-57.3969
 21
21.4392
  0
LINE
  8
0
 10
-57.3969
 20
21.4392
 11
-54.3048
 21
19.9651
  0
LINE
  8
0
 10
-54.3048
 20
19.9651
 11
-54.1914
 21
19.9021
  0
LINE
  8
0
 10
-54.1914
 20
19.9021
 11
-54.0889
 21
19.8274
  0
LINE
  8
0
 10
-54.0889
 20
19.8274
 11
-53.998
 21
19.7421
  0
LINE
  8
0
 10
-53.998
 20
19.7421
 11
-53.9191
 21
19.6475
  0
LINE
  8
0
 10
-53.9191
 20
19.6475
 11
-53.8526
 21
19.5448
  0
LINE
  8
0
 10
-53.8526
 20
19.5448
 11
-53.7993
 21
19.4353
  0
LINE
  8
0
 10
-53.7993
 20
19.4353
 11
-53.7595
 21
19.3202
  0
LINE
  8
0
 10
-53.7595
 20
19.3202
 11
-53.7337
 21
19.2006
  0
LINE
  8
0
 10
-53.7337
 20
19.2006
 11
-53.7225
 21
19.078
  0
LINE
  8
0
 10
-53.7225
 20
19.078
 11
-53.7264
 21
18.9535
  0
LINE
  8
0
 10
-53.7264
 20
18.9535
 11
-53.746
 21
18.8283
  0
LINE
  8
0
 10
-53.746
 20
18.8283
 11
-53.7816
 21
18.7036
  0
LINE
  8
0
 10
-53.7816
 20
18.7036
 11
-62.3581
 21
10.0981
  0
LINE
  8
0
 10
-62.3581
 20
10.0981
 11
-62.6153
 21
9.82909
  0
LINE
  8
0
 10
-62.6153
 20
9.82909
 11
-62.8553
 21
9.55521
  0
LINE
  8
0
 10
-62.8553
 20
9.55521
 11
-63.0786
 21
9.27573
  0
LINE
  8
0
 10
-63.0786
 20
9.27573
 11
-63.2856
 21
8.98997
  0
LINE
  8
0
 10
-63.2856
 20
8.98997
 11
-63.4766
 21
8.69722
  0
LINE
  8
0
 10
-63.4766
 20
8.69722
 11
-63.6519
 21
8.3968
  0
LINE
  8
0
 10
-63.6519
 20
8.3968
 11
-63.8121
 21
8.088
  0
LINE
  8
0
 10
-63.8121
 20
8.088
 11
-63.9574
 21
7.77014
  0
LINE
  8
0
 10
-63.9574
 20
7.77014
 11
-64.0883
 21
7.4425
  0
LINE
  8
0
 10
-64.0883
 20
7.4425
 11
-64.2052
 21
7.10439
  0
LINE
  8
0
 10
-64.2052
 20
7.10439
 11
-64.3083
 21
6.75513
  0
LINE
  8
0
 10
-64.3083
 20
6.75513
 11
-64.3982
 21
6.39401
  0
LINE
  8
0
 10
-64.3982
 20
6.39401
 11
-60.9758
 21
6.5246
  0
LINE
  8
0
 10
-60.9758
 20
6.5246
 11
-60.8462
 21
6.52155
  0
LINE
  8
0
 10
-60.8462
 20
6.52155
 11
-60.7207
 21
6.50294
  0
LINE
  8
0
 10
-60.7207
 20
6.50294
 11
-60.6006
 21
6.46965
  0
LINE
  8
0
 10
-60.6006
 20
6.46965
 11
-60.4867
 21
6.42253
  0
LINE
  8
0
 10
-60.4867
 20
6.42253
 11
-60.3802
 21
6.36241
  0
LINE
  8
0
 10
-60.3802
 20
6.36241
 11
-60.282
 21
6.29019
  0
LINE
  8
0
 10
-60.282
 20
6.29019
 11
-60.1933
 21
6.2067
  0
LINE
  8
0
 10
-60.1933
 20
6.2067
 11
-60.1149
 21
6.11281
  0
LINE
  8
0
 10
-60.1149
 20
6.11281
 11
-60.048
 21
6.00935
  0
LINE
  8
0
 10
-60.048
 20
6.00935
 11
-59.9935
 21
5.89723
  0
LINE
  8
0
 10
-59.9935
 20
5.89723
 11
-59.9526
 21
5.77727
  0
LINE
  8
0
 10
-59.9526
 20
5.77727
 11
-59.9262
 21
5.65034
  0
LINE
  8
0
 10
-59.9262
 20
5.65034
 11
-63.5168
 21
-5.95583
  0
LINE
  8
0
 10
-63.5168
 20
-5.95583
 11
-63.6194
 21
-6.31354
  0
LINE
  8
0
 10
-63.6194
 20
-6.31354
 11
-63.7045
 21
-6.66763
  0
LINE
  8
0
 10
-63.7045
 20
-6.66763
 11
-63.7722
 21
-7.01891
  0
LINE
  8
0
 10
-63.7722
 20
-7.01891
 11
-63.8226
 21
-7.36813
  0
LINE
  8
0
 10
-63.8226
 20
-7.36813
 11
-63.8555
 21
-7.71614
  0
LINE
  8
0
 10
-63.8555
 20
-7.71614
 11
-63.871
 21
-8.06371
  0
LINE
  8
0
 10
-63.871
 20
-8.06371
 11
-63.8692
 21
-8.41162
  0
LINE
  8
0
 10
-63.8692
 20
-8.41162
 11
-63.8501
 21
-8.76068
  0
LINE
  8
0
 10
-63.8501
 20
-8.76068
 11
-63.8136
 21
-9.11169
  0
LINE
  8
0
 10
-63.8136
 20
-9.11169
 11
-63.7599
 21
-9.46545
  0
LINE
  8
0
 10
-63.7599
 20
-9.46545
 11
-63.6888
 21
-9.82272
  0
LINE
  8
0
 10
-63.6888
 20
-9.82272
 11
-63.6004
 21
-10.1843
  0
LINE
  8
0
 10
-63.6004
 20
-10.1843
 11
-60.6318
 21
-8.47894
  0
LINE
  8
0
 10
-60.6318
 20
-8.47894
 11
-60.5156
 21
-8.42142
  0
LINE
  8
0
 10
-60.5156
 20
-8.42142
 11
-60.3959
 21
-8.37964
  0
LINE
  8
0
 10
-60.3959
 20
-8.37964
 11
-60.2741
 21
-8.35332
  0
LINE
  8
0
 10
-60.2741
 20
-8.35332
 11
-60.1514
 21
-8.34218
  0
LINE
  8
0
 10
-60.1514
 20
-8.34218
 11
-60.0292
 21
-8.34593
  0
LINE
  8
0
 10
-60.0292
 20
-8.34593
 11
-59.9087
 21
-8.3643
  0
LINE
  8
0
 10
-59.9087
 20
-8.3643
 11
-59.7913
 21
-8.39702
  0
LINE
  8
0
 10
-59.7913
 20
-8.39702
 11
-59.6783
 21
-8.44379
  0
LINE
  8
0
 10
-59.6783
 20
-8.44379
 11
-59.5709
 21
-8.50432
  0
LINE
  8
0
 10
-59.5709
 20
-8.50432
 11
-59.4706
 21
-8.57835
  0
LINE
  8
0
 10
-59.4706
 20
-8.57835
 11
-59.3786
 21
-8.66559
  0
LINE
  8
0
 10
-59.3786
 20
-8.66559
 11
-59.2962
 21
-8.76576
  0
LINE
  8
0
 10
-59.2962
 20
-8.76576
 11
-57.0783
 21
-20.7138
  0
LINE
  8
0
 10
-57.0783
 20
-20.7138
 11
-57.0028
 21
-21.0783
  0
LINE
  8
0
 10
-57.0028
 20
-21.0783
 11
-56.9135
 21
-21.4314
  0
LINE
  8
0
 10
-56.9135
 20
-21.4314
 11
-56.8101
 21
-21.774
  0
LINE
  8
0
 10
-56.8101
 20
-21.774
 11
-56.6923
 21
-22.1068
  0
LINE
  8
0
 10
-56.6923
 20
-22.1068
 11
-56.5596
 21
-22.4303
  0
LINE
  8
0
 10
-56.5596
 20
-22.4303
 11
-56.4118
 21
-22.7454
  0
LINE
  8
0
 10
-56.4118
 20
-22.7454
 11
-56.2485
 21
-23.0527
  0
LINE
  8
0
 10
-56.2485
 20
-23.0527
 11
-56.0692
 21
-23.353
  0
LINE
  8
0
 10
-56.0692
 20
-23.353
 11
-55.8737
 21
-23.647
  0
LINE
  8
0
 10
-55.8737
 20
-23.647
 11
-55.6617
 21
-23.9353
  0
LINE
  8
0
 10
-55.6617
 20
-23.9353
 11
-55.4326
 21
-24.2188
  0
LINE
  8
0
 10
-55.4326
 20
-24.2188
 11
-55.1863
 21
-24.498
  0
LINE
  8
0
 10
-55.1863
 20
-24.498
 11
-53.3515
 21
-21.6085
  0
LINE
  8
0
 10
-53.3515
 20
-21.6085
 11
-53.2754
 21
-21.5036
  0
LINE
  8
0
 10
-53.2754
 20
-21.5036
 11
-53.1889
 21
-21.411
  0
LINE
  8
0
 10
-53.1889
 20
-21.411
 11
-53.0933
 21
-21.3311
  0
LINE
  8
0
 10
-53.0933
 20
-21.3311
 11
-52.9899
 21
-21.2642
  0
LINE
  8
0
 10
-52.9899
 20
-21.2642
 11
-52.8799
 21
-21.2108
  0
LINE
  8
0
 10
-52.8799
 20
-21.2108
 11
-52.7647
 21
-21.1711
  0
LINE
  8
0
 10
-52.7647
 20
-21.1711
 11
-52.6456
 21
-21.1455
  0
LINE
  8
0
 10
-52.6456
 20
-21.1455
 11
-52.5238
 21
-21.1344
  0
LINE
  8
0
 10
-52.5238
 20
-21.1344
 11
-52.4007
 21
-21.1382
  0
LINE
  8
0
 10
-52.4007
 20
-21.1382
 11
-52.2774
 21
-21.1572
  0
LINE
  8
0
 10
-52.2774
 20
-21.1572
 11
-52.1554
 21
-21.1917
  0
LINE
  8
0
 10
-52.1554
 20
-21.1917
 11
-52.0359
 21
-21.2422
  0
LINE
  8
0
 10
-52.0359
 20
-21.2422
 11
-44.5176
 21
-30.7948
  0
LINE
  8
0
 10
-44.5176
 20
-30.7948
 11
-44.2813
 21
-31.0826
  0
LINE
  8
0
 10
-44.2813
 20
-31.0826
 11
-44.0381
 21
-31.354
  0
LINE
  8
0
 10
-44.0381
 20
-31.354
 11
-43.7873
 21
-31.6094
  0
LINE
  8
0
 10
-43.7873
 20
-31.6094
 11
-43.5283
 21
-31.8494
  0
LINE
  8
0
 10
-43.5283
 20
-31.8494
 11
-43.2605
 21
-32.0743
  0
LINE
  8
0
 10
-43.2605
 20
-32.0743
 11
-42.9831
 21
-32.2847
  0
LINE
  8
0
 10
-42.9831
 20
-32.2847
 11
-42.6956
 21
-32.4811
  0
LINE
  8
0
 10
-42.6956
 20
-32.4811
 11
-42.3974
 21
-32.6638
  0
LINE
  8
0
 10
-42.3974
 20
-32.6638
 11
-42.0876
 21
-32.8334
  0
LINE
  8
0
 10
-42.0876
 20
-32.8334
 11
-41.7659
 21
-32.9903
  0
LINE
  8
0
 10
-41.7659
 20
-32.9903
 11
-41.4314
 21
-33.1349
  0
LINE
  8
0
 10
-41.4314
 20
-33.1349
 11
-41.0835
 21
-33.2679
  0
LINE
  8
0
 10
-41.0835
 20
-33.2679
 11
-40.8028
 21
-29.8562
  0
LINE
  8
0
 10
-40.8028
 20
-29.8562
 11
-40.7842
 21
-29.7279
  0
LINE
  8
0
 10
-40.7842
 20
-29.7279
 11
-40.7507
 21
-29.6057
  0
LINE
  8
0
 10
-40.7507
 20
-29.6057
 11
-40.7032
 21
-29.4905
  0
LINE
  8
0
 10
-40.7032
 20
-29.4905
 11
-40.6427
 21
-29.3833
  0
LINE
  8
0
 10
-40.6427
 20
-29.3833
 11
-40.5703
 21
-29.2849
  0
LINE
  8
0
 10
-40.5703
 20
-29.2849
 11
-40.4868
 21
-29.1962
  0
LINE
  8
0
 10
-40.4868
 20
-29.1962
 11
-40.3932
 21
-29.1182
  0
LINE
  8
0
 10
-40.3932
 20
-29.1182
 11
-40.2905
 21
-29.0518
  0
LINE
  8
0
 10
-40.2905
 20
-29.0518
 11
-40.1798
 21
-28.998
  0
LINE
  8
0
 10
-40.1798
 20
-28.998
 11
-40.0619
 21
-28.9575
  0
LINE
  8
0
 10
-40.0619
 20
-28.9575
 11
-39.9378
 21
-28.9315
  0
LINE
  8
0
 10
-39.9378
 20
-28.9315
 11
-39.8086
 21
-28.9207
  0
LINE
  8
0
 10
-39.8086
 20
-28.9207
 11
-28.7122
 21
-33.8896
  0
LINE
  8
0
 10
-28.7122
 20
-33.8896
 11
-28.3693
 21
-34.0347
  0
LINE
  8
0
 10
-28.3693
 20
-34.0347
 11
-28.0278
 21
-34.1621
  0
LINE
  8
0
 10
-28.0278
 20
-34.1621
 11
-27.6871
 21
-34.2718
  0
LINE
  8
0
 10
-27.6871
 20
-34.2718
 11
-27.3462
 21
-34.3641
  0
LINE
  8
0
 10
-27.3462
 20
-34.3641
 11
-27.0045
 21
-34.4389
  0
LINE
  8
0
 10
-27.0045
 20
-34.4389
 11
-26.6612
 21
-34.4965
  0
LINE
  8
0
 10
-26.6612
 20
-34.4965
 11
-26.3155
 21
-34.5368
  0
LINE
  8
0
 10
-26.3155
 20
-34.5368
 11
-25.9665
 21
-34.5601
  0
LINE
  8
0
 10
-25.9665
 20
-34.5601
 11
-25.6135
 21
-34.5665
  0
LINE
  8
0
 10
-25.6135
 20
-34.5665
 11
-25.2557
 21
-34.556
  0
LINE
  8
0
 10
-37.0173
 20
-14.118
 11
-37.1012
 21
-14.1059
  0
LINE
  8
0
 10
-37.1012
 20
-14.1059
 11
-37.1814
 21
-14.0832
  0
LINE
  8
0
 10
-37.1814
 20
-14.0832
 11
-37.2571
 21
-14.0506
  0
LINE
  8
0
 10
-37.2571
 20
-14.0506
 11
-37.3275
 21
-14.0088
  0
LINE
  8
0
 10
-37.3275
 20
-14.0088
 11
-37.3918
 21
-13.9586
  0
LINE
  8
0
 10
-37.3918
 20
-13.9586
 11
-37.4492
 21
-13.9006
  0
LINE
  8
0
 10
-37.4492
 20
-13.9006
 11
-37.4989
 21
-13.8356
  0
LINE
  8
0
 10
-37.4989
 20
-13.8356
 11
-37.5402
 21
-13.7643
  0
LINE
  8
0
 10
-37.5402
 20
-13.7643
 11
-37.5721
 21
-13.6873
  0
LINE
  8
0
 10
-37.5721
 20
-13.6873
 11
-37.5939
 21
-13.6055
  0
LINE
  8
0
 10
-37.5939
 20
-13.6055
 11
-37.6048
 21
-13.5195
  0
LINE
  8
0
 10
-37.6048
 20
-13.5195
 11
-37.6059
 21
-13.4615
  0
LINE
  8
0
 10
-37.6059
 20
-13.4615
 11
-37.6021
 21
-13.4048
  0
LINE
  8
0
 10
-37.6021
 20
-13.4048
 11
-37.5936
 21
-13.3497
  0
LINE
  8
0
 10
-37.5936
 20
-13.3497
 11
-37.5805
 21
-13.2963
  0
LINE
  8
0
 10
-37.5805
 20
-13.2963
 11
-37.5628
 21
-13.2447
  0
LINE
  8
0
 10
-37.5628
 20
-13.2447
 11
-37.5406
 21
-13.1951
  0
LINE
  8
0
 10
-37.5406
 20
-13.1951
 11
-37.5141
 21
-13.1477
  0
LINE
  8
0
 10
-37.5141
 20
-13.1477
 11
-37.4834
 21
-13.1027
  0
LINE
  8
0
 10
-37.4834
 20
-13.1027
 11
-37.4483
 21
-13.0602
  0
LINE
  8
0
 10
-37.4483
 20
-13.0602
 11
-37.4092
 21
-13.0204
  0
LINE
  8
0
 10
-37.4092
 20
-13.0204
 11
-37.3661
 21
-12.9836
  0
LINE
  8
0
 10
-37.3661
 20
-12.9836
 11
-37.319
 21
-12.9497
  0
LINE
  8
0
 10
-37.319
 20
-12.9497
 11
-44.7366
 21
-1.69066
  0
LINE
  8
0
 10
-44.7366
 20
-1.69066
 11
-44.8121
 21
-1.73334
  0
LINE
  8
0
 10
-44.8121
 20
-1.73334
 11
-44.8907
 21
-1.76477
  0
LINE
  8
0
 10
-44.8907
 20
-1.76477
 11
-44.9715
 21
-1.78519
  0
LINE
  8
0
 10
-44.9715
 20
-1.78519
 11
-45.0533
 21
-1.79478
  0
LINE
  8
0
 10
-45.0533
 20
-1.79478
 11
-45.1352
 21
-1.79379
  0
LINE
  8
0
 10
-45.1352
 20
-1.79379
 11
-45.216
 21
-1.78242
  0
LINE
  8
0
 10
-45.216
 20
-1.78242
 11
-45.2947
 21
-1.76089
  0
LINE
  8
0
 10
-45.2947
 20
-1.76089
 11
-45.3703
 21
-1.72942
  0
LINE
  8
0
 10
-45.3703
 20
-1.72942
 11
-45.4417
 21
-1.68822
  0
LINE
  8
0
 10
-45.4417
 20
-1.68822
 11
-45.5078
 21
-1.63751
  0
LINE
  8
0
 10
-45.5078
 20
-1.63751
 11
-45.5676
 21
-1.57751
  0
LINE
  8
0
 10
-45.5676
 20
-1.57751
 11
-45.6201
 21
-1.50844
  0
LINE
  8
0
 10
-45.6201
 20
-1.50844
 11
-45.6628
 21
-1.43297
  0
LINE
  8
0
 10
-45.6628
 20
-1.43297
 11
-45.6943
 21
-1.35434
  0
LINE
  8
0
 10
-45.6943
 20
-1.35434
 11
-45.7148
 21
-1.27361
  0
LINE
  8
0
 10
-45.7148
 20
-1.27361
 11
-45.7245
 21
-1.1918
  0
LINE
  8
0
 10
-45.7245
 20
-1.1918
 11
-45.7235
 21
-1.10999
  0
LINE
  8
0
 10
-45.7235
 20
-1.10999
 11
-45.7122
 21
-1.02922
  0
LINE
  8
0
 10
-45.7122
 20
-1.02922
 11
-45.6907
 21
-0.950562
  0
LINE
  8
0
 10
-45.6907
 20
-0.950562
 11
-45.6593
 21
-0.875031
  0
LINE
  8
0
 10
-45.6593
 20
-0.875031
 11
-45.6181
 21
-0.803711
  0
LINE
  8
0
 10
-45.6181
 20
-0.803711
 11
-45.5674
 21
-0.737656
  0
LINE
  8
0
 10
-45.5674
 20
-0.737656
 11
-45.5074
 21
-0.677887
  0
LINE
  8
0
 10
-45.5074
 20
-0.677887
 11
-45.4383
 21
-0.625473
  0
LINE
  8
0
 10
-45.4383
 20
-0.625473
 11
-45.3886
 21
-0.595642
  0
LINE
  8
0
 10
-45.3886
 20
-0.595642
 11
-45.3377
 21
-0.570618
  0
LINE
  8
0
 10
-45.3377
 20
-0.570618
 11
-45.2856
 21
-0.550446
  0
LINE
  8
0
 10
-45.2856
 20
-0.550446
 11
-45.2328
 21
-0.53511
  0
LINE
  8
0
 10
-45.2328
 20
-0.53511
 11
-45.1792
 21
-0.524643
  0
LINE
  8
0
 10
-45.1792
 20
-0.524643
 11
-45.1252
 21
-0.519028
  0
LINE
  8
0
 10
-45.1252
 20
-0.519028
 11
-45.0708
 21
-0.518311
  0
LINE
  8
0
 10
-45.0708
 20
-0.518311
 11
-45.0164
 21
-0.522491
  0
LINE
  8
0
 10
-45.0164
 20
-0.522491
 11
-44.9621
 21
-0.53157
  0
LINE
  8
0
 10
-44.9621
 20
-0.53157
 11
-44.9081
 21
-0.545563
  0
LINE
  8
0
 10
-44.9081
 20
-0.545563
 11
-44.8545
 21
-0.564484
  0
LINE
  8
0
 10
-44.8545
 20
-0.564484
 11
-44.8016
 21
-0.588333
  0
LINE
  8
0
 10
-44.8016
 20
-0.588333
 11
-38.7593
 21
11.4559
  0
LINE
  8
0
 10
-38.7593
 20
11.4559
 11
-38.834
 21
11.4999
  0
LINE
  8
0
 10
-38.834
 20
11.4999
 11
-38.9006
 21
11.5523
  0
LINE
  8
0
 10
-38.9006
 20
11.5523
 11
-38.9588
 21
11.612
  0
LINE
  8
0
 10
-38.9588
 20
11.612
 11
-39.008
 21
11.6781
  0
LINE
  8
0
 10
-39.008
 20
11.6781
 11
-39.0481
 21
11.7494
  0
LINE
  8
0
 10
-39.0481
 20
11.7494
 11
-39.0787
 21
11.825
  0
LINE
  8
0
 10
-39.0787
 20
11.825
 11
-39.0995
 21
11.9039
  0
LINE
  8
0
 10
-39.0995
 20
11.9039
 11
-39.11
 21
11.9851
  0
LINE
  8
0
 10
-39.11
 20
11.9851
 11
-39.1101
 21
12.0674
  0
LINE
  8
0
 10
-39.1101
 20
12.0674
 11
-39.0992
 21
12.15
  0
LINE
  8
0
 10
-39.0992
 20
12.15
 11
-39.0772
 21
12.2318
  0
LINE
  8
0
 10
-39.0772
 20
12.2318
 11
-39.0436
 21
12.3117
  0
LINE
  8
0
 10
-39.0436
 20
12.3117
 11
-38.9996
 21
12.3864
  0
LINE
  8
0
 10
-38.9996
 20
12.3864
 11
-38.9473
 21
12.4529
  0
LINE
  8
0
 10
-38.9473
 20
12.4529
 11
-38.8876
 21
12.511
  0
LINE
  8
0
 10
-38.8876
 20
12.511
 11
-38.8215
 21
12.5602
  0
LINE
  8
0
 10
-38.8215
 20
12.5602
 11
-38.7502
 21
12.6002
  0
LINE
  8
0
 10
-38.7502
 20
12.6002
 11
-38.6745
 21
12.6308
  0
LINE
  8
0
 10
-38.6745
 20
12.6308
 11
-38.5956
 21
12.6515
  0
LINE
  8
0
 10
-38.5956
 20
12.6515
 11
-38.5144
 21
12.662
  0
LINE
  8
0
 10
-38.5144
 20
12.662
 11
-38.432
 21
12.6619
  0
LINE
  8
0
 10
-38.432
 20
12.6619
 11
-38.3494
 21
12.6511
  0
LINE
  8
0
 10
-38.3494
 20
12.6511
 11
-38.2676
 21
12.629
  0
LINE
  8
0
 10
-38.2676
 20
12.629
 11
-38.1876
 21
12.5954
  0
LINE
  8
0
 10
-38.1876
 20
12.5954
 11
-38.1369
 21
12.5672
  0
LINE
  8
0
 10
-38.1369
 20
12.5672
 11
-38.0897
 21
12.5356
  0
LINE
  8
0
 10
-38.0897
 20
12.5356
 11
-38.0462
 21
12.5007
  0
LINE
  8
0
 10
-38.0462
 20
12.5007
 11
-38.0064
 21
12.4626
  0
LINE
  8
0
 10
-38.0064
 20
12.4626
 11
-37.9706
 21
12.4214
  0
LINE
  8
0
 10
-37.9706
 20
12.4214
 11
-37.9386
 21
12.3775
  0
LINE
  8
0
 10
-37.9386
 20
12.3775
 11
-37.9108
 21
12.3308
  0
LINE
  8
0
 10
-37.9108
 20
12.3308
 11
-37.8872
 21
12.2816
  0
LINE
  8
0
 10
-37.8872
 20
12.2816
 11
-37.8679
 21
12.2301
  0
LINE
  8
0
 10
-37.8679
 20
12.2301
 11
-37.853
 21
12.1763
  0
LINE
  8
0
 10
-37.853
 20
12.1763
 11
-37.8426
 21
12.1205
  0
LINE
  8
0
 10
-37.8426
 20
12.1205
 11
-37.8367
 21
12.0628
  0
LINE
  8
0
 10
-37.8367
 20
12.0628
 11
-24.3768
 21
12.848
  0
LINE
  8
0
 10
-24.3768
 20
12.848
 11
-24.3761
 21
12.9347
  0
LINE
  8
0
 10
-24.3761
 20
12.9347
 11
-24.364
 21
13.0185
  0
LINE
  8
0
 10
-24.364
 20
13.0185
 11
-24.3414
 21
13.0986
  0
LINE
  8
0
 10
-24.3414
 20
13.0986
 11
-24.3088
 21
13.1743
  0
LINE
  8
0
 10
-24.3088
 20
13.1743
 11
-24.2671
 21
13.2446
  0
LINE
  8
0
 10
-24.2671
 20
13.2446
 11
-24.2169
 21
13.3089
  0
LINE
  8
0
 10
-24.2169
 20
13.3089
 11
-24.1589
 21
13.3662
  0
LINE
  8
0
 10
-24.1589
 20
13.3662
 11
-24.0939
 21
13.4159
  0
LINE
  8
0
 10
-24.0939
 20
13.4159
 11
-24.0225
 21
13.4571
  0
LINE
  8
0
 10
-24.0225
 20
13.4571
 11
-23.9456
 21
13.4889
  0
LINE
  8
0
 10
-23.9456
 20
13.4889
 11
-23.8637
 21
13.5107
  0
LINE
  8
0
 10
-23.8637
 20
13.5107
 11
-23.7777
 21
13.5215
  0
LINE
  8
0
 10
-23.7777
 20
13.5215
 11
-23.6909
 21
13.5208
  0
LINE
  8
0
 10
-23.6909
 20
13.5208
 11
-23.6071
 21
13.5087
  0
LINE
  8
0
 10
-23.6071
 20
13.5087
 11
-23.5269
 21
13.486
  0
LINE
  8
0
 10
-23.5269
 20
13.486
 11
-23.4512
 21
13.4534
  0
LINE
  8
0
 10
-23.4512
 20
13.4534
 11
-23.3808
 21
13.4117
  0
LINE
  8
0
 10
-23.3808
 20
13.4117
 11
-23.3165
 21
13.3614
  0
LINE
  8
0
 10
-23.3165
 20
13.3614
 11
-23.259
 21
13.3034
  0
LINE
  8
0
 10
-23.259
 20
13.3034
 11
-23.2093
 21
13.2384
  0
LINE
  8
0
 10
-23.2093
 20
13.2384
 11
-23.1681
 21
13.1671
  0
LINE
  8
0
 10
-23.1681
 20
13.1671
 11
-23.1361
 21
13.0901
  0
LINE
  8
0
 10
-23.1361
 20
13.0901
 11
-23.1143
 21
13.0083
  0
LINE
  8
0
 10
-23.1143
 20
13.0083
 11
-23.1034
 21
12.9223
  0
LINE
  8
0
 10
-23.1034
 20
12.9223
 11
-23.1024
 21
12.8643
  0
LINE
  8
0
 10
-23.1024
 20
12.8643
 11
-23.1062
 21
12.8077
  0
LINE
  8
0
 10
-23.1062
 20
12.8077
 11
-23.1147
 21
12.7525
  0
LINE
  8
0
 10
-23.1147
 20
12.7525
 11
-23.1278
 21
12.6991
  0
LINE
  8
0
 10
-23.1278
 20
12.6991
 11
-23.1455
 21
12.6475
  0
LINE
  8
0
 10
-23.1455
 20
12.6475
 11
-23.1676
 21
12.5979
  0
LINE
  8
0
 10
-23.1676
 20
12.5979
 11
-23.1941
 21
12.5505
  0
LINE
  8
0
 10
-23.1941
 20
12.5505
 11
-23.2249
 21
12.5055
  0
LINE
  8
0
 10
-23.2249
 20
12.5055
 11
-23.2599
 21
12.463
  0
LINE
  8
0
 10
-23.2599
 20
12.463
 11
-23.299
 21
12.4233
  0
LINE
  8
0
 10
-23.299
 20
12.4233
 11
-23.3421
 21
12.3864
  0
LINE
  8
0
 10
-23.3421
 20
12.3864
 11
-23.3892
 21
12.3525
  0
LINE
  8
0
 10
-23.3892
 20
12.3525
 11
-15.9716
 21
1.09349
  0
LINE
  8
0
 10
-15.9716
 20
1.09349
 11
-15.8961
 21
1.13615
  0
LINE
  8
0
 10
-15.8961
 20
1.13615
 11
-15.8175
 21
1.1676
  0
LINE
  8
0
 10
-15.8175
 20
1.1676
 11
-15.7367
 21
1.188
  0
LINE
  8
0
 10
-15.7367
 20
1.188
 11
-15.6549
 21
1.1976
  0
LINE
  8
0
 10
-15.6549
 20
1.1976
 11
-15.573
 21
1.19661
  0
LINE
  8
0
 10
-15.573
 20
1.19661
 11
-15.4922
 21
1.18524
  0
LINE
  8
0
 10
-15.4922
 20
1.18524
 11
-15.4135
 21
1.16371
  0
LINE
  8
0
 10
-15.4135
 20
1.16371
 11
-15.338
 21
1.13223
  0
LINE
  8
0
 10
-15.338
 20
1.13223
 11
-15.2666
 21
1.09103
  0
LINE
  8
0
 10
-15.2666
 20
1.09103
 11
-15.2004
 21
1.04033
  0
LINE
  8
0
 10
-15.2004
 20
1.04033
 11
-15.1406
 21
0.980331
  0
LINE
  8
0
 10
-15.1406
 20
0.980331
 11
-15.0881
 21
0.91127
  0
LINE
  8
0
 10
-15.0881
 20
0.91127
 11
-15.0454
 21
0.8358
  0
LINE
  8
0
 10
-15.0454
 20
0.8358
 11
-15.0139
 21
0.757172
  0
LINE
  8
0
 10
-15.0139
 20
0.757172
 11
-14.9934
 21
0.676422
  0
LINE
  8
0
 10
-14.9934
 20
0.676422
 11
-14.9838
 21
0.59462
  0
LINE
  8
0
 10
-14.9838
 20
0.59462
 11
-14.9847
 21
0.512817
  0
LINE
  8
0
 10
-14.9847
 20
0.512817
 11
-14.996
 21
0.432053
  0
LINE
  8
0
 10
-14.996
 20
0.432053
 11
-15.0175
 21
0.353378
  0
LINE
  8
0
 10
-15.0175
 20
0.353378
 11
-15.049
 21
0.277863
  0
LINE
  8
0
 10
-15.049
 20
0.277863
 11
-15.0901
 21
0.206543
  0
LINE
  8
0
 10
-15.0901
 20
0.206543
 11
-15.1408
 21
0.140472
  0
LINE
  8
0
 10
-15.1408
 20
0.140472
 11
-15.2008
 21
0.0807037
  0
LINE
  8
0
 10
-15.2008
 20
0.0807037
 11
-15.2699
 21
0.0283051
  0
LINE
  8
0
 10
-15.2699
 20
0.0283051
 11
-15.3196
 21
-0.00152588
  0
LINE
  8
0
 10
-15.3196
 20
-0.00152588
 11
-15.3706
 21
-0.026535
  0
LINE
  8
0
 10
-15.3706
 20
-0.026535
 11
-15.4226
 21
-0.0467224
  0
LINE
  8
0
 10
-15.4226
 20
-0.0467224
 11
-15.4755
 21
-0.0620575
  0
LINE
  8
0
 10
-15.4755
 20
-0.0620575
 11
-15.529
 21
-0.072525
  0
LINE
  8
0
 10
-15.529
 20
-0.072525
 11
-15.5831
 21
-0.078125
  0
LINE
  8
0
 10
-15.5831
 20
-0.078125
 11
-15.6374
 21
-0.0788422
  0
LINE
  8
0
 10
-15.6374
 20
-0.0788422
 11
-15.6918
 21
-0.0746765
  0
LINE
  8
0
 10
-15.6918
 20
-0.0746765
 11
-15.7461
 21
-0.0655975
  0
LINE
  8
0
 10
-15.7461
 20
-0.0655975
 11
-15.8001
 21
-0.0516052
  0
LINE
  8
0
 10
-15.8001
 20
-0.0516052
 11
-15.8537
 21
-0.0326843
  0
LINE
  8
0
 10
-15.8537
 20
-0.0326843
 11
-15.9066
 21
-0.00881958
  0
LINE
  8
0
 10
-15.9066
 20
-0.00881958
 11
-18.5848
 21
-5.34727
  0
LINE
  8
0
 10
-18.5848
 20
-5.34727
 11
-18.4951
 21
-5.4001
  0
LINE
  8
0
 10
-18.4951
 20
-5.4001
 11
-18.4151
 21
-5.46295
  0
LINE
  8
0
 10
-18.4151
 20
-5.46295
 11
-18.3454
 21
-5.53461
  0
LINE
  8
0
 10
-18.3454
 20
-5.53461
 11
-18.2863
 21
-5.61386
  0
LINE
  8
0
 10
-18.2863
 20
-5.61386
 11
-18.2381
 21
-5.69948
  0
LINE
  8
0
 10
-18.2381
 20
-5.69948
 11
-18.2014
 21
-5.79024
  0
LINE
  8
0
 10
-18.2014
 20
-5.79024
 11
-18.1765
 21
-5.88492
  0
LINE
  8
0
 10
-18.1765
 20
-5.88492
 11
-18.1638
 21
-5.98228
  0
LINE
  8
0
 10
-18.1638
 20
-5.98228
 11
-18.1638
 21
-6.08112
  0
LINE
  8
0
 10
-18.1638
 20
-6.08112
 11
-18.1768
 21
-6.18021
  0
LINE
  8
0
 10
-18.1768
 20
-6.18021
 11
-18.2032
 21
-6.27831
  0
LINE
  8
0
 10
-18.2032
 20
-6.27831
 11
-18.2435
 21
-6.37421
  0
LINE
  8
0
 10
-18.2435
 20
-6.37421
 11
-18.2963
 21
-6.46385
  0
LINE
  8
0
 10
-18.2963
 20
-6.46385
 11
-18.3592
 21
-6.5437
  0
LINE
  8
0
 10
-18.3592
 20
-6.5437
 11
-18.4308
 21
-6.61336
  0
LINE
  8
0
 10
-18.4308
 20
-6.61336
 11
-18.5101
 21
-6.67241
  0
LINE
  8
0
 10
-18.5101
 20
-6.67241
 11
-18.5957
 21
-6.72046
  0
LINE
  8
0
 10
-18.5957
 20
-6.72046
 11
-18.6865
 21
-6.75711
  0
LINE
  8
0
 10
-18.6865
 20
-6.75711
 11
-18.7812
 21
-6.78194
  0
LINE
  8
0
 10
-18.7812
 20
-6.78194
 11
-18.8786
 21
-6.79454
  0
LINE
  8
0
 10
-18.8786
 20
-6.79454
 11
-18.9775
 21
-6.79453
  0
LINE
  8
0
 10
-18.9775
 20
-6.79453
 11
-19.0766
 21
-6.78146
  0
LINE
  8
0
 10
-19.0766
 20
-6.78146
 11
-19.1748
 21
-6.75497
  0
LINE
  8
0
 10
-19.1748
 20
-6.75497
 11
-19.2708
 21
-6.71463
  0
LINE
  8
0
 10
-19.2708
 20
-6.71463
 11
-21.9489
 21
-12.0531
  0
LINE
  8
0
 10
-21.9489
 20
-12.0531
 11
-21.8742
 21
-12.0971
  0
LINE
  8
0
 10
-21.8742
 20
-12.0971
 11
-21.8076
 21
-12.1495
  0
LINE
  8
0
 10
-21.8076
 20
-12.1495
 11
-21.7495
 21
-12.2092
  0
LINE
  8
0
 10
-21.7495
 20
-12.2092
 11
-21.7002
 21
-12.2752
  0
LINE
  8
0
 10
-21.7002
 20
-12.2752
 11
-21.6601
 21
-12.3466
  0
LINE
  8
0
 10
-21.6601
 20
-12.3466
 11
-21.6295
 21
-12.4222
  0
LINE
  8
0
 10
-21.6295
 20
-12.4222
 11
-21.6087
 21
-12.5011
  0
LINE
  8
0
 10
-21.6087
 20
-12.5011
 11
-21.5982
 21
-12.5822
  0
LINE
  8
0
 10
-21.5982
 20
-12.5822
 11
-21.5981
 21
-12.6646
  0
LINE
  8
0
 10
-21.5981
 20
-12.6646
 11
-21.609
 21
-12.7472
  0
LINE
  8
0
 10
-21.609
 20
-12.7472
 11
-21.631
 21
-12.8289
  0
LINE
  8
0
 10
-21.631
 20
-12.8289
 11
-21.6646
 21
-12.9089
  0
LINE
  8
0
 10
-21.6646
 20
-12.9089
 11
-21.7086
 21
-12.9836
  0
LINE
  8
0
 10
-21.7086
 20
-12.9836
 11
-21.7609
 21
-13.0501
  0
LINE
  8
0
 10
-21.7609
 20
-13.0501
 11
-21.8207
 21
-13.1082
  0
LINE
  8
0
 10
-21.8207
 20
-13.1082
 11
-21.8867
 21
-13.1574
  0
LINE
  8
0
 10
-21.8867
 20
-13.1574
 11
-21.9581
 21
-13.1974
  0
LINE
  8
0
 10
-21.9581
 20
-13.1974
 11
-22.0337
 21
-13.228
  0
LINE
  8
0
 10
-22.0337
 20
-13.228
 11
-22.1126
 21
-13.2486
  0
LINE
  8
0
 10
-22.1126
 20
-13.2486
 11
-22.1938
 21
-13.2591
  0
LINE
  8
0
 10
-22.1938
 20
-13.2591
 11
-22.2762
 21
-13.2591
  0
LINE
  8
0
 10
-22.2762
 20
-13.2591
 11
-22.3588
 21
-13.2482
  0
LINE
  8
0
 10
-22.3588
 20
-13.2482
 11
-22.4406
 21
-13.2262
  0
LINE
  8
0
 10
-22.4406
 20
-13.2262
 11
-22.5206
 21
-13.1926
  0
LINE
  8
0
 10
-22.5206
 20
-13.1926
 11
-22.5713
 21
-13.1644
  0
LINE
  8
0
 10
-22.5713
 20
-13.1644
 11
-22.6185
 21
-13.1328
  0
LINE
  8
0
 10
-22.6185
 20
-13.1328
 11
-22.662
 21
-13.0979
  0
LINE
  8
0
 10
-22.662
 20
-13.0979
 11
-22.7018
 21
-13.0597
  0
LINE
  8
0
 10
-22.7018
 20
-13.0597
 11
-22.7377
 21
-13.0186
  0
LINE
  8
0
 10
-22.7377
 20
-13.0186
 11
-22.7696
 21
-12.9746
  0
LINE
  8
0
 10
-22.7696
 20
-12.9746
 11
-22.7974
 21
-12.928
  0
LINE
  8
0
 10
-22.7974
 20
-12.928
 11
-22.821
 21
-12.8788
  0
LINE
  8
0
 10
-22.821
 20
-12.8788
 11
-22.8403
 21
-12.8272
  0
LINE
  8
0
 10
-22.8403
 20
-12.8272
 11
-22.8553
 21
-12.7735
  0
LINE
  8
0
 10
-22.8553
 20
-12.7735
 11
-22.8657
 21
-12.7177
  0
LINE
  8
0
 10
-22.8657
 20
-12.7177
 11
-22.8715
 21
-12.66
  0
LINE
  8
0
 10
-22.8715
 20
-12.66
 11
-36.3315
 21
-13.4452
  0
LINE
  8
0
 10
-36.3315
 20
-13.4452
 11
-36.3322
 21
-13.5319
  0
LINE
  8
0
 10
-36.3322
 20
-13.5319
 11
-36.3442
 21
-13.6157
  0
LINE
  8
0
 10
-36.3442
 20
-13.6157
 11
-36.3669
 21
-13.6958
  0
LINE
  8
0
 10
-36.3669
 20
-13.6958
 11
-36.3994
 21
-13.7715
  0
LINE
  8
0
 10
-36.3994
 20
-13.7715
 11
-36.4412
 21
-13.8418
  0
LINE
  8
0
 10
-36.4412
 20
-13.8418
 11
-36.4914
 21
-13.9061
  0
LINE
  8
0
 10
-36.4914
 20
-13.9061
 11
-36.5493
 21
-13.9634
  0
LINE
  8
0
 10
-36.5493
 20
-13.9634
 11
-36.6143
 21
-14.0131
  0
LINE
  8
0
 10
-36.6143
 20
-14.0131
 11
-36.6857
 21
-14.0543
  0
LINE
  8
0
 10
-36.6857
 20
-14.0543
 11
-36.7627
 21
-14.0861
  0
LINE
  8
0
 10
-36.7627
 20
-14.0861
 11
-36.8445
 21
-14.1079
  0
LINE
  8
0
 10
-36.8445
 20
-14.1079
 11
-36.9306
 21
-14.1187
  0
LINE
  8
0
 10
-36.9306
 20
-14.1187
 11
-37.0173
 21
-14.118
  0
ENDSEC
  0
SECTION
  2
OBJECTS
  0
DICTIONARY
  0
ENDSEC
  0
EOF
